<svg xmlns="http://www.w3.org/2000/svg" width="20" height="20" viewBox="0 0 20 20">
  <path fill="#FF3333" fill-rule="evenodd" d="M9.9997,15 C9.7407,15 9.4977,14.909 9.3157,14.746 C9.1097,14.559 8.9997,14.295 8.9997,13.983 C9.0007,12.649 11.0007,12.65 10.9997,13.983 C10.9997,14.65 10.4967,15 9.9997,15 M9.4387,5.226 C9.5787,5.076 9.7677,5 9.9997,5 C10.2127,5 10.3897,5.076 10.5267,5.226 C10.9487,5.687 10.9537,6.782 10.8127,8.773 L10.8077,8.87 C10.6937,10.928 10.5247,12.118 9.9997,12.118 C9.3867,12.118 9.2707,10.632 9.1897,8.837 L9.1817,8.673 C9.0767,6.809 9.0137,5.685 9.4387,5.226 M9.9997,0 C4.4777,0 -0.0003,4.477 -0.0003,10 C-0.0003,11.901 0.5397,13.671 1.4607,15.184 C2.2817,16.533 3.4097,17.669 4.7517,18.5 C6.2787,19.445 8.0727,20 9.9997,20 C11.9277,20 13.7217,19.445 15.2497,18.5 C16.5897,17.671 17.7157,16.537 18.5357,15.191 C19.4587,13.676 19.9997,11.903 19.9997,10 C19.9997,4.477 15.5237,0 9.9997,0"/>
</svg>
