<svg xmlns="http://www.w3.org/2000/svg" width="15" height="12" viewBox="0 0 15 12" xmlns:xlink="http://www.w3.org/1999/xlink">
  <defs>
    <path id="a" d="M14.0186117,0.203492786 L7.5,6.97652029 L0.981388286,0.203492786 C0.721939757,-0.0573955035 0.462495119,-0.067429518 0.203046589,0.173390442 C-0.0564019406,0.394142072 -0.0672121339,0.634958419 0.170615685,0.895846709 L7.07839825,7.81938593 C7.20812251,7.93979591 7.34865502,8 7.5,8 C7.65134498,8 7.79187749,7.93979591 7.92160175,7.81938593 L14.8293843,0.895846709 C15.0672121,0.634958419 15.0564019,0.394142072 14.7969534,0.173390442 C14.5375049,-0.067429518 14.2780602,-0.0573955035 14.0186117,0.203492786 L14.0186117,0.203492786 Z"/>
    <mask id="c" width="15" height="8" x="0" y="0" fill="white">
      <use xlink:href="#a"/>
    </mask>
    <path id="b" d="M14.0186117,4.20349279 L7.5,10.9765203 L0.981388286,4.20349279 C0.721939757,3.9426045 0.462495119,3.93257048 0.203046589,4.17339044 C-0.0564019406,4.39414207 -0.0672121339,4.63495842 0.170615685,4.89584671 L7.07839825,11.8193859 C7.20812251,11.9397959 7.34865502,12 7.5,12 C7.65134498,12 7.79187749,11.9397959 7.92160175,11.8193859 L14.8293843,4.89584671 C15.0672121,4.63495842 15.0564019,4.39414207 14.7969534,4.17339044 C14.5375049,3.93257048 14.2780602,3.9426045 14.0186117,4.20349279 L14.0186117,4.20349279 Z"/>
    <mask id="d" width="15" height="8" x="0" y="0" fill="white">
      <use xlink:href="#b"/>
    </mask>
  </defs>
  <g fill="#FF3333" fill-rule="evenodd" stroke="#FF3333" stroke-width="2">
    <use mask="url(#c)" transform="rotate(-180 7.5 4)" xlink:href="#a"/>
    <use mask="url(#d)" transform="rotate(-180 7.5 8)" xlink:href="#b"/>
  </g>
</svg>
