<svg xmlns="http://www.w3.org/2000/svg" width="20" height="13" viewBox="0 0 20 13">
  <g fill="none" fill-rule="evenodd">
    <rect width="9" height="7" fill="#3C3B6E"/>
    <g fill="#B22234">
      <rect width="11" height="1" x="9"/>
      <rect width="11" height="1" x="9" y="2"/>
      <rect width="11" height="1" x="9" y="4"/>
      <rect width="11" height="1" x="9" y="6"/>
      <rect width="20" height="1" y="8"/>
      <rect width="20" height="1" y="10"/>
      <rect width="20" height="1" y="12"/>
    </g>
    <g fill="#FFFFFF" transform="translate(1 1)">
      <path d="M.980180198.366115556L.627787159.366115556.518855509.0143822222C.516212689.00583111111.508606109 0 .5 0 .491393891 0 .483787311.00583111111.481144491.0143822222L.372212841.366044444.0198198018.366044444C.0112136932.366044444.00360711305.371875556.000964292311.380408889-.00167852842.389031111.00123535085.3984.00818122586.40368L.293199277.621048889.184335393.972711111C.181692572.981315556.184606451.990702222.191552326.995964444.198498201 1.00131556.207968309 1.00131556.214914184.995964444L.5.778684444.785018052.996035556C.788524871.998684444.792624632 1 .796741333 1 .800841094 1 .804940854.998684444.808379909.996035556.815325784.990755556.818239664.981315556.815596843.972782222L.706732958.621102222.991818774.403751111C.998764649.398471111 1.00167853.389031111.999035708.38048.996392887.371875556.988786307.366115556.980180198.366115556zM2.9801802.366115556L2.62778716.366115556 2.51885551.0143822222C2.51621269.00583111111 2.50860611 0 2.5 0 2.49139389 0 2.48378731.00583111111 2.48114449.0143822222L2.37221284.366044444 2.0198198.366044444C2.01121369.366044444 2.00360711.371875556 2.00096429.380408889 1.99832147.389031111 2.00123535.3984 2.00818123.40368L2.29319928.621048889 2.18433539.972711111C2.18169257.981315556 2.18460645.990702222 2.19155233.995964444 2.1984982 1.00131556 2.20796831 1.00131556 2.21491418.995964444L2.5.778684444 2.78501805.996035556C2.78852487.998684444 2.79262463 1 2.79674133 1 2.80084109 1 2.80494085.998684444 2.80837991.996035556 2.81532578.990755556 2.81823966.981315556 2.81559684.972782222L2.70673296.621102222 2.99181877.403751111C2.99876465.398471111 3.00167853.389031111 2.99903571.38048 2.99639289.371875556 2.98878631.366115556 2.9801802.366115556zM4.9801802.366115556L4.62778716.366115556 4.51885551.0143822222C4.51621269.00583111111 4.50860611 0 4.5 0 4.49139389 0 4.48378731.00583111111 4.48114449.0143822222L4.37221284.366044444 4.0198198.366044444C4.01121369.366044444 4.00360711.371875556 4.00096429.380408889 3.99832147.389031111 4.00123535.3984 4.00818123.40368L4.29319928.621048889 4.18433539.972711111C4.18169257.981315556 4.18460645.990702222 4.19155233.995964444 4.1984982 1.00131556 4.20796831 1.00131556 4.21491418.995964444L4.5.778684444 4.78501805.996035556C4.78852487.998684444 4.79262463 1 4.79674133 1 4.80084109 1 4.80494085.998684444 4.80837991.996035556 4.81532578.990755556 4.81823966.981315556 4.81559684.972782222L4.70673296.621102222 4.99181877.403751111C4.99876465.398471111 5.00167853.389031111 4.99903571.38048 4.99639289.371875556 4.98878631.366115556 4.9801802.366115556zM6.9801802.366115556L6.62778716.366115556 6.51885551.0143822222C6.51621269.00583111111 6.50860611 0 6.5 0 6.49139389 0 6.48378731.00583111111 6.48114449.0143822222L6.37221284.366044444 6.0198198.366044444C6.01121369.366044444 6.00360711.371875556 6.00096429.380408889 5.99832147.389031111 6.00123535.3984 6.00818123.40368L6.29319928.621048889 6.18433539.972711111C6.18169257.981315556 6.18460645.990702222 6.19155233.995964444 6.1984982 1.00131556 6.20796831 1.00131556 6.21491418.995964444L6.5.778684444 6.78501805.996035556C6.78852487.998684444 6.79262463 1 6.79674133 1 6.80084109 1 6.80494085.998684444 6.80837991.996035556 6.81532578.990755556 6.81823966.981315556 6.81559684.972782222L6.70673296.621102222 6.99181877.403751111C6.99876465.398471111 7.00167853.389031111 6.99903571.38048 6.99639289.371875556 6.98878631.366115556 6.9801802.366115556zM6.9801802 2.36611556L6.62778716 2.36611556 6.51885551 2.01438222C6.51621269 2.00583111 6.50860611 2 6.5 2 6.49139389 2 6.48378731 2.00583111 6.48114449 2.01438222L6.37221284 2.36604444 6.0198198 2.36604444C6.01121369 2.36604444 6.00360711 2.37187556 6.00096429 2.38040889 5.99832147 2.38903111 6.00123535 2.3984 6.00818123 2.40368L6.29319928 2.62104889 6.18433539 2.97271111C6.18169257 2.98131556 6.18460645 2.99070222 6.19155233 2.99596444 6.1984982 3.00131556 6.20796831 3.00131556 6.21491418 2.99596444L6.5 2.77868444 6.78501805 2.99603556C6.78852487 2.99868444 6.79262463 3 6.79674133 3 6.80084109 3 6.80494085 2.99868444 6.80837991 2.99603556 6.81532578 2.99075556 6.81823966 2.98131556 6.81559684 2.97278222L6.70673296 2.62110222 6.99181877 2.40375111C6.99876465 2.39847111 7.00167853 2.38903111 6.99903571 2.38048 6.99639289 2.37187556 6.98878631 2.36611556 6.9801802 2.36611556zM4.9801802 2.36611556L4.62778716 2.36611556 4.51885551 2.01438222C4.51621269 2.00583111 4.50860611 2 4.5 2 4.49139389 2 4.48378731 2.00583111 4.48114449 2.01438222L4.37221284 2.36604444 4.0198198 2.36604444C4.01121369 2.36604444 4.00360711 2.37187556 4.00096429 2.38040889 3.99832147 2.38903111 4.00123535 2.3984 4.00818123 2.40368L4.29319928 2.62104889 4.18433539 2.97271111C4.18169257 2.98131556 4.18460645 2.99070222 4.19155233 2.99596444 4.1984982 3.00131556 4.20796831 3.00131556 4.21491418 2.99596444L4.5 2.77868444 4.78501805 2.99603556C4.78852487 2.99868444 4.79262463 3 4.79674133 3 4.80084109 3 4.80494085 2.99868444 4.80837991 2.99603556 4.81532578 2.99075556 4.81823966 2.98131556 4.81559684 2.97278222L4.70673296 2.62110222 4.99181877 2.40375111C4.99876465 2.39847111 5.00167853 2.38903111 4.99903571 2.38048 4.99639289 2.37187556 4.98878631 2.36611556 4.9801802 2.36611556zM2.9801802 2.36611556L2.62778716 2.36611556 2.51885551 2.01438222C2.51621269 2.00583111 2.50860611 2 2.5 2 2.49139389 2 2.48378731 2.00583111 2.48114449 2.01438222L2.37221284 2.36604444 2.0198198 2.36604444C2.01121369 2.36604444 2.00360711 2.37187556 2.00096429 2.38040889 1.99832147 2.38903111 2.00123535 2.3984 2.00818123 2.40368L2.29319928 2.62104889 2.18433539 2.97271111C2.18169257 2.98131556 2.18460645 2.99070222 2.19155233 2.99596444 2.1984982 3.00131556 2.20796831 3.00131556 2.21491418 2.99596444L2.5 2.77868444 2.78501805 2.99603556C2.78852487 2.99868444 2.79262463 3 2.79674133 3 2.80084109 3 2.80494085 2.99868444 2.80837991 2.99603556 2.81532578 2.99075556 2.81823966 2.98131556 2.81559684 2.97278222L2.70673296 2.62110222 2.99181877 2.40375111C2.99876465 2.39847111 3.00167853 2.38903111 2.99903571 2.38048 2.99639289 2.37187556 2.98878631 2.36611556 2.9801802 2.36611556zM.980180198 2.36611556L.627787159 2.36611556.518855509 2.01438222C.516212689 2.00583111.508606109 2 .5 2 .491393891 2 .483787311 2.00583111.481144491 2.01438222L.372212841 2.36604444.0198198018 2.36604444C.0112136932 2.36604444.00360711305 2.37187556.000964292311 2.38040889-.00167852842 2.38903111.00123535085 2.3984.00818122586 2.40368L.293199277 2.62104889.184335393 2.97271111C.181692572 2.98131556.184606451 2.99070222.191552326 2.99596444.198498201 3.00131556.207968309 3.00131556.214914184 2.99596444L.5 2.77868444.785018052 2.99603556C.788524871 2.99868444.792624632 3 .796741333 3 .800841094 3 .804940854 2.99868444.808379909 2.99603556.815325784 2.99075556.818239664 2.98131556.815596843 2.97278222L.706732958 2.62110222.991818774 2.40375111C.998764649 2.39847111 1.00167853 2.38903111.999035708 2.38048.996392887 2.37187556.988786307 2.36611556.980180198 2.36611556zM.980180198 4.36611556L.627787159 4.36611556.518855509 4.01438222C.516212689 4.00583111.508606109 4 .5 4 .491393891 4 .483787311 4.00583111.481144491 4.01438222L.372212841 4.36604444.0198198018 4.36604444C.0112136932 4.36604444.00360711305 4.37187556.000964292311 4.38040889-.00167852842 4.38903111.00123535085 4.3984.00818122586 4.40368L.293199277 4.62104889.184335393 4.97271111C.181692572 4.98131556.184606451 4.99070222.191552326 4.99596444.198498201 5.00131556.207968309 5.00131556.214914184 4.99596444L.5 4.77868444.785018052 4.99603556C.788524871 4.99868444.792624632 5 .796741333 5 .800841094 5 .804940854 4.99868444.808379909 4.99603556.815325784 4.99075556.818239664 4.98131556.815596843 4.97278222L.706732958 4.62110222.991818774 4.40375111C.998764649 4.39847111 1.00167853 4.38903111.999035708 4.38048.996392887 4.37187556.988786307 4.36611556.980180198 4.36611556zM2.9801802 4.36611556L2.62778716 4.36611556 2.51885551 4.01438222C2.51621269 4.00583111 2.50860611 4 2.5 4 2.49139389 4 2.48378731 4.00583111 2.48114449 4.01438222L2.37221284 4.36604444 2.0198198 4.36604444C2.01121369 4.36604444 2.00360711 4.37187556 2.00096429 4.38040889 1.99832147 4.38903111 2.00123535 4.3984 2.00818123 4.40368L2.29319928 4.62104889 2.18433539 4.97271111C2.18169257 4.98131556 2.18460645 4.99070222 2.19155233 4.99596444 2.1984982 5.00131556 2.20796831 5.00131556 2.21491418 4.99596444L2.5 4.77868444 2.78501805 4.99603556C2.78852487 4.99868444 2.79262463 5 2.79674133 5 2.80084109 5 2.80494085 4.99868444 2.80837991 4.99603556 2.81532578 4.99075556 2.81823966 4.98131556 2.81559684 4.97278222L2.70673296 4.62110222 2.99181877 4.40375111C2.99876465 4.39847111 3.00167853 4.38903111 2.99903571 4.38048 2.99639289 4.37187556 2.98878631 4.36611556 2.9801802 4.36611556zM4.9801802 4.36611556L4.62778716 4.36611556 4.51885551 4.01438222C4.51621269 4.00583111 4.50860611 4 4.5 4 4.49139389 4 4.48378731 4.00583111 4.48114449 4.01438222L4.37221284 4.36604444 4.0198198 4.36604444C4.01121369 4.36604444 4.00360711 4.37187556 4.00096429 4.38040889 3.99832147 4.38903111 4.00123535 4.3984 4.00818123 4.40368L4.29319928 4.62104889 4.18433539 4.97271111C4.18169257 4.98131556 4.18460645 4.99070222 4.19155233 4.99596444 4.1984982 5.00131556 4.20796831 5.00131556 4.21491418 4.99596444L4.5 4.77868444 4.78501805 4.99603556C4.78852487 4.99868444 4.79262463 5 4.79674133 5 4.80084109 5 4.80494085 4.99868444 4.80837991 4.99603556 4.81532578 4.99075556 4.81823966 4.98131556 4.81559684 4.97278222L4.70673296 4.62110222 4.99181877 4.40375111C4.99876465 4.39847111 5.00167853 4.38903111 4.99903571 4.38048 4.99639289 4.37187556 4.98878631 4.36611556 4.9801802 4.36611556zM6.9801802 4.36611556L6.62778716 4.36611556 6.51885551 4.01438222C6.51621269 4.00583111 6.50860611 4 6.5 4 6.49139389 4 6.48378731 4.00583111 6.48114449 4.01438222L6.37221284 4.36604444 6.0198198 4.36604444C6.01121369 4.36604444 6.00360711 4.37187556 6.00096429 4.38040889 5.99832147 4.38903111 6.00123535 4.3984 6.00818123 4.40368L6.29319928 4.62104889 6.18433539 4.97271111C6.18169257 4.98131556 6.18460645 4.99070222 6.19155233 4.99596444 6.1984982 5.00131556 6.20796831 5.00131556 6.21491418 4.99596444L6.5 4.77868444 6.78501805 4.99603556C6.78852487 4.99868444 6.79262463 5 6.79674133 5 6.80084109 5 6.80494085 4.99868444 6.80837991 4.99603556 6.81532578 4.99075556 6.81823966 4.98131556 6.81559684 4.97278222L6.70673296 4.62110222 6.99181877 4.40375111C6.99876465 4.39847111 7.00167853 4.38903111 6.99903571 4.38048 6.99639289 4.37187556 6.98878631 4.36611556 6.9801802 4.36611556z"/>
    </g>
  </g>
</svg>
