<svg xmlns="http://www.w3.org/2000/svg" width="20" height="10" viewBox="0 0 20 10" xmlns:xlink="http://www.w3.org/1999/xlink">
  <defs>
    <polygon id="a" points="7 4 18 4 18 3 7 3"/>
    <mask id="e" width="11" height="1" x="0" y="0" fill="white">
      <use xlink:href="#a"/>
    </mask>
    <polygon id="b" points="7 7 10 7 10 6 7 6"/>
    <mask id="f" width="3" height="1" x="0" y="0" fill="white">
      <use xlink:href="#b"/>
    </mask>
    <polygon id="c" points="12 7 18 7 18 6 12 6"/>
    <mask id="g" width="6" height="1" x="0" y="0" fill="white">
      <use xlink:href="#c"/>
    </mask>
    <polygon id="d" points="0 10 20 10 20 0 0 0"/>
    <mask id="h" width="20" height="10" x="0" y="0" fill="white">
      <use xlink:href="#d"/>
    </mask>
  </defs>
  <g fill="none" fill-rule="evenodd">
    <use stroke="#656565" stroke-width="2" mask="url(#e)" xlink:href="#a"/>
    <use stroke="#656565" stroke-width="2" mask="url(#f)" xlink:href="#b"/>
    <use stroke="#656565" stroke-width="2" mask="url(#g)" xlink:href="#c"/>
    <path fill="#656565" d="M3.20943816,7.38938974 L3.2530562,7.4018724 L3.2530562,8 L3.82978363,8 L3.82978363,7.3831484 L3.92574332,7.37274619 C3.99940934,7.35714286 4.06629034,7.34361997 4.12929417,7.32073509 C4.63332486,7.15117892 4.92217322,6.8131068 4.98420777,6.30859917 C5.0569045,5.71879334 4.87758589,5.26421637 4.46757631,4.99791956 C4.33478361,4.91158114 4.1932673,4.83980583 4.05465886,4.77115118 L4.01685656,4.75138696 C3.93834408,4.71185853 3.86273948,4.67441054 3.78810417,4.63384189 C3.73963968,4.61199723 3.68923661,4.5870319 3.64174141,4.55998613 L3.61847845,4.54958391 C3.49247078,4.48821082 3.37324814,4.4257975 3.26081052,4.34778086 C3.1008777,4.23647712 3.04562819,3.99618585 3.12317137,3.74549237 C3.16388154,3.61026352 3.24627117,3.46983356 3.54675101,3.46151179 C3.77356482,3.46151179 3.92671261,3.57281553 3.99068573,3.78398058 C4.00813295,3.84535368 4.0226723,3.91504854 4.03624235,4.01074896 L4.06144389,4.15325936 L4.96772984,4.15325936 L4.97257629,4.09916782 C4.99874711,3.84535368 4.93768186,3.53640777 4.81458205,3.30963939 C4.63429415,2.9778086 4.34738438,2.7739251 3.91992758,2.67198336 L3.87630954,2.65846047 L3.87630954,2 L3.29958211,2 L3.29958211,2.63453537 L3.14158788,2.68862691 C3.0068566,2.73127601 2.88666466,2.76976422 2.77228847,2.82801664 C2.40492764,3.02565881 2.16357448,3.41574202 2.12964933,3.87239945 C2.09766277,4.31553398 2.27407351,4.73266297 2.60169346,4.98335645 C2.77228847,5.11442441 2.96614642,5.2090846 3.13771072,5.29022191 C3.21331532,5.32662968 3.29376637,5.36719834 3.36937098,5.40880721 C3.42655907,5.43585298 3.48180859,5.4649792 3.53705811,5.49202497 C3.65337289,5.54715673 3.75902547,5.60124827 3.85692374,5.66886269 C4.02751874,5.78640777 4.09343045,6.02981969 4.02073372,6.27115118 C3.98099283,6.40429958 3.87630954,6.56969487 3.59424621,6.57697642 L3.52639592,6.58009709 C3.49150149,6.58009709 3.45757635,6.58009709 3.42752836,6.57697642 C3.1580658,6.55305132 2.97874719,6.36581137 2.9496685,6.07350902 L2.91962051,5.86234397 L2.01527314,5.86234397 L2.00751882,5.92163662 C1.93966854,6.67891817 2.33029232,7.15950069 3.20943816,7.38938974 L3.20943816,7.38938974 Z"/>
    <use stroke="#656565" stroke-width="2" mask="url(#h)" xlink:href="#d"/>
  </g>
</svg>
