<?xml version="1.0" encoding="UTF-8" standalone="no"?>
<svg width="20px" height="13px" viewBox="0 0 20 13" version="1.1" xmlns="http://www.w3.org/2000/svg" xmlns:xlink="http://www.w3.org/1999/xlink">
    <!-- Generator: Sketch 40.3 (33839) - http://www.bohemiancoding.com/sketch -->
    <title>AUS Flag</title>
    <desc>Created with Sketch.</desc>
    <defs></defs>
    <g id="Page-1" stroke="none" stroke-width="1" fill="none" fill-rule="evenodd">
        <g id="Iconography-STATUS" transform="translate(-876.000000, -236.000000)">
            <g id="AUS-Flag" transform="translate(876.000000, 236.000000)">
                <polygon id="Fill-1" fill="#003875" points="0 13.0001404 20 13.0001404 20 0.000140350877 0 0.000140350877"></polygon>
                <polygon id="Fill-2" fill="#FEFEFE" points="8.72147368 -3.50877193e-05 5.78708772 1.9017193 5.78708772 -3.50877193e-05 4.13480702 -3.50877193e-05 4.13480702 1.9017193 1.20042105 -3.50877193e-05 7.01754386e-05 -3.50877193e-05 7.01754386e-05 0.785578947 2.09761404 2.154 7.01754386e-05 2.154 7.01754386e-05 4.30978947 2.09761404 4.30978947 7.01754386e-05 5.6785614 7.01754386e-05 6.46417544 1.20042105 6.46417544 4.13480702 4.56242105 4.13480702 6.46417544 5.78708772 6.46417544 5.78708772 4.56242105 8.72147368 6.46417544 9.93235088 6.46417544 9.93235088 5.6785614 7.82392982 4.30978947 9.93235088 4.30978947 9.93235088 2.154 7.82392982 2.154 9.93235088 0.785578947 9.93235088 -3.50877193e-05"></polygon>
                <polygon id="Fill-3" fill="#E0393D" points="9.15157895 -3.50877193e-05 5.83649123 2.15540351 6.63017544 2.15540351 9.9322807 -3.50877193e-05"></polygon>
                <polygon id="Fill-4" fill="#E0393D" points="9.93214035 6.46431579 6.62652632 4.30992982 7.42336842 4.30992982 9.93214035 5.95063158"></polygon>
                <polygon id="Fill-5" fill="#E0393D" points="0 -3.50877193e-05 0 0.514701754 2.52105263 2.15540351 3.32140351 2.15540351"></polygon>
                <polygon id="Fill-6" fill="#E0393D" points="3.31484211 4.30985965 0.000105263158 6.46424561 0.793438596 6.46424561 4.10852632 4.30985965"></polygon>
                <polygon id="Fill-7" fill="#E0393D" points="4.48673684 -3.50877193e-05 4.48673684 2.60136842 7.01754386e-05 2.60136842 7.01754386e-05 3.86347368 4.48673684 3.86347368 4.48673684 6.46417544 5.45796491 6.46417544 5.45796491 3.86347368 9.93235088 3.86347368 9.93235088 2.60136842 5.45796491 2.60136842 5.45796491 -3.50877193e-05"></polygon>
                <polygon id="Star" fill="#FFFFFF" points="4 11 3.13223252 11.8019377 3.21816852 10.6234898 2.05014418 10.4450419 3.02507209 9.77747907 2.43633704 8.7530204 3.56611626 9.09903113 4 8 4.43388374 9.09903113 5.56366296 8.7530204 4.97492791 9.77747907 5.94985582 10.4450419 4.78183148 10.6234898 4.86776748 11.8019377"></polygon>
                <polygon id="Star-Copy" fill="#FFFFFF" points="15 3.5 14.5661163 3.90096887 14.6090843 3.3117449 14.0250721 3.22252093 14.512536 2.88873953 14.2181685 2.3765102 14.7830581 2.54951557 15 2 15.2169419 2.54951557 15.7818315 2.3765102 15.487464 2.88873953 15.9749279 3.22252093 15.3909157 3.3117449 15.4338837 3.90096887"></polygon>
                <polygon id="Star-Copy-2" fill="#FFFFFF" points="15 10.5 14.5661163 10.9009689 14.6090843 10.3117449 14.0250721 10.2225209 14.512536 9.88873953 14.2181685 9.3765102 14.7830581 9.54951557 15 9 15.2169419 9.54951557 15.7818315 9.3765102 15.487464 9.88873953 15.9749279 10.2225209 15.3909157 10.3117449 15.4338837 10.9009689"></polygon>
                <polygon id="Star-Copy-3" fill="#FFFFFF" points="18 5.5 17.5661163 5.90096887 17.6090843 5.3117449 17.0250721 5.22252093 17.512536 4.88873953 17.2181685 4.3765102 17.7830581 4.54951557 18 4 18.2169419 4.54951557 18.7818315 4.3765102 18.487464 4.88873953 18.9749279 5.22252093 18.3909157 5.3117449 18.4338837 5.90096887"></polygon>
                <polygon id="Star-Copy-5" fill="#FFFFFF" points="16.5 7.75 16.2830581 7.95048443 16.3045421 7.65587245 16.012536 7.61126047 16.256268 7.44436977 16.1090843 7.1882551 16.3915291 7.27475778 16.5 7 16.6084709 7.27475778 16.8909157 7.1882551 16.743732 7.44436977 16.987464 7.61126047 16.6954579 7.65587245 16.7169419 7.95048443"></polygon>
                <polygon id="Star-Copy-4" fill="#FFFFFF" points="12 6.5 11.5661163 6.90096887 11.6090843 6.3117449 11.0250721 6.22252093 11.512536 5.88873953 11.2181685 5.3765102 11.7830581 5.54951557 12 5 12.2169419 5.54951557 12.7818315 5.3765102 12.487464 5.88873953 12.9749279 6.22252093 12.3909157 6.3117449 12.4338837 6.90096887"></polygon>
            </g>
        </g>
    </g>
</svg>