<svg xmlns="http://www.w3.org/2000/svg" width="20" height="20" viewBox="0 0 20 20">
  <path fill="#176A17" fill-rule="evenodd" d="M14.4283,6.178 L9.3293,13.963 L9.2603,14.069 C8.9733,14.505 8.3823,14.632 7.9383,14.35 C7.8503,14.293 7.7713,14.221 7.7083,14.144 L5.5993,11.531 C5.4423,11.336 5.4743,11.051 5.6743,10.895 C5.8233,10.778 6.0243,10.767 6.1813,10.852 L8.1663,11.92 L13.7173,5.65 C13.8803,5.467 14.1623,5.449 14.3473,5.608 C14.5163,5.754 14.5473,5.997 14.4283,6.178 M10.0003,0 C4.4773,0 0.0003,4.477 0.0003,10 C0.0003,11.901 0.5403,13.671 1.4603,15.184 C2.2813,16.533 3.4093,17.669 4.7513,18.5 C6.2783,19.445 8.0723,20 10.0003,20 C11.9283,20 13.7223,19.445 15.2493,18.5 C16.5893,17.671 17.7153,16.537 18.5363,15.191 C19.4583,13.676 20.0003,11.903 20.0003,10 C20.0003,4.477 15.5233,0 10.0003,0"/>
</svg>
