<svg xmlns="http://www.w3.org/2000/svg" width="15" height="12" viewBox="0 0 15 12" xmlns:xlink="http://www.w3.org/1999/xlink">
  <defs>
    <path id="a" d="M7.07839825,11.8249842 C7.20812251,11.941662 7.34865502,12 7.5,12 C7.65134498,12 7.79187749,11.941662 7.92160175,11.8249842 L14.8293843,4.85352009 C15.0672121,4.60071817 15.0564019,4.36736606 14.7969534,4.15345675 C14.5158842,3.93954744 14.2564395,3.94927044 14.0186117,4.18262605 L7.5,10.7457199 L0.981388286,4.18262605 C0.743560467,3.94927044 0.484115829,3.93954744 0.203046589,4.15345675 C-0.0564019406,4.36736606 -0.0672121339,4.60071817 0.170615685,4.85352009 L7.07839825,11.8249842 Z"/>
    <mask id="c" width="15" height="8" x="0" y="0" fill="white">
      <use xlink:href="#a"/>
    </mask>
    <path id="b" d="M7.07839825,7.82498417 C7.20812251,7.94166197 7.34865502,8 7.5,8 C7.65134498,8 7.79187749,7.94166197 7.92160175,7.82498417 L14.8293843,0.853520087 C15.0672121,0.600718173 15.0564019,0.36736606 14.7969534,0.153456748 C14.5158842,-0.0604525634 14.2564395,-0.0507295587 14.0186117,0.182626054 L7.5,6.74571985 L0.981388286,0.182626054 C0.743560467,-0.0507295587 0.484115829,-0.0604525634 0.203046589,0.153456748 C-0.0564019406,0.36736606 -0.0672121339,0.600718173 0.170615685,0.853520087 L7.07839825,7.82498417 Z"/>
    <mask id="d" width="15" height="8" x="0" y="0" fill="white">
      <use xlink:href="#b"/>
    </mask>
  </defs>
  <g fill="#FF3333" fill-rule="evenodd" stroke="#FF3333" stroke-width="2">
    <use mask="url(#c)" xlink:href="#a"/>
    <use mask="url(#d)" xlink:href="#b"/>
  </g>
</svg>
