<svg xmlns="http://www.w3.org/2000/svg" width="20" height="20" viewBox="0 0 20 20">
  <path fill="#FFAA22" fill-rule="evenodd" d="M19.603604,7.32231111 L12.5557432,7.32231111 L10.3771102,0.287644444 C10.3242538,0.116622222 10.1721222,0 10,0 C9.82787783,0 9.67574623,0.116622222 9.62288981,0.287644444 L7.44425682,7.32088889 L0.396396036,7.32088889 C0.224273865,7.32088889 0.0721422609,7.43751111 0.0192858462,7.60817778 C-0.0335705685,7.78062222 0.024707017,7.968 0.163624517,8.0736 L5.86398555,12.4209778 L3.68670785,19.4542222 C3.63385144,19.6263111 3.69212902,19.8140444 3.83104652,19.9192889 C3.96996402,20.0263111 4.15936618,20.0263111 4.29828368,19.9192889 L10,15.5736889 L15.700361,19.9207111 C15.7704974,19.9736889 15.8524926,20 15.9348267,20 C16.0168219,20 16.0988171,19.9736889 16.1675982,19.9207111 C16.3065157,19.8151111 16.3647933,19.6263111 16.3119369,19.4556444 L14.1346592,12.4220444 L19.8363755,8.07502222 C19.975293,7.96942222 20.0335706,7.78062222 19.9807142,7.6096 C19.9278577,7.43751111 19.7757261,7.32231111 19.603604,7.32231111 Z"/>
</svg>
