<svg xmlns="http://www.w3.org/2000/svg" width="20" height="20" viewBox="0 0 20 20" xmlns:xlink="http://www.w3.org/1999/xlink">
  <defs>
    <path id="a" d="M19.603604,7.10968405 L12.5557432,7.10968405 L10.3771102,0.410001512 C10.3242538,0.247123205 10.1721222,0.136054422 10,0.136054422 C9.82787783,0.136054422 9.67574623,0.247123205 9.62288981,0.410001512 L7.44425682,7.10832955 L0.396396036,7.10832955 C0.224273865,7.10832955 0.0721422609,7.21939834 0.0192858462,7.38193802 C-0.0335705685,7.54617082 0.024707017,7.72462585 0.163624517,7.82519728 L5.86398555,11.9655571 L3.68670785,18.6638851 C3.63385144,18.8277793 3.69212902,19.0065729 3.83104652,19.1068057 C3.96996402,19.2087317 4.15936618,19.2087317 4.29828368,19.1068057 L10,14.9681391 L15.700361,19.1081602 C15.7704974,19.1586153 15.8524926,19.1836735 15.9348267,19.1836735 C16.0168219,19.1836735 16.0988171,19.1586153 16.1675982,19.1081602 C16.3065157,19.0075888 16.3647933,18.8277793 16.3119369,18.6652396 L14.1346592,11.9665729 L19.8363755,7.82655178 C19.975293,7.72598035 20.0335706,7.54617082 19.9807142,7.38329252 C19.9278577,7.21939834 19.7757261,7.10968405 19.603604,7.10968405 Z"/>
    <mask id="b" width="20" height="19.048" x="0" y="0" fill="white">
      <use xlink:href="#a"/>
    </mask>
  </defs>
  <use fill="none" fill-rule="evenodd" stroke="#656565" stroke-width="2" mask="url(#b)" xlink:href="#a"/>
</svg>
