<svg xmlns="http://www.w3.org/2000/svg" width="20" height="20" viewBox="0 0 20 20">
  <path fill="#333333" fill-rule="evenodd" d="M11.9207,13.4197 C11.1757,14.0897 10.6437,14.5077 10.2947,14.6977 C9.9207,14.9027 9.6157,14.9997 9.3557,14.9997 C9.0997,14.9997 8.8907,14.9197 8.7327,14.7567 C8.5817,14.6017 8.5037,14.3917 8.5037,14.1347 C8.5037,13.4757 8.8957,11.9437 9.7017,9.4517 C9.7147,9.4087 9.7247,9.3697 9.7327,9.3307 C9.7017,9.3447 9.6677,9.3617 9.6287,9.3867 C9.5617,9.4267 9.3627,9.5757 8.7737,10.1247 C8.6857,10.2087 8.5447,10.2167 8.4457,10.1437 L8.0967,9.8847 C8.0427,9.8457 8.0077,9.7837 8.0007,9.7167 C7.9957,9.6517 8.0187,9.5847 8.0657,9.5357 C8.6057,8.9667 9.1127,8.5527 9.5667,8.3077 C10.0437,8.0517 10.4467,7.9247 10.7987,7.9247 C11.0277,7.9247 11.2117,7.9787 11.3457,8.0877 C11.4937,8.2037 11.5717,8.3647 11.5717,8.5587 C11.5717,8.6847 11.5087,9.0087 11.0487,10.4827 C10.3917,12.5887 10.2357,13.3517 10.2247,13.6167 C10.3477,13.5457 10.6417,13.3467 11.2697,12.7827 C11.3677,12.6937 11.5197,12.6957 11.6167,12.7857 L11.9257,13.0737 C11.9727,13.1187 11.9997,13.1827 11.9997,13.2477 C11.9997,13.3127 11.9707,13.3747 11.9207,13.4197 M10.4197,5.3147 C10.6207,5.1067 10.8677,4.9997 11.1497,4.9997 C11.3787,4.9997 11.5797,5.0797 11.7307,5.2297 C11.8867,5.3787 11.9627,5.5677 11.9627,5.7927 C11.9627,6.0747 11.8567,6.3257 11.6547,6.5377 C11.4447,6.7567 11.2017,6.8687 10.9287,6.8687 C10.7047,6.8687 10.5037,6.7897 10.3517,6.6357 C10.2017,6.4867 10.1237,6.2897 10.1237,6.0557 C10.1237,5.7677 10.2227,5.5197 10.4197,5.3147 M9.9997,-0.0003 C4.4777,-0.0003 -0.0003,4.4777 -0.0003,9.9997 C-0.0003,11.9007 0.5397,13.6707 1.4607,15.1837 C2.2817,16.5327 3.4097,17.6697 4.7517,18.4997 C6.2787,19.4457 8.0727,19.9997 9.9997,19.9997 C11.9277,19.9997 13.7217,19.4457 15.2497,18.4997 C16.5897,17.6707 17.7157,16.5367 18.5357,15.1907 C19.4587,13.6757 19.9997,11.9037 19.9997,9.9997 C19.9997,4.4777 15.5237,-0.0003 9.9997,-0.0003"/>
</svg>
