<svg xmlns="http://www.w3.org/2000/svg" width="15" height="15" viewBox="0 0 15 15">
  <g fill="none" fill-rule="evenodd">
    <ellipse cx="7.5" cy="7.5" fill="#FF3333" rx="7.5" ry="7.5"/>
    <path fill="#FFFFFF" d="M2.85,10.85 L2.91,9.99 C3.3966691,10.190001 3.939997,10.29 4.54,10.29 C5.0200024,10.29 5.41499845,10.1816678 5.725,9.965 C6.03500155,9.74833225 6.19,9.4233355 6.19,8.99 C6.19,8.5966647 6.0400015,8.3166675 5.74,8.15 C5.4399985,7.9833325 5.0600023,7.9 4.6,7.9 L3.72,7.9 L3.72,7.15 L4.47,7.15 C5.5500054,7.15 6.09,6.7700038 6.09,6.01 C6.09,5.6633316 5.94833475,5.41166745 5.665,5.255 C5.38166525,5.09833255 5.0333354,5.02 4.62,5.02 C4.1133308,5.02 3.6033359,5.1266656 3.09,5.34 L3.03,4.52 C3.5966695,4.3266657 4.1766637,4.23 4.77,4.23 C5.1966688,4.23 5.5799983,4.27833285 5.92,4.375 C6.2600017,4.47166715 6.55166545,4.65166535 6.795,4.915 C7.03833455,5.17833465 7.16,5.5133313 7.16,5.92 C7.16,6.3333354 7.03833455,6.673332 6.795,6.94 C6.55166545,7.206668 6.2200021,7.3933328 5.8,7.5 C6.2266688,7.5600003 6.58166525,7.723332 6.865,7.99 C7.14833475,8.256668 7.29,8.5933313 7.29,9 C7.29,9.4733357 7.15500135,9.8733317 6.885,10.2 C6.61499865,10.5266683 6.280002,10.7599993 5.88,10.9 C5.479998,11.0400007 5.0366691,11.11 4.55,11.11 C3.9299969,11.11 3.3633359,11.0233342 2.85,10.85 L2.85,10.85 Z M8.92,9.88 C9.1533345,10.1933349 9.4733313,10.35 9.88,10.35 C10.3000021,10.35 10.6283322,10.2200013 10.865,9.96 C11.1016679,9.6999987 11.22,9.3600021 11.22,8.94 C11.22,8.5133312 11.1150011,8.17166795 10.905,7.915 C10.694999,7.65833205 10.3800021,7.53 9.96,7.53 C9.5866648,7.53 9.26833465,7.64499885 9.005,7.875 C8.74166535,8.10500115 8.61,8.419998 8.61,8.82 C8.61,9.2266687 8.7133323,9.5799985 8.92,9.88 L8.92,9.88 Z M11.91,4.4 L11.85,5.23 C11.4833315,5.0899993 11.0800022,5.02 10.64,5.02 C9.9399965,5.02 9.4133351,5.26166425 9.06,5.745 C8.7066649,6.22833575 8.53,6.8266631 8.53,7.54 C8.6766674,7.2999988 8.8999985,7.11166735 9.2,6.975 C9.5000015,6.83833265 9.8033318,6.77 10.11,6.77 C10.7633366,6.77 11.2816648,6.95833145 11.665,7.335 C12.0483353,7.71166855 12.24,8.2266634 12.24,8.88 C12.24,9.5600034 12.0183356,10.1016647 11.575,10.505 C11.1316645,10.9083354 10.5633368,11.11 9.87,11.11 C9.4233311,11.11 9.03833495,11.0183343 8.715,10.835 C8.39166505,10.6516658 8.14500085,10.4016683 7.975,10.085 C7.80499915,9.76833175 7.6833337,9.43166845 7.61,9.075 C7.5366663,8.71833155 7.5,8.3266688 7.5,7.9 C7.5,7.3799974 7.56166605,6.90166885 7.685,6.465 C7.80833395,6.02833115 7.99166545,5.64166835 8.235,5.305 C8.47833455,4.96833165 8.80499795,4.70500095 9.215,4.515 C9.62500205,4.32499905 10.096664,4.23 10.63,4.23 C11.0433354,4.23 11.4699978,4.2866661 11.91,4.4 L11.91,4.4 Z"/>
  </g>
</svg>
