<svg xmlns="http://www.w3.org/2000/svg" width="19" height="19" viewBox="0 0 19 19" xmlns:xlink="http://www.w3.org/1999/xlink">
  <defs>
    <rect id="a" width="1" height="7" x="9" y="3"/>
    <mask id="e" width="1" height="7" x="0" y="0" fill="white">
      <use xlink:href="#a"/>
    </mask>
    <rect id="b" width="6" height="1" x="10" y="9"/>
    <mask id="f" width="6" height="1" x="0" y="0" fill="white">
      <use xlink:href="#b"/>
    </mask>
    <path id="c" d="M9.5,19 C14.7467051,19 19,14.7467051 19,9.5 C19,4.25329488 14.7467051,0 9.5,0 C4.25329488,0 0,4.25329488 0,9.5"/>
    <mask id="g" width="19" height="19" x="0" y="0" fill="white">
      <use xlink:href="#c"/>
    </mask>
    <path id="d" d="M9.5,19 C14.7467051,19 19,14.7467051 19,9.5 C19,4.25329488 14.7467051,0 9.5,0 C4.25329488,0 0,4.25329488 0,9.5"/>
    <mask id="h" width="19" height="19" x="0" y="0" fill="white">
      <use xlink:href="#d"/>
    </mask>
  </defs>
  <g fill="none" fill-rule="evenodd">
    <circle cx="9.5" cy="9.5" r="1.5" fill="#656565"/>
    <use stroke="#656565" stroke-width="2" mask="url(#e)" xlink:href="#a"/>
    <use stroke="#656565" stroke-width="2" mask="url(#f)" xlink:href="#b"/>
    <use stroke="#656565" stroke-width="2" mask="url(#g)" transform="rotate(-180 9.5 9.5)" xlink:href="#c"/>
    <use stroke="#656565" stroke-width="2" mask="url(#h)" stroke-dasharray="1 1" transform="rotate(-90 9.5 9.5)" xlink:href="#d"/>
  </g>
</svg>
