<svg xmlns="http://www.w3.org/2000/svg" width="19" height="20" viewBox="0 0 19 20" xmlns:xlink="http://www.w3.org/1999/xlink">
  <defs>
    <path id="a" d="M7,18.5 C7,18.2238576 7.21484375,18 7.49769878,18 L11.5023012,18 C11.7771727,18 12,18.2319336 12,18.5 C12,18.7761424 11.7851562,19 11.5023012,19 L7.49769878,19 C7.22282734,19 7,18.7680664 7,18.5 Z M8,19.5 C8,19.2238576 8.2157526,19 8.49538898,19 L10.504611,19 C10.7782068,19 11,19.2319336 11,19.5 C11,19.7761424 10.7842474,20 10.504611,20 L8.49538898,20 C8.2217932,20 8,19.7680664 8,19.5 Z M4,9.01475 C4,10.2725 4.5984,11.2085 5.2309,12.2008333 C5.9635,13.347 7,15.0846667 7,17 L12,17 C12,15.0879167 13.0354,13.3513333 13.7691,12.2008333 C14.4016,11.2085 15,10.2714167 15,9.01475 C15,6.249 12.5316,4 9.5,4 C6.4673,4 4,6.249 4,9.01475 Z M9,0.495388985 C9,0.221793203 9.23193359,0 9.5,0 C9.77614237,0 10,0.215752602 10,0.495388985 L10,2.50461102 C10,2.7782068 9.76806641,3 9.5,3 C9.22385763,3 9,2.7842474 9,2.50461102 L9,0.495388985 Z M16,9.5 C16,9.22385763 16.2157526,9 16.495389,9 L18.504611,9 C18.7782068,9 19,9.23193359 19,9.5 C19,9.77614237 18.7842474,10 18.504611,10 L16.495389,10 C16.2217932,10 16,9.76806641 16,9.5 Z M0,9.5 C0,9.22385763 0.215752602,9 0.495388985,9 L2.50461102,9 C2.7782068,9 3,9.23193359 3,9.5 C3,9.77614237 2.7842474,10 2.50461102,10 L0.495388985,10 C0.221793203,10 0,9.76806641 0,9.5 Z M0.25,4.4330127 C0.388071187,4.19386639 0.686847234,4.1078763 0.929019445,4.24769449 L2.66905677,5.25230551 C2.90599766,5.3891034 2.98210941,5.70086038 2.84807621,5.9330127 C2.71000502,6.17215901 2.41122898,6.2581491 2.16905677,6.11833091 L0.429019445,5.1137199 C0.192078548,4.97692201 0.115966797,4.66516502 0.25,4.4330127 Z M3.4330127,1.25 C3.67215901,1.11192881 3.9739017,1.18684723 4.1137199,1.42901945 L5.11833091,3.16905677 C5.2551288,3.40599766 5.16516502,3.71404301 4.9330127,3.84807621 C4.69386639,3.9861474 4.3921237,3.91122898 4.25230551,3.66905677 L3.24769449,1.92901945 C3.1108966,1.69207855 3.20086038,1.3840332 3.4330127,1.25 Z M16.25,5.9330127 C16.1119288,5.69386639 16.1868472,5.3921237 16.4290194,5.25230551 L18.1690568,4.24769449 C18.4059977,4.1108966 18.714043,4.20086038 18.8480762,4.4330127 C18.9861474,4.67215901 18.911229,4.9739017 18.6690568,5.1137199 L16.9290194,6.11833091 C16.6920785,6.2551288 16.3840332,6.16516502 16.25,5.9330127 Z M13.4330127,3.84807621 C13.1938664,3.71000502 13.1078763,3.41122898 13.2476945,3.16905677 L14.2523055,1.42901945 C14.3891034,1.19207855 14.7008604,1.1159668 14.9330127,1.25 C15.172159,1.38807119 15.2581491,1.68684723 15.1183309,1.92901945 L14.1137199,3.66905677 C13.976922,3.90599766 13.665165,3.98210941 13.4330127,3.84807621 Z"/>
    <mask id="b" width="19" height="20" x="0" y="0" fill="white">
      <use xlink:href="#a"/>
    </mask>
  </defs>
  <use fill="none" fill-rule="evenodd" stroke="#656565" stroke-width="2" mask="url(#b)" xlink:href="#a"/>
</svg>
