<?xml version="1.0" standalone="no"?>
<!DOCTYPE svg PUBLIC "-//W3C//DTD SVG 1.1//EN" "http://www.w3.org/Graphics/SVG/1.1/DTD/svg11.dtd" >
<svg xmlns="http://www.w3.org/2000/svg" xmlns:xlink="http://www.w3.org/1999/xlink" version="1.1">
<metadata>
Created by FontForge 20161013 at Wed Mar  7 17:53:19 2007
 By ,,,
Copyright (c) 2007 Linotype GmbH, www.linotype.com. All rights reserved. This font software may not be reproduced, modified, disclosed or transferred without the express written approval of Linotype GmbH. Frutiger Next is a trademark of Linotype GmbH and may be registered in certain jurisdictions. This typeface is original artwork of Adrian Frutiger and Linotype Design Studio. The design may be protected in certain jurisdictions. 
</metadata>
<defs>
<font id="FrutigerNextPro-Medium" horiz-adv-x="562" >
  <font-face 
    font-family="Frutiger Next Pro Medium"
    font-weight="500"
    font-stretch="normal"
    units-per-em="1000"
    panose-1="2 11 6 3 4 2 4 2 2 3"
    ascent="721"
    descent="-279"
    x-height="500"
    cap-height="667"
    bbox="-160 -240 1248 905"
    underline-thickness="50"
    underline-position="-200"
    unicode-range="U+000D-FB02"
  />
<missing-glyph horiz-adv-x="512" 
d="M269 117h-59v64h59v-64zM263 241h-47v9q0 34 11.5 61t28 45.5t33 36t28 41t11.5 52.5q0 34 -22 55.5t-60 21.5q-46 0 -98 -21l-4 47q51 20 102 20q61 0 97.5 -32.5t36.5 -91.5q0 -38 -18.5 -70t-40 -50.5t-40 -48t-18.5 -64.5v-11zM512 0h-512v718h512v-718zM50 667v-617
h412v617h-412z" />
    <glyph glyph-name="IJ" unicode="IJ" horiz-adv-x="602" 
d="M189 0h-109v667h109v-667zM263 4l5 83q24 -10 57 -10q50 0 73 32t23 83v475h109v-486q0 -88 -44.5 -140t-131.5 -52q-48 0 -91 15z" />
    <glyph glyph-name="ij" unicode="ij" horiz-adv-x="469" 
d="M169 603h-100v97h100v-97zM169 0h-100v500h100v-500zM401 603h-101v97h101v-97zM196 -219l6 77q16 -6 36 -6q38 0 50 23t12 65v560h101v-572q0 -155 -128 -155q-48 0 -77 8z" />
    <glyph glyph-name="napostrophe" unicode="&#x22;n" horiz-adv-x="610" 
d="M220 0h-100v385q0 66 -5 115h94l3 -86q52 96 162 96q168 0 168 -194v-316h-101v295q0 63 -20.5 100t-78.5 37q-64 0 -93 -46t-29 -114v-272zM51 491h-74l58 230h104z" />
    <glyph glyph-name="fi" unicode="fi" horiz-adv-x="566" 
d="M216 0h-102v428h-95v72h95v58q0 173 147 173q51 0 79 -11l-6 -72q-22 9 -49 9q-70 0 -70 -97v-60h110v-72h-109v-428zM497 603h-100v97h100v-97zM497 0h-100v500h100v-500z" />
    <glyph glyph-name="fl" unicode="fl" horiz-adv-x="566" 
d="M216 0h-102v428h-95v72h95v58q0 173 147 173q51 0 79 -11l-6 -72q-22 9 -49 9q-70 0 -70 -97v-60h110v-72h-109v-428zM497 0h-100v721h100v-721z" />
    <glyph glyph-name=".notdef" horiz-adv-x="512" 
d="M269 117h-59v64h59v-64zM263 241h-47v9q0 34 11.5 61t28 45.5t33 36t28 41t11.5 52.5q0 34 -22 55.5t-60 21.5q-46 0 -98 -21l-4 47q51 20 102 20q61 0 97.5 -32.5t36.5 -91.5q0 -38 -18.5 -70t-40 -50.5t-40 -48t-18.5 -64.5v-11zM512 0h-512v718h512v-718zM50 667v-617
h412v617h-412z" />
    <glyph glyph-name=".null" horiz-adv-x="1000" 
 />
    <glyph glyph-name=".null" horiz-adv-x="1000" 
 />
    <glyph glyph-name="nonmarkingreturn" horiz-adv-x="333" 
 />
    <glyph glyph-name="CR" unicode="&#xd;" horiz-adv-x="0" 
 />
    <glyph glyph-name="space" unicode=" " horiz-adv-x="281" 
 />
    <glyph glyph-name="exclam" unicode="!" horiz-adv-x="278" 
d="M181 179h-83l-17 488h117zM193 0h-107v103h107v-103z" />
    <glyph glyph-name="quotedbl" unicode="&#x22;" horiz-adv-x="438" 
d="M339 459h-81v208h81v-208zM181 459h-81v208h81v-208z" />
    <glyph glyph-name="numbersign" unicode="#" 
d="M151 0h-67l30 203h-80v64h89l21 134h-79v64h89l30 202h68l-31 -202h161l30 202h68l-30 -202h79v-64h-89l-21 -134h79v-64h-88l-30 -203h-68l30 203h-161zM212 401l-21 -134h160l21 134h-160z" />
    <glyph glyph-name="dollar" unicode="$" 
d="M308 -108h-66v97q-92 2 -162 29l5 93q69 -40 164 -40q59 0 98.5 27.5t39.5 83.5q0 37 -31 62.5t-88 53.5l-69 34q-124 63 -124 163q0 76 50 120.5t128 57.5v101h67v-97q74 0 138 -21l-6 -88q-53 27 -134 27q-57 0 -97.5 -22t-40.5 -73q0 -18 8 -33t25.5 -28.5t30 -20.5
t37.5 -20l70 -34q65 -31 104 -72t39 -107q0 -81 -52 -130t-134 -62v-101z" />
    <glyph glyph-name="percent" unicode="%" horiz-adv-x="950" 
d="M638 7q-82 50 -82 188q0 54 13.5 97.5t51.5 76t97 32.5q45 0 78 -18t50.5 -49t25.5 -65.5t8 -73.5q0 -40 -8 -74t-25 -65t-50 -49t-79 -18q-48 0 -80 18zM299 -24h-70l424 715h70zM153 283q-82 50 -82 188q0 54 13.5 97.5t51.5 76t97 32.5q45 0 78 -18t50.5 -49
t25.5 -65.5t8 -73.5q0 -40 -8 -74t-25 -65t-50 -49t-79 -18q-49 0 -80 18zM649 98q19 -50 69 -50q27 0 44 13.5t24.5 38t10 45.5t2.5 50q0 31 -2.5 52.5t-10 45.5t-24.5 36.5t-44 12.5q-81 0 -81 -147q0 -65 12 -97zM163 374q21 -50 70 -50q82 0 82 147q0 30 -2.5 52t-10 46
t-25 36.5t-44.5 12.5q-82 0 -82 -147q0 -65 12 -97z" />
    <glyph glyph-name="ampersand" unicode="&#x26;" horiz-adv-x="670" 
d="M546 309v-290q-105 -30 -222 -30q-57 0 -103.5 9.5t-86 30t-61.5 59t-22 91.5q0 68 46 113.5t117 51.5q-69 7 -107 46.5t-38 103.5q0 87 72.5 135t180.5 48q87 0 168 -27l-4 -83q-78 35 -165 35q-62 0 -107 -29t-45 -80q0 -62 41 -86.5t114 -24.5h122v71h100v-71h105v-73
h-105zM446 309h-122q-76 0 -122.5 -30.5t-46.5 -96.5q0 -117 169 -117q62 0 122 18v226z" />
    <glyph glyph-name="quotesingle" unicode="'" horiz-adv-x="281" 
d="M181 459h-81v208h81v-208z" />
    <glyph glyph-name="parenleft" unicode="(" horiz-adv-x="281" 
d="M277 -128h-75q-152 234 -152 425q0 190 152 424h75q-63 -121 -98 -220.5t-35 -203.5q0 -185 133 -425z" />
    <glyph glyph-name="parenright" unicode=")" horiz-adv-x="281" 
d="M80 -128h-75q134 242 134 425q0 104 -35 205t-99 219h75q72 -116 112 -216.5t40 -207.5q0 -191 -152 -425z" />
    <glyph glyph-name="asterisk" unicode="*" horiz-adv-x="414" 
d="M148 335l-65 40l78 108l-119 35l23 74l115 -53l-11 128h78l-11 -128l114 53l23 -74l-118 -35l76 -108l-64 -40l-59 114z" />
    <glyph glyph-name="plus" unicode="+" 
d="M240 211h-214v78h214v211h82v-211h215v-78h-215v-211h-82v211z" />
    <glyph glyph-name="comma" unicode="," horiz-adv-x="281" 
d="M109 -128h-74l58 231h104z" />
    <glyph glyph-name="hyphen" unicode="-" horiz-adv-x="326" 
d="M286 269h-246v82h246v-82z" />
    <glyph glyph-name="period" unicode="." horiz-adv-x="281" 
d="M194 0h-107v103h107v-103z" />
    <glyph glyph-name="slash" unicode="/" horiz-adv-x="301" 
d="M63 0h-86l262 667h86z" />
    <glyph glyph-name="zero" unicode="0" 
d="M161 20q-122 77 -120 313q0 51 6.5 97t23.5 92t43.5 79.5t69 54.5t97.5 21q68 0 117 -31t74.5 -83t37 -109t11.5 -121q0 -65 -11 -121.5t-36.5 -109t-74.5 -83t-118 -30.5q-74 0 -120 31zM169 160q30 -92 112 -92q35 0 60 18t38.5 44t21.5 64.5t10 69t2 69.5q0 40 -2 71
t-10 69.5t-21.5 64t-38.5 43t-60 17.5t-60 -17.5t-38.5 -43t-21.5 -64t-10 -69.5t-2 -71q0 -111 20 -173z" />
    <glyph glyph-name="one" unicode="1" 
d="M371 0h-105v556l-119 -96l-43 72l175 135h92v-667z" />
    <glyph glyph-name="two" unicode="2" 
d="M486 0h-437v82l138 143q5 5 34.5 34t41.5 41.5t36.5 41t36 48t21.5 46t10 49.5q0 50 -37 79.5t-89 29.5q-72 0 -164 -45l-5 86q100 42 182 42q96 0 158.5 -45.5t62.5 -137.5q0 -34 -12.5 -68.5t-38 -69.5t-46 -58.5t-56.5 -60.5t-48 -51l-97 -105h309v-81z" />
    <glyph glyph-name="three" unicode="3" 
d="M47 15l6 86q73 -30 163 -30q72 0 118.5 32.5t46.5 97.5q0 59 -45 84t-114 25h-88v75h75q162 0 162 114q0 52 -42.5 75.5t-104.5 23.5q-76 0 -153 -32l-6 82q85 29 174 29q64 0 115 -14.5t87.5 -54t36.5 -100.5q0 -62 -36.5 -102t-99.5 -56q64 -9 106.5 -49t42.5 -101
q0 -71 -40.5 -120t-100.5 -70t-133 -21q-93 0 -170 26z" />
    <glyph glyph-name="four" unicode="4" 
d="M342 571l-232 -345h232v345zM341 147h-315v92l299 428h119v-440h96v-80h-96v-147h-103v147z" />
    <glyph glyph-name="five" unicode="5" 
d="M66 14l6 88q65 -29 139 -29t124.5 33t50.5 107q0 66 -45 96t-117 30q-63 0 -141 -24l6 352h375v-79h-277l-6 -186q39 10 86 10q99 0 164 -47t65 -145q0 -76 -40 -130t-100.5 -77.5t-133.5 -23.5q-89 0 -156 25z" />
    <glyph glyph-name="six" unicode="6" 
d="M192 112q35 -47 96 -47q63 0 98.5 39t35.5 102q0 64 -31.5 102.5t-94.5 38.5q-56 0 -95.5 -34.5t-39.5 -94.5q0 -61 31 -106zM491 660l-6 -83q-55 21 -121 21q-105 0 -158 -72.5t-53 -179.5q22 36 67 56.5t91 20.5q98 0 155.5 -56.5t57.5 -154.5q0 -102 -66.5 -162.5
t-170.5 -60.5q-67 0 -115.5 27.5t-74 75t-36.5 101t-11 117.5q0 78 18.5 143.5t55 116t98 79t141.5 28.5q62 0 128 -17z" />
    <glyph glyph-name="seven" unicode="7" 
d="M241 0h-120l269 580h-338v87h444v-86z" />
    <glyph glyph-name="eight" unicode="8" 
d="M333 294q-27 13 -52 21q-138 -37 -138 -136q0 -55 39.5 -84.5t98.5 -29.5t99 29.5t40 84.5q0 77 -87 115zM236 399q24 -11 46 -18q55 20 87.5 48.5t32.5 74.5q0 49 -36 74.5t-85 25.5t-84.5 -27t-35.5 -75q0 -64 75 -103zM79 286q41 41 106 60q-61 24 -93 60.5t-32 96.5
q0 84 69.5 129t151.5 45q55 0 103 -15.5t83.5 -56.5t35.5 -102q0 -101 -129 -155q75 -25 112.5 -63.5t37.5 -109.5q0 -48 -21.5 -85t-57.5 -58.5t-78 -32t-86 -10.5q-97 0 -169.5 46t-72.5 138q0 73 40 113z" />
    <glyph glyph-name="nine" unicode="9" 
d="M171 359q31 -40 96 -40q56 0 95.5 34.5t39.5 94.5q0 63 -33.5 108t-93.5 45q-63 0 -98.5 -39t-35.5 -102q0 -60 30 -101zM72 6l6 83q55 -21 121 -21q105 0 158 72.5t53 179.5q-23 -37 -67 -57t-91 -20q-98 0 -155.5 56.5t-57.5 154.5q0 102 66.5 162.5t170.5 60.5
q67 0 115.5 -27.5t74 -75t36.5 -101t11 -117.5q0 -78 -18.5 -143.5t-55 -116t-98 -79t-141.5 -28.5q-62 0 -128 17z" />
    <glyph glyph-name="colon" unicode=":" horiz-adv-x="281" 
d="M194 398h-107v102h107v-102zM194 0h-107v103h107v-103z" />
    <glyph glyph-name="semicolon" unicode=";" horiz-adv-x="281" 
d="M193 398h-106v102h106v-102zM109 -128h-74l58 231h104z" />
    <glyph glyph-name="less" unicode="&#x3c;" 
d="M537 5l-511 202v84l511 204v-85l-417 -161l417 -160v-84z" />
    <glyph glyph-name="equal" unicode="=" 
d="M537 310h-511v78h511v-78zM537 111h-511v77h511v-77z" />
    <glyph glyph-name="greater" unicode="&#x3e;" 
d="M536 207l-510 -202v84l416 160l-416 161v85l510 -204v-84z" />
    <glyph glyph-name="question" unicode="?" horiz-adv-x="426" 
d="M222 179h-91v13q0 48 15.5 85t38 60.5t45 45.5t38 51t15.5 65q0 45 -33 70t-80 25q-58 0 -135 -27l-6 83q92 27 158 27q86 0 144.5 -42.5t58.5 -124.5q0 -42 -17.5 -77t-42 -59.5l-49 -49t-42 -57.5t-17.5 -73v-15zM230 0h-107v103h107v-103z" />
    <glyph glyph-name="at" unicode="@" horiz-adv-x="1055" 
d="M619 246l40 185q-25 7 -60 7q-66 0 -118 -41t-78.5 -102t-26.5 -128q0 -51 22.5 -78.5t63.5 -27.5q54 0 97 52.5t60 132.5zM840 -94l9 -77q-142 -56 -309 -56q-216 0 -346 121t-130 326q0 227 143 369t364 142q185 0 302.5 -107.5t117.5 -296.5q0 -146 -75.5 -242
t-182.5 -96q-53 0 -85.5 29t-36.5 88q-67 -117 -174 -117q-68 0 -109.5 45.5t-41.5 125.5q0 148 90.5 249t235.5 101q67 0 145 -22l-67 -314q-5 -25 -5 -48q0 -70 62 -70q65 0 113 75.5t48 193.5q0 160 -96 246.5t-249 86.5q-179 0 -296 -121.5t-117 -315.5
q0 -176 107.5 -275.5t293.5 -99.5q151 0 289 60z" />
    <glyph glyph-name="A" unicode="A" horiz-adv-x="662" 
d="M108 0h-106l260 667h137l262 -667h-114l-64 175h-309zM329 590l-128 -335h255z" />
    <glyph glyph-name="B" unicode="B" horiz-adv-x="582" 
d="M271 0h-191v667h217q44 0 80.5 -8t68.5 -26.5t50 -51.5t18 -79q0 -123 -129 -154q66 -12 106.5 -53.5t40.5 -105.5q0 -189 -261 -189zM186 592v-212h72q64 0 105.5 26t41.5 86q0 53 -38 76.5t-94 23.5h-87zM186 310v-235h70q165 0 165 115q0 120 -174 120h-61z" />
    <glyph glyph-name="C" unicode="C" horiz-adv-x="595" 
d="M556 103l6 -85q-65 -29 -163 -29q-160 0 -256.5 92.5t-96.5 251.5q0 152 99.5 248t253.5 96q92 0 161 -25l-6 -88q-60 28 -143 28q-115 0 -183 -72.5t-68 -186.5q0 -118 66 -188.5t183 -70.5q85 0 147 29z" />
    <glyph glyph-name="D" unicode="D" horiz-adv-x="672" 
d="M189 586v-505h55q131 0 199.5 65.5t68.5 196.5q0 116 -61 179.5t-177 63.5h-85zM255 0h-175v667h205q164 0 252.5 -81t88.5 -243q0 -169 -100 -256t-271 -87z" />
    <glyph glyph-name="E" unicode="E" horiz-adv-x="517" 
d="M473 0h-393v667h383v-81h-276v-205h263v-80h-263v-220h286v-81z" />
    <glyph glyph-name="F" unicode="F" horiz-adv-x="489" 
d="M189 0h-109v667h374v-81h-265v-210h254v-79h-254v-297z" />
    <glyph glyph-name="G" unicode="G" horiz-adv-x="681" 
d="M615 371v-341q-105 -41 -211 -41q-161 0 -259.5 92.5t-98.5 251.5q0 152 104.5 248t264.5 96q113 0 187 -30l-6 -90q-71 37 -174 37q-118 0 -190 -72t-72 -189q0 -115 65.5 -187.5t182.5 -72.5q60 0 107 14v207h-141v77h241z" />
    <glyph glyph-name="H" unicode="H" horiz-adv-x="676" 
d="M189 0h-109v667h109v-279h299v279h109v-667h-109v298h-299v-298z" />
    <glyph glyph-name="I" unicode="I" horiz-adv-x="268" 
d="M189 0h-109v667h109v-667z" />
    <glyph glyph-name="J" unicode="J" horiz-adv-x="344" 
d="M5 4l5 83q24 -10 57 -10q50 0 73 32t23 83v475h109v-486q0 -88 -44.5 -140t-131.5 -52q-48 0 -91 15z" />
    <glyph glyph-name="K" unicode="K" horiz-adv-x="619" 
d="M189 0h-109v667h109v-295l269 295h132l-301 -312l327 -355h-140l-287 326v-326z" />
    <glyph glyph-name="L" unicode="L" horiz-adv-x="484" 
d="M466 0h-386v667h109v-577h277v-90z" />
    <glyph glyph-name="M" unicode="M" horiz-adv-x="898" 
d="M178 0h-98v667h164l206 -548l204 548h165v-667h-103v589l-219 -589h-99l-220 589v-589z" />
    <glyph glyph-name="N" unicode="N" horiz-adv-x="703" 
d="M178 0h-98v667h156l289 -568v568h99v-667h-157l-289 568v-568z" />
    <glyph glyph-name="O" unicode="O" horiz-adv-x="716" 
d="M221 15q-86 38 -130.5 121t-44.5 197q0 150 82 247t230 97q151 0 231.5 -95t80.5 -249q0 -151 -81.5 -247.5t-230.5 -96.5q-77 0 -137 26zM206 156q56 -85 152 -85q69 0 115.5 41t64.5 97.5t18 123.5t-18 123.5t-64.5 97.5t-115.5 41q-51 0 -90.5 -23.5t-62.5 -62
t-34 -83.5t-11 -93q0 -104 46 -177z" />
    <glyph glyph-name="P" unicode="P" horiz-adv-x="549" 
d="M187 588v-242h51q37 0 65 5t54.5 17.5t40.5 39t14 66.5q0 59 -41 86.5t-109 27.5h-75zM187 0h-107v667h189q72 0 126 -16t91 -60.5t37 -115.5q0 -109 -72.5 -159t-188.5 -50h-75v-266z" />
    <glyph glyph-name="Q" unicode="Q" horiz-adv-x="716" 
d="M646 -128h-132l-113 120q-19 -3 -43 -3q-151 0 -231.5 95t-80.5 249q0 150 82 247t230 97q151 0 231.5 -95t80.5 -249q0 -108 -42 -192t-123 -121zM206 156q56 -85 152 -85q69 0 115.5 41t64.5 97.5t18 123.5t-18 123.5t-64.5 97.5t-115.5 41q-51 0 -90.5 -23.5
t-62.5 -62t-34 -83.5t-11 -93q0 -104 46 -177z" />
    <glyph glyph-name="R" unicode="R" horiz-adv-x="583" 
d="M187 588v-214h68q63 0 107.5 27t44.5 86t-39 80t-109 21h-72zM187 0h-107v667h198q240 0 240 -172q0 -64 -43.5 -107.5t-109.5 -53.5q65 -10 98 -91l99 -243h-119l-82 207q-20 51 -44.5 69t-75.5 18h-54v-294z" />
    <glyph glyph-name="S" unicode="S" horiz-adv-x="513" 
d="M58 16l5 93q73 -38 161 -38q54 0 91 27t37 83q0 43 -28.5 68t-86.5 52l-52 25q-56 28 -87.5 65.5t-31.5 99.5q0 92 65.5 139t153.5 47q82 0 151 -21l-6 -88q-61 27 -139 27q-49 0 -84.5 -23.5t-35.5 -74.5q0 -26 14.5 -46.5t31 -31t47.5 -25.5l55 -25q70 -33 105.5 -72
t35.5 -110q0 -97 -64.5 -147.5t-166.5 -50.5q-90 0 -171 27z" />
    <glyph glyph-name="T" unicode="T" horiz-adv-x="535" 
d="M322 0h-109v577h-203v90h516v-90h-204v-577z" />
    <glyph glyph-name="U" unicode="U" horiz-adv-x="670" 
d="M181 667v-425q0 -76 39.5 -122t114.5 -46q76 0 115.5 46t39.5 122v425h109v-424q0 -119 -73 -186.5t-192 -67.5t-190.5 66t-71.5 185v427h109z" />
    <glyph glyph-name="V" unicode="V" horiz-adv-x="625" 
d="M373 0h-123l-247 667h116l196 -562l198 562h110z" />
    <glyph glyph-name="W" unicode="W" horiz-adv-x="951" 
d="M320 0h-125l-186 667h108l147 -563l157 563h118l155 -563l148 563h100l-185 -667h-124l-156 564z" />
    <glyph glyph-name="X" unicode="X" horiz-adv-x="636" 
d="M125 0h-119l245 349l-221 318h125l170 -257l168 257h117l-222 -318l243 -349h-129l-185 289z" />
    <glyph glyph-name="Y" unicode="Y" horiz-adv-x="599" 
d="M353 0h-109v266l-246 401h120l185 -318l183 318h116l-249 -401v-266z" />
    <glyph glyph-name="Z" unicode="Z" horiz-adv-x="523" 
d="M498 0h-472v88l345 495h-333v84h451v-88l-340 -495h349v-84z" />
    <glyph glyph-name="bracketleft" unicode="[" horiz-adv-x="287" 
d="M275 -128h-190v849h190v-66h-102v-716h102v-67z" />
    <glyph glyph-name="backslash" unicode="\" horiz-adv-x="301" 
d="M325 0h-86l-262 667h86z" />
    <glyph glyph-name="bracketright" unicode="]" horiz-adv-x="287" 
d="M203 -128h-190v67h102v716h-102v66h190v-849z" />
    <glyph glyph-name="asciicircum" unicode="^" 
d="M158 245h-87l172 422h77l172 -422h-87l-125 326z" />
    <glyph glyph-name="underscore" unicode="_" horiz-adv-x="500" 
d="M500 -125h-500v50h500v-50z" />
    <glyph glyph-name="grave" unicode="`" horiz-adv-x="237" 
d="M169 584h-76l-104 136h108z" />
    <glyph glyph-name="a" unicode="a" horiz-adv-x="517" 
d="M352 245h-27q-42 0 -73 -4t-60.5 -14t-45 -31t-15.5 -53q0 -41 24.5 -61t66.5 -20q65 0 97.5 44t32.5 112v27zM456 0h-98l-3 79q-50 -90 -157 -90q-73 0 -119.5 37t-46.5 111q0 170 264 170q41 0 56 -1v21q0 113 -114 113q-83 0 -147 -40l-6 77q82 33 162 33
q203 0 203 -190v-209q0 -59 6 -111z" />
    <glyph glyph-name="b" unicode="b" horiz-adv-x="565" 
d="M161 0h-92v721h100v-304q18 43 61 68t92 25q106 0 155.5 -73.5t49.5 -184.5t-51 -187t-156 -76q-110 0 -157 94zM193 129q35 -63 100 -63q47 0 77 30.5t39.5 69.5t9.5 86q0 181 -125 181q-45 0 -75 -29.5t-41.5 -68.5t-11.5 -83q0 -73 27 -123z" />
    <glyph glyph-name="c" unicode="c" horiz-adv-x="457" 
d="M421 87l5 -79q-51 -19 -126 -19q-125 0 -193 72t-68 191q0 116 72.5 187t190.5 71q76 0 125 -17l-6 -80q-45 22 -105 22q-79 0 -124 -51t-45 -132q0 -80 45.5 -133.5t129.5 -53.5q51 0 99 22z" />
    <glyph glyph-name="d" unicode="d" horiz-adv-x="565" 
d="M502 0h-93l-6 83q-46 -94 -157 -94q-105 0 -156 76t-51 187q0 52 11.5 97t35 81.5t64.5 58t96 21.5q49 0 91 -24.5t60 -68.5v304h100v-571q0 -72 5 -150zM172 128q33 -62 101 -62q45 0 75.5 31t41 70.5t10.5 83.5t-11 83t-41.5 69t-75.5 30q-125 0 -125 -182
q0 -76 25 -123z" />
    <glyph glyph-name="e" unicode="e" horiz-adv-x="510" 
d="M141 290h240q0 151 -112 151q-59 0 -92 -45.5t-36 -105.5zM477 228h-335q0 -73 44 -121t123 -48q76 0 135 31l6 -74q-67 -27 -155 -27q-124 0 -190 71.5t-66 191.5q0 107 62.5 182.5t166.5 75.5q209 0 209 -252v-30z" />
    <glyph glyph-name="f" unicode="f" horiz-adv-x="337" 
d="M216 0h-102v428h-95v72h95v58q0 173 147 173q51 0 79 -11l-6 -72q-22 9 -49 9q-70 0 -70 -97v-60h110v-72h-109v-428z" />
    <glyph glyph-name="g" unicode="g" horiz-adv-x="565" 
d="M79 -200l6 85q69 -36 149 -36q163 0 163 179v59q-24 -41 -65.5 -64t-89.5 -23q-102 0 -152.5 74t-50.5 178q0 110 50.5 184t154.5 74q110 0 157 -93v83h96v-472q0 -124 -62 -189.5t-186 -65.5q-81 0 -170 27zM172 134q33 -57 100 -57q45 0 75.5 28.5t41.5 66t11 79.5
q0 72 -30.5 127t-96.5 55q-126 0 -126 -182q0 -71 25 -117z" />
    <glyph glyph-name="h" unicode="h" horiz-adv-x="559" 
d="M169 0h-100v721h100v-304q46 93 155 93q86 0 126.5 -52t40.5 -142v-316h-101v295q0 63 -20.5 100t-78.5 37q-64 0 -93 -46.5t-29 -112.5v-273z" />
    <glyph glyph-name="i" unicode="i" horiz-adv-x="237" 
d="M169 603h-100v97h100v-97zM169 0h-100v500h100v-500z" />
    <glyph glyph-name="j" unicode="j" horiz-adv-x="243" 
d="M175 603h-101v97h101v-97zM-30 -219l6 77q16 -6 36 -6q38 0 50 23t12 65v560h101v-572q0 -155 -128 -155q-48 0 -77 8z" />
    <glyph glyph-name="k" unicode="k" horiz-adv-x="517" 
d="M169 0h-100v721h100v-427l199 206h122l-219 -222l242 -278h-126l-218 258v-258z" />
    <glyph glyph-name="l" unicode="l" horiz-adv-x="237" 
d="M169 0h-100v721h100v-721z" />
    <glyph glyph-name="m" unicode="m" horiz-adv-x="839" 
d="M169 0h-100v385q0 66 -5 115h94l3 -86q49 96 153 96q57 0 95 -28.5t51 -73.5q18 46 61 74t92 28q78 0 118 -48t40 -129v-333h-101v321q0 111 -89 111q-57 0 -84 -46.5t-27 -112.5v-273h-100v321q0 111 -89 111q-57 0 -84.5 -46.5t-27.5 -112.5v-273z" />
    <glyph glyph-name="n" unicode="n" horiz-adv-x="559" 
d="M169 0h-100v385q0 66 -5 115h94l3 -86q53 96 162 96q168 0 168 -194v-316h-101v295q0 63 -20.5 100t-78.5 37q-64 0 -93 -46t-29 -114v-272z" />
    <glyph glyph-name="o" unicode="o" horiz-adv-x="570" 
d="M179 8q-68 30 -104 94t-36 150q0 115 67.5 186.5t178.5 71.5q117 0 181.5 -69.5t64.5 -188.5q0 -117 -65 -190t-181 -73q-61 0 -106 19zM178 124q39 -59 107 -59q70 0 104 54.5t34 132.5q0 76 -33.5 129.5t-104.5 53.5q-69 0 -103.5 -54t-34.5 -129t31 -128z" />
    <glyph glyph-name="p" unicode="p" horiz-adv-x="565" 
d="M169 -216h-100v558q0 76 -5 158h95l4 -86q20 44 64.5 70t94.5 26q106 0 155.5 -73.5t49.5 -184.5t-51 -187t-156 -76q-50 0 -91.5 24t-59.5 68v-297zM193 129q35 -63 100 -63q47 0 77 30.5t39.5 69.5t9.5 86q0 181 -125 181q-45 0 -75 -29.5t-41.5 -68.5t-11.5 -83
q0 -73 27 -123z" />
    <glyph glyph-name="q" unicode="q" horiz-adv-x="565" 
d="M497 -216h-100v299q-18 -43 -60 -68.5t-91 -25.5q-105 0 -156 76t-51 187q0 110 50.5 184t154.5 74q112 0 159 -93l1 83h93v-716zM172 128q33 -62 101 -62q45 0 75.5 31.5t41 71t10.5 83.5t-11.5 83t-41.5 68.5t-75 29.5q-125 0 -125 -181q0 -77 25 -124z" />
    <glyph glyph-name="r" unicode="r" horiz-adv-x="352" 
d="M169 0h-100v385q0 66 -5 115h94l3 -96q17 44 53.5 75t82.5 31q27 0 42 -4l-5 -95q-16 6 -41 6q-46 0 -75.5 -30t-39 -67.5t-9.5 -81.5v-238z" />
    <glyph glyph-name="s" unicode="s" horiz-adv-x="413" 
d="M41 10l6 80q61 -30 129 -30q95 0 95 75q0 31 -23 52.5t-56 35t-66 29.5t-56 46t-23 73q0 73 53 106t129 33q68 0 123 -21l-6 -73q-57 23 -112 23q-90 0 -90 -63q0 -26 23.5 -44.5t56.5 -31.5t66 -29.5t56.5 -49.5t23.5 -80q0 -76 -56.5 -114t-134.5 -38q-74 0 -138 21z
" />
    <glyph glyph-name="t" unicode="t" horiz-adv-x="350" 
d="M325 80l5 -74q-48 -17 -96 -17q-74 0 -100.5 44t-26.5 127v268h-92v72h92v108l101 33v-141h112v-72h-112v-280q0 -80 62 -80q28 0 55 12z" />
    <glyph glyph-name="u" unicode="u" horiz-adv-x="555" 
d="M167 500v-294q0 -63 20.5 -100.5t78.5 -37.5q64 0 92.5 46t28.5 114v272h100v-385q0 -66 5 -115h-94l-3 85q-53 -96 -161 -96q-167 0 -167 196v315h100z" />
    <glyph glyph-name="v" unicode="v" horiz-adv-x="470" 
d="M297 0h-124l-164 500h107l122 -418l122 418h102z" />
    <glyph glyph-name="w" unicode="w" horiz-adv-x="805" 
d="M287 0h-124l-152 500h105l115 -415l117 415h120l117 -415l114 415h95l-149 -500h-124l-116 416z" />
    <glyph glyph-name="x" unicode="x" horiz-adv-x="486" 
d="M119 0h-108l171 262l-154 238h113l108 -186l105 186h107l-152 -238l168 -262h-114l-119 208z" />
    <glyph glyph-name="y" unicode="y" horiz-adv-x="469" 
d="M30 -220l6 77q24 -7 49 -7q36 0 56 23.5t37 77.5l10 31l-179 518h109l122 -411l120 411h102l-191 -567q-12 -35 -23.5 -58.5t-30.5 -49.5t-48 -39t-66 -13q-41 0 -73 7z" />
    <glyph glyph-name="z" unicode="z" horiz-adv-x="451" 
d="M422 0h-392v81l278 347h-267v72h379v-81l-277 -346h279v-73z" />
    <glyph glyph-name="braceleft" unicode="{" horiz-adv-x="289" 
d="M280 -128h-73q-48 0 -76 36.5t-28 85.5v161q0 43 -17.5 77.5t-56.5 34.5v61q39 0 56.5 35t17.5 78v159q0 50 28 85.5t77 35.5h72v-59h-41q-27 0 -38 -24.5t-11 -56.5v-157q0 -43 -23.5 -79t-64.5 -48q41 -12 64.5 -48t23.5 -80v-155q0 -32 11 -57.5t38 -25.5h41v-59z" />
    <glyph glyph-name="bar" unicode="|" horiz-adv-x="215" 
d="M152 -216h-88v991h88v-991z" />
    <glyph glyph-name="braceright" unicode="}" horiz-adv-x="289" 
d="M82 -128h-73v59h42q26 0 37 26t11 57v155q0 44 23.5 80t64.5 48q-41 12 -64.5 47.5t-23.5 79.5v157q0 31 -11 56t-37 25h-42v59h73q49 0 77 -35.5t28 -85.5v-159q0 -43 17.5 -78t56.5 -35v-61q-39 0 -56.5 -34.5t-17.5 -77.5v-161q0 -49 -28.5 -85.5t-76.5 -36.5z" />
    <glyph glyph-name="asciitilde" unicode="~" 
d="M70 171h-56q7 63 39.5 108.5t90.5 45.5q46 0 142 -35.5t134 -35.5q59 0 74 75h54q-4 -62 -36 -107.5t-91 -45.5q-46 0 -142 35t-135 35q-31 0 -50.5 -21.5t-23.5 -53.5z" />
    <glyph glyph-name="uni00A0" unicode="&#xa0;" horiz-adv-x="281" 
 />
    <glyph glyph-name="exclamdown" unicode="&#xa1;" horiz-adv-x="278" 
d="M193 398h-107v102h107v-102zM198 -167h-117l17 488h83z" />
    <glyph glyph-name="cent" unicode="&#xa2;" 
d="M343 0h-59v93q-92 12 -143.5 78.5t-51.5 164.5q0 96 52.5 161t142.5 79v91h59v-89q46 0 109 -21l-6 -76q-52 25 -96 25q-74 0 -116 -47.5t-42 -122.5q0 -73 41 -123t112 -50q48 0 102 23l6 -76q-57 -20 -110 -20v-90z" />
    <glyph glyph-name="sterling" unicode="&#xa3;" 
d="M499 0h-419v77h79v240h-75v75h75v55q0 109 55.5 169.5t168.5 60.5q76 0 125 -20l-9 -80q-41 21 -102 21q-79 0 -107 -42t-28 -116v-48h166v-75h-166v-240h237v-77z" />
    <glyph glyph-name="currency" unicode="&#xa4;" 
d="M158 159l-64 -65l-51 51l64 64q-40 58 -40 124q0 68 40 124l-64 65l50 50l64 -65q56 40 124 40q67 0 125 -39l64 63l50 -50l-64 -64q40 -62 40 -125q0 -67 -40 -122l64 -66l-50 -50l-65 65q-56 -41 -123 -41q-63 0 -124 41zM153 279q17 -38 51.5 -61.5t76.5 -23.5
q58 0 98.5 40.5t40.5 98.5q0 57 -40.5 98t-98.5 41t-98 -40.5t-40 -98.5q0 -30 10 -54z" />
    <glyph glyph-name="yen" unicode="&#xa5;" 
d="M225 138h-146v68h146v67h-146v68h113l-169 326h109l150 -309l151 309h107l-176 -326h118v-68h-152v-67h152v-68h-152v-138h-105v138z" />
    <glyph glyph-name="brokenbar" unicode="&#xa6;" horiz-adv-x="215" 
d="M152 379h-88v396h88v-396zM152 -216h-88v397h88v-397z" />
    <glyph glyph-name="section" unicode="&#xa7;" 
d="M243 222l101 -44q50 50 50 94q0 21 -13.5 37.5t-29 25t-40.5 18.5l-81 33q-58 -34 -58 -89q0 -43 71 -75zM88 -97l6 77q72 -31 157 -31q46 0 83.5 21.5t37.5 63.5q0 43 -81 77l-107 45q-101 43 -101 134q0 64 87 130q-68 36 -68 111q0 72 57 109t135 37q79 0 152 -21
l-6 -76q-59 24 -127 24q-42 0 -77 -17.5t-35 -54.5q0 -17 5 -29t20 -22.5t26.5 -16t38.5 -17.5l88 -38q53 -24 78.5 -50t25.5 -77q0 -41 -18.5 -69.5t-56.5 -61.5q63 -42 63 -117t-63.5 -116.5t-145.5 -41.5q-88 0 -174 27z" />
    <glyph glyph-name="dieresis" unicode="&#xa8;" horiz-adv-x="237" 
d="M246 603h-83v97h83v-97zM75 603h-83v97h83v-97z" />
    <glyph glyph-name="copyright" unicode="&#xa9;" horiz-adv-x="780" 
d="M256 16q-94 40 -152 126t-58 192q0 142 101 242.5t243 100.5t243 -100.5t101 -242.5q0 -143 -101 -244t-243 -101q-71 0 -134 27zM192 133q83 -85 198 -85q116 0 196.5 84.5t80.5 201.5t-80.5 200.5t-196.5 83.5t-197 -83.5t-81 -200.5q0 -116 80 -201zM515 217l4 -58
q-43 -18 -96 -18q-98 0 -156.5 51.5t-58.5 141.5q0 87 60.5 140t154.5 53q54 0 96 -16l-4 -58q-41 18 -84 18q-71 0 -110.5 -37t-39.5 -100t39.5 -99.5t110.5 -36.5q40 0 84 19z" />
    <glyph glyph-name="ordfeminine" unicode="&#xaa;" horiz-adv-x="380" 
d="M244 511h-23q-112 0 -112 -54q0 -23 15.5 -34.5t39.5 -11.5q40 0 60 24.5t20 61.5v14zM321 366h-73l-3 47q-31 -54 -104 -54q-47 0 -75.5 23.5t-28.5 69.5q0 104 161 104h46v8q0 61 -75 61q-49 0 -93 -23l-4 56q46 19 106 19q138 0 138 -118v-122q0 -38 5 -71z" />
    <glyph glyph-name="guillemotleft" unicode="&#xab;" horiz-adv-x="465" 
d="M429 55h-86l-132 201l132 199h86l-126 -199zM244 55h-85l-132 201l132 199h85l-126 -199z" />
    <glyph glyph-name="logicalnot" unicode="&#xac;" 
d="M456 310h-430v78h511v-277h-81v199z" />
    <glyph glyph-name="uni00AD" unicode="&#xad;" horiz-adv-x="326" 
d="M286 269h-246v82h246v-82z" />
    <glyph glyph-name="registered" unicode="&#xae;" horiz-adv-x="780" 
d="M256 16q-94 40 -152 126t-58 192q0 142 101 242.5t243 100.5t243 -100.5t101 -242.5q0 -143 -101 -244t-243 -101q-71 0 -134 27zM193 133q83 -85 197 -85q116 0 197 84.5t81 201.5t-81 200.5t-197 83.5t-196.5 -83.5t-80.5 -200.5q0 -116 80 -201zM324 153h-70v376h141
q57 0 95 -24.5t38 -75.5q0 -37 -27 -61.5t-67 -30.5q44 -9 62 -52l56 -132h-74l-47 112q-12 28 -26.5 38.5t-47.5 10.5h-33v-161zM323 477v-112h42q91 0 91 60q0 52 -92 52h-41z" />
    <glyph glyph-name="macron" unicode="&#xaf;" horiz-adv-x="237" 
d="M254 623h-270v59h270v-59z" />
    <glyph glyph-name="degree" unicode="&#xb0;" horiz-adv-x="400" 
d="M93 423q-44 44 -44 106q0 63 44 105.5t107 42.5t107.5 -42t44.5 -106q0 -63 -44.5 -105t-107.5 -42q-61 0 -107 41zM114 494q12 -24 35.5 -39t50.5 -15q37 0 65 26t28 63q0 41 -26 66t-67 25t-67 -25t-26 -66q0 -20 7 -35z" />
    <glyph glyph-name="plusminus" unicode="&#xb1;" 
d="M241 270h-215v78h215v170h81v-170h215v-78h-215v-168h-81v168zM537 -19h-511v77h511v-77z" />
    <glyph glyph-name="twosuperior" unicode="&#xb2;" horiz-adv-x="430" 
d="M351 370h-288v61l75 63q65 55 95 91.5t30 71.5q0 29 -21 45.5t-57 16.5q-46 0 -106 -25l-3 62q64 24 120 24q63 0 106 -28.5t43 -87.5q0 -46 -32 -88.5t-90 -92.5l-62 -54h190v-59z" />
    <glyph glyph-name="threesuperior" unicode="&#xb3;" horiz-adv-x="430" 
d="M62 378l3 60q44 -17 105 -17q43 0 73 17.5t30 52.5q0 33 -29.5 47.5t-73.5 14.5h-53v54h44q106 0 106 61q0 28 -27.5 41.5t-64.5 13.5q-55 0 -99 -18l-3 58q51 17 113 17q65 0 112.5 -24.5t47.5 -80.5q0 -73 -76 -93q36 -7 60 -31.5t24 -59.5q0 -65 -52 -96.5t-125 -31.5
q-65 0 -115 15z" />
    <glyph glyph-name="acute" unicode="&#xb4;" horiz-adv-x="237" 
d="M142 584h-77l71 136h109z" />
    <glyph glyph-name="mu" unicode="&#xb5;" 
d="M168 -216h-100v716h101v-296q0 -63 20.5 -100t78.5 -37q64 0 92 45t28 114v274h100v-385q0 -70 5 -115h-94l-3 87q-50 -95 -143 -95q-55 0 -85 32v-240z" />
    <glyph glyph-name="paragraph" unicode="&#xb6;" 
d="M317 -108h-78v430q-83 0 -142.5 46.5t-59.5 126.5q0 95 61 137.5t161 42.5h255v-783h-78v720h-119v-720z" />
    <glyph glyph-name="periodcentered" unicode="&#xb7;" horiz-adv-x="281" 
d="M194 259h-107v102h107v-102z" />
    <glyph glyph-name="cedilla" unicode="&#xb8;" horiz-adv-x="237" 
d="M18 -167l13 39q43 -16 81 -16q21 0 33.5 8.5t12.5 22.5q0 31 -36 31q-28 0 -46 -8l-16 23l49 67h46l-38 -52q15 4 37 4q28 0 48 -16.5t20 -45.5q0 -35 -29 -55t-78 -20q-50 0 -97 18z" />
    <glyph glyph-name="onesuperior" unicode="&#xb9;" horiz-adv-x="430" 
d="M284 370h-78v323l-88 -63l-32 55l131 89h67v-404z" />
    <glyph glyph-name="ordmasculine" unicode="&#xba;" horiz-adv-x="380" 
d="M127 448q21 -33 62 -33q42 0 62 29.5t20 73.5q0 41 -19.5 72t-60.5 31q-42 0 -61.5 -30t-19.5 -73q0 -42 17 -70zM189 359q-76 0 -118 43t-42 116q0 72 43.5 115.5t118.5 43.5t117.5 -43t42.5 -116q0 -72 -43.5 -115.5t-118.5 -43.5z" />
    <glyph glyph-name="guillemotright" unicode="&#xbb;" horiz-adv-x="465" 
d="M307 55h-86l126 200l-126 200h86l132 -200zM122 55h-85l126 200l-126 200h85l132 -200z" />
    <glyph glyph-name="onequarter" unicode="&#xbc;" horiz-adv-x="950" 
d="M705 336l-140 -191h140v191zM705 86h-199v68l189 251h86v-259h60v-60h-60v-86h-76v86zM281 266h-78v324l-88 -63l-32 55l131 89h67v-405zM267 -24h-70l423 715h70z" />
    <glyph glyph-name="onehalf" unicode="&#xbd;" horiz-adv-x="950" 
d="M839 0h-288v61l75 63q65 55 95 91.5t30 72.5q0 29 -21 45.5t-57 16.5q-46 0 -106 -25l-3 62q64 24 120 24q63 0 106 -28.5t43 -87.5q0 -47 -32 -89.5t-90 -92.5l-62 -54h190v-59zM252 266h-78v324l-88 -63l-32 55l131 89h67v-405zM237 -24h-70l423 715h70z" />
    <glyph glyph-name="threequarters" unicode="&#xbe;" horiz-adv-x="950" 
d="M765 336l-140 -191h140v191zM765 86h-199v68l189 251h86v-259h60v-60h-60v-86h-76v86zM65 275l3 59q45 -16 105 -16q44 0 73.5 17.5t29.5 51.5q0 33 -29.5 48t-73.5 15h-53v54h44q106 0 106 61q0 28 -27 41t-65 13q-54 0 -99 -17l-3 58q51 17 113 17q41 0 74.5 -8.5
t59.5 -33.5t26 -64q0 -72 -76 -92q36 -9 60 -32.5t24 -58.5q0 -65 -52 -97t-125 -32q-66 0 -115 16zM326 -24h-70l424 715h70z" />
    <glyph glyph-name="questiondown" unicode="&#xbf;" horiz-adv-x="426" 
d="M303 398h-107v102h107v-102zM391 -67l6 -83q-92 -27 -157 -27q-86 0 -145 43t-59 125q0 42 17.5 77t42 59.5l49 49t42 57.5t17.5 73v14h91v-13q0 -48 -15.5 -85t-37.5 -60.5t-44.5 -45.5t-38 -51t-15.5 -65q0 -45 32 -69.5t80 -24.5q60 0 135 26z" />
    <glyph glyph-name="Agrave" unicode="&#xc0;" horiz-adv-x="662" 
d="M108 0h-106l260 667h137l262 -667h-114l-64 175h-309zM329 590l-128 -335h255zM382 724h-76l-104 136h108z" />
    <glyph glyph-name="Aacute" unicode="&#xc1;" horiz-adv-x="662" 
d="M108 0h-106l260 667h137l262 -667h-114l-64 175h-309zM329 590l-128 -335h255zM361 724h-77l71 136h109z" />
    <glyph glyph-name="Acircumflex" unicode="&#xc2;" horiz-adv-x="662" 
d="M108 0h-106l260 667h137l262 -667h-114l-64 175h-309zM329 590l-128 -335h255zM257 724h-77l103 136h92l103 -136h-77l-72 92z" />
    <glyph glyph-name="Atilde" unicode="&#xc3;" horiz-adv-x="662" 
d="M108 0h-106l260 667h137l262 -667h-114l-64 175h-309zM329 590l-128 -335h255zM230 735h-55q2 43 27 75.5t67 32.5q27 0 69 -20t57 -20q17 0 27.5 13t11.5 30h55q0 -39 -27 -73t-66 -34q-28 0 -66.5 19.5t-56.5 19.5q-17 0 -30 -13.5t-13 -29.5z" />
    <glyph glyph-name="Adieresis" unicode="&#xc4;" horiz-adv-x="662" 
d="M108 0h-106l260 667h137l262 -667h-114l-64 175h-309zM329 590l-128 -335h255zM287 743h-83v97h83v-97zM458 743h-83v97h83v-97z" />
    <glyph glyph-name="Aring" unicode="&#xc5;" horiz-adv-x="662" 
d="M108 0h-106l260 667h137l262 -667h-114l-64 175h-309zM329 590l-128 -335h255zM272 792q0 -24 16.5 -40t40.5 -16t40.5 16t16.5 40q0 23 -16.5 39.5t-40.5 16.5t-40.5 -16.5t-16.5 -39.5zM260 724q-29 29 -29 68q0 40 28.5 68t69.5 28q39 0 68.5 -28.5t29.5 -67.5
q0 -40 -28.5 -68t-69.5 -28q-38 0 -69 28z" />
    <glyph glyph-name="AE" unicode="&#xc6;" horiz-adv-x="895" 
d="M106 0h-113l412 667h436v-81h-267v-206h253v-79h-253v-220h277v-81h-384v175h-255zM467 600l-211 -345h211v345z" />
    <glyph glyph-name="Ccedilla" unicode="&#xc7;" horiz-adv-x="595" 
d="M256 -167l13 39q43 -16 81 -16q21 0 33.5 8.5t12.5 22.5q0 31 -36 31q-28 0 -46 -8l-16 23l43 60q-136 16 -215.5 106t-79.5 234q0 152 99.5 248t253.5 96q92 0 161 -25l-6 -88q-60 28 -143 28q-115 0 -183 -72.5t-68 -186.5q0 -118 66 -188.5t183 -70.5q85 0 147 29
l6 -85q-65 -29 -163 -29h-14l-30 -41q15 4 37 4q28 0 48 -16.5t20 -45.5q0 -35 -29 -55t-78 -20q-50 0 -97 18z" />
    <glyph glyph-name="Egrave" unicode="&#xc8;" horiz-adv-x="517" 
d="M473 0h-393v667h383v-81h-276v-205h263v-80h-263v-220h286v-81zM329 724h-76l-104 136h108z" />
    <glyph glyph-name="Eacute" unicode="&#xc9;" horiz-adv-x="517" 
d="M473 0h-393v667h383v-81h-276v-205h263v-80h-263v-220h286v-81zM291 724h-77l71 136h109z" />
    <glyph glyph-name="Ecircumflex" unicode="&#xca;" horiz-adv-x="517" 
d="M473 0h-393v667h383v-81h-276v-205h263v-80h-263v-220h286v-81zM198 724h-77l103 136h92l103 -136h-77l-72 92z" />
    <glyph glyph-name="Edieresis" unicode="&#xcb;" horiz-adv-x="517" 
d="M473 0h-393v667h383v-81h-276v-205h263v-80h-263v-220h286v-81zM229 743h-83v97h83v-97zM400 743h-83v97h83v-97z" />
    <glyph glyph-name="Igrave" unicode="&#xcc;" horiz-adv-x="268" 
d="M189 0h-109v667h109v-667zM185 724h-76l-104 136h108z" />
    <glyph glyph-name="Iacute" unicode="&#xcd;" horiz-adv-x="268" 
d="M189 0h-109v667h109v-667zM160 724h-77l71 136h109z" />
    <glyph glyph-name="Icircumflex" unicode="&#xce;" horiz-adv-x="268" 
d="M189 0h-109v667h109v-667zM62 724h-77l103 136h92l103 -136h-77l-72 92z" />
    <glyph glyph-name="Idieresis" unicode="&#xcf;" horiz-adv-x="268" 
d="M189 0h-109v667h109v-667zM90 743h-83v97h83v-97zM261 743h-83v97h83v-97z" />
    <glyph glyph-name="Eth" unicode="&#xd0;" horiz-adv-x="672" 
d="M189 304v-223h55q131 0 199.5 65.5t68.5 196.5q0 116 -61 179.5t-177 63.5h-85v-212h161v-70h-161zM255 0h-175v304h-75v70h75v293h205q164 0 252.5 -81t88.5 -243q0 -169 -100 -256t-271 -87z" />
    <glyph glyph-name="Ntilde" unicode="&#xd1;" horiz-adv-x="703" 
d="M178 0h-98v667h156l289 -568v568h99v-667h-157l-289 568v-568zM259 735h-55q2 43 27 75.5t67 32.5q27 0 69 -20t57 -20q17 0 27.5 13t11.5 30h55q0 -39 -27 -73t-66 -34q-28 0 -66.5 19.5t-56.5 19.5q-17 0 -30 -13.5t-13 -29.5z" />
    <glyph glyph-name="Ograve" unicode="&#xd2;" horiz-adv-x="716" 
d="M221 15q-86 38 -130.5 121t-44.5 197q0 150 82 247t230 97q151 0 231.5 -95t80.5 -249q0 -151 -81.5 -247.5t-230.5 -96.5q-77 0 -137 26zM206 156q56 -85 152 -85q69 0 115.5 41t64.5 97.5t18 123.5t-18 123.5t-64.5 97.5t-115.5 41q-51 0 -90.5 -23.5t-62.5 -62
t-34 -83.5t-11 -93q0 -104 46 -177zM405 724h-76l-104 136h108z" />
    <glyph glyph-name="Oacute" unicode="&#xd3;" horiz-adv-x="716" 
d="M221 15q-86 38 -130.5 121t-44.5 197q0 150 82 247t230 97q151 0 231.5 -95t80.5 -249q0 -151 -81.5 -247.5t-230.5 -96.5q-77 0 -137 26zM206 156q56 -85 152 -85q69 0 115.5 41t64.5 97.5t18 123.5t-18 123.5t-64.5 97.5t-115.5 41q-51 0 -90.5 -23.5t-62.5 -62
t-34 -83.5t-11 -93q0 -104 46 -177zM388 724h-77l71 136h109z" />
    <glyph glyph-name="Ocircumflex" unicode="&#xd4;" horiz-adv-x="716" 
d="M221 15q-86 38 -130.5 121t-44.5 197q0 150 82 247t230 97q151 0 231.5 -95t80.5 -249q0 -151 -81.5 -247.5t-230.5 -96.5q-77 0 -137 26zM206 156q56 -85 152 -85q69 0 115.5 41t64.5 97.5t18 123.5t-18 123.5t-64.5 97.5t-115.5 41q-51 0 -90.5 -23.5t-62.5 -62
t-34 -83.5t-11 -93q0 -104 46 -177zM286 724h-77l103 136h92l103 -136h-77l-72 92z" />
    <glyph glyph-name="Otilde" unicode="&#xd5;" horiz-adv-x="716" 
d="M221 15q-86 38 -130.5 121t-44.5 197q0 150 82 247t230 97q151 0 231.5 -95t80.5 -249q0 -151 -81.5 -247.5t-230.5 -96.5q-77 0 -137 26zM206 156q56 -85 152 -85q69 0 115.5 41t64.5 97.5t18 123.5t-18 123.5t-64.5 97.5t-115.5 41q-51 0 -90.5 -23.5t-62.5 -62
t-34 -83.5t-11 -93q0 -104 46 -177zM256 735h-55q2 43 27 75.5t67 32.5q27 0 69 -20t57 -20q17 0 27.5 13t11.5 30h55q0 -39 -27 -73t-66 -34q-28 0 -66.5 19.5t-56.5 19.5q-17 0 -30 -13.5t-13 -29.5z" />
    <glyph glyph-name="Odieresis" unicode="&#xd6;" horiz-adv-x="716" 
d="M221 15q-86 38 -130.5 121t-44.5 197q0 150 82 247t230 97q151 0 231.5 -95t80.5 -249q0 -151 -81.5 -247.5t-230.5 -96.5q-77 0 -137 26zM206 156q56 -85 152 -85q69 0 115.5 41t64.5 97.5t18 123.5t-18 123.5t-64.5 97.5t-115.5 41q-51 0 -90.5 -23.5t-62.5 -62
t-34 -83.5t-11 -93q0 -104 46 -177zM314 743h-83v97h83v-97zM485 743h-83v97h83v-97z" />
    <glyph glyph-name="multiply" unicode="&#xd7;" 
d="M95 8l-56 55l187 187l-187 186l56 57l186 -188l187 187l56 -56l-186 -186l186 -187l-56 -56l-186 187z" />
    <glyph glyph-name="Oslash" unicode="&#xd8;" horiz-adv-x="716" 
d="M530 480l-309 -348q48 -61 137 -61q53 0 93 23t62.5 62t33.5 83.5t11 93.5q0 92 -28 147zM189 186l307 350q-52 59 -136 59q-53 0 -93.5 -23.5t-63 -62.5t-33.5 -83.5t-11 -92.5q0 -94 30 -147zM77 -25l-45 41l79 90q-65 89 -65 227q0 150 82 247t230 97q123 0 204 -70
l75 84l45 -41l-77 -89q65 -91 65 -228q0 -151 -81.5 -247.5t-230.5 -96.5q-125 0 -205 71z" />
    <glyph glyph-name="Ugrave" unicode="&#xd9;" horiz-adv-x="670" 
d="M181 667v-425q0 -76 39.5 -122t114.5 -46q76 0 115.5 46t39.5 122v425h109v-424q0 -119 -73 -186.5t-192 -67.5t-190.5 66t-71.5 185v427h109zM394 724h-76l-104 136h108z" />
    <glyph glyph-name="Uacute" unicode="&#xda;" horiz-adv-x="670" 
d="M181 667v-425q0 -76 39.5 -122t114.5 -46q76 0 115.5 46t39.5 122v425h109v-424q0 -119 -73 -186.5t-192 -67.5t-190.5 66t-71.5 185v427h109zM353 724h-77l71 136h109z" />
    <glyph glyph-name="Ucircumflex" unicode="&#xdb;" horiz-adv-x="670" 
d="M181 667v-425q0 -76 39.5 -122t114.5 -46q76 0 115.5 46t39.5 122v425h109v-424q0 -119 -73 -186.5t-192 -67.5t-190.5 66t-71.5 185v427h109zM262 724h-77l103 136h92l103 -136h-77l-72 92z" />
    <glyph glyph-name="Udieresis" unicode="&#xdc;" horiz-adv-x="670" 
d="M181 667v-425q0 -76 39.5 -122t114.5 -46q76 0 115.5 46t39.5 122v425h109v-424q0 -119 -73 -186.5t-192 -67.5t-190.5 66t-71.5 185v427h109zM292 743h-83v97h83v-97zM463 743h-83v97h83v-97z" />
    <glyph glyph-name="Yacute" unicode="&#xdd;" horiz-adv-x="599" 
d="M353 0h-109v266l-246 401h120l185 -318l183 318h116l-249 -401v-266zM328 724h-77l71 136h109z" />
    <glyph glyph-name="Thorn" unicode="&#xde;" horiz-adv-x="549" 
d="M187 0h-107v667h107v-128h117q97 0 158 -51.5t61 -146.5q0 -99 -63.5 -151t-159.5 -52h-113v-138zM187 459v-242h51q39 0 66 4t53.5 16t40.5 38t14 65q0 58 -37 88.5t-98 30.5h-90z" />
    <glyph glyph-name="germandbls" unicode="&#xdf;" horiz-adv-x="577" 
d="M169 0h-100v457q0 133 62 203.5t175 70.5q96 0 149.5 -50t53.5 -155q0 -29 -5 -61q-30 -1 -46 -2.5t-37 -6t-31.5 -13t-18.5 -23.5t-8 -37q0 -24 19 -43.5t45.5 -35.5t53.5 -35t46 -50.5t19 -73.5q0 -75 -48 -115.5t-120 -40.5q-67 0 -125 23l6 77q50 -26 103 -26
q39 0 61 20t22 59q0 31 -18.5 54t-44.5 39t-52 33.5t-44.5 46t-18.5 67.5q0 62 41 95.5t103 37.5q3 16 3 35q0 50 -27 79t-83 29q-135 0 -135 -205v-453z" />
    <glyph glyph-name="agrave" unicode="&#xe0;" horiz-adv-x="517" 
d="M352 245h-27q-42 0 -73 -4t-60.5 -14t-45 -31t-15.5 -53q0 -41 24.5 -61t66.5 -20q65 0 97.5 44t32.5 112v27zM456 0h-98l-3 79q-50 -90 -157 -90q-73 0 -119.5 37t-46.5 111q0 170 264 170q41 0 56 -1v21q0 113 -114 113q-83 0 -147 -40l-6 77q82 33 162 33
q203 0 203 -190v-209q0 -59 6 -111zM309 584h-76l-104 136h108z" />
    <glyph glyph-name="aacute" unicode="&#xe1;" horiz-adv-x="517" 
d="M352 245h-27q-42 0 -73 -4t-60.5 -14t-45 -31t-15.5 -53q0 -41 24.5 -61t66.5 -20q65 0 97.5 44t32.5 112v27zM456 0h-98l-3 79q-50 -90 -157 -90q-73 0 -119.5 37t-46.5 111q0 170 264 170q41 0 56 -1v21q0 113 -114 113q-83 0 -147 -40l-6 77q82 33 162 33
q203 0 203 -190v-209q0 -59 6 -111zM276 584h-77l71 136h109z" />
    <glyph glyph-name="acircumflex" unicode="&#xe2;" horiz-adv-x="517" 
d="M352 245h-27q-42 0 -73 -4t-60.5 -14t-45 -31t-15.5 -53q0 -41 24.5 -61t66.5 -20q65 0 97.5 44t32.5 112v27zM456 0h-98l-3 79q-50 -90 -157 -90q-73 0 -119.5 37t-46.5 111q0 170 264 170q41 0 56 -1v21q0 113 -114 113q-83 0 -147 -40l-6 77q82 33 162 33
q203 0 203 -190v-209q0 -59 6 -111zM187 584h-77l103 136h92l103 -136h-77l-72 92z" />
    <glyph glyph-name="atilde" unicode="&#xe3;" horiz-adv-x="517" 
d="M352 245h-27q-42 0 -73 -4t-60.5 -14t-45 -31t-15.5 -53q0 -41 24.5 -61t66.5 -20q65 0 97.5 44t32.5 112v27zM456 0h-98l-3 79q-50 -90 -157 -90q-73 0 -119.5 37t-46.5 111q0 170 264 170q41 0 56 -1v21q0 113 -114 113q-83 0 -147 -40l-6 77q82 33 162 33
q203 0 203 -190v-209q0 -59 6 -111zM160 595h-55q3 43 27 75.5t67 32.5q27 0 69 -20t57 -20q17 0 27.5 13t11.5 30h55q0 -39 -27 -73t-66 -34q-28 0 -66.5 19.5t-56.5 19.5q-17 0 -30 -13.5t-13 -29.5z" />
    <glyph glyph-name="adieresis" unicode="&#xe4;" horiz-adv-x="517" 
d="M352 245h-27q-42 0 -73 -4t-60.5 -14t-45 -31t-15.5 -53q0 -41 24.5 -61t66.5 -20q65 0 97.5 44t32.5 112v27zM456 0h-98l-3 79q-50 -90 -157 -90q-73 0 -119.5 37t-46.5 111q0 170 264 170q41 0 56 -1v21q0 113 -114 113q-83 0 -147 -40l-6 77q82 33 162 33
q203 0 203 -190v-209q0 -59 6 -111zM385 603h-83v97h83v-97zM214 603h-83v97h83v-97z" />
    <glyph glyph-name="aring" unicode="&#xe5;" horiz-adv-x="517" 
d="M352 245h-27q-42 0 -73 -4t-60.5 -14t-45 -31t-15.5 -53q0 -41 24.5 -61t66.5 -20q65 0 97.5 44t32.5 112v27zM456 0h-98l-3 79q-50 -90 -157 -90q-73 0 -119.5 37t-46.5 111q0 170 264 170q41 0 56 -1v21q0 113 -114 113q-83 0 -147 -40l-6 77q82 33 162 33
q203 0 203 -190v-209q0 -59 6 -111zM184 584q-29 29 -29 68q0 40 28.5 68t69.5 28q39 0 68.5 -28.5t29.5 -67.5q0 -40 -28.5 -68t-69.5 -28q-38 0 -69 28zM196 652q0 -24 16.5 -40t40.5 -16t40.5 16t16.5 40q0 23 -16.5 39.5t-40.5 16.5t-40.5 -16.5t-16.5 -39.5z" />
    <glyph glyph-name="ae" unicode="&#xe6;" horiz-adv-x="811" 
d="M440 290h240q0 151 -112 151q-59 0 -92 -45.5t-36 -105.5zM348 232h-28q-38 0 -61.5 -1t-51 -6t-42.5 -14.5t-25.5 -27t-10.5 -42.5q0 -40 24.5 -59.5t63.5 -19.5q64 0 97.5 41.5t33.5 107.5v21zM91 400l-6 77q82 33 161 33q123 0 161 -84q63 84 160 84q209 0 209 -252
v-30h-335q0 -73 44 -121t123 -48q76 0 135 31l6 -74q-67 -27 -155 -27q-151 0 -208 100q-54 -100 -188 -100q-70 0 -118.5 35.5t-48.5 109.5q0 48 22 80.5t62.5 48.5t83.5 22.5t99 6.5q35 0 50 -1v37q0 112 -111 112q-82 0 -146 -40z" />
    <glyph glyph-name="ccedilla" unicode="&#xe7;" horiz-adv-x="457" 
d="M170 -167l13 39q43 -16 81 -16q21 0 33.5 8.5t12.5 22.5q0 31 -36 31q-28 0 -46 -8l-16 23l40 59q-103 14 -158 83.5t-55 176.5q0 116 72.5 187t190.5 71q76 0 125 -17l-6 -80q-45 22 -105 22q-79 0 -124 -51t-45 -132q0 -80 45.5 -133.5t129.5 -53.5q51 0 99 22l5 -79
q-51 -19 -126 -19h-3l-28 -41q15 4 37 4q28 0 48 -16.5t20 -45.5q0 -35 -29 -55t-78 -20q-50 0 -97 18z" />
    <glyph glyph-name="egrave" unicode="&#xe8;" horiz-adv-x="510" 
d="M141 290h240q0 151 -112 151q-59 0 -92 -45.5t-36 -105.5zM477 228h-335q0 -73 44 -121t123 -48q76 0 135 31l6 -74q-67 -27 -155 -27q-124 0 -190 71.5t-66 191.5q0 107 62.5 182.5t166.5 75.5q209 0 209 -252v-30zM317 584h-76l-104 136h108z" />
    <glyph glyph-name="eacute" unicode="&#xe9;" horiz-adv-x="510" 
d="M141 290h240q0 151 -112 151q-59 0 -92 -45.5t-36 -105.5zM477 228h-335q0 -73 44 -121t123 -48q76 0 135 31l6 -74q-67 -27 -155 -27q-124 0 -190 71.5t-66 191.5q0 107 62.5 182.5t166.5 75.5q209 0 209 -252v-30zM288 584h-77l71 136h109z" />
    <glyph glyph-name="ecircumflex" unicode="&#xea;" horiz-adv-x="510" 
d="M141 290h240q0 151 -112 151q-59 0 -92 -45.5t-36 -105.5zM477 228h-335q0 -73 44 -121t123 -48q76 0 135 31l6 -74q-67 -27 -155 -27q-124 0 -190 71.5t-66 191.5q0 107 62.5 182.5t166.5 75.5q209 0 209 -252v-30zM191 584h-77l103 136h92l103 -136h-77l-72 92z" />
    <glyph glyph-name="edieresis" unicode="&#xeb;" horiz-adv-x="510" 
d="M141 290h240q0 151 -112 151q-59 0 -92 -45.5t-36 -105.5zM477 228h-335q0 -73 44 -121t123 -48q76 0 135 31l6 -74q-67 -27 -155 -27q-124 0 -190 71.5t-66 191.5q0 107 62.5 182.5t166.5 75.5q209 0 209 -252v-30zM390 603h-83v97h83v-97zM219 603h-83v97h83v-97z" />
    <glyph glyph-name="igrave" unicode="&#xec;" horiz-adv-x="237" 
d="M169 0h-100v500h100v-500zM173 584h-76l-104 136h108z" />
    <glyph glyph-name="iacute" unicode="&#xed;" horiz-adv-x="237" 
d="M169 0h-100v500h100v-500zM139 584h-77l71 136h109z" />
    <glyph glyph-name="icircumflex" unicode="&#xee;" horiz-adv-x="237" 
d="M169 0h-100v500h100v-500zM47 584h-77l103 136h92l103 -136h-77l-72 92z" />
    <glyph glyph-name="idieresis" unicode="&#xef;" horiz-adv-x="237" 
d="M169 0h-100v500h100v-500zM246 603h-83v97h83v-97zM75 603h-83v97h83v-97z" />
    <glyph glyph-name="eth" unicode="&#xf0;" horiz-adv-x="570" 
d="M309 598l-113 -62l-39 43l97 53q-54 32 -121 46l45 53q75 -11 150 -58l104 58l39 -43l-87 -49q147 -123 147 -359q0 -129 -64 -210t-183 -81q-116 0 -180.5 70t-64.5 188q0 109 61 180t169 71q89 0 154 -74q-31 110 -114 174zM178 121q39 -56 107 -56q70 0 104 52.5
t34 129.5q0 74 -33.5 125t-104.5 51q-70 0 -104 -51.5t-34 -124.5q0 -74 31 -126z" />
    <glyph glyph-name="ntilde" unicode="&#xf1;" horiz-adv-x="559" 
d="M169 0h-100v385q0 66 -5 115h94l3 -86q53 96 162 96q168 0 168 -194v-316h-101v295q0 63 -20.5 100t-78.5 37q-64 0 -93 -46t-29 -114v-272zM180 595h-55q3 43 27 75.5t67 32.5q27 0 69 -20t57 -20q17 0 27.5 13t11.5 30h55q0 -39 -27 -73t-66 -34q-28 0 -66.5 19.5
t-56.5 19.5q-17 0 -30 -13.5t-13 -29.5z" />
    <glyph glyph-name="ograve" unicode="&#xf2;" horiz-adv-x="570" 
d="M179 8q-68 30 -104 94t-36 150q0 115 67.5 186.5t178.5 71.5q117 0 181.5 -69.5t64.5 -188.5q0 -117 -65 -190t-181 -73q-61 0 -106 19zM178 124q39 -59 107 -59q70 0 104 54.5t34 132.5q0 76 -33.5 129.5t-104.5 53.5q-69 0 -103.5 -54t-34.5 -129t31 -128zM336 584h-76
l-104 136h108z" />
    <glyph glyph-name="oacute" unicode="&#xf3;" horiz-adv-x="570" 
d="M179 8q-68 30 -104 94t-36 150q0 115 67.5 186.5t178.5 71.5q117 0 181.5 -69.5t64.5 -188.5q0 -117 -65 -190t-181 -73q-61 0 -106 19zM178 124q39 -59 107 -59q70 0 104 54.5t34 132.5q0 76 -33.5 129.5t-104.5 53.5q-69 0 -103.5 -54t-34.5 -129t31 -128zM308 584h-77
l71 136h109z" />
    <glyph glyph-name="ocircumflex" unicode="&#xf4;" horiz-adv-x="570" 
d="M179 8q-68 30 -104 94t-36 150q0 115 67.5 186.5t178.5 71.5q117 0 181.5 -69.5t64.5 -188.5q0 -117 -65 -190t-181 -73q-61 0 -106 19zM178 124q39 -59 107 -59q70 0 104 54.5t34 132.5q0 76 -33.5 129.5t-104.5 53.5q-69 0 -103.5 -54t-34.5 -129t31 -128zM213 584h-77
l103 136h92l103 -136h-77l-72 92z" />
    <glyph glyph-name="otilde" unicode="&#xf5;" horiz-adv-x="570" 
d="M179 8q-68 30 -104 94t-36 150q0 115 67.5 186.5t178.5 71.5q117 0 181.5 -69.5t64.5 -188.5q0 -117 -65 -190t-181 -73q-61 0 -106 19zM178 124q39 -59 107 -59q70 0 104 54.5t34 132.5q0 76 -33.5 129.5t-104.5 53.5q-69 0 -103.5 -54t-34.5 -129t31 -128zM184 595h-55
q3 43 27 75.5t67 32.5q27 0 69 -20t57 -20q17 0 27.5 13t11.5 30h55q0 -39 -27 -73t-66 -34q-28 0 -66.5 19.5t-56.5 19.5q-17 0 -30 -13.5t-13 -29.5z" />
    <glyph glyph-name="odieresis" unicode="&#xf6;" horiz-adv-x="570" 
d="M179 8q-68 30 -104 94t-36 150q0 115 67.5 186.5t178.5 71.5q117 0 181.5 -69.5t64.5 -188.5q0 -117 -65 -190t-181 -73q-61 0 -106 19zM178 124q39 -59 107 -59q70 0 104 54.5t34 132.5q0 76 -33.5 129.5t-104.5 53.5q-69 0 -103.5 -54t-34.5 -129t31 -128zM412 603h-83
v97h83v-97zM241 603h-83v97h83v-97z" />
    <glyph glyph-name="divide" unicode="&#xf7;" 
d="M281 374q-25 0 -42 17t-17 43q0 25 17 42.5t42 17.5t42.5 -17.5t17.5 -42.5t-17 -42.5t-43 -17.5zM537 210h-511v79h511v-79zM281 4q-25 0 -42 17.5t-17 43.5q0 25 17 42.5t42 17.5t42.5 -17.5t17.5 -42.5t-17 -43t-43 -18z" />
    <glyph glyph-name="oslash" unicode="&#xf8;" horiz-adv-x="570" 
d="M406 352l-217 -243q34 -44 97 -44q70 0 104 54t34 133q0 60 -18 100zM166 150l216 243q-35 42 -96 42q-70 0 -105 -54t-35 -131q0 -64 20 -100zM67 -27l-41 32l66 73q-52 67 -52 174q0 116 66.5 187t179.5 71q97 0 158 -49l59 65l41 -32l-64 -71q52 -61 52 -171
q0 -117 -65 -190t-181 -73q-96 0 -159 52z" />
    <glyph glyph-name="ugrave" unicode="&#xf9;" horiz-adv-x="555" 
d="M167 500v-294q0 -63 20.5 -100.5t78.5 -37.5q64 0 92.5 46t28.5 114v272h100v-385q0 -66 5 -115h-94l-3 85q-53 -96 -161 -96q-167 0 -167 196v315h100zM333 584h-76l-104 136h108z" />
    <glyph glyph-name="uacute" unicode="&#xfa;" horiz-adv-x="555" 
d="M167 500v-294q0 -63 20.5 -100.5t78.5 -37.5q64 0 92.5 46t28.5 114v272h100v-385q0 -66 5 -115h-94l-3 85q-53 -96 -161 -96q-167 0 -167 196v315h100zM299 584h-77l71 136h109z" />
    <glyph glyph-name="ucircumflex" unicode="&#xfb;" horiz-adv-x="555" 
d="M167 500v-294q0 -63 20.5 -100.5t78.5 -37.5q64 0 92.5 46t28.5 114v272h100v-385q0 -66 5 -115h-94l-3 85q-53 -96 -161 -96q-167 0 -167 196v315h100zM206 584h-77l103 136h92l103 -136h-77l-72 92z" />
    <glyph glyph-name="udieresis" unicode="&#xfc;" horiz-adv-x="555" 
d="M167 500v-294q0 -63 20.5 -100.5t78.5 -37.5q64 0 92.5 46t28.5 114v272h100v-385q0 -66 5 -115h-94l-3 85q-53 -96 -161 -96q-167 0 -167 196v315h100zM405 603h-83v97h83v-97zM234 603h-83v97h83v-97z" />
    <glyph glyph-name="yacute" unicode="&#xfd;" horiz-adv-x="469" 
d="M30 -220l6 77q24 -7 49 -7q36 0 56 23.5t37 77.5l10 31l-179 518h109l122 -411l120 411h102l-191 -567q-12 -35 -23.5 -58.5t-30.5 -49.5t-48 -39t-66 -13q-41 0 -73 7zM272 584h-77l71 136h109z" />
    <glyph glyph-name="thorn" unicode="&#xfe;" horiz-adv-x="565" 
d="M169 -216h-100v937h100v-304q18 43 61 68t92 25q106 0 155.5 -73.5t49.5 -184.5t-51 -187t-156 -76q-50 0 -91.5 24t-59.5 68v-297zM193 129q35 -63 100 -63q47 0 77 30.5t39.5 69.5t9.5 86q0 181 -125 181q-45 0 -75 -29.5t-41.5 -68.5t-11.5 -83q0 -73 27 -123z" />
    <glyph glyph-name="ydieresis" unicode="&#xff;" horiz-adv-x="469" 
d="M30 -220l6 77q24 -7 49 -7q36 0 56 23.5t37 77.5l10 31l-179 518h109l122 -411l120 411h102l-191 -567q-12 -35 -23.5 -58.5t-30.5 -49.5t-48 -39t-66 -13q-41 0 -73 7zM367 603h-83v97h83v-97zM196 603h-83v97h83v-97z" />
    <glyph glyph-name="Amacron" unicode="&#x100;" horiz-adv-x="662" 
d="M108 0h-106l260 667h137l262 -667h-114l-64 175h-309zM329 590l-128 -335h255zM466 763h-270v59h270v-59z" />
    <glyph glyph-name="amacron" unicode="&#x101;" horiz-adv-x="517" 
d="M352 245h-27q-42 0 -73 -4t-60.5 -14t-45 -31t-15.5 -53q0 -41 24.5 -61t66.5 -20q65 0 97.5 44t32.5 112v27zM456 0h-98l-3 79q-50 -90 -157 -90q-73 0 -119.5 37t-46.5 111q0 170 264 170q41 0 56 -1v21q0 113 -114 113q-83 0 -147 -40l-6 77q82 33 162 33
q203 0 203 -190v-209q0 -59 6 -111zM392 623h-270v59h270v-59z" />
    <glyph glyph-name="Abreve" unicode="&#x102;" horiz-adv-x="662" 
d="M108 0h-106l260 667h137l262 -667h-114l-64 175h-309zM329 590l-128 -335h255zM201 853h54q3 -30 23 -49t54 -19t54.5 19t23.5 49h53q0 -41 -33.5 -82.5t-97.5 -41.5t-97.5 41.5t-33.5 82.5z" />
    <glyph glyph-name="abreve" unicode="&#x103;" horiz-adv-x="517" 
d="M352 245h-27q-42 0 -73 -4t-60.5 -14t-45 -31t-15.5 -53q0 -41 24.5 -61t66.5 -20q65 0 97.5 44t32.5 112v27zM456 0h-98l-3 79q-50 -90 -157 -90q-73 0 -119.5 37t-46.5 111q0 170 264 170q41 0 56 -1v21q0 113 -114 113q-83 0 -147 -40l-6 77q82 33 162 33
q203 0 203 -190v-209q0 -59 6 -111zM127 713h54q3 -30 23 -49t54 -19t54.5 19t23.5 49h53q0 -41 -33.5 -82.5t-97.5 -41.5t-97.5 41.5t-33.5 82.5z" />
    <glyph glyph-name="Aogonek" unicode="&#x104;" horiz-adv-x="662" 
d="M329 590l-128 -335h255zM108 0h-106l260 667h137l262 -667h-45q-72 -46 -72 -95q0 -22 14 -33.5t34 -11.5q25 0 58 16l13 -40q-44 -21 -85 -21q-47 0 -73 21t-26 56q0 65 82 108h-14l-64 175h-309z" />
    <glyph glyph-name="aogonek" unicode="&#x105;" horiz-adv-x="517" 
d="M352 245h-27q-42 0 -73 -4t-60.5 -14t-45 -31t-15.5 -53q0 -41 24.5 -61t66.5 -20q65 0 97.5 44t32.5 112v27zM452 -124l13 -40q-44 -21 -85 -21q-47 0 -73 21t-26 56q0 64 85 108h-8l-3 79q-50 -90 -157 -90q-73 0 -119.5 37t-46.5 111q0 170 264 170q41 0 56 -1v21
q0 113 -114 113q-83 0 -147 -40l-6 77q82 33 162 33q203 0 203 -190v-209q0 -59 6 -111h-38q-72 -50 -72 -95q0 -22 14 -33.5t34 -11.5q25 0 58 16z" />
    <glyph glyph-name="Cacute" unicode="&#x106;" horiz-adv-x="595" 
d="M556 103l6 -85q-65 -29 -163 -29q-160 0 -256.5 92.5t-96.5 251.5q0 152 99.5 248t253.5 96q92 0 161 -25l-6 -88q-60 28 -143 28q-115 0 -183 -72.5t-68 -186.5q0 -118 66 -188.5t183 -70.5q85 0 147 29zM405 724h-77l71 136h109z" />
    <glyph glyph-name="cacute" unicode="&#x107;" horiz-adv-x="457" 
d="M421 87l5 -79q-51 -19 -126 -19q-125 0 -193 72t-68 191q0 116 72.5 187t190.5 71q76 0 125 -17l-6 -80q-45 22 -105 22q-79 0 -124 -51t-45 -132q0 -80 45.5 -133.5t129.5 -53.5q51 0 99 22zM301 584h-77l71 136h109z" />
    <glyph glyph-name="Ccircumflex" unicode="&#x108;" horiz-adv-x="595" 
d="M556 103l6 -85q-65 -29 -163 -29q-160 0 -256.5 92.5t-96.5 251.5q0 152 99.5 248t253.5 96q92 0 161 -25l-6 -88q-60 28 -143 28q-115 0 -183 -72.5t-68 -186.5q0 -118 66 -188.5t183 -70.5q85 0 147 29zM307 724h-77l103 136h92l103 -136h-77l-72 92z" />
    <glyph glyph-name="ccircumflex" unicode="&#x109;" horiz-adv-x="457" 
d="M421 87l5 -79q-51 -19 -126 -19q-125 0 -193 72t-68 191q0 116 72.5 187t190.5 71q76 0 125 -17l-6 -80q-45 22 -105 22q-79 0 -124 -51t-45 -132q0 -80 45.5 -133.5t129.5 -53.5q51 0 99 22zM209 584h-77l103 136h92l103 -136h-77l-72 92z" />
    <glyph glyph-name="Cdotaccent" unicode="&#x10a;" horiz-adv-x="595" 
d="M556 103l6 -85q-65 -29 -163 -29q-160 0 -256.5 92.5t-96.5 251.5q0 152 99.5 248t253.5 96q92 0 161 -25l-6 -88q-60 28 -143 28q-115 0 -183 -72.5t-68 -186.5q0 -118 66 -188.5t183 -70.5q85 0 147 29zM428 743h-100v97h100v-97z" />
    <glyph glyph-name="cdotaccent" unicode="&#x10b;" horiz-adv-x="457" 
d="M421 87l5 -79q-51 -19 -126 -19q-125 0 -193 72t-68 191q0 116 72.5 187t190.5 71q76 0 125 -17l-6 -80q-45 22 -105 22q-79 0 -124 -51t-45 -132q0 -80 45.5 -133.5t129.5 -53.5q51 0 99 22zM330 603h-100v97h100v-97z" />
    <glyph glyph-name="Ccaron" unicode="&#x10c;" horiz-adv-x="595" 
d="M556 103l6 -85q-65 -29 -163 -29q-160 0 -256.5 92.5t-96.5 251.5q0 152 99.5 248t253.5 96q92 0 161 -25l-6 -88q-60 28 -143 28q-115 0 -183 -72.5t-68 -186.5q0 -118 66 -188.5t183 -70.5q85 0 147 29zM426 724h-92l-103 136h77l72 -92l72 92h77z" />
    <glyph glyph-name="ccaron" unicode="&#x10d;" horiz-adv-x="457" 
d="M421 87l5 -79q-51 -19 -126 -19q-125 0 -193 72t-68 191q0 116 72.5 187t190.5 71q76 0 125 -17l-6 -80q-45 22 -105 22q-79 0 -124 -51t-45 -132q0 -80 45.5 -133.5t129.5 -53.5q51 0 99 22zM327 584h-92l-103 136h77l72 -92l72 92h77z" />
    <glyph glyph-name="Dcaron" unicode="&#x10e;" horiz-adv-x="672" 
d="M189 586v-505h55q131 0 199.5 65.5t68.5 196.5q0 116 -61 179.5t-177 63.5h-85zM255 0h-175v667h205q164 0 252.5 -81t88.5 -243q0 -169 -100 -256t-271 -87zM342 724h-92l-103 136h77l72 -92l72 92h77z" />
    <glyph glyph-name="dcaron" unicode="&#x10f;" horiz-adv-x="565" 
d="M502 0h-93l-6 83q-46 -94 -157 -94q-105 0 -156 76t-51 187q0 52 11.5 97t35 81.5t64.5 58t96 21.5q49 0 91 -24.5t60 -68.5v304h100v-571q0 -72 5 -150zM172 128q33 -62 101 -62q45 0 75.5 31t41 70.5t10.5 83.5t-11 83t-41.5 69t-75.5 30q-125 0 -125 -182
q0 -76 25 -123zM629 561h-70l20 159h93z" />
    <glyph glyph-name="Dcroat" unicode="&#x110;" horiz-adv-x="672" 
d="M189 304v-223h55q131 0 199.5 65.5t68.5 196.5q0 116 -61 179.5t-177 63.5h-85v-212h161v-70h-161zM255 0h-175v304h-75v70h75v293h205q164 0 252.5 -81t88.5 -243q0 -169 -100 -256t-271 -87z" />
    <glyph glyph-name="dcroat" unicode="&#x111;" horiz-adv-x="565" 
d="M502 0h-93l-6 83q-46 -94 -157 -94q-105 0 -156 76t-51 187q0 52 11.5 97t35 81.5t64.5 58t96 21.5q50 0 91.5 -24.5t59.5 -68.5v173h-150v60h150v71h100v-71h80v-60h-80v-440q0 -72 5 -150zM172 128q33 -62 101 -62q45 0 75.5 31t41 70.5t10.5 83.5t-11 83t-41.5 69
t-75.5 30q-125 0 -125 -182q0 -76 25 -123z" />
    <glyph glyph-name="Emacron" unicode="&#x112;" horiz-adv-x="517" 
d="M473 0h-393v667h383v-81h-276v-205h263v-80h-263v-220h286v-81zM407 763h-270v59h270v-59z" />
    <glyph glyph-name="emacron" unicode="&#x113;" horiz-adv-x="510" 
d="M141 290h240q0 151 -112 151q-59 0 -92 -45.5t-36 -105.5zM477 228h-335q0 -73 44 -121t123 -48q76 0 135 31l6 -74q-67 -27 -155 -27q-124 0 -190 71.5t-66 191.5q0 107 62.5 182.5t166.5 75.5q209 0 209 -252v-30zM399 623h-270v59h270v-59z" />
    <glyph glyph-name="Ebreve" unicode="&#x114;" horiz-adv-x="517" 
d="M473 0h-393v667h383v-81h-276v-205h263v-80h-263v-220h286v-81zM141 853h54q3 -30 23 -49t54 -19t54.5 19t23.5 49h53q0 -41 -33.5 -82.5t-97.5 -41.5t-97.5 41.5t-33.5 82.5z" />
    <glyph glyph-name="ebreve" unicode="&#x115;" horiz-adv-x="510" 
d="M141 290h240q0 151 -112 151q-59 0 -92 -45.5t-36 -105.5zM477 228h-335q0 -73 44 -121t123 -48q76 0 135 31l6 -74q-67 -27 -155 -27q-124 0 -190 71.5t-66 191.5q0 107 62.5 182.5t166.5 75.5q209 0 209 -252v-30zM132 713h54q3 -30 23 -49t54 -19t54.5 19t23.5 49h53
q0 -41 -33.5 -82.5t-97.5 -41.5t-97.5 41.5t-33.5 82.5z" />
    <glyph glyph-name="Edotaccent" unicode="&#x116;" horiz-adv-x="517" 
d="M473 0h-393v667h383v-81h-276v-205h263v-80h-263v-220h286v-81zM322 743h-100v97h100v-97z" />
    <glyph glyph-name="edotaccent" unicode="&#x117;" horiz-adv-x="510" 
d="M141 290h240q0 151 -112 151q-59 0 -92 -45.5t-36 -105.5zM477 228h-335q0 -73 44 -121t123 -48q76 0 135 31l6 -74q-67 -27 -155 -27q-124 0 -190 71.5t-66 191.5q0 107 62.5 182.5t166.5 75.5q209 0 209 -252v-30zM313 603h-100v97h100v-97z" />
    <glyph glyph-name="Eogonek" unicode="&#x118;" horiz-adv-x="517" 
d="M366 0h-286v667h383v-81h-276v-205h263v-80h-263v-220h286v-81h-55q-72 -50 -72 -95q0 -22 14 -33.5t34 -11.5q25 0 58 16l13 -40q-44 -21 -85 -21q-47 0 -73 21t-26 56q0 64 85 108z" />
    <glyph glyph-name="eogonek" unicode="&#x119;" horiz-adv-x="510" 
d="M141 290h240q0 151 -112 151q-59 0 -92 -45.5t-36 -105.5zM376 -124l13 -40q-44 -21 -85 -21q-47 0 -73 21t-26 56q0 57 64 98q-112 8 -171 78t-59 184q0 107 62.5 182.5t166.5 75.5q209 0 209 -252v-30h-335q0 -73 44 -121t123 -48q76 0 135 31l6 -74q-51 -21 -125 -26
q-55 -43 -55 -85q0 -22 14 -33.5t34 -11.5q25 0 58 16z" />
    <glyph glyph-name="Ecaron" unicode="&#x11a;" horiz-adv-x="517" 
d="M473 0h-393v667h383v-81h-276v-205h263v-80h-263v-220h286v-81zM317 724h-92l-103 136h77l72 -92l72 92h77z" />
    <glyph glyph-name="ecaron" unicode="&#x11b;" horiz-adv-x="510" 
d="M141 290h240q0 151 -112 151q-59 0 -92 -45.5t-36 -105.5zM477 228h-335q0 -73 44 -121t123 -48q76 0 135 31l6 -74q-67 -27 -155 -27q-124 0 -190 71.5t-66 191.5q0 107 62.5 182.5t166.5 75.5q209 0 209 -252v-30zM310 584h-92l-103 136h77l72 -92l72 92h77z" />
    <glyph glyph-name="Gcircumflex" unicode="&#x11c;" horiz-adv-x="681" 
d="M615 371v-341q-105 -41 -211 -41q-161 0 -259.5 92.5t-98.5 251.5q0 152 104.5 248t264.5 96q113 0 187 -30l-6 -90q-71 37 -174 37q-118 0 -190 -72t-72 -189q0 -115 65.5 -187.5t182.5 -72.5q60 0 107 14v207h-141v77h241zM319 724h-77l103 136h92l103 -136h-77l-72 92
z" />
    <glyph glyph-name="gcircumflex" unicode="&#x11d;" horiz-adv-x="565" 
d="M79 -200l6 85q69 -36 149 -36q163 0 163 179v59q-24 -41 -65.5 -64t-89.5 -23q-102 0 -152.5 74t-50.5 178q0 110 50.5 184t154.5 74q110 0 157 -93v83h96v-472q0 -124 -62 -189.5t-186 -65.5q-81 0 -170 27zM172 134q33 -57 100 -57q45 0 75.5 28.5t41.5 66t11 79.5
q0 72 -30.5 127t-96.5 55q-126 0 -126 -182q0 -71 25 -117zM211 584h-77l103 136h92l103 -136h-77l-72 92z" />
    <glyph glyph-name="Gbreve" unicode="&#x11e;" horiz-adv-x="681" 
d="M615 371v-341q-105 -41 -211 -41q-161 0 -259.5 92.5t-98.5 251.5q0 152 104.5 248t264.5 96q113 0 187 -30l-6 -90q-71 37 -174 37q-118 0 -190 -72t-72 -189q0 -115 65.5 -187.5t182.5 -72.5q60 0 107 14v207h-141v77h241zM262 853h54q3 -30 23 -49t54 -19t54.5 19
t23.5 49h53q0 -41 -33.5 -82.5t-97.5 -41.5t-97.5 41.5t-33.5 82.5z" />
    <glyph glyph-name="gbreve" unicode="&#x11f;" horiz-adv-x="565" 
d="M79 -200l6 85q69 -36 149 -36q163 0 163 179v59q-24 -41 -65.5 -64t-89.5 -23q-102 0 -152.5 74t-50.5 178q0 110 50.5 184t154.5 74q110 0 157 -93v83h96v-472q0 -124 -62 -189.5t-186 -65.5q-81 0 -170 27zM172 134q33 -57 100 -57q45 0 75.5 28.5t41.5 66t11 79.5
q0 72 -30.5 127t-96.5 55q-126 0 -126 -182q0 -71 25 -117zM152 713h54q3 -30 23 -49t54 -19t54.5 19t23.5 49h53q0 -41 -33.5 -82.5t-97.5 -41.5t-97.5 41.5t-33.5 82.5z" />
    <glyph glyph-name="Gdotaccent" unicode="&#x120;" horiz-adv-x="681" 
d="M615 371v-341q-105 -41 -211 -41q-161 0 -259.5 92.5t-98.5 251.5q0 152 104.5 248t264.5 96q113 0 187 -30l-6 -90q-71 37 -174 37q-118 0 -190 -72t-72 -189q0 -115 65.5 -187.5t182.5 -72.5q60 0 107 14v207h-141v77h241zM441 743h-100v97h100v-97z" />
    <glyph glyph-name="gdotaccent" unicode="&#x121;" horiz-adv-x="565" 
d="M79 -200l6 85q69 -36 149 -36q163 0 163 179v59q-24 -41 -65.5 -64t-89.5 -23q-102 0 -152.5 74t-50.5 178q0 110 50.5 184t154.5 74q110 0 157 -93v83h96v-472q0 -124 -62 -189.5t-186 -65.5q-81 0 -170 27zM172 134q33 -57 100 -57q45 0 75.5 28.5t41.5 66t11 79.5
q0 72 -30.5 127t-96.5 55q-126 0 -126 -182q0 -71 25 -117zM333 603h-100v97h100v-97z" />
    <glyph glyph-name="Gcommaaccent" unicode="&#x122;" horiz-adv-x="681" 
d="M615 371v-341q-105 -41 -211 -41q-161 0 -259.5 92.5t-98.5 251.5q0 152 104.5 248t264.5 96q113 0 187 -30l-6 -90q-71 37 -174 37q-118 0 -190 -72t-72 -189q0 -115 65.5 -187.5t182.5 -72.5q60 0 107 14v207h-141v77h241zM383 -227h-64l44 159h87z" />
    <glyph glyph-name="gcommaaccent" unicode="&#x123;" horiz-adv-x="565" 
d="M79 -200l6 85q69 -36 149 -36q163 0 163 179v59q-24 -41 -65.5 -64t-89.5 -23q-102 0 -152.5 74t-50.5 178q0 110 50.5 184t154.5 74q110 0 157 -93v83h96v-472q0 -124 -62 -189.5t-186 -65.5q-81 0 -170 27zM172 134q33 -57 100 -57q45 0 75.5 28.5t41.5 66t11 79.5
q0 72 -30.5 127t-96.5 55q-126 0 -126 -182q0 -71 25 -117zM321 584h-85l59 136h61z" />
    <glyph glyph-name="Hcircumflex" unicode="&#x124;" horiz-adv-x="676" 
d="M189 0h-109v667h109v-279h299v279h109v-667h-109v298h-299v-298zM269 724h-77l103 136h92l103 -136h-77l-72 92z" />
    <glyph glyph-name="hcircumflex" unicode="&#x125;" horiz-adv-x="559" 
d="M169 0h-100v721h100v-304q46 93 155 93q86 0 126.5 -52t40.5 -142v-316h-101v295q0 63 -20.5 100t-78.5 37q-64 0 -93 -46.5t-29 -112.5v-273zM195 769h-77l103 136h92l103 -136h-77l-72 92z" />
    <glyph glyph-name="Hbar" unicode="&#x126;" horiz-adv-x="676" 
d="M189 464v-111h299v111h-299zM189 0h-109v667h109v-131h299v131h109v-667h-109v267h-299v-267z" />
    <glyph glyph-name="hbar" unicode="&#x127;" horiz-adv-x="559" 
d="M169 0h-100v590h-79v60h79v71h100v-71h151v-60h-151v-173q46 93 155 93q86 0 126.5 -52t40.5 -142v-316h-101v295q0 63 -20.5 100t-78.5 37q-64 0 -93 -46.5t-29 -112.5v-273z" />
    <glyph glyph-name="Itilde" unicode="&#x128;" horiz-adv-x="268" 
d="M189 0h-109v667h109v-667zM33 735h-55q2 43 27 75.5t67 32.5q27 0 69 -20t57 -20q17 0 27.5 13t11.5 30h55q0 -39 -27 -73t-66 -34q-28 0 -66.5 19.5t-56.5 19.5q-17 0 -30 -13.5t-13 -29.5z" />
    <glyph glyph-name="itilde" unicode="&#x129;" horiz-adv-x="237" 
d="M169 0h-100v500h100v-500zM18 595h-55q3 43 27 75.5t67 32.5q27 0 69 -20t57 -20q17 0 27.5 13t11.5 30h55q0 -39 -27 -73t-66 -34q-28 0 -66.5 19.5t-56.5 19.5q-17 0 -30 -13.5t-13 -29.5z" />
    <glyph glyph-name="Imacron" unicode="&#x12a;" horiz-adv-x="268" 
d="M189 0h-109v667h109v-667zM269 763h-270v59h270v-59z" />
    <glyph glyph-name="imacron" unicode="&#x12b;" horiz-adv-x="237" 
d="M169 0h-100v500h100v-500zM254 623h-270v59h270v-59z" />
    <glyph glyph-name="Iogonek" unicode="&#x12e;" horiz-adv-x="268" 
d="M208 -128l13 -40q-36 -17 -74 -17q-45 0 -71 21.5t-26 55.5q0 59 86 108h-56v667h109v-667q-74 -52 -74 -95q0 -22 13.5 -33.5t32.5 -11.5q18 0 47 12z" />
    <glyph glyph-name="iogonek" unicode="&#x12f;" horiz-adv-x="237" 
d="M169 603h-100v97h100v-97zM192 -128l13 -40q-36 -17 -74 -17q-45 0 -71 21.5t-26 55.5q0 59 82 108h-47v500h100v-500h-1q-69 -49 -69 -95q0 -22 13.5 -33.5t32.5 -11.5t47 12z" />
    <glyph glyph-name="Idotaccent" unicode="&#x130;" horiz-adv-x="268" 
d="M189 0h-109v667h109v-667zM185 743h-100v97h100v-97z" />
    <glyph glyph-name="dotlessi" unicode="&#x131;" horiz-adv-x="237" 
d="M169 0h-100v500h100v-500z" />
    <glyph glyph-name="Jcircumflex" unicode="&#x134;" horiz-adv-x="344" 
d="M5 4l5 83q24 -10 57 -10q50 0 73 32t23 83v475h109v-486q0 -88 -44.5 -140t-131.5 -52q-48 0 -91 15zM141 724h-77l103 136h92l103 -136h-77l-72 92z" />
    <glyph glyph-name="jcircumflex" unicode="&#x135;" horiz-adv-x="243" 
d="M-30 -219l6 77q16 -6 36 -6q38 0 50 23t12 65v560h101v-572q0 -155 -128 -155q-48 0 -77 8zM47 584h-77l103 136h92l103 -136h-77l-72 92z" />
    <glyph glyph-name="Kcommaaccent" unicode="&#x136;" horiz-adv-x="619" 
d="M189 0h-109v667h109v-295l269 295h132l-301 -312l327 -355h-140l-287 326v-326zM298 -227h-64l44 159h87z" />
    <glyph glyph-name="kcommaaccent" unicode="&#x137;" horiz-adv-x="517" 
d="M169 0h-100v721h100v-427l199 206h122l-219 -222l242 -278h-126l-218 258v-258zM255 -227h-64l44 159h87z" />
    <glyph glyph-name="Lacute" unicode="&#x139;" horiz-adv-x="484" 
d="M466 0h-386v667h109v-577h277v-90zM175 724h-77l71 136h109z" />
    <glyph glyph-name="lacute" unicode="&#x13a;" horiz-adv-x="237" 
d="M169 0h-100v721h100v-721zM148 769h-77l71 136h109z" />
    <glyph glyph-name="Lcommaaccent" unicode="&#x13b;" horiz-adv-x="484" 
d="M255 -227h-64l44 159h87zM466 0h-386v667h109v-577h277v-90z" />
    <glyph glyph-name="lcommaaccent" unicode="&#x13c;" horiz-adv-x="237" 
d="M169 0h-100v721h100v-721zM94 -227h-64l44 159h87z" />
    <glyph glyph-name="Lcaron" unicode="&#x13d;" horiz-adv-x="484" 
d="M466 0h-386v667h109v-577h277v-90zM347 561h-70l20 159h93z" />
    <glyph glyph-name="lcaron" unicode="&#x13e;" horiz-adv-x="237" 
d="M169 0h-100v721h100v-721zM301 561h-70l20 159h93z" />
    <glyph glyph-name="Ldot" unicode="&#x13f;" horiz-adv-x="484" 
d="M466 0h-386v667h109v-577h277v-90zM420 298h-100v97h100v-97z" />
    <glyph glyph-name="ldot" unicode="&#x140;" horiz-adv-x="367" 
d="M169 0h-100v721h100v-721zM357 298h-100v97h100v-97z" />
    <glyph glyph-name="Lslash" unicode="&#x141;" horiz-adv-x="484" 
d="M466 0h-386v286l-77 -66v75l77 66v306h109v-235l139 121v-76l-139 -120v-267h277v-90z" />
    <glyph glyph-name="lslash" unicode="&#x142;" horiz-adv-x="237" 
d="M170 0h-101v321l-71 -62v75l71 62v325h101v-259l71 62v-75l-71 -62v-387z" />
    <glyph glyph-name="Nacute" unicode="&#x143;" horiz-adv-x="703" 
d="M178 0h-98v667h156l289 -568v568h99v-667h-157l-289 568v-568zM385 724h-77l71 136h109z" />
    <glyph glyph-name="nacute" unicode="&#x144;" horiz-adv-x="559" 
d="M169 0h-100v385q0 66 -5 115h94l3 -86q53 96 162 96q168 0 168 -194v-316h-101v295q0 63 -20.5 100t-78.5 37q-64 0 -93 -46t-29 -114v-272zM302 584h-77l71 136h109z" />
    <glyph glyph-name="Ncommaaccent" unicode="&#x145;" horiz-adv-x="703" 
d="M178 0h-98v667h156l289 -568v568h99v-667h-157l-289 568v-568zM341 -227h-64l44 159h87z" />
    <glyph glyph-name="ncommaaccent" unicode="&#x146;" horiz-adv-x="559" 
d="M169 0h-100v385q0 66 -5 115h94l3 -86q53 96 162 96q168 0 168 -194v-316h-101v295q0 63 -20.5 100t-78.5 37q-64 0 -93 -46t-29 -114v-272zM258 -227h-64l44 159h87z" />
    <glyph glyph-name="Ncaron" unicode="&#x147;" horiz-adv-x="703" 
d="M178 0h-98v667h156l289 -568v568h99v-667h-157l-289 568v-568zM405 724h-92l-103 136h77l72 -92l72 92h77z" />
    <glyph glyph-name="ncaron" unicode="&#x148;" horiz-adv-x="559" 
d="M169 0h-100v385q0 66 -5 115h94l3 -86q53 96 162 96q168 0 168 -194v-316h-101v295q0 63 -20.5 100t-78.5 37q-64 0 -93 -46t-29 -114v-272zM327 584h-92l-103 136h77l72 -92l72 92h77z" />
    <glyph glyph-name="Omacron" unicode="&#x14c;" horiz-adv-x="716" 
d="M221 15q-86 38 -130.5 121t-44.5 197q0 150 82 247t230 97q151 0 231.5 -95t80.5 -249q0 -151 -81.5 -247.5t-230.5 -96.5q-77 0 -137 26zM206 156q56 -85 152 -85q69 0 115.5 41t64.5 97.5t18 123.5t-18 123.5t-64.5 97.5t-115.5 41q-51 0 -90.5 -23.5t-62.5 -62
t-34 -83.5t-11 -93q0 -104 46 -177zM493 763h-270v59h270v-59z" />
    <glyph glyph-name="omacron" unicode="&#x14d;" horiz-adv-x="570" 
d="M179 8q-68 30 -104 94t-36 150q0 115 67.5 186.5t178.5 71.5q117 0 181.5 -69.5t64.5 -188.5q0 -117 -65 -190t-181 -73q-61 0 -106 19zM178 124q39 -59 107 -59q70 0 104 54.5t34 132.5q0 76 -33.5 129.5t-104.5 53.5q-69 0 -103.5 -54t-34.5 -129t31 -128zM420 623
h-270v59h270v-59z" />
    <glyph glyph-name="Obreve" unicode="&#x14e;" horiz-adv-x="716" 
d="M221 15q-86 38 -130.5 121t-44.5 197q0 150 82 247t230 97q151 0 231.5 -95t80.5 -249q0 -151 -81.5 -247.5t-230.5 -96.5q-77 0 -137 26zM206 156q56 -85 152 -85q69 0 115.5 41t64.5 97.5t18 123.5t-18 123.5t-64.5 97.5t-115.5 41q-51 0 -90.5 -23.5t-62.5 -62
t-34 -83.5t-11 -93q0 -104 46 -177zM227 853h54q3 -30 23 -49t54 -19t54.5 19t23.5 49h53q0 -41 -33.5 -82.5t-97.5 -41.5t-97.5 41.5t-33.5 82.5z" />
    <glyph glyph-name="obreve" unicode="&#x14f;" horiz-adv-x="570" 
d="M179 8q-68 30 -104 94t-36 150q0 115 67.5 186.5t178.5 71.5q117 0 181.5 -69.5t64.5 -188.5q0 -117 -65 -190t-181 -73q-61 0 -106 19zM178 124q39 -59 107 -59q70 0 104 54.5t34 132.5q0 76 -33.5 129.5t-104.5 53.5q-69 0 -103.5 -54t-34.5 -129t31 -128zM154 713h54
q3 -30 23 -49t54 -19t54.5 19t23.5 49h53q0 -41 -33.5 -82.5t-97.5 -41.5t-97.5 41.5t-33.5 82.5z" />
    <glyph glyph-name="Ohungarumlaut" unicode="&#x150;" horiz-adv-x="716" 
d="M221 15q-86 38 -130.5 121t-44.5 197q0 150 82 247t230 97q151 0 231.5 -95t80.5 -249q0 -151 -81.5 -247.5t-230.5 -96.5q-77 0 -137 26zM206 156q56 -85 152 -85q69 0 115.5 41t64.5 97.5t18 123.5t-18 123.5t-64.5 97.5t-115.5 41q-51 0 -90.5 -23.5t-62.5 -62
t-34 -83.5t-11 -93q0 -104 46 -177zM298 724h-77l72 136h108zM488 724h-77l72 136h108z" />
    <glyph glyph-name="ohungarumlaut" unicode="&#x151;" horiz-adv-x="570" 
d="M179 8q-68 30 -104 94t-36 150q0 115 67.5 186.5t178.5 71.5q117 0 181.5 -69.5t64.5 -188.5q0 -117 -65 -190t-181 -73q-61 0 -106 19zM178 124q39 -59 107 -59q70 0 104 54.5t34 132.5q0 76 -33.5 129.5t-104.5 53.5q-69 0 -103.5 -54t-34.5 -129t31 -128zM409 584h-77
l72 136h108zM219 584h-77l72 136h108z" />
    <glyph glyph-name="OE" unicode="&#x152;" horiz-adv-x="903" 
d="M476 80v507q-31 8 -85 8q-48 0 -88 -15.5t-66 -41t-44 -60t-26 -71t-8 -74.5q0 -104 60 -183t174 -79q47 0 83 9zM859 0h-359q-55 -11 -112 -11q-166 0 -254 95t-88 249q0 150 90 247t252 97q62 0 112 -10h350v-81h-269v-205h254v-79h-254v-221h278v-81z" />
    <glyph glyph-name="oe" unicode="&#x153;" horiz-adv-x="889" 
d="M517 290h240q0 151 -112 151q-59 0 -92 -45.5t-36 -105.5zM174 124q39 -59 107 -59q70 0 104 54.5t34 132.5q0 76 -33.5 129.5t-104.5 53.5q-69 0 -103.5 -54t-34.5 -129t31 -128zM853 228h-335q0 -73 44 -121t123 -48q76 0 135 31l6 -74q-67 -27 -155 -27
q-141 0 -201 103q-63 -103 -193 -103q-114 0 -176 74t-62 189q0 112 65 185t174 73q131 0 194 -103q60 103 173 103q208 0 208 -252v-30z" />
    <glyph glyph-name="Racute" unicode="&#x154;" horiz-adv-x="583" 
d="M187 588v-214h68q63 0 107.5 27t44.5 86t-39 80t-109 21h-72zM187 0h-107v667h198q240 0 240 -172q0 -64 -43.5 -107.5t-109.5 -53.5q65 -10 98 -91l99 -243h-119l-82 207q-20 51 -44.5 69t-75.5 18h-54v-294zM300 724h-77l71 136h109z" />
    <glyph glyph-name="racute" unicode="&#x155;" horiz-adv-x="352" 
d="M169 0h-100v385q0 66 -5 115h94l3 -96q17 44 53.5 75t82.5 31q27 0 42 -4l-5 -95q-16 6 -41 6q-46 0 -75.5 -30t-39 -67.5t-9.5 -81.5v-238zM230 584h-77l71 136h109z" />
    <glyph glyph-name="Rcommaaccent" unicode="&#x156;" horiz-adv-x="583" 
d="M187 588v-214h68q63 0 107.5 27t44.5 86t-39 80t-109 21h-72zM187 0h-107v667h198q240 0 240 -172q0 -64 -43.5 -107.5t-109.5 -53.5q65 -10 98 -91l99 -243h-119l-82 207q-20 51 -44.5 69t-75.5 18h-54v-294zM297 -227h-64l44 159h87z" />
    <glyph glyph-name="rcommaaccent" unicode="&#x157;" horiz-adv-x="352" 
d="M169 0h-100v385q0 66 -5 115h94l3 -96q17 44 53.5 75t82.5 31q27 0 42 -4l-5 -95q-16 6 -41 6q-46 0 -75.5 -30t-39 -67.5t-9.5 -81.5v-238zM96 -227h-64l44 159h87z" />
    <glyph glyph-name="Rcaron" unicode="&#x158;" horiz-adv-x="583" 
d="M187 588v-214h68q63 0 107.5 27t44.5 86t-39 80t-109 21h-72zM187 0h-107v667h198q240 0 240 -172q0 -64 -43.5 -107.5t-109.5 -53.5q65 -10 98 -91l99 -243h-119l-82 207q-20 51 -44.5 69t-75.5 18h-54v-294zM320 724h-92l-103 136h77l72 -92l72 92h77z" />
    <glyph glyph-name="rcaron" unicode="&#x159;" horiz-adv-x="352" 
d="M169 0h-100v385q0 66 -5 115h94l3 -96q17 44 53.5 75t82.5 31q27 0 42 -4l-5 -95q-16 6 -41 6q-46 0 -75.5 -30t-39 -67.5t-9.5 -81.5v-238zM254 584h-92l-103 136h77l72 -92l72 92h77z" />
    <glyph glyph-name="Sacute" unicode="&#x15a;" horiz-adv-x="513" 
d="M58 16l5 93q73 -38 161 -38q54 0 91 27t37 83q0 43 -28.5 68t-86.5 52l-52 25q-56 28 -87.5 65.5t-31.5 99.5q0 92 65.5 139t153.5 47q82 0 151 -21l-6 -88q-61 27 -139 27q-49 0 -84.5 -23.5t-35.5 -74.5q0 -26 14.5 -46.5t31 -31t47.5 -25.5l55 -25q70 -33 105.5 -72
t35.5 -110q0 -97 -64.5 -147.5t-166.5 -50.5q-90 0 -171 27zM290 724h-77l71 136h109z" />
    <glyph glyph-name="sacute" unicode="&#x15b;" horiz-adv-x="413" 
d="M41 10l6 80q61 -30 129 -30q95 0 95 75q0 31 -23 52.5t-56 35t-66 29.5t-56 46t-23 73q0 73 53 106t129 33q68 0 123 -21l-6 -73q-57 23 -112 23q-90 0 -90 -63q0 -26 23.5 -44.5t56.5 -31.5t66 -29.5t56.5 -49.5t23.5 -80q0 -76 -56.5 -114t-134.5 -38q-74 0 -138 21z
M233 584h-77l71 136h109z" />
    <glyph glyph-name="Scircumflex" unicode="&#x15c;" horiz-adv-x="513" 
d="M58 16l5 93q73 -38 161 -38q54 0 91 27t37 83q0 43 -28.5 68t-86.5 52l-52 25q-56 28 -87.5 65.5t-31.5 99.5q0 92 65.5 139t153.5 47q82 0 151 -21l-6 -88q-61 27 -139 27q-49 0 -84.5 -23.5t-35.5 -74.5q0 -26 14.5 -46.5t31 -31t47.5 -25.5l55 -25q70 -33 105.5 -72
t35.5 -110q0 -97 -64.5 -147.5t-166.5 -50.5q-90 0 -171 27zM192 724h-77l103 136h92l103 -136h-77l-72 92z" />
    <glyph glyph-name="scircumflex" unicode="&#x15d;" horiz-adv-x="413" 
d="M41 10l6 80q61 -30 129 -30q95 0 95 75q0 31 -23 52.5t-56 35t-66 29.5t-56 46t-23 73q0 73 53 106t129 33q68 0 123 -21l-6 -73q-57 23 -112 23q-90 0 -90 -63q0 -26 23.5 -44.5t56.5 -31.5t66 -29.5t56.5 -49.5t23.5 -80q0 -76 -56.5 -114t-134.5 -38q-74 0 -138 21z
M138 584h-77l103 136h92l103 -136h-77l-72 92z" />
    <glyph glyph-name="Scedilla" unicode="&#x15e;" horiz-adv-x="513" 
d="M138 -167l13 39q43 -16 81 -16q21 0 33.5 8.5t12.5 22.5q0 31 -36 31q-28 0 -46 -8l-16 23l39 56q-91 2 -161 27l5 93q73 -38 161 -38q54 0 91 27t37 83q0 43 -28.5 68t-86.5 52l-52 25q-56 28 -87.5 65.5t-31.5 99.5q0 92 65.5 139t153.5 47q82 0 151 -21l-6 -88
q-61 27 -139 27q-49 0 -84.5 -23.5t-35.5 -74.5q0 -26 14.5 -46.5t31 -31t47.5 -25.5l55 -25q70 -33 105.5 -72t35.5 -110q0 -88 -53.5 -137.5t-141.5 -58.5l-28 -43q15 4 37 4q28 0 48 -16.5t20 -45.5q0 -35 -29 -55t-78 -20q-50 0 -97 18z" />
    <glyph glyph-name="scedilla" unicode="&#x15f;" horiz-adv-x="413" 
d="M94 -167l13 39q43 -16 81 -16q21 0 33.5 8.5t12.5 22.5q0 31 -36 31q-28 0 -46 -8l-16 23l42 56q-74 0 -137 21l6 80q61 -30 129 -30q95 0 95 75q0 31 -23 52.5t-56 35t-66 29.5t-56 46t-23 73q0 73 53 106t129 33q68 0 123 -21l-6 -73q-57 23 -112 23q-90 0 -90 -63
q0 -26 23.5 -44.5t56.5 -31.5t66 -29.5t56.5 -49.5t23.5 -80q0 -65 -40.5 -102t-103.5 -46l-33 -45q15 4 37 4q28 0 48 -16.5t20 -45.5q0 -35 -29 -55t-78 -20q-50 0 -97 18z" />
    <glyph glyph-name="Scaron" unicode="&#x160;" horiz-adv-x="513" 
d="M58 16l5 93q73 -38 161 -38q54 0 91 27t37 83q0 43 -28.5 68t-86.5 52l-52 25q-56 28 -87.5 65.5t-31.5 99.5q0 92 65.5 139t153.5 47q82 0 151 -21l-6 -88q-61 27 -139 27q-49 0 -84.5 -23.5t-35.5 -74.5q0 -26 14.5 -46.5t31 -31t47.5 -25.5l55 -25q70 -33 105.5 -72
t35.5 -110q0 -97 -64.5 -147.5t-166.5 -50.5q-90 0 -171 27zM303 724h-92l-103 136h77l72 -92l72 92h77z" />
    <glyph glyph-name="scaron" unicode="&#x161;" horiz-adv-x="413" 
d="M41 10l6 80q61 -30 129 -30q95 0 95 75q0 31 -23 52.5t-56 35t-66 29.5t-56 46t-23 73q0 73 53 106t129 33q68 0 123 -21l-6 -73q-57 23 -112 23q-90 0 -90 -63q0 -26 23.5 -44.5t56.5 -31.5t66 -29.5t56.5 -49.5t23.5 -80q0 -76 -56.5 -114t-134.5 -38q-74 0 -138 21z
M257 584h-92l-103 136h77l72 -92l72 92h77z" />
    <glyph glyph-name="Tcommaaccent" unicode="&#x162;" horiz-adv-x="535" 
d="M322 0h-109v577h-203v90h516v-90h-204v-577zM243 -227h-64l44 159h87z" />
    <glyph glyph-name="tcommaaccent" unicode="&#x163;" horiz-adv-x="350" 
d="M325 80l5 -74q-48 -17 -96 -17q-74 0 -100.5 44t-26.5 127v268h-92v72h92v108l101 33v-141h112v-72h-112v-280q0 -80 62 -80q28 0 55 12zM172 -227h-64l44 159h87z" />
    <glyph glyph-name="Tcaron" unicode="&#x164;" horiz-adv-x="535" 
d="M322 0h-109v577h-203v90h516v-90h-204v-577zM312 724h-92l-103 136h77l72 -92l72 92h77z" />
    <glyph glyph-name="tcaron" unicode="&#x165;" horiz-adv-x="350" 
d="M325 80l5 -74q-48 -17 -96 -17q-74 0 -100.5 44t-26.5 127v268h-92v72h92v108l101 33v-141h112v-72h-112v-280q0 -80 62 -80q28 0 55 12zM334 561h-70l20 159h93z" />
    <glyph glyph-name="Tbar" unicode="&#x166;" horiz-adv-x="535" 
d="M322 0h-109v364h-139v69h139v144h-203v90h516v-90h-204v-144h145v-69h-145v-364z" />
    <glyph glyph-name="tbar" unicode="&#x167;" horiz-adv-x="350" 
d="M107 278h-78v60h78v90h-92v72h92v108l101 33v-141h112v-72h-112v-90h92v-60h-92v-130q0 -80 62 -80q28 0 55 12l5 -74q-48 -17 -96 -17q-74 0 -100.5 44t-26.5 127v118z" />
    <glyph glyph-name="Utilde" unicode="&#x168;" horiz-adv-x="670" 
d="M181 667v-425q0 -76 39.5 -122t114.5 -46q76 0 115.5 46t39.5 122v425h109v-424q0 -119 -73 -186.5t-192 -67.5t-190.5 66t-71.5 185v427h109zM233 735h-55q2 43 27 75.5t67 32.5q27 0 69 -20t57 -20q17 0 27.5 13t11.5 30h55q0 -39 -27 -73t-66 -34q-28 0 -66.5 19.5
t-56.5 19.5q-17 0 -30 -13.5t-13 -29.5z" />
    <glyph glyph-name="utilde" unicode="&#x169;" horiz-adv-x="555" 
d="M167 500v-294q0 -63 20.5 -100.5t78.5 -37.5q64 0 92.5 46t28.5 114v272h100v-385q0 -66 5 -115h-94l-3 85q-53 -96 -161 -96q-167 0 -167 196v315h100zM176 595h-55q3 43 27 75.5t67 32.5q27 0 69 -20t57 -20q17 0 27.5 13t11.5 30h55q0 -39 -27 -73t-66 -34
q-28 0 -66.5 19.5t-56.5 19.5q-17 0 -30 -13.5t-13 -29.5z" />
    <glyph glyph-name="Umacron" unicode="&#x16a;" horiz-adv-x="670" 
d="M181 667v-425q0 -76 39.5 -122t114.5 -46q76 0 115.5 46t39.5 122v425h109v-424q0 -119 -73 -186.5t-192 -67.5t-190.5 66t-71.5 185v427h109zM470 763h-270v59h270v-59z" />
    <glyph glyph-name="umacron" unicode="&#x16b;" horiz-adv-x="555" 
d="M167 500v-294q0 -63 20.5 -100.5t78.5 -37.5q64 0 92.5 46t28.5 114v272h100v-385q0 -66 5 -115h-94l-3 85q-53 -96 -161 -96q-167 0 -167 196v315h100zM412 623h-270v59h270v-59z" />
    <glyph glyph-name="Ubreve" unicode="&#x16c;" horiz-adv-x="670" 
d="M181 667v-425q0 -76 39.5 -122t114.5 -46q76 0 115.5 46t39.5 122v425h109v-424q0 -119 -73 -186.5t-192 -67.5t-190.5 66t-71.5 185v427h109zM204 853h54q3 -30 23 -49t54 -19t54.5 19t23.5 49h53q0 -41 -33.5 -82.5t-97.5 -41.5t-97.5 41.5t-33.5 82.5z" />
    <glyph glyph-name="ubreve" unicode="&#x16d;" horiz-adv-x="555" 
d="M167 500v-294q0 -63 20.5 -100.5t78.5 -37.5q64 0 92.5 46t28.5 114v272h100v-385q0 -66 5 -115h-94l-3 85q-53 -96 -161 -96q-167 0 -167 196v315h100zM147 713h54q3 -30 23 -49t54 -19t54.5 19t23.5 49h53q0 -41 -33.5 -82.5t-97.5 -41.5t-97.5 41.5t-33.5 82.5z" />
    <glyph glyph-name="Uring" unicode="&#x16e;" horiz-adv-x="670" 
d="M181 667v-425q0 -76 39.5 -122t114.5 -46q76 0 115.5 46t39.5 122v425h109v-424q0 -119 -73 -186.5t-192 -67.5t-190.5 66t-71.5 185v427h109zM279 792q0 -24 16.5 -40t40.5 -16t40.5 16t16.5 40q0 23 -16.5 39.5t-40.5 16.5t-40.5 -16.5t-16.5 -39.5zM267 724
q-29 29 -29 68q0 40 28.5 68t69.5 28q39 0 68.5 -28.5t29.5 -67.5q0 -40 -28.5 -68t-69.5 -28q-38 0 -69 28z" />
    <glyph glyph-name="uring" unicode="&#x16f;" horiz-adv-x="555" 
d="M167 500v-294q0 -63 20.5 -100.5t78.5 -37.5q64 0 92.5 46t28.5 114v272h100v-385q0 -66 5 -115h-94l-3 85q-53 -96 -161 -96q-167 0 -167 196v315h100zM209 584q-29 29 -29 68q0 40 28.5 68t69.5 28q39 0 68.5 -28.5t29.5 -67.5q0 -40 -28.5 -68t-69.5 -28q-38 0 -69 28
zM221 652q0 -24 16.5 -40t40.5 -16t40.5 16t16.5 40q0 23 -16.5 39.5t-40.5 16.5t-40.5 -16.5t-16.5 -39.5z" />
    <glyph glyph-name="Uhungarumlaut" unicode="&#x170;" horiz-adv-x="670" 
d="M181 667v-425q0 -76 39.5 -122t114.5 -46q76 0 115.5 46t39.5 122v425h109v-424q0 -119 -73 -186.5t-192 -67.5t-190.5 66t-71.5 185v427h109zM270 724h-77l72 136h108zM460 724h-77l72 136h108z" />
    <glyph glyph-name="uhungarumlaut" unicode="&#x171;" horiz-adv-x="555" 
d="M167 500v-294q0 -63 20.5 -100.5t78.5 -37.5q64 0 92.5 46t28.5 114v272h100v-385q0 -66 5 -115h-94l-3 85q-53 -96 -161 -96q-167 0 -167 196v315h100zM405 584h-77l72 136h108zM215 584h-77l72 136h108z" />
    <glyph glyph-name="Uogonek" unicode="&#x172;" horiz-adv-x="670" 
d="M439 -124l13 -40q-44 -21 -85 -21q-47 0 -73 21t-26 56q0 56 65 97q-119 0 -190 66t-71 185v427h109v-425q0 -76 39.5 -122t114.5 -46q76 0 115.5 46t39.5 122v425h109v-424q0 -103 -54 -167.5t-148 -80.5q-64 -47 -64 -90q0 -22 14 -33.5t34 -11.5q25 0 58 16z" />
    <glyph glyph-name="uogonek" unicode="&#x173;" horiz-adv-x="555" 
d="M492 -124l13 -40q-44 -21 -85 -21q-47 0 -73 21t-26 56q0 64 85 108h-8l-3 85q-53 -96 -161 -96q-167 0 -167 196v315h100v-294q0 -63 20.5 -100.5t78.5 -37.5q64 0 92.5 46t28.5 114v272h100v-385q0 -66 5 -115h-34q-72 -50 -72 -95q0 -22 14 -33.5t34 -11.5q25 0 58 16
z" />
    <glyph glyph-name="Wcircumflex" unicode="&#x174;" horiz-adv-x="951" 
d="M320 0h-125l-186 667h108l147 -563l157 563h118l155 -563l148 563h100l-185 -667h-124l-156 564zM409 724h-77l103 136h92l103 -136h-77l-72 92z" />
    <glyph glyph-name="wcircumflex" unicode="&#x175;" horiz-adv-x="805" 
d="M287 0h-124l-152 500h105l115 -415l117 415h120l117 -415l114 415h95l-149 -500h-124l-116 416zM335 584h-77l103 136h92l103 -136h-77l-72 92z" />
    <glyph glyph-name="Ycircumflex" unicode="&#x176;" horiz-adv-x="599" 
d="M353 0h-109v266l-246 401h120l185 -318l183 318h116l-249 -401v-266zM232 724h-77l103 136h92l103 -136h-77l-72 92z" />
    <glyph glyph-name="ycircumflex" unicode="&#x177;" horiz-adv-x="469" 
d="M30 -220l6 77q24 -7 49 -7q36 0 56 23.5t37 77.5l10 31l-179 518h109l122 -411l120 411h102l-191 -567q-12 -35 -23.5 -58.5t-30.5 -49.5t-48 -39t-66 -13q-41 0 -73 7zM169 584h-77l103 136h92l103 -136h-77l-72 92z" />
    <glyph glyph-name="Ydieresis" unicode="&#x178;" horiz-adv-x="599" 
d="M353 0h-109v266l-246 401h120l185 -318l183 318h116l-249 -401v-266zM258 743h-83v97h83v-97zM429 743h-83v97h83v-97z" />
    <glyph glyph-name="Zacute" unicode="&#x179;" horiz-adv-x="523" 
d="M498 0h-472v88l345 495h-333v84h451v-88l-340 -495h349v-84zM292 724h-77l71 136h109z" />
    <glyph glyph-name="zacute" unicode="&#x17a;" horiz-adv-x="451" 
d="M422 0h-392v81l278 347h-267v72h379v-81l-277 -346h279v-73zM252 584h-77l71 136h109z" />
    <glyph glyph-name="Zdotaccent" unicode="&#x17b;" horiz-adv-x="523" 
d="M498 0h-472v88l345 495h-333v84h451v-88l-340 -495h349v-84zM316 743h-100v97h100v-97z" />
    <glyph glyph-name="zdotaccent" unicode="&#x17c;" horiz-adv-x="451" 
d="M422 0h-392v81l278 347h-267v72h379v-81l-277 -346h279v-73zM282 603h-100v97h100v-97z" />
    <glyph glyph-name="Zcaron" unicode="&#x17d;" horiz-adv-x="523" 
d="M498 0h-472v88l345 495h-333v84h451v-88l-340 -495h349v-84zM308 724h-92l-103 136h77l72 -92l72 92h77z" />
    <glyph glyph-name="zcaron" unicode="&#x17e;" horiz-adv-x="451" 
d="M422 0h-392v81l278 347h-267v72h379v-81l-277 -346h279v-73zM275 584h-92l-103 136h77l72 -92l72 92h77z" />
    <glyph glyph-name="florin" unicode="&#x192;" 
d="M2 -220l6 76q15 -4 43 -4q66 0 96 133l71 343h-108v72h123l24 104q19 83 56 128t112 45q39 0 72 -10l-6 -73q-32 8 -48 8q-27 0 -46 -17.5t-26.5 -37.5t-14.5 -50l-22 -97h108v-72h-123l-73 -349q-43 -206 -165 -206q-44 0 -79 7z" />
    <glyph glyph-name="Scommaaccent" unicode="&#x218;" horiz-adv-x="513" 
d="M58 16l5 93q73 -38 161 -38q54 0 91 27t37 83q0 43 -28.5 68t-86.5 52l-52 25q-56 28 -87.5 65.5t-31.5 99.5q0 92 65.5 139t153.5 47q82 0 151 -21l-6 -88q-61 27 -139 27q-49 0 -84.5 -23.5t-35.5 -74.5q0 -26 14.5 -46.5t31 -31t47.5 -25.5l55 -25q70 -33 105.5 -72
t35.5 -110q0 -97 -64.5 -147.5t-166.5 -50.5q-90 0 -171 27zM241 -227h-64l44 159h87z" />
    <glyph glyph-name="scommaaccent" unicode="&#x219;" horiz-adv-x="413" 
d="M41 10l6 80q61 -30 129 -30q95 0 95 75q0 31 -23 52.5t-56 35t-66 29.5t-56 46t-23 73q0 73 53 106t129 33q68 0 123 -21l-6 -73q-57 23 -112 23q-90 0 -90 -63q0 -26 23.5 -44.5t56.5 -31.5t66 -29.5t56.5 -49.5t23.5 -80q0 -76 -56.5 -114t-134.5 -38q-74 0 -138 21z
M193 -227h-64l44 159h87z" />
    <glyph glyph-name="uni021A" unicode="&#x21a;" horiz-adv-x="535" 
d="M322 0h-109v577h-203v90h516v-90h-204v-577zM243 -227h-64l44 159h87z" />
    <glyph glyph-name="uni021B" unicode="&#x21b;" horiz-adv-x="350" 
d="M325 80l5 -74q-48 -17 -96 -17q-74 0 -100.5 44t-26.5 127v268h-92v72h92v108l101 33v-141h112v-72h-112v-280q0 -80 62 -80q28 0 55 12zM172 -227h-64l44 159h87z" />
    <glyph glyph-name="dotlessj" unicode="&#x237;" horiz-adv-x="243" 
d="M-30 -219l6 77q16 -6 36 -6q38 0 50 23t12 65v560h101v-572q0 -155 -128 -155q-48 0 -77 8z" />
    <glyph glyph-name="apostrophe" unicode="&#x2bc;" horiz-adv-x="281" 
d="M111 544h-57l45 177h80z" />
    <glyph glyph-name="circumflex" unicode="&#x2c6;" horiz-adv-x="237" 
d="M47 584h-77l103 136h92l103 -136h-77l-72 92z" />
    <glyph glyph-name="caron" unicode="&#x2c7;" horiz-adv-x="237" 
d="M165 584h-92l-103 136h77l72 -92l72 92h77z" />
    <glyph glyph-name="uni02C9" unicode="&#x2c9;" horiz-adv-x="237" 
d="M254 623h-270v59h270v-59z" />
    <glyph glyph-name="breve" unicode="&#x2d8;" horiz-adv-x="237" 
d="M-12 713h54q3 -30 23 -49t54 -19t54.5 19t23.5 49h53q0 -41 -33.5 -82.5t-97.5 -41.5t-97.5 41.5t-33.5 82.5z" />
    <glyph glyph-name="dotaccent" unicode="&#x2d9;" horiz-adv-x="237" 
d="M169 603h-100v97h100v-97z" />
    <glyph glyph-name="ring" unicode="&#x2da;" horiz-adv-x="237" 
d="M50 584q-29 29 -29 68q0 40 28.5 68t69.5 28q39 0 68.5 -28.5t29.5 -67.5q0 -40 -28.5 -68t-69.5 -28q-38 0 -69 28zM62 652q0 -24 16.5 -40t40.5 -16t40.5 16t16.5 40q0 23 -16.5 39.5t-40.5 16.5t-40.5 -16.5t-16.5 -39.5z" />
    <glyph glyph-name="ogonek" unicode="&#x2db;" horiz-adv-x="237" 
d="M202 -124l13 -40q-44 -21 -85 -21q-47 0 -73 21t-26 56q0 64 85 108h52q-72 -50 -72 -95q0 -22 14 -33.5t34 -11.5q25 0 58 16z" />
    <glyph glyph-name="tilde" unicode="&#x2dc;" horiz-adv-x="237" 
d="M17 595h-55q3 43 27 75.5t67 32.5q27 0 69 -20t57 -20q17 0 27.5 13t11.5 30h55q0 -39 -27 -73t-66 -34q-28 0 -66.5 19.5t-56.5 19.5q-17 0 -30 -13.5t-13 -29.5z" />
    <glyph glyph-name="hungarumlaut" unicode="&#x2dd;" horiz-adv-x="237" 
d="M209 584h-77l72 136h108zM19 584h-77l72 136h108z" />
    <glyph glyph-name="uni0394" unicode="&#x394;" horiz-adv-x="750" 
d="M700 0h-650l274 679h96zM373 592l-209 -516h420z" />
    <glyph glyph-name="uni03A9" unicode="&#x3a9;" horiz-adv-x="750" 
d="M339 0h-271v77h196v64q-88 17 -142 93t-54 169q0 125 91 205.5t217 80.5q124 0 215.5 -81.5t91.5 -204.5q0 -93 -54 -169t-143 -93v-64h196v-77h-270v186q81 2 130.5 64.5t49.5 145.5q0 90 -63 153.5t-153 63.5t-153.5 -64t-63.5 -154q0 -83 49.5 -145t130.5 -64v-186z
" />
    <glyph glyph-name="uni03BC" unicode="&#x3bc;" 
d="M168 -216h-100v716h101v-296q0 -63 20.5 -100t78.5 -37q64 0 92 45t28 114v274h100v-385q0 -70 5 -115h-94l-3 87q-50 -95 -143 -95q-55 0 -85 32v-240z" />
    <glyph glyph-name="pi" unicode="&#x3c0;" horiz-adv-x="650" 
d="M232 0h-82v405h-70v77h464v-77h-81v-290q0 -17 1 -25.5t8.5 -18t22.5 -9.5q12 0 49 16v-67q-40 -21 -75 -21q-49 0 -68 27t-19 76v312h-150v-405z" />
    <glyph glyph-name="endash" unicode="&#x2013;" horiz-adv-x="500" 
d="M500 275h-500v70h500v-70z" />
    <glyph glyph-name="emdash" unicode="&#x2014;" horiz-adv-x="1000" 
d="M1000 275h-1000v70h1000v-70z" />
    <glyph glyph-name="quoteleft" unicode="&#x2018;" horiz-adv-x="281" 
d="M164 491h-104l87 230h75z" />
    <glyph glyph-name="quoteright" unicode="&#x2019;" horiz-adv-x="281" 
d="M144 491h-74l58 230h104z" />
    <glyph glyph-name="quotesinglbase" unicode="&#x201a;" horiz-adv-x="281" 
d="M134 -128h-74l58 231h104z" />
    <glyph glyph-name="quotedblleft" unicode="&#x201c;" horiz-adv-x="466" 
d="M349 491h-104l88 230h74zM164 491h-104l87 230h75z" />
    <glyph glyph-name="quotedblright" unicode="&#x201d;" horiz-adv-x="466" 
d="M329 491h-74l58 230h104zM144 491h-74l58 230h104z" />
    <glyph glyph-name="quotedblbase" unicode="&#x201e;" horiz-adv-x="466" 
d="M319 -127h-74l59 230h103zM134 -127h-74l58 230h104z" />
    <glyph glyph-name="dagger" unicode="&#x2020;" 
d="M333 -128h-103v546h-176v86h176v217h103v-217h176v-86h-176v-546z" />
    <glyph glyph-name="daggerdbl" unicode="&#x2021;" 
d="M333 -128h-103v217h-176v86h176v243h-176v86h176v217h103v-217h176v-86h-176v-243h176v-86h-176v-217z" />
    <glyph glyph-name="bullet" unicode="&#x2022;" 
d="M232 195q-33 16 -54.5 46.5t-21.5 68.5q0 51 37 88t88 37t88 -37t37 -88t-37 -88t-88 -37q-28 0 -49 10z" />
    <glyph glyph-name="ellipsis" unicode="&#x2026;" horiz-adv-x="1000" 
d="M887 0h-107v103h107v-103zM554 0h-107v103h107v-103zM220 0h-106v103h106v-103z" />
    <glyph glyph-name="perthousand" unicode="&#x2030;" horiz-adv-x="1318" 
d="M1004 7q-80 49 -80 188q0 39 8 73.5t25 65.5t49.5 49t76.5 18q45 0 78.5 -18t51.5 -49t26.5 -65.5t8.5 -73.5q0 -86 -39 -146t-126 -60q-47 0 -79 18zM640 7q-82 50 -82 188q0 54 13.5 97.5t51.5 76t97 32.5q45 0 78 -18t50.5 -49t25.5 -65.5t8 -73.5q0 -40 -8 -74
t-25 -65t-50 -49t-79 -18q-48 0 -80 18zM300 -24h-70l424 715h70zM153 283q-82 50 -82 188q0 54 13.5 97.5t51.5 76t97 32.5q45 0 78 -18t50.5 -49t25.5 -65.5t8 -73.5q0 -40 -8 -74t-25 -65t-50 -49t-79 -18q-49 0 -80 18zM1015 98q19 -50 68 -50q85 0 85 147q0 30 -3 52
t-11 45.5t-26 36.5t-45 13q-26 0 -43 -13t-24 -37.5t-9 -45.5t-2 -51q0 -65 10 -97zM651 98q19 -50 69 -50q27 0 44 13.5t24.5 38t10 45.5t2.5 50q0 31 -2.5 52.5t-10 45.5t-24.5 36.5t-44 12.5q-81 0 -81 -147q0 -65 12 -97zM164 374q19 -50 69 -50q27 0 44 13.5t24.5 38
t10 45.5t2.5 50q0 31 -2.5 52.5t-10 45.5t-24.5 36.5t-44 12.5q-81 0 -81 -147q0 -65 12 -97z" />
    <glyph glyph-name="guilsinglleft" unicode="&#x2039;" horiz-adv-x="280" 
d="M244 55h-85l-132 201l132 199h85l-126 -199z" />
    <glyph glyph-name="guilsinglright" unicode="&#x203a;" horiz-adv-x="280" 
d="M123 55h-86l126 200l-126 200h86l131 -200z" />
    <glyph glyph-name="fraction" unicode="&#x2044;" horiz-adv-x="171" 
d="M-92 -24h-68l423 715h69z" />
    <glyph glyph-name="zero.superior" unicode="&#x2070;" horiz-adv-x="430" 
d="M147 472q19 -51 68 -51q80 0 80 151q0 150 -80 150t-80 -150q0 -68 12 -100zM137 381q-82 50 -82 191q0 55 13.5 99t51 76.5t95.5 32.5t95.5 -32.5t51 -76.5t13.5 -99q0 -88 -37.5 -148.5t-122.5 -60.5q-47 0 -78 18z" />
    <glyph glyph-name="uni2071" unicode="&#x2071;" horiz-adv-x="169" 
d="M123 370h-76v305h76v-305zM123 729h-76v68h76v-68z" />
    <glyph glyph-name="four.superior" unicode="&#x2074;" horiz-adv-x="430" 
d="M248 705l-140 -191h140v191zM248 456h-199v68l189 250h86v-259h60v-59h-60v-86h-76v86z" />
    <glyph glyph-name="five.superior" unicode="&#x2075;" horiz-adv-x="430" 
d="M73 378l4 60q41 -15 89 -15q44 0 76.5 19.5t32.5 56.5q0 36 -30 54t-74 18q-42 0 -87 -13l5 216h247v-58h-177l-3 -103q19 7 52 7q64 0 106 -28.5t42 -89.5q0 -68 -51.5 -103.5t-123.5 -35.5q-63 0 -108 15z" />
    <glyph glyph-name="six.superior" unicode="&#x2076;" horiz-adv-x="430" 
d="M162 444q22 -27 59 -27t58 23t21 57t-19.5 56t-56.5 22q-35 0 -58.5 -20.5t-23.5 -52.5q0 -33 20 -58zM350 770l-4 -58q-36 12 -78 12q-61 0 -95.5 -41t-34.5 -99q42 45 104 45q61 0 97 -34.5t36 -93.5q0 -64 -44.5 -101t-109.5 -37q-83 0 -121 55t-38 139q0 99 52 161.5
t150 62.5q42 0 86 -11z" />
    <glyph glyph-name="seven.superior" unicode="&#x2077;" horiz-adv-x="430" 
d="M197 370h-92l172 339h-212v65h292v-63z" />
    <glyph glyph-name="eight.superior" unicode="&#x2078;" horiz-adv-x="430" 
d="M276 531q-22 17 -60 28q-84 -18 -84 -76q0 -30 23.5 -48t59.5 -18t59.5 18t23.5 49q0 29 -22 47zM164 627q24 -16 52 -23q72 22 72 67q0 28 -21 43t-52 15q-30 0 -51.5 -16t-21.5 -43t22 -43zM78 543q23 23 63 37q-75 28 -75 93q0 52 47 79.5t102 27.5q59 0 104 -25.5
t45 -80.5q0 -62 -76 -94q88 -24 88 -103q0 -58 -49 -86t-112 -28q-65 0 -113 27.5t-48 84.5q0 45 24 68z" />
    <glyph glyph-name="nine.superior" unicode="&#x2079;" horiz-adv-x="430" 
d="M148 591q19 -22 58 -22q35 0 58.5 20.5t23.5 52.5q0 35 -21 59.5t-58 24.5t-58.5 -22.5t-21.5 -57.5q0 -33 19 -55zM80 373l3 58q39 -11 79 -11q63 0 96.5 40t33.5 99q-42 -45 -104 -45q-60 0 -96.5 34.5t-36.5 94.5q0 64 43.5 100.5t109.5 36.5q84 0 122 -54.5
t38 -139.5q0 -99 -51 -161t-150 -62q-46 0 -87 10z" />
    <glyph glyph-name="plus.superior" unicode="&#x207a;" horiz-adv-x="430" 
d="M185 496h-135v57h135v125h60v-125h135v-57h-135v-124h-60v124z" />
    <glyph glyph-name="plus.superior" unicode="&#xe1e1;" horiz-adv-x="430" 
d="M185 496h-135v57h135v125h60v-125h135v-57h-135v-124h-60v124z" />
    <glyph glyph-name="minus.superior" unicode="&#x207b;" horiz-adv-x="430" 
d="M380 496h-330v57h330v-57z" />
    <glyph glyph-name="minus.superior" unicode="&#xe1e5;" horiz-adv-x="430" 
d="M380 496h-330v57h330v-57z" />
    <glyph glyph-name="uni207F" unicode="&#x207f;" horiz-adv-x="374" 
d="M122 370h-75v235q0 35 -3 70h70l2 -53q41 59 106 59q105 0 105 -116v-195h-75v178q0 73 -60 73q-37 0 -53.5 -24.5t-16.5 -59.5v-167z" />
    <glyph glyph-name="zero.inferior" unicode="&#x2080;" horiz-adv-x="430" 
d="M147 -63q19 -51 68 -51q80 0 80 151q0 150 -80 150t-80 -150q0 -68 12 -100zM137 -154q-82 50 -82 191q0 55 13.5 99t51 76.5t95.5 32.5t95.5 -32.5t51 -76.5t13.5 -99q0 -88 -37.5 -148.5t-122.5 -60.5q-47 0 -78 18z" />
    <glyph glyph-name="one.inferior" unicode="&#x2081;" horiz-adv-x="430" 
d="M284 -165h-78v323l-88 -63l-32 55l131 89h67v-404z" />
    <glyph glyph-name="two.inferior" unicode="&#x2082;" horiz-adv-x="430" 
d="M351 -165h-288v61l75 63q65 55 95 91.5t30 71.5q0 29 -21 45.5t-57 16.5q-46 0 -106 -25l-3 62q64 24 120 24q63 0 106 -28.5t43 -87.5q0 -47 -32 -89t-90 -92l-62 -54h190v-59z" />
    <glyph glyph-name="three.inferior" unicode="&#x2083;" horiz-adv-x="430" 
d="M62 -157l3 60q44 -17 105 -17q43 0 73 17.5t30 52.5q0 33 -29.5 47.5t-73.5 14.5h-53v54h44q106 0 106 61q0 28 -27.5 41.5t-64.5 13.5q-55 0 -99 -18l-3 58q51 17 113 17q65 0 112.5 -24.5t47.5 -80.5q0 -73 -76 -93q36 -7 60 -31.5t24 -59.5q0 -65 -52 -96.5
t-125 -31.5q-65 0 -115 15z" />
    <glyph glyph-name="four.inferior" unicode="&#x2084;" horiz-adv-x="430" 
d="M248 170l-140 -191h140v191zM248 -79h-199v68l189 250h86v-259h60v-59h-60v-86h-76v86z" />
    <glyph glyph-name="five.inferior" unicode="&#x2085;" horiz-adv-x="430" 
d="M73 -157l4 60q41 -15 89 -15q44 0 76.5 19.5t32.5 56.5q0 36 -30 54t-74 18q-42 0 -87 -13l5 216h247v-58h-177l-3 -103q19 7 52 7q64 0 106 -28.5t42 -89.5q0 -68 -51.5 -103.5t-123.5 -35.5q-63 0 -108 15z" />
    <glyph glyph-name="six.inferior" unicode="&#x2086;" horiz-adv-x="430" 
d="M162 -91q22 -27 59 -27t58 23t21 57t-19.5 56t-56.5 22q-35 0 -58.5 -20.5t-23.5 -52.5q0 -33 20 -58zM350 235l-4 -58q-36 12 -78 12q-61 0 -95.5 -41t-34.5 -99q42 45 104 45q61 0 97 -34.5t36 -93.5q0 -64 -44.5 -101t-109.5 -37q-83 0 -121 55t-38 139q0 99 52 161.5
t150 62.5q42 0 86 -11z" />
    <glyph glyph-name="seven.inferior" unicode="&#x2087;" horiz-adv-x="430" 
d="M197 -165h-92l172 339h-212v65h292v-63z" />
    <glyph glyph-name="eight.inferior" unicode="&#x2088;" horiz-adv-x="430" 
d="M276 -4q-22 17 -60 28q-84 -18 -84 -76q0 -30 23.5 -48t59.5 -18t59.5 18t23.5 49q0 29 -22 47zM164 92q24 -16 52 -23q72 22 72 67q0 28 -21 43t-52 15q-30 0 -51.5 -16t-21.5 -43t22 -43zM78 8q23 23 63 37q-75 28 -75 93q0 52 47 79.5t102 27.5q59 0 104 -25.5
t45 -80.5q0 -62 -76 -94q88 -24 88 -103q0 -58 -49 -86t-112 -28q-65 0 -113 27.5t-48 84.5q0 46 24 68z" />
    <glyph glyph-name="nine.inferior" unicode="&#x2089;" horiz-adv-x="430" 
d="M148 56q19 -22 58 -22q35 0 58.5 20.5t23.5 52.5q0 35 -21 59.5t-58 24.5t-58.5 -22.5t-21.5 -57.5q0 -33 19 -55zM80 -162l3 58q39 -11 79 -11q63 0 96.5 40t33.5 99q-42 -45 -104 -45q-60 0 -96.5 34.5t-36.5 94.5q0 64 43.5 100.5t109.5 36.5q84 0 122 -54.5
t38 -139.5q0 -99 -51 -161t-150 -62q-46 0 -87 10z" />
    <glyph glyph-name="plus.inferior" unicode="&#x208a;" horiz-adv-x="430" 
d="M185 -39h-135v57h135v125h60v-125h135v-57h-135v-124h-60v124z" />
    <glyph glyph-name="plus.inferior" unicode="&#xe194;" horiz-adv-x="430" 
d="M185 -39h-135v57h135v125h60v-125h135v-57h-135v-124h-60v124z" />
    <glyph glyph-name="minus.inferior" unicode="&#x208b;" horiz-adv-x="430" 
d="M380 -39h-330v57h330v-57z" />
    <glyph glyph-name="minus.inferior" unicode="&#xe198;" horiz-adv-x="430" 
d="M380 -39h-330v57h330v-57z" />
    <glyph glyph-name="a.inferior" unicode="&#x2090;" horiz-adv-x="349" 
d="M232 -20h-23q-112 0 -112 -54q0 -23 15.5 -34.5t39.5 -11.5q40 0 60 24.5t20 61.5v14zM309 -165h-73l-3 47q-32 -54 -104 -54q-47 0 -75.5 23.5t-28.5 69.5q0 104 161 104h46v8q0 61 -75 61q-49 0 -93 -23l-4 56q46 19 106 19q138 0 138 -118v-122q0 -38 5 -71z" />
    <glyph glyph-name="a.inferior" unicode="&#xe150;" horiz-adv-x="349" 
d="M232 -20h-23q-112 0 -112 -54q0 -23 15.5 -34.5t39.5 -11.5q40 0 60 24.5t20 61.5v14zM309 -165h-73l-3 47q-32 -54 -104 -54q-47 0 -75.5 23.5t-28.5 69.5q0 104 161 104h46v8q0 61 -75 61q-49 0 -93 -23l-4 56q46 19 106 19q138 0 138 -118v-122q0 -38 5 -71z" />
    <glyph glyph-name="e.inferior" unicode="&#x2091;" horiz-adv-x="342" 
d="M103 16h147q0 34 -16 56.5t-52 22.5q-37 0 -56.5 -23.5t-22.5 -55.5zM318 -31h-214q1 -40 28 -64t77 -24q53 0 89 18l3 -54q-48 -17 -100 -17q-85 0 -129 42.5t-44 118.5q0 67 42.5 112t110.5 45q137 0 137 -155v-22z" />
    <glyph glyph-name="e.inferior" unicode="&#xe154;" horiz-adv-x="342" 
d="M103 16h147q0 34 -16 56.5t-52 22.5q-37 0 -56.5 -23.5t-22.5 -55.5zM318 -31h-214q1 -40 28 -64t77 -24q53 0 89 18l3 -54q-48 -17 -100 -17q-85 0 -129 42.5t-44 118.5q0 67 42.5 112t110.5 45q137 0 137 -155v-22z" />
    <glyph glyph-name="o.inferior" unicode="&#x2092;" horiz-adv-x="380" 
d="M127 -83q21 -33 62 -33q42 0 62 29.5t20 73.5q0 41 -19.5 72t-60.5 31q-42 0 -61.5 -30t-19.5 -73q0 -42 17 -70zM189 -172q-76 0 -118 43t-42 116q0 72 43.5 115.5t118.5 43.5t117.5 -43t42.5 -116q0 -72 -43.5 -115.5t-118.5 -43.5z" />
    <glyph glyph-name="o.inferior" unicode="&#xe15e;" horiz-adv-x="380" 
d="M127 -83q21 -33 62 -33q42 0 62 29.5t20 73.5q0 41 -19.5 72t-60.5 31q-42 0 -61.5 -30t-19.5 -73q0 -42 17 -70zM189 -172q-76 0 -118 43t-42 116q0 72 43.5 115.5t118.5 43.5t117.5 -43t42.5 -116q0 -72 -43.5 -115.5t-118.5 -43.5z" />
    <glyph glyph-name="x.inferior" unicode="&#x2093;" horiz-adv-x="336" 
d="M90 -165h-81l110 160l-100 145h86l67 -112l65 112h81l-99 -145l109 -160h-86l-74 123z" />
    <glyph glyph-name="x.inferior" unicode="&#xe167;" horiz-adv-x="336" 
d="M90 -165h-81l110 160l-100 145h86l67 -112l65 112h81l-99 -145l109 -160h-86l-74 123z" />
    <glyph glyph-name="schwa.inferior" unicode="&#x2094;" horiz-adv-x="342" 
d="M243 -42h-147q0 -34 16 -56.5t52 -22.5q37 0 56.5 23.5t22.5 55.5zM28 -17v22h214q-1 40 -28 64t-77 24q-53 0 -89 -18l-3 54q48 17 100 17q85 0 129 -42.5t44 -118.5q0 -67 -42.5 -112t-110.5 -45q-137 0 -137 155z" />
    <glyph glyph-name="Euro" unicode="&#x20ac;" 
d="M119 239h-89l13 55h69q-2 26 -2 40t2 38h-81l13 55h76q23 109 98 179.5t184 70.5q72 0 133 -26l-19 -81q-48 23 -101 23q-73 0 -118.5 -45.5t-65.5 -120.5h257l-13 -55h-255q-2 -26 -2 -39t2 -39h240l-12 -55h-217q17 -73 63.5 -118.5t119.5 -45.5q60 0 103 22l6 -85
q-42 -23 -121 -23q-114 0 -188 68t-95 182z" />
    <glyph glyph-name="afii61289" unicode="&#x2113;" horiz-adv-x="500" 
d="M233 556v-210q107 124 107 236q0 36 -14.5 58.5t-35.5 22.5q-24 0 -40.5 -27.5t-16.5 -79.5zM92 157h-2l-31 46l90 84v254q0 82 40 131t101 49q54 0 86.5 -35.5t32.5 -97.5q0 -145 -176 -316v-140q0 -44 21.5 -63.5t50.5 -19.5q43 0 88 39h2l29 -44q-64 -58 -139 -58
q-62 0 -99 34t-37 98v98z" />
    <glyph glyph-name="trademark" unicode="&#x2122;" horiz-adv-x="955" 
d="M483 266h-73v401h122l128 -319l123 319h122v-401h-76v350l-136 -350h-72l-138 350v-350zM220 266h-81v341h-133v60h348v-60h-134v-341z" />
    <glyph glyph-name="Omega" unicode="&#x2126;" horiz-adv-x="750" 
d="M339 0h-271v77h196v64q-88 17 -142 93t-54 169q0 125 91 205.5t217 80.5q124 0 215.5 -81.5t91.5 -204.5q0 -93 -54 -169t-143 -93v-64h196v-77h-270v186q81 2 130.5 64.5t49.5 145.5q0 90 -63 153.5t-153 63.5t-153.5 -64t-63.5 -154q0 -83 49.5 -145t130.5 -64v-186z
" />
    <glyph glyph-name="estimated" unicode="&#x212e;" horiz-adv-x="600" 
d="M157 440v-145h291v145q-63 60 -147 60t-144 -60zM157 259v-181q59 -59 145 -59q63 0 109 28.5t84 91.5l35 -21q-46 -73 -98 -104t-130 -31q-115 0 -186.5 79t-71.5 197q0 119 71 197.5t187 78.5q115 0 187 -77t72 -199h-404z" />
    <glyph glyph-name="partialdiff" unicode="&#x2202;" 
d="M173 97q39 -52 98 -52q33 0 59 19t40.5 46t25 64.5t14 66.5t5.5 60q-66 70 -138 70q-66 0 -101 -48t-35 -116q0 -63 32 -110zM140 606l-44 53q72 61 155 61q56 0 100.5 -22.5t71.5 -58t45 -83.5t25 -95.5t7 -98.5q0 -49 -5.5 -96t-22 -99t-41 -90.5t-67 -64t-96.5 -25.5
q-93 0 -149.5 67.5t-56.5 162.5q0 91 55 151.5t145 60.5q82 0 155 -68v21q0 71 -13 130t-50 103.5t-94 44.5q-72 0 -120 -54z" />
    <glyph glyph-name="Delta" unicode="&#x2206;" horiz-adv-x="750" 
d="M700 0h-650l274 679h96zM373 592l-209 -516h420z" />
    <glyph glyph-name="product" unicode="&#x220f;" horiz-adv-x="750" 
d="M177 -200h-82v1000h561v-1000h-82v920h-397v-920z" />
    <glyph glyph-name="summation" unicode="&#x2211;" horiz-adv-x="750" 
d="M688 -200h-613v74l276 434l-259 421v71h579v-76h-477l255 -416l-273 -428h512v-80z" />
    <glyph glyph-name="minus" unicode="&#x2212;" 
d="M537 211h-511v78h511v-78z" />
    <glyph glyph-name="uni2215" unicode="&#x2215;" horiz-adv-x="171" 
d="M-92 -24h-68l423 715h69z" />
    <glyph glyph-name="uni2219" unicode="&#x2219;" horiz-adv-x="281" 
d="M194 259h-107v102h107v-102z" />
    <glyph glyph-name="radical" unicode="&#x221a;" 
d="M340 -200h-74l-154 334l-49 -22l-30 59l121 55l140 -313l159 887h76z" />
    <glyph glyph-name="infinity" unicode="&#x221e;" horiz-adv-x="818" 
d="M444 152q-11 14 -33 44q-41 -54 -79 -82.5t-93 -28.5q-72 0 -119.5 47.5t-47.5 120.5t45.5 121t118.5 48q54 0 93.5 -30.5t78.5 -86.5q3 4 15.5 19t16.5 19.5t15 17t17 16.5t17 13.5t19.5 12.5t20.5 8t24.5 6.5t26.5 1.5q73 0 120 -47t47 -119t-46 -121.5t-117 -49.5
q-79 0 -140 70zM479 278q-13 -14 -26 -31q21 -29 35.5 -46t41 -33.5t54.5 -16.5q41 0 68 29t27 71q0 40 -27.5 69t-66.5 29q-47 0 -106 -71zM165 183q27 -28 69 -28q17 0 32.5 6t31 19t24.5 22.5t24.5 28.5t20.5 25q-26 32 -38 46t-40 32.5t-54 18.5q-40 0 -68 -29.5
t-28 -70.5t26 -70z" />
    <glyph glyph-name="integral" unicode="&#x222b;" 
d="M113 -216l6 73q23 -9 48 -9q70 0 70 98v666q0 173 141 173q46 0 72 -11l-6 -73q-22 9 -48 9q-70 0 -70 -98v-666q0 -35 -5.5 -62.5t-19.5 -54.5t-43 -41.5t-72 -14.5q-47 0 -73 11z" />
    <glyph glyph-name="approxequal" unicode="&#x2248;" 
d="M70 263h-56q7 64 39 109t92 45q46 0 139.5 -34.5t135.5 -34.5q59 0 74 73h54q-4 -62 -37.5 -107.5t-91.5 -45.5q-47 0 -141.5 35t-133.5 35q-31 0 -50.5 -22t-23.5 -53zM70 78h-56q7 64 39 109t92 45q46 0 139.5 -35t135.5 -35q59 0 74 74h54q-4 -62 -37.5 -107.5
t-91.5 -45.5q-47 0 -141.5 35t-133.5 35q-31 0 -50.5 -22t-23.5 -53z" />
    <glyph glyph-name="notequal" unicode="&#x2260;" 
d="M173 -36l-68 35l59 112h-138v77h178l63 122h-241v78h282l78 150l68 -35l-61 -115h144v-78h-184l-64 -122h248v-77h-288z" />
    <glyph glyph-name="lessequal" unicode="&#x2264;" 
d="M537 84l-511 185v82l511 180v-83l-403 -138l403 -143v-83zM537 -33h-511v78h511v-78z" />
    <glyph glyph-name="greaterequal" unicode="&#x2265;" 
d="M537 269l-511 -185v83l402 143l-402 138v83l511 -180v-82zM537 -33h-511v78h511v-78z" />
    <glyph glyph-name="lozenge" unicode="&#x25ca;" 
d="M319 0h-77l-174 400l174 400h77l176 -400zM150 400l131 -316l131 316l-131 316z" />
    <glyph glyph-name="exclam.sc" unicode="&#xe000;" horiz-adv-x="281" 
d="M194 0h-107v99h107v-99zM181 172h-81l-14 362h110z" />
    <glyph glyph-name="dollar.sc" unicode="&#xe001;" horiz-adv-x="478" 
d="M265 -86h-62v77q-75 1 -143 24l4 84q67 -30 149 -30q107 0 107 78q0 19 -14 35t-29.5 25t-48.5 25l-63 29q-109 48 -109 136q0 60 43 98t114 48v76h62v-72q61 -2 116 -18l-4 -83q-63 23 -124 23q-46 0 -76.5 -16t-30.5 -52q0 -24 20 -40t58 -34l68 -31q60 -26 89 -58.5
t29 -85.5q0 -66 -43.5 -106.5t-111.5 -50.5v-81z" />
    <glyph glyph-name="percent.sc" unicode="&#xe002;" horiz-adv-x="792" 
d="M262 -19h-64l333 571h64zM546 73q15 -35 51 -35q63 0 63 116q0 115 -63 115t-63 -115q0 -53 12 -81zM532 3q-69 41 -69 151q0 69 32 117t102 48t102 -48t32 -117t-32 -117t-102 -48q-39 0 -65 14zM145 298q15 -35 51 -35q63 0 63 116q0 115 -63 115t-63 -115
q0 -53 12 -81zM131 228q-69 41 -69 151q0 69 32 117t102 48t102 -48t32 -117t-32 -117t-102 -48q-39 0 -65 14z" />
    <glyph glyph-name="ampersand.sc" unicode="&#xe003;" horiz-adv-x="563" 
d="M366 242h-93q-130 0 -130 -95q0 -86 130 -86q53 0 93 10v171zM459 242v-229q-102 -24 -187 -24q-101 0 -165.5 38t-64.5 117q0 52 31 86.5t82 43.5q-98 28 -98 120q0 70 61.5 110.5t153.5 40.5q80 0 140 -18l-3 -77q-64 23 -138 23q-49 0 -82.5 -21t-33.5 -60
q0 -84 121 -84h90v57h93v-57h85v-66h-85z" />
    <glyph glyph-name="question.sc" unicode="&#xe004;" horiz-adv-x="381" 
d="M215 0h-107v99h107v-99zM206 172h-90q0 46 16.5 74t56.5 59q28 26 40 46.5t12 48.5q0 32 -24.5 49t-64.5 17q-54 0 -113 -22l-4 80q60 21 133 21q77 0 125.5 -35.5t48.5 -100.5q0 -41 -18.5 -71t-53.5 -61q-35 -29 -49.5 -51t-14.5 -54z" />
    <glyph glyph-name="a.sc" unicode="&#xe005;" horiz-adv-x="557" 
d="M275 461l-93 -251h190zM108 0h-99l209 534h119l211 -534h-101l-51 136h-237z" />
    <glyph glyph-name="b.sc" unicode="&#xe006;" horiz-adv-x="501" 
d="M167 466v-159h62q115 0 115 84q0 75 -104 75h-73zM167 243v-175h57q132 0 132 86q0 89 -138 89h-51zM210 0h-139v534h177q49 0 89 -9.5t72.5 -41t32.5 -82.5q0 -94 -92 -124q48 -12 77.5 -45t29.5 -81q0 -40 -16.5 -69t-40 -44.5t-59.5 -24.5t-64.5 -11t-66.5 -2z" />
    <glyph glyph-name="c.sc" unicode="&#xe007;" horiz-adv-x="496" 
d="M462 90l6 -79q-59 -22 -136 -22q-131 0 -210.5 74.5t-79.5 202.5q0 123 82.5 201t207.5 78q68 0 133 -21l-5 -80q-62 23 -117 23q-88 0 -142.5 -56.5t-54.5 -144.5q0 -90 53 -144.5t143 -54.5q64 0 120 23z" />
    <glyph glyph-name="d.sc" unicode="&#xe008;" horiz-adv-x="568" 
d="M212 0h-141v534h167q79 0 141.5 -24.5t104.5 -85t42 -151.5q0 -73 -24 -127t-67.5 -85t-99 -46t-123.5 -15zM170 460v-386h42q210 0 210 199q0 88 -50 137.5t-140 49.5h-62z" />
    <glyph glyph-name="e.sc" unicode="&#xe009;" horiz-adv-x="449" 
d="M407 0h-336v534h328v-75h-231v-150h220v-72h-220v-163h239v-74z" />
    <glyph glyph-name="f.sc" unicode="&#xe00a;" horiz-adv-x="424" 
d="M170 0h-99v534h320v-75h-221v-154h212v-73h-212v-232z" />
    <glyph glyph-name="g.sc" unicode="&#xe00b;" horiz-adv-x="571" 
d="M513 300v-279q-91 -32 -171 -32q-136 0 -218 74t-82 203q0 125 88 202t225 77q88 0 151 -25l-5 -81q-66 30 -142 30q-94 0 -153.5 -56.5t-59.5 -146.5q0 -85 51 -143.5t143 -58.5q48 0 88 12v153h-120v71h205z" />
    <glyph glyph-name="h.sc" unicode="&#xe00c;" horiz-adv-x="578" 
d="M170 0h-99v534h99v-216h238v216h99v-534h-99v232h-238v-232z" />
    <glyph glyph-name="i.sc" unicode="&#xe00d;" horiz-adv-x="241" 
d="M170 0h-99v534h99v-534z" />
    <glyph glyph-name="j.sc" unicode="&#xe00e;" horiz-adv-x="305" 
d="M8 1l5 80q24 -10 51 -10q74 0 74 88v375h99v-388q0 -74 -37.5 -115.5t-110.5 -41.5q-45 0 -81 12z" />
    <glyph glyph-name="k.sc" unicode="&#xe00f;" horiz-adv-x="529" 
d="M170 0h-99v534h99v-237l217 237h116l-239 -251l259 -283h-125l-228 261v-261z" />
    <glyph glyph-name="l.sc" unicode="&#xe010;" horiz-adv-x="418" 
d="M400 0h-329v534h99v-451h230v-83z" />
    <glyph glyph-name="m.sc" unicode="&#xe011;" horiz-adv-x="749" 
d="M162 0h-91v534h152l153 -436l153 436h149v-534h-95v455l-163 -455h-95l-163 457v-457z" />
    <glyph glyph-name="n.sc" unicode="&#xe012;" horiz-adv-x="597" 
d="M162 0h-91v534h139l224 -442v442h92v-534h-141l-223 442v-442z" />
    <glyph glyph-name="o.sc" unicode="&#xe013;" horiz-adv-x="600" 
d="M183 129q43 -63 117 -63q78 0 116 58t38 142t-38.5 143t-115.5 59q-75 0 -114.5 -59.5t-39.5 -142.5q0 -82 37 -137zM188 9q-71 31 -108.5 98t-37.5 159q0 122 69 200.5t189 78.5q124 0 191 -76.5t67 -202.5q0 -123 -68 -200t-190 -77q-63 0 -112 20z" />
    <glyph glyph-name="p.sc" unicode="&#xe014;" horiz-adv-x="481" 
d="M169 461v-183h67q59 0 88 21.5t29 71.5q0 45 -28 67.5t-74 22.5h-82zM169 0h-98v534h201q78 0 128.5 -42.5t50.5 -119.5q0 -80 -52 -123.5t-131 -43.5h-99v-205z" />
    <glyph glyph-name="q.sc" unicode="&#xe015;" horiz-adv-x="600" 
d="M183 129q43 -63 117 -63q78 0 116 58t38 142t-38.5 143t-115.5 59q-75 0 -114.5 -59.5t-39.5 -142.5q0 -82 37 -137zM543 -103h-125l-88 94q-18 -2 -30 -2q-125 0 -191.5 76t-66.5 201q0 122 69 200.5t189 78.5q124 0 191 -76.5t67 -202.5q0 -85 -33.5 -151t-96.5 -98z
" />
    <glyph glyph-name="r.sc" unicode="&#xe016;" horiz-adv-x="501" 
d="M169 461v-159h60q118 0 118 82q0 77 -115 77h-63zM169 0h-98v534h179q196 0 196 -142q0 -50 -30.5 -83t-80.5 -45q48 -15 70 -73l76 -191h-106l-61 161q-15 38 -35 53t-61 15h-49v-229z" />
    <glyph glyph-name="s.sc" unicode="&#xe017;" horiz-adv-x="437" 
d="M48 11l4 84q69 -28 143 -28q96 0 96 80q0 28 -22 48t-65 40l-49 22q-105 47 -105 136q0 71 54 111.5t143 40.5q61 0 122 -18l-4 -83q-64 23 -118 23q-97 0 -97 -70q0 -26 18 -41.5t56 -33.5l53 -24q58 -26 86 -59t28 -87q0 -78 -54.5 -120.5t-137.5 -42.5q-84 0 -151 22z
" />
    <glyph glyph-name="t.sc" unicode="&#xe018;" horiz-adv-x="456" 
d="M277 0h-99v450h-167v84h434v-84h-168v-450z" />
    <glyph glyph-name="u.sc" unicode="&#xe019;" horiz-adv-x="577" 
d="M167 534v-337q0 -58 31 -93t89 -35q59 0 91 34.5t32 92.5v338h99v-337q0 -95 -62 -151.5t-160 -56.5q-100 0 -159.5 54t-59.5 151v340h99z" />
    <glyph glyph-name="v.sc" unicode="&#xe01a;" horiz-adv-x="525" 
d="M319 0h-115l-199 534h105l155 -443l156 443h99z" />
    <glyph glyph-name="w.sc" unicode="&#xe01b;" horiz-adv-x="789" 
d="M272 0h-112l-149 534h96l117 -440l122 440h104l121 -442l114 442h93l-149 -534h-111l-124 441z" />
    <glyph glyph-name="x.sc" unicode="&#xe01c;" horiz-adv-x="537" 
d="M115 0h-110l201 278l-181 256h115l132 -201l133 201h107l-182 -255l199 -279h-119l-143 224z" />
    <glyph glyph-name="y.sc" unicode="&#xe01d;" horiz-adv-x="504" 
d="M300 0h-101v210l-199 324h109l145 -252l143 252h104l-201 -324v-210z" />
    <glyph glyph-name="z.sc" unicode="&#xe01e;" horiz-adv-x="446" 
d="M420 0h-394v81l280 375h-271v78h377v-82l-275 -375h283v-77z" />
    <glyph glyph-name="agrave.sc" unicode="&#xe01f;" horiz-adv-x="557" 
d="M275 461l-93 -251h190zM108 0h-99l209 534h119l211 -534h-101l-51 136h-237zM322 608h-76l-104 136h108z" />
    <glyph glyph-name="aacute.sc" unicode="&#xe020;" horiz-adv-x="557" 
d="M275 461l-93 -251h190zM108 0h-99l209 534h119l211 -534h-101l-51 136h-237zM299 608h-77l71 136h109z" />
    <glyph glyph-name="acircumflex.sc" unicode="&#xe021;" horiz-adv-x="557" 
d="M275 461l-93 -251h190zM108 0h-99l209 534h119l211 -534h-101l-51 136h-237zM202 608h-77l103 136h92l103 -136h-77l-72 92z" />
    <glyph glyph-name="atilde.sc" unicode="&#xe022;" horiz-adv-x="557" 
d="M275 461l-93 -251h190zM108 0h-99l209 534h119l211 -534h-101l-51 136h-237zM172 619h-55q3 43 27 75.5t67 32.5q27 0 69 -20t57 -20q17 0 27.5 13t11.5 30h55q0 -39 -27 -73t-66 -34q-28 0 -66.5 19.5t-56.5 19.5q-17 0 -30 -13.5t-13 -29.5z" />
    <glyph glyph-name="adieresis.sc" unicode="&#xe023;" horiz-adv-x="557" 
d="M275 461l-93 -251h190zM108 0h-99l209 534h119l211 -534h-101l-51 136h-237zM230 627h-83v97h83v-97zM401 627h-83v97h83v-97z" />
    <glyph glyph-name="aring.sc" unicode="&#xe024;" horiz-adv-x="557" 
d="M275 461l-93 -251h190zM108 0h-99l209 534h119l211 -534h-101l-51 136h-237zM218 676q0 -24 16.5 -40t40.5 -16t40.5 16t16.5 40q0 23 -16.5 39.5t-40.5 16.5t-40.5 -16.5t-16.5 -39.5zM206 608q-29 29 -29 68q0 40 28.5 68t69.5 28q39 0 68.5 -28.5t29.5 -67.5
q0 -40 -28.5 -68t-69.5 -28q-38 0 -69 28z" />
    <glyph glyph-name="amacron.sc" unicode="&#xe025;" horiz-adv-x="557" 
d="M275 461l-93 -251h190zM108 0h-99l209 534h119l211 -534h-101l-51 136h-237zM409 647h-270v59h270v-59z" />
    <glyph glyph-name="abreve.sc" unicode="&#xe026;" horiz-adv-x="557" 
d="M275 461l-93 -251h190zM108 0h-99l209 534h119l211 -534h-101l-51 136h-237zM141 737h54q3 -30 23 -49t54 -19t54.5 19t23.5 49h53q0 -41 -33.5 -82.5t-97.5 -41.5t-97.5 41.5t-33.5 82.5z" />
    <glyph glyph-name="aogonek.sc" unicode="&#xe027;" horiz-adv-x="557" 
d="M275 461l-93 -251h190zM108 0h-99l209 534h119l211 -534h-44q-72 -50 -72 -95q0 -22 14 -33.5t34 -11.5q25 0 58 16l13 -40q-44 -21 -85 -21q-47 0 -73 21t-26 56q0 64 85 108h-5l-51 136h-237z" />
    <glyph glyph-name="ae.sc" unicode="&#xe028;" horiz-adv-x="749" 
d="M381 468l-159 -257h159v257zM100 0h-106l341 534h364v-75h-226v-150h215v-72h-215v-163h234v-74h-326v137h-197z" />
    <glyph glyph-name="cacute.sc" unicode="&#xe029;" horiz-adv-x="496" 
d="M462 90l6 -79q-59 -22 -136 -22q-131 0 -210.5 74.5t-79.5 202.5q0 123 82.5 201t207.5 78q68 0 133 -21l-5 -80q-62 23 -117 23q-88 0 -142.5 -56.5t-54.5 -144.5q0 -90 53 -144.5t143 -54.5q64 0 120 23zM334 608h-77l71 136h109z" />
    <glyph glyph-name="ccircumflex.sc" unicode="&#xe02a;" horiz-adv-x="496" 
d="M462 90l6 -79q-59 -22 -136 -22q-131 0 -210.5 74.5t-79.5 202.5q0 123 82.5 201t207.5 78q68 0 133 -21l-5 -80q-62 23 -117 23q-88 0 -142.5 -56.5t-54.5 -144.5q0 -90 53 -144.5t143 -54.5q64 0 120 23zM234 608h-77l103 136h92l103 -136h-77l-72 92z" />
    <glyph glyph-name="ccaron.sc" unicode="&#xe02b;" horiz-adv-x="496" 
d="M462 90l6 -79q-59 -22 -136 -22q-131 0 -210.5 74.5t-79.5 202.5q0 123 82.5 201t207.5 78q68 0 133 -21l-5 -80q-62 23 -117 23q-88 0 -142.5 -56.5t-54.5 -144.5q0 -90 53 -144.5t143 -54.5q64 0 120 23zM357 608h-92l-103 136h77l72 -92l72 92h77z" />
    <glyph glyph-name="cdotaccent.sc" unicode="&#xe02c;" horiz-adv-x="496" 
d="M462 90l6 -79q-59 -22 -136 -22q-131 0 -210.5 74.5t-79.5 202.5q0 123 82.5 201t207.5 78q68 0 133 -21l-5 -80q-62 23 -117 23q-88 0 -142.5 -56.5t-54.5 -144.5q0 -90 53 -144.5t143 -54.5q64 0 120 23zM361 627h-100v97h100v-97z" />
    <glyph glyph-name="ccedilla.sc" unicode="&#xe02d;" horiz-adv-x="496" 
d="M197 -167l13 39q43 -16 81 -16q21 0 33.5 8.5t12.5 22.5q0 31 -36 31q-28 0 -46 -8l-16 23l43 59q-111 15 -175.5 86.5t-64.5 187.5q0 123 82.5 201t207.5 78q68 0 133 -21l-5 -80q-62 23 -117 23q-88 0 -142.5 -56.5t-54.5 -144.5q0 -90 53 -144.5t143 -54.5
q64 0 120 23l6 -79q-59 -22 -142 -22l-30 -41q15 4 37 4q28 0 48 -16.5t20 -45.5q0 -35 -29 -55t-78 -20q-50 0 -97 18z" />
    <glyph glyph-name="dcaron.sc" unicode="&#xe02e;" horiz-adv-x="568" 
d="M212 0h-141v534h167q79 0 141.5 -24.5t104.5 -85t42 -151.5q0 -73 -24 -127t-67.5 -85t-99 -46t-123.5 -15zM170 460v-386h42q210 0 210 199q0 88 -50 137.5t-140 49.5h-62zM306 608h-92l-103 136h77l72 -92l72 92h77z" />
    <glyph glyph-name="dcroat.sc" unicode="&#xe02f;" horiz-adv-x="568" 
d="M170 240v-166h40q99 0 155.5 48.5t56.5 150.5q0 88 -50 137.5t-140 49.5h-62v-157h128v-63h-128zM212 0h-140v240h-58v63h58v231h166q79 0 141.5 -24.5t104.5 -85t42 -151.5q0 -73 -24 -127t-67.5 -85t-99 -46t-123.5 -15z" />
    <glyph glyph-name="eth.sc" unicode="&#xe030;" horiz-adv-x="568" 
d="M170 240v-166h40q99 0 155.5 48.5t56.5 150.5q0 88 -50 137.5t-140 49.5h-62v-157h128v-63h-128zM212 0h-140v240h-58v63h58v231h166q79 0 141.5 -24.5t104.5 -85t42 -151.5q0 -73 -24 -127t-67.5 -85t-99 -46t-123.5 -15z" />
    <glyph glyph-name="egrave.sc" unicode="&#xe031;" horiz-adv-x="449" 
d="M407 0h-336v534h328v-75h-231v-150h220v-72h-220v-163h239v-74zM286 608h-76l-104 136h108z" />
    <glyph glyph-name="eacute.sc" unicode="&#xe032;" horiz-adv-x="449" 
d="M407 0h-336v534h328v-75h-231v-150h220v-72h-220v-163h239v-74zM259 608h-77l71 136h109z" />
    <glyph glyph-name="ecircumflex.sc" unicode="&#xe033;" horiz-adv-x="449" 
d="M407 0h-336v534h328v-75h-231v-150h220v-72h-220v-163h239v-74zM162 608h-77l103 136h92l103 -136h-77l-72 92z" />
    <glyph glyph-name="ecaron.sc" unicode="&#xe034;" horiz-adv-x="449" 
d="M407 0h-336v534h328v-75h-231v-150h220v-72h-220v-163h239v-74zM282 608h-92l-103 136h77l72 -92l72 92h77z" />
    <glyph glyph-name="edieresis.sc" unicode="&#xe035;" horiz-adv-x="449" 
d="M407 0h-336v534h328v-75h-231v-150h220v-72h-220v-163h239v-74zM191 627h-83v97h83v-97zM362 627h-83v97h83v-97z" />
    <glyph glyph-name="edotaccent.sc" unicode="&#xe036;" horiz-adv-x="449" 
d="M407 0h-336v534h328v-75h-231v-150h220v-72h-220v-163h239v-74zM285 627h-100v97h100v-97z" />
    <glyph glyph-name="emacron.sc" unicode="&#xe037;" horiz-adv-x="449" 
d="M407 0h-336v534h328v-75h-231v-150h220v-72h-220v-163h239v-74zM371 647h-270v59h270v-59z" />
    <glyph glyph-name="ebreve.sc" unicode="&#xe038;" horiz-adv-x="449" 
d="M407 0h-336v534h328v-75h-231v-150h220v-72h-220v-163h239v-74zM104 737h54q3 -30 23 -49t54 -19t54.5 19t23.5 49h53q0 -41 -33.5 -82.5t-97.5 -41.5t-97.5 41.5t-33.5 82.5z" />
    <glyph glyph-name="eogonek.sc" unicode="&#xe039;" horiz-adv-x="449" 
d="M307 0h-236v534h328v-75h-231v-150h220v-72h-220v-163h239v-74h-48q-72 -50 -72 -95q0 -22 14 -33.5t34 -11.5q25 0 58 16l13 -40q-44 -21 -85 -21q-47 0 -73 21t-26 56q0 64 85 108z" />
    <glyph glyph-name="gcircumflex.sc" unicode="&#xe03a;" horiz-adv-x="571" 
d="M513 300v-279q-91 -32 -171 -32q-136 0 -218 74t-82 203q0 125 88 202t225 77q88 0 151 -25l-5 -81q-66 30 -142 30q-94 0 -153.5 -56.5t-59.5 -146.5q0 -85 51 -143.5t143 -58.5q48 0 88 12v153h-120v71h205zM250 608h-77l103 136h92l103 -136h-77l-72 92z" />
    <glyph glyph-name="gdotaccent.sc" unicode="&#xe03b;" horiz-adv-x="571" 
d="M513 300v-279q-91 -32 -171 -32q-136 0 -218 74t-82 203q0 125 88 202t225 77q88 0 151 -25l-5 -81q-66 30 -142 30q-94 0 -153.5 -56.5t-59.5 -146.5q0 -85 51 -143.5t143 -58.5q48 0 88 12v153h-120v71h205zM372 627h-100v97h100v-97z" />
    <glyph glyph-name="gbreve.sc" unicode="&#xe03c;" horiz-adv-x="571" 
d="M513 300v-279q-91 -32 -171 -32q-136 0 -218 74t-82 203q0 125 88 202t225 77q88 0 151 -25l-5 -81q-66 30 -142 30q-94 0 -153.5 -56.5t-59.5 -146.5q0 -85 51 -143.5t143 -58.5q48 0 88 12v153h-120v71h205zM191 737h54q3 -30 23 -49t54 -19t54.5 19t23.5 49h53
q0 -41 -33.5 -82.5t-97.5 -41.5t-97.5 41.5t-33.5 82.5z" />
    <glyph glyph-name="gcommaaccent.sc" unicode="&#xe03d;" horiz-adv-x="571" 
d="M513 300v-279q-91 -32 -171 -32q-136 0 -218 74t-82 203q0 125 88 202t225 77q88 0 151 -25l-5 -81q-66 30 -142 30q-94 0 -153.5 -56.5t-59.5 -146.5q0 -85 51 -143.5t143 -58.5q48 0 88 12v153h-120v71h205zM307 -227h-64l44 159h87z" />
    <glyph glyph-name="hcircumflex.sc" unicode="&#xe03e;" horiz-adv-x="578" 
d="M170 0h-99v534h99v-216h238v216h99v-534h-99v232h-238v-232zM214 608h-77l103 136h92l103 -136h-77l-72 92z" />
    <glyph glyph-name="hbar.sc" unicode="&#xe03f;" horiz-adv-x="578" 
d="M170 376v-95h238v95h-238zM170 0h-99v534h99v-96h238v96h99v-534h-99v202h-238v-202z" />
    <glyph glyph-name="igrave.sc" unicode="&#xe040;" horiz-adv-x="241" 
d="M172 608h-76l-104 136h108zM170 0h-99v534h99v-534z" />
    <glyph glyph-name="iacute.sc" unicode="&#xe041;" horiz-adv-x="241" 
d="M145 608h-77l71 136h109zM170 0h-99v534h99v-534z" />
    <glyph glyph-name="icircumflex.sc" unicode="&#xe042;" horiz-adv-x="241" 
d="M49 608h-77l103 136h92l103 -136h-77l-72 92zM170 0h-99v534h99v-534z" />
    <glyph glyph-name="itilde.sc" unicode="&#xe043;" horiz-adv-x="241" 
d="M19 619h-55q3 43 27 75.5t67 32.5q27 0 69 -20t57 -20q17 0 27.5 13t11.5 30h55q0 -39 -27 -73t-66 -34q-28 0 -66.5 19.5t-56.5 19.5q-17 0 -30 -13.5t-13 -29.5zM170 0h-99v534h99v-534z" />
    <glyph glyph-name="idieresis.sc" unicode="&#xe044;" horiz-adv-x="241" 
d="M77 627h-83v97h83v-97zM248 627h-83v97h83v-97zM170 0h-99v534h99v-534z" />
    <glyph glyph-name="imacron.sc" unicode="&#xe045;" horiz-adv-x="241" 
d="M256 647h-270v59h270v-59zM170 0h-99v534h99v-534z" />
    <glyph glyph-name="idotaccent.sc" unicode="&#xe046;" horiz-adv-x="241" 
d="M171 627h-100v97h100v-97zM170 0h-99v534h99v-534z" />
    <glyph glyph-name="iogonek.sc" unicode="&#xe047;" horiz-adv-x="241" 
d="M195 -128l13 -40q-36 -17 -74 -17q-45 0 -71 21.5t-26 55.5q0 61 82 108h-48v534h99l-1 -534q-67 -48 -67 -95q0 -22 13.5 -33.5t32.5 -11.5q18 0 47 12z" />
    <glyph glyph-name="jcircumflex.sc" unicode="&#xe048;" horiz-adv-x="305" 
d="M110 608h-77l103 136h92l103 -136h-77l-72 92zM8 1l5 80q24 -10 51 -10q74 0 74 88v375h99v-388q0 -74 -37.5 -115.5t-110.5 -41.5q-45 0 -81 12z" />
    <glyph glyph-name="kcommaaccent.sc" unicode="&#xe049;" horiz-adv-x="529" 
d="M170 0h-99v534h99v-237l217 237h116l-239 -251l259 -283h-125l-228 261v-261zM266 -227h-64l44 159h87z" />
    <glyph glyph-name="lacute.sc" unicode="&#xe04a;" horiz-adv-x="418" 
d="M400 0h-329v534h99v-451h230v-83zM158 608h-77l71 136h109z" />
    <glyph glyph-name="lcaron.sc" unicode="&#xe04b;" horiz-adv-x="418" 
d="M400 0h-329v534h99v-451h230v-83zM311 441h-70l20 159h93z" />
    <glyph glyph-name="lcommaaccent.sc" unicode="&#xe04c;" horiz-adv-x="418" 
d="M400 0h-329v534h99v-451h230v-83zM215 -227h-64l44 159h87z" />
    <glyph glyph-name="ldot.sc" unicode="&#xe04d;" horiz-adv-x="418" 
d="M400 0h-329v534h99v-451h230v-83zM375 260h-100v97h100v-97z" />
    <glyph glyph-name="lslash.sc" unicode="&#xe04e;" horiz-adv-x="418" 
d="M400 0h-329v221l-62 -49v68l62 50v244h99v-179l115 89v-70l-115 -91v-200h230v-83z" />
    <glyph glyph-name="nacute.sc" unicode="&#xe04f;" horiz-adv-x="597" 
d="M162 0h-91v534h139l224 -442v442h92v-534h-141l-223 442v-442zM323 608h-77l71 136h109z" />
    <glyph glyph-name="ncaron.sc" unicode="&#xe050;" horiz-adv-x="597" 
d="M162 0h-91v534h139l224 -442v442h92v-534h-141l-223 442v-442zM346 608h-92l-103 136h77l72 -92l72 92h77z" />
    <glyph glyph-name="ntilde.sc" unicode="&#xe051;" horiz-adv-x="597" 
d="M162 0h-91v534h139l224 -442v442h92v-534h-141l-223 442v-442zM195 619h-55q3 43 27 75.5t67 32.5q27 0 69 -20t57 -20q17 0 27.5 13t11.5 30h55q0 -39 -27 -73t-66 -34q-28 0 -66.5 19.5t-56.5 19.5q-17 0 -30 -13.5t-13 -29.5z" />
    <glyph glyph-name="ncommaaccent.sc" unicode="&#xe052;" horiz-adv-x="597" 
d="M162 0h-91v534h139l224 -442v442h92v-534h-141l-223 442v-442zM291 -227h-64l44 159h87z" />
    <glyph glyph-name="ograve.sc" unicode="&#xe054;" horiz-adv-x="600" 
d="M183 129q43 -63 117 -63q78 0 116 58t38 142t-38.5 143t-115.5 59q-75 0 -114.5 -59.5t-39.5 -142.5q0 -82 37 -137zM188 9q-71 31 -108.5 98t-37.5 159q0 122 69 200.5t189 78.5q124 0 191 -76.5t67 -202.5q0 -123 -68 -200t-190 -77q-63 0 -112 20zM349 608h-76
l-104 136h108z" />
    <glyph glyph-name="oacute.sc" unicode="&#xe055;" horiz-adv-x="600" 
d="M183 129q43 -63 117 -63q78 0 116 58t38 142t-38.5 143t-115.5 59q-75 0 -114.5 -59.5t-39.5 -142.5q0 -82 37 -137zM188 9q-71 31 -108.5 98t-37.5 159q0 122 69 200.5t189 78.5q124 0 191 -76.5t67 -202.5q0 -123 -68 -200t-190 -77q-63 0 -112 20zM322 608h-77l71 136
h109z" />
    <glyph glyph-name="ocircumflex.sc" unicode="&#xe056;" horiz-adv-x="600" 
d="M183 129q43 -63 117 -63q78 0 116 58t38 142t-38.5 143t-115.5 59q-75 0 -114.5 -59.5t-39.5 -142.5q0 -82 37 -137zM188 9q-71 31 -108.5 98t-37.5 159q0 122 69 200.5t189 78.5q124 0 191 -76.5t67 -202.5q0 -123 -68 -200t-190 -77q-63 0 -112 20zM227 608h-77
l103 136h92l103 -136h-77l-72 92z" />
    <glyph glyph-name="otilde.sc" unicode="&#xe057;" horiz-adv-x="600" 
d="M183 129q43 -63 117 -63q78 0 116 58t38 142t-38.5 143t-115.5 59q-75 0 -114.5 -59.5t-39.5 -142.5q0 -82 37 -137zM188 9q-71 31 -108.5 98t-37.5 159q0 122 69 200.5t189 78.5q124 0 191 -76.5t67 -202.5q0 -123 -68 -200t-190 -77q-63 0 -112 20zM197 619h-55
q3 43 27 75.5t67 32.5q27 0 69 -20t57 -20q17 0 27.5 13t11.5 30h55q0 -39 -27 -73t-66 -34q-28 0 -66.5 19.5t-56.5 19.5q-17 0 -30 -13.5t-13 -29.5z" />
    <glyph glyph-name="odieresis.sc" unicode="&#xe058;" horiz-adv-x="600" 
d="M183 129q43 -63 117 -63q78 0 116 58t38 142t-38.5 143t-115.5 59q-75 0 -114.5 -59.5t-39.5 -142.5q0 -82 37 -137zM188 9q-71 31 -108.5 98t-37.5 159q0 122 69 200.5t189 78.5q124 0 191 -76.5t67 -202.5q0 -123 -68 -200t-190 -77q-63 0 -112 20zM255 627h-83v97h83
v-97zM426 627h-83v97h83v-97z" />
    <glyph glyph-name="omacron.sc" unicode="&#xe059;" horiz-adv-x="600" 
d="M183 129q43 -63 117 -63q78 0 116 58t38 142t-38.5 143t-115.5 59q-75 0 -114.5 -59.5t-39.5 -142.5q0 -82 37 -137zM188 9q-71 31 -108.5 98t-37.5 159q0 122 69 200.5t189 78.5q124 0 191 -76.5t67 -202.5q0 -123 -68 -200t-190 -77q-63 0 -112 20zM434 647h-270v59
h270v-59z" />
    <glyph glyph-name="obreve.sc" unicode="&#xe05a;" horiz-adv-x="600" 
d="M183 129q43 -63 117 -63q78 0 116 58t38 142t-38.5 143t-115.5 59q-75 0 -114.5 -59.5t-39.5 -142.5q0 -82 37 -137zM188 9q-71 31 -108.5 98t-37.5 159q0 122 69 200.5t189 78.5q124 0 191 -76.5t67 -202.5q0 -123 -68 -200t-190 -77q-63 0 -112 20zM168 737h54
q3 -30 23 -49t54 -19t54.5 19t23.5 49h53q0 -41 -33.5 -82.5t-97.5 -41.5t-97.5 41.5t-33.5 82.5z" />
    <glyph glyph-name="ohungarumlaut.sc" unicode="&#xe05b;" horiz-adv-x="600" 
d="M183 129q43 -63 117 -63q78 0 116 58t38 142t-38.5 143t-115.5 59q-75 0 -114.5 -59.5t-39.5 -142.5q0 -82 37 -137zM188 9q-71 31 -108.5 98t-37.5 159q0 122 69 200.5t189 78.5q124 0 191 -76.5t67 -202.5q0 -123 -68 -200t-190 -77q-63 0 -112 20zM228 608h-77l72 136
h108zM418 608h-77l72 136h108z" />
    <glyph glyph-name="oslash.sc" unicode="&#xe05c;" horiz-adv-x="600" 
d="M164 166l238 258q-39 44 -102 44q-75 0 -114.5 -59.5t-39.5 -142.5q0 -55 18 -100zM434 374l-240 -260q41 -48 106 -48q78 0 116 58t38 142q0 65 -20 108zM130 44l-59 -64l-41 41l61 66q-49 70 -49 179q0 122 69 200.5t189 78.5q103 0 165 -53l56 61l42 -39l-58 -63
q53 -74 53 -185q0 -123 -68 -200t-190 -77q-102 0 -170 55z" />
    <glyph glyph-name="oe.sc" unicode="&#xe05d;" horiz-adv-x="756" 
d="M393 74v387q-37 8 -77 8q-83 0 -126.5 -59t-43.5 -144q0 -84 45 -142t128 -58q48 0 74 8zM714 0h-294q-77 -11 -101 -11q-128 0 -202.5 77t-74.5 200q0 120 75.5 199.5t197.5 79.5q51 0 106 -11h285v-75h-221v-150h210v-72h-210v-163h229v-74z" />
    <glyph glyph-name="racute.sc" unicode="&#xe05e;" horiz-adv-x="501" 
d="M169 461v-159h60q118 0 118 82q0 77 -115 77h-63zM169 0h-98v534h179q196 0 196 -142q0 -50 -30.5 -83t-80.5 -45q48 -15 70 -73l76 -191h-106l-61 161q-15 38 -35 53t-61 15h-49v-229zM267 608h-77l71 136h109z" />
    <glyph glyph-name="rcommaaccent.sc" unicode="&#xe05f;" horiz-adv-x="501" 
d="M169 461v-159h60q118 0 118 82q0 77 -115 77h-63zM169 0h-98v534h179q196 0 196 -142q0 -50 -30.5 -83t-80.5 -45q48 -15 70 -73l76 -191h-106l-61 161q-15 38 -35 53t-61 15h-49v-229zM252 -227h-64l44 159h87z" />
    <glyph glyph-name="rcaron.sc" unicode="&#xe060;" horiz-adv-x="501" 
d="M169 461v-159h60q118 0 118 82q0 77 -115 77h-63zM169 0h-98v534h179q196 0 196 -142q0 -50 -30.5 -83t-80.5 -45q48 -15 70 -73l76 -191h-106l-61 161q-15 38 -35 53t-61 15h-49v-229zM291 608h-92l-103 136h77l72 -92l72 92h77z" />
    <glyph glyph-name="sacute.sc" unicode="&#xe061;" horiz-adv-x="437" 
d="M48 11l4 84q69 -28 143 -28q96 0 96 80q0 28 -22 48t-65 40l-49 22q-105 47 -105 136q0 71 54 111.5t143 40.5q61 0 122 -18l-4 -83q-64 23 -118 23q-97 0 -97 -70q0 -26 18 -41.5t56 -33.5l53 -24q58 -26 86 -59t28 -87q0 -78 -54.5 -120.5t-137.5 -42.5q-84 0 -151 22z
M246 608h-77l71 136h109z" />
    <glyph glyph-name="scircumflex.sc" unicode="&#xe062;" horiz-adv-x="437" 
d="M48 11l4 84q69 -28 143 -28q96 0 96 80q0 28 -22 48t-65 40l-49 22q-105 47 -105 136q0 71 54 111.5t143 40.5q61 0 122 -18l-4 -83q-64 23 -118 23q-97 0 -97 -70q0 -26 18 -41.5t56 -33.5l53 -24q58 -26 86 -59t28 -87q0 -78 -54.5 -120.5t-137.5 -42.5q-84 0 -151 22z
M146 608h-77l103 136h92l103 -136h-77l-72 92z" />
    <glyph glyph-name="scaron.sc" unicode="&#xe063;" horiz-adv-x="437" 
d="M48 11l4 84q69 -28 143 -28q96 0 96 80q0 28 -22 48t-65 40l-49 22q-105 47 -105 136q0 71 54 111.5t143 40.5q61 0 122 -18l-4 -83q-64 23 -118 23q-97 0 -97 -70q0 -26 18 -41.5t56 -33.5l53 -24q58 -26 86 -59t28 -87q0 -78 -54.5 -120.5t-137.5 -42.5q-84 0 -151 22z
M268 608h-92l-103 136h77l72 -92l72 92h77z" />
    <glyph glyph-name="scedilla.sc" unicode="&#xe064;" horiz-adv-x="437" 
d="M104 -167l13 39q43 -16 81 -16q21 0 33.5 8.5t12.5 22.5q0 31 -36 31q-28 0 -46 -8l-16 23l41 56q-78 1 -146 24l4 84q67 -30 149 -30q107 0 107 78q0 19 -14 35t-29.5 25t-48.5 25l-63 29q-109 48 -109 136q0 70 58.5 110t148.5 40q66 0 128 -18l-4 -83q-63 23 -124 23
q-46 0 -76.5 -16t-30.5 -52q0 -24 20 -40t58 -34l68 -31q60 -26 89 -58.5t29 -85.5q0 -68 -47.5 -109t-119.5 -50l-31 -43q15 4 37 4q28 0 48 -16.5t20 -45.5q0 -35 -29 -55t-78 -20q-50 0 -97 18z" />
    <glyph glyph-name="scommaaccent.sc" unicode="&#xe065;" horiz-adv-x="437" 
d="M48 11l4 84q69 -28 143 -28q96 0 96 80q0 28 -22 48t-65 40l-49 22q-105 47 -105 136q0 71 54 111.5t143 40.5q61 0 122 -18l-4 -83q-64 23 -118 23q-97 0 -97 -70q0 -26 18 -41.5t56 -33.5l53 -24q58 -26 86 -59t28 -87q0 -78 -54.5 -120.5t-137.5 -42.5q-84 0 -151 22z
M204 -227h-64l44 159h87z" />
    <glyph glyph-name="germandbls.sc" unicode="&#xe066;" horiz-adv-x="866" 
d="M477 11l4 84q69 -28 143 -28q96 0 96 80q0 28 -22 48t-65 40l-49 22q-105 47 -105 136q0 71 54 111.5t143 40.5q60 0 122 -18l-4 -83q-64 23 -118 23q-97 0 -97 -70q0 -26 18 -41.5t56 -33.5l53 -24q58 -26 86 -59t28 -87q0 -78 -54.5 -120.5t-137.5 -42.5q-84 0 -151 22
zM48 11l4 84q69 -28 143 -28q96 0 96 80q0 28 -22 48t-65 40l-49 22q-105 47 -105 136q0 71 54 111.5t143 40.5q61 0 122 -18l-4 -83q-64 23 -118 23q-97 0 -97 -70q0 -26 18 -41.5t56 -33.5l53 -24q58 -26 86 -59t28 -87q0 -78 -54.5 -120.5t-137.5 -42.5q-84 0 -151 22z
" />
    <glyph glyph-name="tcaron.sc" unicode="&#xe067;" horiz-adv-x="456" 
d="M277 0h-99v450h-167v84h434v-84h-168v-450zM273 608h-92l-103 136h77l72 -92l72 92h77z" />
    <glyph glyph-name="tcommaaccent.sc" unicode="&#xe068;" horiz-adv-x="456" 
d="M277 0h-99v450h-167v84h434v-84h-168v-450zM205 -227h-64l44 159h87z" />
    <glyph glyph-name="tbar.sc" unicode="&#xe069;" horiz-adv-x="456" 
d="M276 0h-98v276h-114v65h114v109h-167v84h434v-84h-169v-109h116v-65h-116v-276z" />
    <glyph glyph-name="thorn.sc" unicode="&#xe06a;" horiz-adv-x="481" 
d="M168 362v-183h45q30 0 51 3t42 12t32 28.5t11 49.5q0 45 -30 67.5t-77 22.5h-74zM168 0h-97v534h97v-99h103q79 0 129.5 -43t50.5 -119q0 -81 -51.5 -124t-131.5 -43h-100v-106z" />
    <glyph glyph-name="ugrave.sc" unicode="&#xe06b;" horiz-adv-x="577" 
d="M167 534v-337q0 -58 31 -93t89 -35q59 0 91 34.5t32 92.5v338h99v-337q0 -95 -62 -151.5t-160 -56.5q-100 0 -159.5 54t-59.5 151v340h99zM340 608h-76l-104 136h108z" />
    <glyph glyph-name="uacute.sc" unicode="&#xe06c;" horiz-adv-x="577" 
d="M167 534v-337q0 -58 31 -93t89 -35q59 0 91 34.5t32 92.5v338h99v-337q0 -95 -62 -151.5t-160 -56.5q-100 0 -159.5 54t-59.5 151v340h99zM313 608h-77l71 136h109z" />
    <glyph glyph-name="ucircumflex.sc" unicode="&#xe06d;" horiz-adv-x="577" 
d="M167 534v-337q0 -58 31 -93t89 -35q59 0 91 34.5t32 92.5v338h99v-337q0 -95 -62 -151.5t-160 -56.5q-100 0 -159.5 54t-59.5 151v340h99zM218 608h-77l103 136h92l103 -136h-77l-72 92z" />
    <glyph glyph-name="utilde.sc" unicode="&#xe06e;" horiz-adv-x="577" 
d="M167 534v-337q0 -58 31 -93t89 -35q59 0 91 34.5t32 92.5v338h99v-337q0 -95 -62 -151.5t-160 -56.5q-100 0 -159.5 54t-59.5 151v340h99zM188 619h-55q3 43 27 75.5t67 32.5q27 0 69 -20t57 -20q17 0 27.5 13t11.5 30h55q0 -39 -27 -73t-66 -34q-28 0 -66.5 19.5
t-56.5 19.5q-17 0 -30 -13.5t-13 -29.5z" />
    <glyph glyph-name="udieresis.sc" unicode="&#xe06f;" horiz-adv-x="577" 
d="M167 534v-337q0 -58 31 -93t89 -35q59 0 91 34.5t32 92.5v338h99v-337q0 -95 -62 -151.5t-160 -56.5q-100 0 -159.5 54t-59.5 151v340h99zM246 627h-83v97h83v-97zM417 627h-83v97h83v-97z" />
    <glyph glyph-name="umacron.sc" unicode="&#xe070;" horiz-adv-x="577" 
d="M167 534v-337q0 -58 31 -93t89 -35q59 0 91 34.5t32 92.5v338h99v-337q0 -95 -62 -151.5t-160 -56.5q-100 0 -159.5 54t-59.5 151v340h99zM425 647h-270v59h270v-59z" />
    <glyph glyph-name="ubreve.sc" unicode="&#xe071;" horiz-adv-x="577" 
d="M167 534v-337q0 -58 31 -93t89 -35q59 0 91 34.5t32 92.5v338h99v-337q0 -95 -62 -151.5t-160 -56.5q-100 0 -159.5 54t-59.5 151v340h99zM160 737h54q3 -30 23 -49t54 -19t54.5 19t23.5 49h53q0 -41 -33.5 -82.5t-97.5 -41.5t-97.5 41.5t-33.5 82.5z" />
    <glyph glyph-name="uring.sc" unicode="&#xe072;" horiz-adv-x="577" 
d="M167 534v-337q0 -58 31 -93t89 -35q59 0 91 34.5t32 92.5v338h99v-337q0 -95 -62 -151.5t-160 -56.5q-100 0 -159.5 54t-59.5 151v340h99zM233 676q0 -24 16.5 -40t40.5 -16t40.5 16t16.5 40q0 23 -16.5 39.5t-40.5 16.5t-40.5 -16.5t-16.5 -39.5zM221 608q-29 29 -29 68
q0 40 28.5 68t69.5 28q39 0 68.5 -28.5t29.5 -67.5q0 -40 -28.5 -68t-69.5 -28q-38 0 -69 28z" />
    <glyph glyph-name="uhungarumlaut.sc" unicode="&#xe073;" horiz-adv-x="577" 
d="M167 534v-337q0 -58 31 -93t89 -35q59 0 91 34.5t32 92.5v338h99v-337q0 -95 -62 -151.5t-160 -56.5q-100 0 -159.5 54t-59.5 151v340h99zM222 608h-77l72 136h108zM412 608h-77l72 136h108z" />
    <glyph glyph-name="uogonek.sc" unicode="&#xe074;" horiz-adv-x="577" 
d="M383 -124l13 -40q-44 -21 -85 -21q-47 0 -73 21t-26 56q0 56 65 97q-95 2 -152 56t-57 149v340h99v-337q0 -58 31 -93t89 -35q59 0 91 34.5t32 92.5v338h99v-337q0 -82 -45.5 -135t-123.5 -68q-63 -47 -63 -89q0 -22 14 -33.5t34 -11.5q25 0 58 16z" />
    <glyph glyph-name="wcircumflex.sc" unicode="&#xe075;" horiz-adv-x="789" 
d="M272 0h-112l-149 534h96l117 -440l122 440h104l121 -442l114 442h93l-149 -534h-111l-124 441zM324 608h-77l103 136h92l103 -136h-77l-72 92z" />
    <glyph glyph-name="yacute.sc" unicode="&#xe076;" horiz-adv-x="504" 
d="M300 0h-101v210l-199 324h109l145 -252l143 252h104l-201 -324v-210zM276 608h-77l71 136h109z" />
    <glyph glyph-name="ycircumflex.sc" unicode="&#xe077;" horiz-adv-x="504" 
d="M300 0h-101v210l-199 324h109l145 -252l143 252h104l-201 -324v-210zM180 608h-77l103 136h92l103 -136h-77l-72 92z" />
    <glyph glyph-name="ydieresis.sc" unicode="&#xe078;" horiz-adv-x="504" 
d="M300 0h-101v210l-199 324h109l145 -252l143 252h104l-201 -324v-210zM207 627h-83v97h83v-97zM378 627h-83v97h83v-97z" />
    <glyph glyph-name="zacute.sc" unicode="&#xe079;" horiz-adv-x="446" 
d="M420 0h-394v81l280 375h-271v78h377v-82l-275 -375h283v-77zM250 608h-77l71 136h109z" />
    <glyph glyph-name="zcaron.sc" unicode="&#xe07a;" horiz-adv-x="446" 
d="M420 0h-394v81l280 375h-271v78h377v-82l-275 -375h283v-77zM273 608h-92l-103 136h77l72 -92l72 92h77z" />
    <glyph glyph-name="zdotaccent.sc" unicode="&#xe07b;" horiz-adv-x="446" 
d="M420 0h-394v81l280 375h-271v78h377v-82l-275 -375h283v-77zM277 627h-100v97h100v-97z" />
    <glyph glyph-name="fi.sc" unicode="&#xe07c;" horiz-adv-x="662" 
d="M170 0h-99v534h320v-75h-221v-154h212v-73h-212v-232zM586 0h-99v534h99v-534z" />
    <glyph glyph-name="fl.sc" unicode="&#xe07d;" horiz-adv-x="834" 
d="M165 0h-99v534h320v-75h-221v-154h212v-73h-212v-232zM816 0h-329v534h99v-451h230v-83z" />
    <glyph glyph-name="ij.sc" unicode="&#xe07e;" horiz-adv-x="543" 
d="M165 0h-99v534h99v-534zM246 1l5 80q24 -10 51 -10q74 0 74 88v375h99v-388q0 -74 -37.5 -115.5t-110.5 -41.5q-45 0 -81 12z" />
    <glyph glyph-name="exclamdown.sc" unicode="&#xe07f;" horiz-adv-x="281" 
d="M195 436h-106v99h106v-99zM196 0h-110l15 363h81z" />
    <glyph glyph-name="questiondown.sc" unicode="&#xe080;" horiz-adv-x="381" 
d="M264 436h-107v99h107v-99zM333 91l4 -80q-60 -21 -133 -21q-77 0 -125.5 35.5t-48.5 100.5q0 41 18.5 71t53.5 61q35 29 49.5 51t14.5 54h90q0 -46 -16.5 -74t-56.5 -59q-28 -26 -40 -46.5t-12 -48.5q0 -32 24.5 -49t64.5 -17q54 0 113 22z" />
    <glyph glyph-name="Euro.sc" unicode="&#xe081;" horiz-adv-x="478" 
d="M95 185h-77l10 49h61q-1 16 -1 30q0 21 2 34h-71l10 49h67q20 88 86 142.5t163 54.5q77 0 121 -17l-19 -72q-34 15 -89 15q-67 0 -111.5 -34t-59.5 -89h233l-11 -49h-229q-2 -9 -2 -32q0 -20 1 -32h217l-11 -49h-199q15 -55 61 -88.5t113 -33.5q52 0 91 13l5 -74
q-50 -13 -107 -13q-101 0 -167 52t-87 144z" />
    <glyph glyph-name="cent.sc" unicode="&#xe082;" horiz-adv-x="478" 
d="M294 0h-53v74q-81 10 -128.5 63t-47.5 132q0 75 48.5 128t127.5 63v74h53v-72q59 -2 99 -16l-5 -67q-46 19 -91 19q-65 0 -102 -35.5t-37 -93.5q0 -59 37 -96.5t102 -37.5q53 0 92 19l7 -66q-47 -16 -102 -16v-72z" />
    <glyph glyph-name="sterling.sc" unicode="&#xe083;" horiz-adv-x="478" 
d="M433 0h-383v66h68v182h-64v65h64v44q0 89 48 138.5t141 49.5q63 0 122 -18l-5 -71q-50 19 -102 19q-62 0 -85.5 -33t-23.5 -90v-39h154v-65h-154v-182h220v-66z" />
    <glyph glyph-name="florin.sc" unicode="&#xe084;" horiz-adv-x="478" 
d="M-12 -175l5 67q32 -5 49 -5q29 0 45.5 21t27.5 73l56 276h-94v62h106l19 82q34 144 142 144q39 0 72 -11l-4 -65q-29 8 -49 8q-52 0 -70 -81l-17 -77h103v-62h-116l-58 -283q-18 -80 -51 -118t-89 -38q-42 0 -77 7z" />
    <glyph glyph-name="yen.sc" unicode="&#xe085;" horiz-adv-x="478" 
d="M189 109h-126v48h126v69h-126v48h99l-153 260h98l133 -246l133 246h95l-157 -260h103v-48h-131v-69h131v-48h-131v-109h-94v109z" />
    <glyph glyph-name="ordfeminine.sc" unicode="&#xe086;" horiz-adv-x="326" 
d="M162 490l-38 -100h76zM93 299h-64l100 239h69l99 -239h-65l-19 49h-101z" />
    <glyph glyph-name="perthousand.sc" unicode="&#xe087;" horiz-adv-x="1096" 
d="M262 -19h-64l333 571h64zM546 73q15 -35 51 -35q63 0 63 116q0 115 -63 115t-63 -115q0 -53 12 -81zM532 3q-69 41 -69 151q0 69 32 117t102 48t102 -48t32 -117t-32 -117t-102 -48q-39 0 -65 14zM850 73q15 -35 51 -35q63 0 63 116q0 115 -63 115t-63 -115q0 -53 12 -81
zM836 3q-69 41 -69 151q0 69 32 117t102 48t102 -48t32 -117t-32 -117t-102 -48q-39 0 -65 14zM145 298q15 -35 51 -35q63 0 63 116q0 115 -63 115t-63 -115q0 -53 12 -81zM131 228q-69 41 -69 151q0 69 32 117t102 48t102 -48t32 -117t-32 -117t-102 -48q-39 0 -65 14z" />
    <glyph glyph-name="dotlessj.sc" unicode="&#xe090;" horiz-adv-x="305" 
d="M8 1l5 80q24 -10 51 -10q74 0 74 88v375h99v-388q0 -74 -37.5 -115.5t-110.5 -41.5q-45 0 -81 12z" />
    <glyph glyph-name="zero.onum" unicode="&#xe100;" 
d="M174 126q38 -57 107 -57q70 0 105 56t35 147t-34.5 146t-105.5 55q-70 0 -105 -56t-35 -148q0 -91 33 -143zM170 10q-69 31 -104.5 98.5t-35.5 160.5q0 124 67 203.5t184 79.5q123 0 187.5 -77t64.5 -203q0 -124 -66.5 -203.5t-185.5 -79.5q-63 0 -111 21z" />
    <glyph glyph-name="one.onum" unicode="&#xe101;" 
d="M368 0h-108v458h-154v84h262v-542z" />
    <glyph glyph-name="two.onum" unicode="&#xe102;" 
d="M470 0h-406v77q179 139 218 176q61 59 66 113q1 8 1 17q0 38 -28 63.5t-77 25.5q-72 0 -155 -34l-5 82q90 32 175 32q96 0 147.5 -44t51.5 -116q0 -80 -59 -147.5t-200 -168.5h271v-76z" />
    <glyph glyph-name="three.onum" unicode="&#xe103;" 
d="M69 -157l-8 79q27 -4 64 -4q234 0 234 163q0 59 -47 84t-112 25h-60v77h56q66 0 110 28t44 88q0 47 -35.5 68.5t-86.5 21.5q-72 0 -145 -30l-5 81q77 28 170 28q90 0 149 -39t59 -122q0 -61 -37.5 -103t-103.5 -53q75 -8 113.5 -46.5t38.5 -104.5q0 -113 -87.5 -179
t-247.5 -66q-32 0 -63 4z" />
    <glyph glyph-name="four.onum" unicode="&#xe104;" 
d="M340 0h-300v88l250 454h105l-259 -462h205v286h96v-286h99v-80h-99v-159h-97v159z" />
    <glyph glyph-name="five.onum" unicode="&#xe105;" 
d="M99 -157l-8 79q27 -4 63 -4q118 0 176 43.5t58 124.5q0 122 -153 122q-72 0 -135 -17l6 351h360v-79h-261l-5 -191q50 8 84 8q104 0 158 -49t54 -142q0 -114 -87 -182t-247 -68q-32 0 -63 4z" />
    <glyph glyph-name="six.onum" unicode="&#xe106;" 
d="M187 109q39 -45 98 -45q63 0 99.5 40.5t36.5 107.5q0 68 -34 106.5t-96 38.5q-61 0 -100 -40.5t-39 -99.5q0 -65 35 -108zM465 698v-78q-23 3 -68 3q-117 0 -181 -78.5t-71 -195.5q62 83 171 83q93 0 149.5 -57t56.5 -156q0 -104 -67 -167t-170 -63q-114 0 -178.5 76.5
t-64.5 225.5q0 180 95 295.5t262 115.5q35 0 66 -4z" />
    <glyph glyph-name="seven.onum" unicode="&#xe107;" 
d="M195 -161l-109 14q116 284 301 605h-336v84h442v-84q-210 -398 -298 -619z" />
    <glyph glyph-name="eight.onum" unicode="&#xe108;" 
d="M389 265q-29 33 -109 59q-136 -34 -136 -139q0 -55 39 -87t99 -32q62 0 99.5 30.5t37.5 88.5q0 45 -30 80zM192 439q28 -29 95 -52q115 35 115 127q0 49 -35 77.5t-84 28.5t-84.5 -28t-35.5 -77q0 -44 29 -76zM77 285q39 43 111 69q-62 29 -94.5 66.5t-32.5 97.5
q0 79 63 127.5t159 48.5q95 0 158.5 -44t63.5 -128q0 -61 -33 -100.5t-98 -67.5q81 -30 116.5 -70.5t35.5 -107.5q0 -85 -68.5 -136t-175.5 -51q-109 0 -176.5 47.5t-67.5 135.5q0 70 39 113z" />
    <glyph glyph-name="nine.onum" unicode="&#xe109;" 
d="M173 223q35 -38 98 -38q61 0 99.5 40t38.5 100q0 65 -37 108.5t-97 43.5q-62 0 -99 -40.5t-37 -107.5q0 -68 34 -106zM96 -157v79q31 -4 68 -4q118 0 182 77t70 197q-61 -82 -170 -82q-94 0 -150.5 56.5t-56.5 155.5q0 104 67 167t169 63q114 0 179 -77t65 -224
q0 -186 -94.5 -299t-262.5 -113q-35 0 -66 4z" />
    <glyph glyph-name="zero.sc" unicode="&#xe10a;" horiz-adv-x="478" 
d="M156 133q22 -69 84 -69q98 0 98 202q0 41 -3 71.5t-12.5 63.5t-30.5 51t-52 18q-32 0 -53 -18t-30.5 -51t-12.5 -63.5t-3 -71.5q0 -87 15 -133zM141 13q-103 66 -103 253q0 53 10 100t32 88.5t63 66t97 24.5q45 0 80.5 -16.5t57.5 -44t37 -64.5t20.5 -75t5.5 -79
q0 -52 -10 -98.5t-31.5 -88t-62.5 -66t-97 -24.5q-60 0 -99 24z" />
    <glyph glyph-name="one.sc" unicode="&#xe10b;" horiz-adv-x="478" 
d="M322 0h-99v430l-102 -77l-37 69l154 112h84v-534z" />
    <glyph glyph-name="two.sc" unicode="&#xe10c;" horiz-adv-x="478" 
d="M411 0h-364v75l122 116q77 73 105.5 112t28.5 82q0 39 -29.5 60t-71.5 21q-64 0 -134 -34l-4 80q78 33 153 33q79 0 132.5 -38t53.5 -114q0 -57 -34.5 -106t-111.5 -124l-92 -89h246v-74z" />
    <glyph glyph-name="three.sc" unicode="&#xe10d;" horiz-adv-x="478" 
d="M45 10l5 78q62 -24 135 -24q56 0 92.5 23t36.5 70q0 44 -36.5 63.5t-91.5 19.5h-71v70h61q57 0 93.5 20.5t36.5 66.5q0 36 -33 54.5t-85 18.5q-58 0 -124 -27l-5 77q78 25 145 25q84 0 142.5 -35.5t58.5 -105.5q0 -93 -101 -127q48 -9 79.5 -42.5t31.5 -78.5
q0 -83 -62.5 -125t-158.5 -42q-88 0 -149 21z" />
    <glyph glyph-name="four.sc" unicode="&#xe10e;" horiz-adv-x="478" 
d="M281 436l-174 -248h174v248zM280 115h-251v83l244 336h103v-345h78v-74h-78v-115h-96v115z" />
    <glyph glyph-name="five.sc" unicode="&#xe10f;" horiz-adv-x="478" 
d="M60 9l5 79q57 -22 118 -22q60 0 97.5 26.5t37.5 76.5q0 95 -131 95q-60 0 -113 -18l4 288h316v-73h-227l-3 -138q27 8 66 8q82 0 135.5 -41t53.5 -119q0 -87 -65 -134.5t-156 -47.5q-72 0 -138 20z" />
    <glyph glyph-name="six.sc" unicode="&#xe110;" horiz-adv-x="478" 
d="M171 93q26 -33 72 -33q49 0 75.5 28.5t26.5 76.5q0 50 -24 79t-73 29q-45 0 -73 -29t-28 -74q0 -47 24 -77zM412 532l-5 -79q-54 17 -101 17q-81 0 -121.5 -52t-42.5 -133q51 58 127 58q79 0 126 -46t47 -124q0 -83 -56 -133.5t-143 -50.5q-93 0 -145.5 62.5t-52.5 182.5
q0 139 65.5 225t192.5 86q52 0 109 -13z" />
    <glyph glyph-name="seven.sc" unicode="&#xe111;" horiz-adv-x="478" 
d="M215 0h-113l218 453h-272v81h371v-79z" />
    <glyph glyph-name="eight.sc" unicode="&#xe112;" horiz-adv-x="478" 
d="M173 349q23 -20 70 -40q88 34 88 94q0 32 -25.5 52t-65.5 20q-38 0 -64.5 -19t-26.5 -53q0 -31 24 -54zM344 149q0 59 -106 99q-103 -30 -103 -101q0 -41 30 -63.5t75 -22.5t74.5 22.5t29.5 65.5zM65 223q32 35 88 54q-50 26 -76 57t-26 75q0 60 56 98t133 38
q78 0 133 -37.5t55 -98.5q0 -46 -24.5 -76.5t-77.5 -54.5q56 -28 87.5 -60.5t31.5 -79.5q0 -69 -62 -109t-144 -40q-89 0 -147 40t-58 109q0 53 31 85z" />
    <glyph glyph-name="nine.sc" unicode="&#xe113;" horiz-adv-x="478" 
d="M155 289q24 -30 74 -30q48 0 75 28t27 76q0 47 -25 78t-71 31q-48 0 -76 -29t-28 -77q0 -47 24 -77zM63 4l5 76q51 -16 105 -16q81 0 118 47t44 131q-46 -53 -126 -53q-77 0 -125 47t-48 125q0 82 57.5 133t139.5 51q98 0 149.5 -64.5t51.5 -172.5q0 -146 -63 -232.5
t-194 -86.5q-58 0 -114 15z" />
    <glyph glyph-name="zero.prop" unicode="&#xe11e;" 
d="M161 20q-122 77 -120 313q0 51 6.5 97t23.5 92t43.5 79.5t69 54.5t97.5 21q68 0 117 -31t74.5 -83t37 -109t11.5 -121q0 -65 -11 -121.5t-36.5 -109t-74.5 -83t-118 -30.5q-74 0 -120 31zM169 160q30 -92 112 -92q35 0 60 18t38.5 44t21.5 64.5t10 69t2 69.5q0 40 -2 71
t-10 69.5t-21.5 64t-38.5 43t-60 17.5t-60 -17.5t-38.5 -43t-21.5 -64t-10 -69.5t-2 -71q0 -111 20 -173z" />
    <glyph glyph-name="one.prop" unicode="&#xe11f;" horiz-adv-x="414" 
d="M299 0h-105v556l-119 -96l-43 72l175 135h92v-667z" />
    <glyph glyph-name="two.prop" unicode="&#xe120;" 
d="M486 0h-437v82l138 143q5 5 34.5 34t41.5 41.5t36.5 41t36 48t21.5 46t10 49.5q0 50 -37 79.5t-89 29.5q-72 0 -164 -45l-5 86q100 42 182 42q96 0 158.5 -45.5t62.5 -137.5q0 -34 -12.5 -68.5t-38 -69.5t-46 -58.5t-56.5 -60.5t-48 -51l-97 -105h309v-81z" />
    <glyph glyph-name="three.prop" unicode="&#xe121;" 
d="M47 15l6 86q73 -30 163 -30q72 0 118.5 32.5t46.5 97.5q0 59 -45 84t-114 25h-88v75h75q162 0 162 114q0 52 -42.5 75.5t-104.5 23.5q-76 0 -153 -32l-6 82q85 29 174 29q64 0 115 -14.5t87.5 -54t36.5 -100.5q0 -62 -36.5 -102t-99.5 -56q64 -9 106.5 -49t42.5 -101
q0 -71 -40.5 -120t-100.5 -70t-133 -21q-93 0 -170 26z" />
    <glyph glyph-name="four.prop" unicode="&#xe122;" 
d="M342 571l-232 -345h232v345zM341 147h-315v92l299 428h119v-440h96v-80h-96v-147h-103v147z" />
    <glyph glyph-name="five.prop" unicode="&#xe123;" 
d="M66 14l6 88q65 -29 139 -29t124.5 33t50.5 107q0 66 -45 96t-117 30q-63 0 -141 -24l6 352h375v-79h-277l-6 -186q39 10 86 10q99 0 164 -47t65 -145q0 -76 -40 -130t-100.5 -77.5t-133.5 -23.5q-89 0 -156 25z" />
    <glyph glyph-name="six.prop" unicode="&#xe124;" 
d="M192 112q35 -47 96 -47q63 0 98.5 39t35.5 102q0 64 -31.5 102.5t-94.5 38.5q-56 0 -95.5 -34.5t-39.5 -94.5q0 -61 31 -106zM491 660l-6 -83q-55 21 -121 21q-105 0 -158 -72.5t-53 -179.5q22 36 67 56.5t91 20.5q98 0 155.5 -56.5t57.5 -154.5q0 -102 -66.5 -162.5
t-170.5 -60.5q-67 0 -115.5 27.5t-74 75t-36.5 101t-11 117.5q0 78 18.5 143.5t55 116t98 79t141.5 28.5q62 0 128 -17z" />
    <glyph glyph-name="seven.prop" unicode="&#xe125;" horiz-adv-x="494" 
d="M202 0h-120l269 580h-338v87h444v-86z" />
    <glyph glyph-name="eight.prop" unicode="&#xe126;" 
d="M333 294q-27 13 -52 21q-138 -37 -138 -136q0 -55 39.5 -84.5t98.5 -29.5t99 29.5t40 84.5q0 77 -87 115zM236 399q24 -11 46 -18q55 20 87.5 48.5t32.5 74.5q0 49 -36 74.5t-85 25.5t-84.5 -27t-35.5 -75q0 -64 75 -103zM79 286q41 41 106 60q-61 24 -93 60.5t-32 96.5
q0 84 69.5 129t151.5 45q55 0 103 -15.5t83.5 -56.5t35.5 -102q0 -101 -129 -155q75 -25 112.5 -63.5t37.5 -109.5q0 -48 -21.5 -85t-57.5 -58.5t-78 -32t-86 -10.5q-97 0 -169.5 46t-72.5 138q0 73 40 113z" />
    <glyph glyph-name="nine.prop" unicode="&#xe127;" 
d="M171 359q31 -40 96 -40q56 0 95.5 34.5t39.5 94.5q0 63 -33.5 108t-93.5 45q-63 0 -98.5 -39t-35.5 -102q0 -60 30 -101zM72 6l6 83q55 -21 121 -21q105 0 158 72.5t53 179.5q-23 -37 -67 -57t-91 -20q-98 0 -155.5 56.5t-57.5 154.5q0 102 66.5 162.5t170.5 60.5
q67 0 115.5 -27.5t74 -75t36.5 -101t11 -117.5q0 -78 -18.5 -143.5t-55 -116t-98 -79t-141.5 -28.5q-62 0 -128 17z" />
    <glyph glyph-name="zero.scprop" unicode="&#xe128;" horiz-adv-x="478" 
d="M156 133q22 -69 84 -69q98 0 98 202q0 41 -3 71.5t-12.5 63.5t-30.5 51t-52 18q-32 0 -53 -18t-30.5 -51t-12.5 -63.5t-3 -71.5q0 -87 15 -133zM141 13q-103 66 -103 253q0 53 10 100t32 88.5t63 66t97 24.5q45 0 80.5 -16.5t57.5 -44t37 -64.5t20.5 -75t5.5 -79
q0 -52 -10 -98.5t-31.5 -88t-62.5 -66t-97 -24.5q-60 0 -99 24z" />
    <glyph glyph-name="one.scprop" unicode="&#xe129;" horiz-adv-x="363" 
d="M262 0h-99v430l-102 -77l-37 69l154 112h84v-534z" />
    <glyph glyph-name="two.scprop" unicode="&#xe12a;" horiz-adv-x="478" 
d="M411 0h-364v75l122 116q77 73 105.5 112t28.5 82q0 39 -29.5 60t-71.5 21q-64 0 -134 -34l-4 80q78 33 153 33q79 0 132.5 -38t53.5 -114q0 -57 -34.5 -106t-111.5 -124l-92 -89h246v-74z" />
    <glyph glyph-name="three.scprop" unicode="&#xe12b;" horiz-adv-x="478" 
d="M45 10l5 78q62 -24 135 -24q56 0 92.5 23t36.5 70q0 44 -36.5 63.5t-91.5 19.5h-71v70h61q57 0 93.5 20.5t36.5 66.5q0 36 -33 54.5t-85 18.5q-58 0 -124 -27l-5 77q78 25 145 25q84 0 142.5 -35.5t58.5 -105.5q0 -93 -101 -127q48 -9 79.5 -42.5t31.5 -78.5
q0 -83 -62.5 -125t-158.5 -42q-88 0 -149 21z" />
    <glyph glyph-name="four.scprop" unicode="&#xe12c;" horiz-adv-x="478" 
d="M281 436l-174 -248h174v248zM280 115h-251v83l244 336h103v-345h78v-74h-78v-115h-96v115z" />
    <glyph glyph-name="five.scprop" unicode="&#xe12d;" horiz-adv-x="478" 
d="M60 9l5 79q57 -22 118 -22q60 0 97.5 26.5t37.5 76.5q0 95 -131 95q-60 0 -113 -18l4 288h316v-73h-227l-3 -138q27 8 66 8q82 0 135.5 -41t53.5 -119q0 -87 -65 -134.5t-156 -47.5q-72 0 -138 20z" />
    <glyph glyph-name="six.scprop" unicode="&#xe12e;" horiz-adv-x="478" 
d="M171 93q26 -33 72 -33q49 0 75.5 28.5t26.5 76.5q0 50 -24 79t-73 29q-45 0 -73 -29t-28 -74q0 -47 24 -77zM412 532l-5 -79q-54 17 -101 17q-81 0 -121.5 -52t-42.5 -133q51 58 127 58q79 0 126 -46t47 -124q0 -83 -56 -133.5t-143 -50.5q-93 0 -145.5 62.5t-52.5 182.5
q0 139 65.5 225t192.5 86q52 0 109 -13z" />
    <glyph glyph-name="seven.scprop" unicode="&#xe12f;" horiz-adv-x="426" 
d="M182 0h-113l218 453h-272v81h371v-79z" />
    <glyph glyph-name="eight.scprop" unicode="&#xe130;" horiz-adv-x="478" 
d="M173 349q23 -20 70 -40q88 34 88 94q0 32 -25.5 52t-65.5 20q-38 0 -64.5 -19t-26.5 -53q0 -31 24 -54zM344 149q0 59 -106 99q-103 -30 -103 -101q0 -41 30 -63.5t75 -22.5t74.5 22.5t29.5 65.5zM65 223q32 35 88 54q-50 26 -76 57t-26 75q0 60 56 98t133 38
q78 0 133 -37.5t55 -98.5q0 -46 -24.5 -76.5t-77.5 -54.5q56 -28 87.5 -60.5t31.5 -79.5q0 -69 -62 -109t-144 -40q-89 0 -147 40t-58 109q0 53 31 85z" />
    <glyph glyph-name="nine.scprop" unicode="&#xe131;" horiz-adv-x="478" 
d="M155 289q24 -30 74 -30q48 0 75 28t27 76q0 47 -25 78t-71 31q-48 0 -76 -29t-28 -77q0 -47 24 -77zM63 4l5 76q51 -16 105 -16q81 0 118 47t44 131q-46 -53 -126 -53q-77 0 -125 47t-48 125q0 82 57.5 133t139.5 51q98 0 149.5 -64.5t51.5 -172.5q0 -146 -63 -232.5
t-194 -86.5q-58 0 -114 15z" />
    <glyph glyph-name="zero.onumprop" unicode="&#xe132;" horiz-adv-x="636" 
d="M198 126q44 -57 121 -57q76 0 120 57.5t44 146.5q0 88 -44 144t-120 56t-120.5 -57.5t-44.5 -145.5q0 -87 44 -144zM201 10q-76 31 -117 99t-41 160q0 123 75 203t201 80q131 0 203.5 -77.5t72.5 -202.5q0 -123 -75 -203t-201 -80q-65 0 -118 21z" />
    <glyph glyph-name="one.onumprop" unicode="&#xe133;" horiz-adv-x="393" 
d="M288 0h-108v458h-154v84h262v-542z" />
    <glyph glyph-name="two.onumprop" unicode="&#xe134;" horiz-adv-x="484" 
d="M436 0h-406v77q179 139 218 176q61 59 66 113q1 8 1 17q0 38 -28 63.5t-77 25.5q-72 0 -155 -34l-5 82q90 32 175 32q96 0 147.5 -44t51.5 -116q0 -80 -59 -147.5t-200 -168.5h271v-76z" />
    <glyph glyph-name="three.onumprop" unicode="&#xe135;" horiz-adv-x="464" 
d="M19 -157l-8 79q27 -4 64 -4q234 0 234 163q0 59 -47 84t-112 25h-60v77h56q66 0 110 28t44 88q0 47 -35.5 68.5t-86.5 21.5q-72 0 -145 -30l-5 81q77 28 170 28q90 0 149 -39t59 -122q0 -61 -37.5 -103t-103.5 -53q75 -8 113.5 -46.5t38.5 -104.5q0 -113 -87.5 -179
t-247.5 -66q-32 0 -63 4z" />
    <glyph glyph-name="four.onumprop" unicode="&#xe136;" horiz-adv-x="552" 
d="M337 0h-300v88l250 454h105l-259 -462h205v286h96v-286h99v-80h-99v-159h-97v159z" />
    <glyph glyph-name="five.onumprop" unicode="&#xe137;" horiz-adv-x="517" 
d="M73 -157l-8 79q27 -4 63 -4q118 0 176 43.5t58 124.5q0 122 -153 122q-72 0 -135 -17l6 351h360v-79h-261l-5 -191q50 8 84 8q104 0 158 -49t54 -142q0 -114 -87 -182t-247 -68q-32 0 -63 4z" />
    <glyph glyph-name="six.onumprop" unicode="&#xe138;" horiz-adv-x="573" 
d="M193 109q39 -45 98 -45q63 0 99.5 40.5t36.5 107.5q0 68 -34 106.5t-96 38.5q-61 0 -100 -40.5t-39 -99.5q0 -65 35 -108zM471 698v-78q-23 3 -68 3q-117 0 -181 -78.5t-71 -195.5q62 83 171 83q93 0 149.5 -57t56.5 -156q0 -104 -67 -167t-170 -63q-114 0 -178.5 76.5
t-64.5 225.5q0 180 95 295.5t262 115.5q35 0 66 -4z" />
    <glyph glyph-name="seven.onumprop" unicode="&#xe139;" horiz-adv-x="520" 
d="M174 -161l-109 14q116 284 301 605h-336v84h442v-84q-210 -398 -298 -619z" />
    <glyph glyph-name="eight.onumprop" unicode="&#xe13a;" horiz-adv-x="579" 
d="M396 265q-29 33 -109 59q-136 -34 -136 -139q0 -55 39 -87t99 -32q62 0 99.5 30.5t37.5 88.5q0 45 -30 80zM199 439q28 -29 95 -52q115 35 115 127q0 49 -35 77.5t-84 28.5t-84.5 -28t-35.5 -77q0 -44 29 -76zM84 285q39 43 111 69q-62 29 -94.5 66.5t-32.5 97.5
q0 79 63 127.5t159 48.5q95 0 158.5 -44t63.5 -128q0 -61 -33 -100.5t-98 -67.5q81 -30 116.5 -70.5t35.5 -107.5q0 -85 -68.5 -136t-175.5 -51q-109 0 -176.5 47.5t-67.5 135.5q0 70 39 113z" />
    <glyph glyph-name="nine.onumprop" unicode="&#xe13b;" horiz-adv-x="574" 
d="M180 223q35 -38 98 -38q61 0 99.5 40t38.5 100q0 65 -37 108.5t-97 43.5q-62 0 -99 -40.5t-37 -107.5q0 -68 34 -106zM103 -157v79q31 -4 68 -4q118 0 182 77t70 197q-61 -82 -170 -82q-94 0 -150.5 56.5t-56.5 155.5q0 104 67 167t169 63q114 0 179 -77t65 -224
q0 -186 -94.5 -299t-262.5 -113q-35 0 -66 4z" />
    <glyph glyph-name="one.numerator" unicode="&#xe13c;" horiz-adv-x="430" 
d="M284 267h-78v323l-88 -63l-32 55l131 89h67v-404z" />
    <glyph glyph-name="two.numerator" unicode="&#xe13d;" horiz-adv-x="430" 
d="M351 267h-288v61l75 63q65 55 95 91.5t30 71.5q0 29 -21 45.5t-57 16.5q-46 0 -106 -25l-3 62q64 24 120 24q63 0 106 -28.5t43 -87.5q0 -47 -32 -89t-90 -92l-62 -54h190v-59z" />
    <glyph glyph-name="three.numerator" unicode="&#xe13e;" horiz-adv-x="430" 
d="M62 275l3 60q44 -17 105 -17q43 0 73 17.5t30 52.5q0 33 -29.5 47.5t-73.5 14.5h-53v54h44q106 0 106 61q0 28 -27.5 41.5t-64.5 13.5q-55 0 -99 -18l-3 58q51 17 113 17q65 0 112.5 -24.5t47.5 -80.5q0 -73 -76 -93q36 -7 60 -31.5t24 -59.5q0 -65 -52 -96.5t-125 -31.5
q-65 0 -115 15z" />
    <glyph glyph-name="four.numerator" unicode="&#xe13f;" horiz-adv-x="430" 
d="M248 602l-140 -191h140v191zM248 353h-199v68l189 250h86v-259h60v-59h-60v-86h-76v86z" />
    <glyph glyph-name="five.numerator" unicode="&#xe140;" horiz-adv-x="430" 
d="M73 275l4 60q41 -15 89 -15q44 0 76.5 19.5t32.5 56.5q0 36 -30 54t-74 18q-42 0 -87 -13l5 216h247v-58h-177l-3 -103q19 7 52 7q64 0 106 -28.5t42 -89.5q0 -68 -51.5 -103.5t-123.5 -35.5q-63 0 -108 15z" />
    <glyph glyph-name="six.numerator" unicode="&#xe141;" horiz-adv-x="430" 
d="M162 341q22 -27 59 -27t58 23t21 57t-19.5 56t-56.5 22q-35 0 -58.5 -20.5t-23.5 -52.5q0 -33 20 -58zM350 667l-4 -58q-36 12 -78 12q-61 0 -95.5 -41t-34.5 -99q42 45 104 45q61 0 97 -34.5t36 -93.5q0 -64 -44.5 -101t-109.5 -37q-83 0 -121 55t-38 139q0 99 52 161.5
t150 62.5q42 0 86 -11z" />
    <glyph glyph-name="seven.numerator" unicode="&#xe142;" horiz-adv-x="430" 
d="M197 267h-92l172 339h-212v65h292v-63z" />
    <glyph glyph-name="eight.numerator" unicode="&#xe143;" horiz-adv-x="430" 
d="M276 428q-22 17 -60 28q-84 -18 -84 -76q0 -30 23.5 -48t59.5 -18t59.5 18t23.5 49q0 29 -22 47zM164 524q24 -16 52 -23q72 22 72 67q0 28 -21 43t-52 15q-30 0 -51.5 -16t-21.5 -43t22 -43zM78 440q23 23 63 37q-75 28 -75 93q0 52 47 79.5t102 27.5q59 0 104 -25.5
t45 -80.5q0 -62 -76 -94q88 -24 88 -103q0 -58 -49 -86t-112 -28q-65 0 -113 27.5t-48 84.5q0 46 24 68z" />
    <glyph glyph-name="nine.numerator" unicode="&#xe144;" horiz-adv-x="430" 
d="M148 488q19 -22 58 -22q35 0 58.5 20.5t23.5 52.5q0 35 -21 59.5t-58 24.5t-58.5 -22.5t-21.5 -57.5q0 -33 19 -55zM80 270l3 58q39 -11 79 -11q63 0 96.5 40t33.5 99q-42 -45 -104 -45q-60 0 -96.5 34.5t-36.5 94.5q0 64 43.5 100.5t109.5 36.5q84 0 122 -54.5
t38 -139.5q0 -99 -51 -161t-150 -62q-46 0 -87 10z" />
    <glyph glyph-name="zero.numerator" unicode="&#xe145;" horiz-adv-x="430" 
d="M147 369q19 -51 68 -51q80 0 80 151q0 150 -80 150t-80 -150q0 -68 12 -100zM137 278q-82 50 -82 191q0 55 13.5 99t51 76.5t95.5 32.5t95.5 -32.5t51 -76.5t13.5 -99q0 -88 -37.5 -148.5t-122.5 -60.5q-47 0 -78 18z" />
    <glyph glyph-name="one.denominator" unicode="&#xe146;" horiz-adv-x="430" 
d="M284 0h-78v323l-88 -63l-32 55l131 89h67v-404z" />
    <glyph glyph-name="two.denominator" unicode="&#xe147;" horiz-adv-x="430" 
d="M351 0h-288v61l75 63q65 55 95 91.5t30 71.5q0 29 -21 45.5t-57 16.5q-46 0 -106 -25l-3 62q64 24 120 24q63 0 106 -28.5t43 -87.5q0 -46 -32 -88.5t-90 -92.5l-62 -54h190v-59z" />
    <glyph glyph-name="three.denominator" unicode="&#xe148;" horiz-adv-x="430" 
d="M62 8l3 60q44 -17 105 -17q43 0 73 17.5t30 52.5q0 33 -29.5 47.5t-73.5 14.5h-53v54h44q106 0 106 61q0 28 -27.5 41.5t-64.5 13.5q-55 0 -99 -18l-3 58q51 17 113 17q65 0 112.5 -24.5t47.5 -80.5q0 -73 -76 -93q36 -7 60 -31.5t24 -59.5q0 -65 -52 -96.5t-125 -31.5
q-65 0 -115 15z" />
    <glyph glyph-name="four.denominator" unicode="&#xe149;" horiz-adv-x="430" 
d="M248 335l-140 -191h140v191zM248 86h-199v68l189 250h86v-259h60v-59h-60v-86h-76v86z" />
    <glyph glyph-name="five.denominator" unicode="&#xe14a;" horiz-adv-x="430" 
d="M73 8l4 60q41 -15 89 -15q44 0 76.5 19.5t32.5 56.5q0 36 -30 54t-74 18q-42 0 -87 -13l5 216h247v-58h-177l-3 -103q19 7 52 7q64 0 106 -28.5t42 -89.5q0 -68 -51.5 -103.5t-123.5 -35.5q-63 0 -108 15z" />
    <glyph glyph-name="six.denominator" unicode="&#xe14b;" horiz-adv-x="430" 
d="M162 74q22 -27 59 -27t58 23t21 57t-19.5 56t-56.5 22q-35 0 -58.5 -20.5t-23.5 -52.5q0 -33 20 -58zM350 400l-4 -58q-36 12 -78 12q-61 0 -95.5 -41t-34.5 -99q42 45 104 45q61 0 97 -34.5t36 -93.5q0 -64 -44.5 -101t-109.5 -37q-83 0 -121 55t-38 139q0 99 52 161.5
t150 62.5q42 0 86 -11z" />
    <glyph glyph-name="seven.denominator" unicode="&#xe14c;" horiz-adv-x="430" 
d="M197 0h-92l172 339h-212v65h292v-63z" />
    <glyph glyph-name="eight.denominator" unicode="&#xe14d;" horiz-adv-x="430" 
d="M276 161q-22 17 -60 28q-84 -18 -84 -76q0 -30 23.5 -48t59.5 -18t59.5 18t23.5 49q0 29 -22 47zM164 257q24 -16 52 -23q72 22 72 67q0 28 -21 43t-52 15q-30 0 -51.5 -16t-21.5 -43t22 -43zM78 173q23 23 63 37q-75 28 -75 93q0 52 47 79.5t102 27.5q59 0 104 -25.5
t45 -80.5q0 -62 -76 -94q88 -24 88 -103q0 -58 -49 -86t-112 -28q-65 0 -113 27.5t-48 84.5q0 45 24 68z" />
    <glyph glyph-name="nine.denominator" unicode="&#xe14e;" horiz-adv-x="430" 
d="M148 221q19 -22 58 -22q35 0 58.5 20.5t23.5 52.5q0 35 -21 59.5t-58 24.5t-58.5 -22.5t-21.5 -57.5q0 -33 19 -55zM80 3l3 58q39 -11 79 -11q63 0 96.5 40t33.5 99q-42 -45 -104 -45q-60 0 -96.5 34.5t-36.5 94.5q0 64 43.5 100.5t109.5 36.5q84 0 122 -54.5t38 -139.5
q0 -99 -51 -161t-150 -62q-46 0 -87 10z" />
    <glyph glyph-name="zero.denominator" unicode="&#xe14f;" horiz-adv-x="430" 
d="M147 102q19 -51 68 -51q80 0 80 151q0 150 -80 150t-80 -150q0 -68 12 -100zM137 11q-82 50 -82 191q0 55 13.5 99t51 76.5t95.5 32.5t95.5 -32.5t51 -76.5t13.5 -99q0 -88 -37.5 -148.5t-122.5 -60.5q-47 0 -78 18z" />
    <glyph glyph-name="parenleft.inferior" unicode="&#xe192;" horiz-adv-x="205" 
d="M190 -240h-60q-94 146 -94 255t94 255h60q-83 -148 -83 -255q0 -114 83 -255z" />
    <glyph glyph-name="parenright.inferior" unicode="&#xe193;" horiz-adv-x="205" 
d="M74 -240h-59q82 146 82 255t-82 255h59q94 -146 94 -255t-94 -255z" />
    <glyph glyph-name="equal.inferior" unicode="&#xe196;" horiz-adv-x="430" 
d="M380 -101h-329v57h329v-57zM380 23h-329v57h329v-57z" />
    <glyph glyph-name="a.superior" unicode="&#xe19f;" horiz-adv-x="349" 
d="M232 412h-23q-112 0 -112 -54q0 -23 15.5 -34.5t39.5 -11.5q40 0 60 24.5t20 61.5v14zM309 267h-73l-3 47q-31 -54 -104 -54q-47 0 -75.5 23.5t-28.5 69.5q0 104 161 104h46v8q0 61 -75 61q-49 0 -93 -23l-4 56q46 19 106 19q138 0 138 -118v-122q0 -38 5 -71z" />
    <glyph glyph-name="b.superior" unicode="&#xe1a0;" horiz-adv-x="379" 
d="M135 354q21 -35 60 -35q41 0 58 30t17 72q0 98 -74 98q-40 0 -58 -29.5t-18 -68.5q0 -40 15 -67zM115 267h-68v437h76v-184q30 58 98 58q67 0 98.5 -44.5t31.5 -112.5q0 -67 -32.5 -114t-98.5 -47q-70 0 -103 59z" />
    <glyph glyph-name="d.superior" unicode="&#xe1a2;" horiz-adv-x="379" 
d="M124 352q19 -34 61 -34q39 0 56.5 31t17.5 71q0 39 -17.5 69t-57.5 30q-74 0 -74 -99q0 -43 14 -68zM336 267h-71l-3 52q-35 -59 -99 -59q-67 0 -100.5 47t-33.5 114q0 66 33.5 111.5t99.5 45.5q65 0 95 -54v180h76v-349q0 -51 3 -88z" />
    <glyph glyph-name="e.superior" unicode="&#xe1a3;" horiz-adv-x="342" 
d="M103 448h147q0 34 -16 56.5t-52 22.5q-37 0 -56.5 -23.5t-22.5 -55.5zM318 401h-214q1 -40 28 -64t77 -24q53 0 89 18l3 -54q-48 -17 -100 -17q-85 0 -129 42.5t-44 118.5q0 67 42.5 112t110.5 45q137 0 137 -155v-22z" />
    <glyph glyph-name="h.superior" unicode="&#xe1a6;" horiz-adv-x="374" 
d="M327 267h-75v178q0 34 -12.5 53.5t-47.5 19.5q-70 0 -70 -94v-157h-75v437h75v-184q37 58 101 58q104 0 104 -116v-195z" />
    <glyph glyph-name="l.superior" unicode="&#xe1a9;" horiz-adv-x="169" 
d="M123 267h-76v437h76v-437z" />
    <glyph glyph-name="m.superior" unicode="&#xe1aa;" horiz-adv-x="556" 
d="M123 267h-76v235q0 47 -3 70h71l1 -53q39 59 102 59q34 0 58.5 -18t33.5 -45q15 29 42.5 46t57.5 17q100 0 100 -112v-199h-76v191q0 60 -53 60q-33 0 -49 -24t-16 -59v-168h-75v191q0 60 -53 60q-33 0 -49 -24.5t-16 -58.5v-168z" />
    <glyph glyph-name="o.superior" unicode="&#xe1ab;" horiz-adv-x="380" 
d="M127 349q21 -33 62 -33q42 0 62 29.5t20 73.5q0 41 -19.5 72t-60.5 31q-42 0 -61.5 -30t-19.5 -73q0 -42 17 -70zM189 260q-76 0 -118 43t-42 116q0 72 43.5 115.5t118.5 43.5t117.5 -43t42.5 -116q0 -72 -43.5 -115.5t-118.5 -43.5z" />
    <glyph glyph-name="r.superior" unicode="&#xe1ae;" horiz-adv-x="245" 
d="M122 267h-75v235q0 36 -3 69h70l2 -60q36 67 92 67q18 0 23 -2l-3 -72q-5 2 -25 2q-42 0 -61.5 -30t-19.5 -70v-139z" />
    <glyph glyph-name="s.superior" unicode="&#xe1af;" horiz-adv-x="284" 
d="M31 274l4 57q37 -18 85 -18q61 0 61 38q0 17 -17 27.5t-49 22.5q-52 21 -67 37q-17 20 -17 50q0 46 38.5 68t87.5 22q41 0 84 -12l-4 -55q-37 14 -76 14q-56 0 -56 -34q0 -12 11.5 -21t38.5 -19q25 -10 32 -13t25 -12.5t24 -17t12.5 -21t6.5 -30.5q0 -48 -38.5 -72.5
t-90.5 -24.5q-56 0 -95 14z" />
    <glyph glyph-name="t.superior" unicode="&#xe1b0;" horiz-adv-x="243" 
d="M221 325l4 -54q-36 -11 -66 -11q-87 0 -87 108v149h-58v55h58v63l75 23v-86h71v-55h-71v-153q0 -45 39 -45q17 0 35 6z" />
    <glyph glyph-name="n.superior" unicode="&#xe1da;" horiz-adv-x="374" 
d="M122 267h-75v235q0 36 -3 70h70l2 -53q41 59 106 59q105 0 105 -116v-195h-75v178q0 73 -60 73q-37 0 -53.5 -24.5t-16.5 -59.5v-167z" />
    <glyph glyph-name="period.superior" unicode="&#xe1dc;" horiz-adv-x="198" 
d="M134 267h-70v73h70v-73z" />
    <glyph glyph-name="parenleft.superior" unicode="&#xe1df;" horiz-adv-x="205" 
d="M190 295h-60q-94 146 -94 255t94 255h60q-83 -148 -83 -255q0 -114 83 -255z" />
    <glyph glyph-name="parenright.superior" unicode="&#xe1e0;" horiz-adv-x="205" 
d="M74 295h-59q82 146 82 255t-82 255h59q94 -146 94 -255t-94 -255z" />
    <glyph glyph-name="equal.superior" unicode="&#xe1e3;" horiz-adv-x="430" 
d="M380 434h-329v57h329v-57zM380 558h-329v57h329v-57z" />
    <glyph glyph-name="grave.cap" unicode="&#xe300;" horiz-adv-x="237" 
d="M169 724h-76l-104 136h108z" />
    <glyph glyph-name="acute.cap" unicode="&#xe301;" horiz-adv-x="237" 
d="M142 724h-77l71 136h109z" />
    <glyph glyph-name="circumflex.cap" unicode="&#xe302;" horiz-adv-x="237" 
d="M47 724h-77l103 136h92l103 -136h-77l-72 92z" />
    <glyph glyph-name="caron.cap" unicode="&#xe303;" horiz-adv-x="237" 
d="M165 724h-92l-103 136h77l72 -92l72 92h77z" />
    <glyph glyph-name="tilde.cap" unicode="&#xe304;" horiz-adv-x="237" 
d="M17 735h-55q2 43 27 75.5t67 32.5q27 0 69 -20t57 -20q17 0 27.5 13t11.5 30h55q0 -39 -27 -73t-66 -34q-28 0 -66.5 19.5t-56.5 19.5q-17 0 -30 -13.5t-13 -29.5z" />
    <glyph glyph-name="dieresis.cap" unicode="&#xe305;" horiz-adv-x="237" 
d="M75 743h-83v97h83v-97zM246 743h-83v97h83v-97z" />
    <glyph glyph-name="macron.cap" unicode="&#xe306;" horiz-adv-x="237" 
d="M254 763h-270v59h270v-59z" />
    <glyph glyph-name="breve.cap" unicode="&#xe307;" horiz-adv-x="237" 
d="M-12 853h54q3 -30 23 -49t54 -19t54.5 19t23.5 49h53q0 -41 -33.5 -82.5t-97.5 -41.5t-97.5 41.5t-33.5 82.5z" />
    <glyph glyph-name="ring.cap" unicode="&#xe308;" horiz-adv-x="237" 
d="M62 792q0 -24 16.5 -40t40.5 -16t40.5 16t16.5 40q0 23 -16.5 39.5t-40.5 16.5t-40.5 -16.5t-16.5 -39.5zM50 724q-29 29 -29 68q0 40 28.5 68t69.5 28q39 0 68.5 -28.5t29.5 -67.5q0 -40 -28.5 -68t-69.5 -28q-38 0 -69 28z" />
    <glyph glyph-name="hungarumlaut.cap" unicode="&#xe309;" horiz-adv-x="237" 
d="M19 724h-77l72 136h108zM209 724h-77l72 136h108z" />
    <glyph glyph-name="dotaccent.cap" unicode="&#xe30a;" horiz-adv-x="237" 
d="M169 743h-100v97h100v-97z" />
    <glyph glyph-name="caron.alt" unicode="&#xe30b;" horiz-adv-x="237" 
d="M199 561h-70l20 159h93z" />
    <glyph glyph-name="commaaccent" unicode="&#xe30c;" horiz-adv-x="237" 
d="M95 -227h-64l44 159h87z" />
    <glyph glyph-name="commaaccent.alt" unicode="&#xe30d;" horiz-adv-x="237" 
d="M321 584h-85l59 136h61z" />
    <glyph glyph-name="grave.sc" unicode="&#xe320;" horiz-adv-x="237" 
d="M169 608h-76l-104 136h108z" />
    <glyph glyph-name="acute.sc" unicode="&#xe321;" horiz-adv-x="237" 
d="M142 608h-77l71 136h109z" />
    <glyph glyph-name="circumflex.sc" unicode="&#xe322;" horiz-adv-x="237" 
d="M47 608h-77l103 136h92l103 -136h-77l-72 92z" />
    <glyph glyph-name="caron.sc" unicode="&#xe323;" horiz-adv-x="237" 
d="M165 608h-92l-103 136h77l72 -92l72 92h77z" />
    <glyph glyph-name="tilde.sc" unicode="&#xe324;" horiz-adv-x="237" 
d="M17 619h-55q3 43 27 75.5t67 32.5q27 0 69 -20t57 -20q17 0 27.5 13t11.5 30h55q0 -39 -27 -73t-66 -34q-28 0 -66.5 19.5t-56.5 19.5q-17 0 -30 -13.5t-13 -29.5z" />
    <glyph glyph-name="dieresis.sc" unicode="&#xe325;" horiz-adv-x="237" 
d="M75 627h-83v97h83v-97zM246 627h-83v97h83v-97z" />
    <glyph glyph-name="macron.sc" unicode="&#xe326;" horiz-adv-x="237" 
d="M254 647h-270v59h270v-59z" />
    <glyph glyph-name="breve.sc" unicode="&#xe327;" horiz-adv-x="237" 
d="M-12 737h54q3 -30 23 -49t54 -19t54.5 19t23.5 49h53q0 -41 -33.5 -82.5t-97.5 -41.5t-97.5 41.5t-33.5 82.5z" />
    <glyph glyph-name="ring.sc" unicode="&#xe328;" horiz-adv-x="237" 
d="M62 676q0 -24 16.5 -40t40.5 -16t40.5 16t16.5 40q0 23 -16.5 39.5t-40.5 16.5t-40.5 -16.5t-16.5 -39.5zM50 608q-29 29 -29 68q0 40 28.5 68t69.5 28q39 0 68.5 -28.5t29.5 -67.5q0 -40 -28.5 -68t-69.5 -28q-38 0 -69 28z" />
    <glyph glyph-name="hungarumlaut.sc" unicode="&#xe329;" horiz-adv-x="237" 
d="M19 608h-77l72 136h108zM209 608h-77l72 136h108z" />
    <glyph glyph-name="dotaccent.sc" unicode="&#xe32a;" horiz-adv-x="237" 
d="M169 627h-100v97h100v-97z" />
    <glyph glyph-name="ntilde.superior" unicode="&#xf463;" horiz-adv-x="374" 
d="M118 645h-39q2 32 19 54.5t47 22.5q19 0 46.5 -13.5t38.5 -13.5q21 0 26 29h39q0 -28 -19 -52t-45 -24q-20 0 -45.5 13t-37.5 13t-20 -8t-10 -21zM122 267h-75v235q0 36 -3 70h70l2 -53q41 59 106 59q105 0 105 -116v-195h-75v178q0 73 -60 73q-37 0 -53.5 -24.5
t-16.5 -59.5v-167z" />
    <glyph glyph-name="i.superior" unicode="&#xf464;" horiz-adv-x="169" 
d="M123 267h-76v305h76v-305zM123 626h-76v68h76v-68z" />
    <glyph glyph-name="uniF8FF" unicode="&#xf8ff;" horiz-adv-x="512" 
d="M269 117h-59v64h59v-64zM263 241h-47v9q0 34 11.5 61t28 45.5t33 36t28 41t11.5 52.5q0 34 -22 55.5t-60 21.5q-46 0 -98 -21l-4 47q51 20 102 20q61 0 97.5 -32.5t36.5 -91.5q0 -38 -18.5 -70t-40 -50.5t-40 -48t-18.5 -64.5v-11zM512 0h-512v718h512v-718zM50 667v-617
h412v617h-412z" />
    <glyph glyph-name="napostrophe.sc" horiz-adv-x="597" 
d="M162 0h-91v534h139l224 -442v442h92v-534h-141l-223 442v-442zM66 544h-57l45 177h80z" />
    <glyph glyph-name="revcommaaccent" horiz-adv-x="237" 
d="M162 584h-87l67 159h64z" />
    <glyph glyph-name="ordmasculine.sc" horiz-adv-x="326" 
d="M112 362q17 -23 52 -23q33 0 48.5 22.5t15.5 58.5q0 79 -64 79q-34 0 -51 -22.5t-17 -56.5q0 -35 16 -58zM65 329q-35 35 -35 91q0 57 36.5 90.5t97.5 33.5q62 0 97 -32.5t35 -91.5q0 -55 -36.5 -90t-95.5 -35q-65 0 -99 34z" />
    </font>
</defs>
</svg>
