<?xml version="1.0" standalone="no"?>
<!DOCTYPE svg PUBLIC "-//W3C//DTD SVG 1.1//EN" "http://www.w3.org/Graphics/SVG/1.1/DTD/svg11.dtd" >
<svg>
<metadata>
Created by FontForge 20090914 at Fri Sep 23 15:13:36 2016
 By www-data
</metadata>
<defs>
<font id="streamline-30px-filled-in" horiz-adv-x="512" >
  <font-face 
    font-family="streamline-30px-filled-in"
    font-weight="400"
    font-stretch="normal"
    units-per-em="512"
    panose-1="2 0 5 9 0 0 0 0 0 0"
    ascent="480"
    descent="-32"
    x-height="442.997"
    cap-height="491"
    bbox="-2 -17 516 517.261"
    underline-thickness="0"
    underline-position="0"
    unicode-range="U+0021-U+E60B"
  />
<missing-glyph 
 />
    <glyph glyph-name=".notdef" 
 />
    <glyph glyph-name=".notdef" 
 />
    <glyph glyph-name="exclam" unicode="!" 
d="M363 266c0 3.33301 -1.66699 5.99902 -5 7.99902l-344 182c-3.33301 2.66699 -6.66602 2.33398 -9.99902 -0.999023c-2.66699 -2.66699 -3.33398 -6 -2.00098 -10l183 -355c2 -3.33301 4.66699 -5 8 -5s6 1.66699 8 5l52 116l105 52c3.33301 2 5 4.66699 5 8z
M502 292.999l-344.998 183.001c-6.66699 3.33301 -13.334 2.33301 -20.001 -3c-5.33301 -5.33301 -6.33301 -12 -3 -20l21 -43c6 -10 13.667 -12.667 23 -8c8 4.66699 11 11 9 19l269 -143l-78 -39c-3.33301 -1.33301 -6 -4 -8 -8l-39 -86l-27 54
c-4.66699 10 -12.334 12.667 -23.001 8c-9.33301 -4.66699 -11.666 -12.334 -6.99902 -23.001l43 -86c3.33301 -6 8.33301 -9 15 -9c7.33301 0 12.666 3.33301 15.999 10l51 113l102 51c6.66699 2 10 7 10 15c0 6.66699 -3 11.667 -9 15z" />
    <glyph glyph-name="quotedbl" unicode="&#x22;" 
d="M422 236l-0.00292969 127.001c0 7.33301 -3 14.166 -9 20.499s-12.667 9.5 -20 9.5c-8 0 -15 -3.16699 -21 -9.5s-9 -13.5 -9 -21.5v-85h-9v128c0 8 -3 15 -9 21s-13 9 -21 9c-7.33301 0 -14.166 -3 -20.499 -9s-9.5 -13 -9.5 -21v-102h-8v128
c0 7.33301 -3.16699 14.166 -9.5 20.499s-13.166 9.5 -20.499 9.5c-8 0 -15 -3 -21 -9s-9 -13 -9 -21v-128h-8v102c0 8 -3.16699 15 -9.5 21s-13.166 9 -20.499 9c-8 0 -15 -3 -21 -9s-9 -13 -9 -21v-187h-9v89h-30c-7.33301 0 -14 -3 -20 -9s-9 -13 -9 -21v-85
c0 -23.333 16 -51.166 48 -83.499s65.667 -48.5 101 -48.5h68c29.333 0 55.833 11.5 79.5 34.5s35.5 48.833 35.5 77.5v64h5h-5z" />
    <glyph glyph-name="numbersign" unicode="#" 
d="M395 393c-7.33301 0 -14.1689 -3.16895 -20.502 -9.50195s-9.5 -13.166 -9.5 -20.499v-97h-8v156c0 8 -3.16699 15 -9.5 21s-13.166 9 -20.499 9s-14.166 -3 -20.499 -9s-9.5 -13 -9.5 -21v-128h-8v171c0 7.33301 -3.16699 14.166 -9.5 20.499s-13.166 9.5 -20.499 9.5
c-8 0 -15 -3.16699 -21 -9.5s-9 -13.166 -9 -20.499v-171h-9v128c0 8 -3 15 -9 21s-13 9 -21 9c-7.33301 0 -14 -3 -20 -9s-9 -13 -9 -21v-225l-59 86c-6.66699 10 -13.334 15.333 -20.001 16h-1c-5.33301 0 -10.666 -2.66699 -15.999 -8
c-7.33301 -7.33301 -7 -19.666 1 -36.999c45.333 -90.667 73.666 -145 84.999 -163c10 -15.333 22.833 -28.666 38.5 -39.999s32.167 -17 49.5 -17h71c28.667 0 55 12 79 36s36 50.333 36 79v214c0 7.33301 -3 14.166 -9 20.499s-13 9.5 -21 9.5z" />
    <glyph glyph-name="dollar" unicode="$" 
d="M418 295l-0.00390625 25.001c0 7.33301 -3 14.166 -9 20.499s-13 9.5 -21 9.5c-7.33301 0 -14.166 -3.16699 -20.499 -9.5s-9.5 -13.166 -9.5 -20.499v-34c0 -2.66699 -1.33301 -4 -4 -4s-4 1.33301 -4 4v60c0 8 -2.5 14.667 -7.5 20s-11.167 8 -18.5 8
c-8 0 -15.667 -3.5 -23 -10.5s-11 -14.167 -11 -21.5v-22c0 -2.66699 -1.33301 -4 -4 -4s-4 1.33301 -4 4v43c0 7.33301 -3.16699 14.166 -9.5 20.499s-13.166 9.5 -20.499 9.5c-8 0 -15 -3.16699 -21 -9.5s-9 -13.166 -9 -20.499v-43c0 -2.66699 -1.33301 -4 -4 -4
c-3.33301 0 -5 1.33301 -5 4v22c0 7.33301 -3.16699 14.666 -9.5 21.999s-13.166 11 -20.499 11s-14 -3 -20 -9s-9 -12.667 -9 -20v-76c0 -2.66699 -1.66699 -4 -5 -4c-2.66699 0 -4 1.33301 -4 4v37h-21c-11.333 0 -20.666 -4 -27.999 -12s-11 -16.667 -11 -26v-26
c0 -32.667 12.5 -65.667 37.5 -99s62.5 -50 112.5 -50h76c27.333 0 52 11.833 74 35.5s33 50.167 33 79.5v86v0z" />
    <glyph glyph-name="percent" unicode="%" 
d="M455 306c-2 7.33301 -5.99805 12.999 -11.998 16.999c-4.66699 2.66699 -9.66699 4 -15 4c-10.667 0 -18.667 -4.33301 -24 -13l-59 -93c-1.33301 -1.33301 -3 -1.66602 -5 -0.999023c-2.66699 0 -3.33398 1.33301 -2.00098 4l34 190c2 8 1 15.333 -3 22
c-4 5.33301 -10 9.33301 -18 12c-7.33301 1.33301 -14.333 -0.166992 -21 -4.5s-10.667 -10.166 -12 -17.499l-37 -162c0 -2.66699 -1.33301 -4 -4 -4c-2.66699 1.33301 -4 3 -4 5v204c0 8 -3 15 -9 21s-13 9 -21 9c-7.33301 0 -14.166 -3 -20.499 -9s-9.5 -13 -9.5 -21
v-204c0 -3.33301 -1.33301 -5 -4 -5s-4 1.33301 -4 4l-33 170c-1.33301 7.33301 -5.33301 13.166 -12 17.499s-13.667 5.83301 -21 4.5c-7.33301 -2 -13.333 -6.33301 -18 -13c-4 -6 -5 -13 -3 -21l34 -241c1.33301 -1.33301 0.666016 -2.66602 -2.00098 -3.99902
c-1.33301 -1.33301 -3 -1.33301 -5 0l-64 57c-6 4.66699 -12.333 7 -19 7c-8 0 -15 -3 -21 -9c-4.66699 -5.33301 -7 -12 -7 -20c1.33301 -8.66699 4.33301 -15.334 9 -20.001l114 -151c17.333 -18.667 39.666 -28 66.999 -28h75c31.333 0 54.5 10.333 69.5 31
s22.5 53 22.5 97c0 20 5 39 15 57l46 86c4 6.66699 5 14 3 22z" />
    <glyph glyph-name="ampersand" unicode="&#x26;" 
d="M377 324l-21 -0.000976562v-40h-9v45c0 4.66699 -2.33301 9.33398 -7 14.001s-9.33398 7 -14.001 7h-38v-47h-9v51c0 8.66699 -7 13 -21 13h-39v-64h-8v154c0 7.33301 -3.16699 14 -9.5 20s-13.166 9 -20.499 9s-14.166 -3 -20.499 -9s-9.5 -12.667 -9.5 -20v-258l-58 58
c-10 8.66699 -19.333 8.33398 -28 -0.999023c-8 -7.33301 -8 -16.333 0 -27c47.333 -94 84 -159 110 -195h191l41 125c6 19.333 9 39 9 59v76c0 7.33301 -4.33301 14.166 -13 20.499s-17.334 9.5 -26.001 9.5z" />
    <glyph glyph-name="quotesingle" unicode="'" 
d="M369 183l-92 31.001v125c0 10 -3.83301 18.667 -11.5 26s-16.5 11 -26.5 11c-10.667 0 -19.667 -3.66699 -27 -11s-11 -16 -11 -26v-216c-17.333 25.333 -31.833 41.666 -43.5 48.999s-24.167 11 -37.5 11c-8.66699 0 -14.667 -3.66699 -18 -11
c-7.33301 -11.333 -6 -24.333 4 -39l88 -131h176l23 122c3.33301 12.667 3 24.667 -1 36s-11.667 19 -23 23zM375 510.001l-273 -0.00195312c-22.667 0 -42.5 -8.5 -59.5 -25.5s-25.5 -36.833 -25.5 -59.5v-120c0 -21.333 8.33301 -39.5 25 -54.5s36.667 -22.5 60 -22.5h35
c4.66699 0 8.66699 1.66699 12 5s5 7.33301 5 12s-1.66699 8.66699 -5 12s-7.33301 5 -12 5h-35c-13.333 0 -25.166 4 -35.499 12s-15.5 18.333 -15.5 31v120c0 12.667 5.16699 24.334 15.5 35.001s22.166 16 35.499 16h273c13.333 0 25.333 -5.16699 36 -15.5
s16 -22.166 16 -35.499v-120c0 -12.667 -5.16699 -23 -15.5 -31s-22.5 -12 -36.5 -12h-34c-4.66699 0 -8.66699 -1.66699 -12 -5s-5 -7.33301 -5 -12s1.66699 -8.66699 5 -12s7.33301 -5 12 -5h34c24 0 44.333 7.5 61 22.5s25 33.167 25 54.5v120
c0 22.667 -8.66699 42.5 -26 59.5s-37.333 25.5 -60 25.5z" />
    <glyph glyph-name="parenleft" unicode="(" 
d="M384 184l-98.001 32.002v125c0 10 -3.83301 18.833 -11.5 26.5s-16.5 11.5 -26.5 11.5s-19 -3.83301 -27 -11.5s-12 -16.5 -12 -26.5l1 -216c-16.667 25.333 -30 41.666 -40 48.999s-21.333 11 -34 11c-9.33301 0 -15.666 -3.66699 -18.999 -11
c-7.33301 -12 -6 -25 4 -39l90 -131h177l20 122c3.33301 12.667 3 24.667 -1 36s-11.667 18.666 -23 21.999zM158.999 222.002c7.33301 7.33301 7.33301 15.333 0 24c-26 26 -39 57.333 -39 94c0 37.333 13 69 39 95s57.333 39 94 39c36 0 67.667 -13 95 -39
c26 -26 39 -57.667 39 -95c0 -36.667 -13 -68 -39 -94c-8.66699 -8.66699 -8.66699 -16.667 0 -24c2.66699 -3.33301 6.66699 -5 12 -5c4.66699 0 8.66699 1.66699 12 5c32.667 32.667 49 72 49 118c0 45.333 -16.333 85 -49 119c-32.667 32.667 -72.334 49 -119.001 49
c-47.333 0 -86.666 -16.333 -117.999 -49c-33.333 -33.333 -50 -73 -50 -119c0 -46.667 16.667 -86 50 -118c7.33301 -8.66699 15.333 -8.66699 24 0z" />
    <glyph glyph-name="parenright" unicode=")" 
d="M388 185l-88.9961 31v125c0 10 -4 18.833 -12 26.5s-17 11.5 -27 11.5c-10.667 0 -19.667 -3.83301 -27 -11.5s-11 -16.5 -11 -26.5v-224c-18.667 26.667 -33.834 44.667 -45.501 54s-23.5 14 -35.5 14c-8.66699 0 -14.667 -3.33301 -18 -10
c-6.66699 -12 -5.33398 -25.333 3.99902 -40l87 -129c1.33301 -1.33301 2.66602 -2 3.99902 -2h170c2.66699 0 4 1.33301 4 4l22 118c3.33301 12 2.66602 23.833 -2.00098 35.5s-12.667 19.5 -24 23.5zM422.004 363h-68c-8.66699 0 -13 -4.33301 -13 -13s4.33301 -13 13 -13
h68c8.66699 0 13 4.33301 13 13s-4.33301 13 -13 13zM335.004 405c3.33301 0 6.33301 1 9 3l43 43c6 6 6 12 0 18s-12 6 -18 0l-43 -43c-6 -6 -6 -12 0 -18c2 -2 5 -3 9 -3zM260.004 422c8.66699 0 13 4.33301 13 13v60c0 8.66699 -4.33301 13 -13 13s-13 -4.33301 -13 -13
v-60c0 -8.66699 4.33301 -13 13 -13zM175.004 408c3.33301 -2 6.33301 -3 9 -3c4 0 7 1 9 3c6 6 6 12 0 18l-43 43c-6 6 -12 6 -18 0s-6 -12 0 -18zM179.004 350c0 8.66699 -4.33301 13 -13 13h-68c-8.66699 0 -13 -4.33301 -13 -13s4.33301 -13 13 -13h68
c8.66699 0 13 4.33301 13 13z" />
    <glyph glyph-name="asterisk" unicode="*" 
d="M466 199l-121.001 42.999v108c0 8.66699 -3.16699 15.834 -9.5 21.501s-13.166 8.5 -20.499 8.5h-17c-8 0 -15 -2.66699 -21 -8s-9 -12.666 -9 -21.999v-181l-18 30c-5.33301 6.66699 -12.333 10 -21 10h-22c-9.33301 0 -16.333 -4 -21 -12
c-5.33301 -8.66699 -5.66602 -17 -0.999023 -25l79 -155c5.33301 -8.66699 13.666 -13 24.999 -13h137c8.66699 0 15.667 5.33301 21 16l34 153v1c0 13.333 -5 21.666 -15 24.999zM101.999 468.999h-43c-11.333 0 -17 -5.66699 -17 -17c0 -4.66699 1.66699 -8.66699 5 -12
s7.33301 -5 12 -5h43c4.66699 0 8.66699 1.66699 12 5s5 7.33301 5 12s-1.66699 8.66699 -5 12s-7.33301 5 -12 5zM101.999 383.999h-43c-4.66699 0 -8.66699 -1.66699 -12 -5s-5 -7.33301 -5 -12s1.66699 -8.66699 5 -12s7.33301 -5 12 -5h43
c4.66699 0 8.66699 1.66699 12 5s5 7.33301 5 12s-1.66699 8.66699 -5 12s-7.33301 5 -12 5zM100.999 298.999h-42c-4.66699 0 -8.66699 -1.66699 -12 -5s-5 -7.33301 -5 -12c0 -11.333 5.66699 -17 17 -17h42c11.333 0 17 5.66699 17 17c0 4.66699 -1.66699 8.66699 -5 12
s-7.33301 5 -12 5zM160.999 434.999h43c4.66699 0 8.66699 1.66699 12 5s5 7.33301 5 12s-1.66699 8.66699 -5 12s-7.33301 5 -12 5h-43c-4.66699 0 -8.66699 -1.66699 -12 -5s-5 -7.33301 -5 -12s1.66699 -8.66699 5 -12s7.33301 -5 12 -5zM160.999 349.999h43
c4.66699 0 8.66699 1.66699 12 5s5 7.33301 5 12s-1.66699 8.66699 -5 12s-7.33301 5 -12 5h-43c-4.66699 0 -8.66699 -1.66699 -12 -5s-5 -7.33301 -5 -12s1.66699 -8.66699 5 -12s7.33301 -5 12 -5zM220.999 281.999c0 4.66699 -1.66699 8.66699 -5 12s-7.33301 5 -12 5
h-43c-4.66699 0 -8.66699 -1.66699 -12 -5s-5 -7.33301 -5 -12s1.66699 -8.66699 5 -12s7.33301 -5 12 -5h43c4.66699 0 8.66699 1.66699 12 5s5 7.33301 5 12zM271.999 434.999h43c4.66699 0 8.66699 1.66699 12 5s5 7.33301 5 12s-1.66699 8.66699 -5 12s-7.33301 5 -12 5
h-43c-4.66699 0 -8.66699 -1.66699 -12 -5s-5 -7.33301 -5 -12s1.66699 -8.66699 5 -12s7.33301 -5 12 -5z" />
    <glyph glyph-name="plus" unicode="+" 
d="M406 512h-60v-457l54 -53c2.66699 -1.33301 4.66699 -2 6 -2s2.33301 0.333008 3 1c3.33301 1.33301 5 4 5 8v494c0 6 -2.66699 9 -8 9zM193 69l71 68l65 -65v440h-136v-443zM107 503l0.000976562 -494c0 -4 1.66699 -6.66699 5 -8s6.66602 -1 9.99902 1l54 51v459h-60
c-6 0 -9 -3 -9 -9z" />
    <glyph glyph-name="comma" unicode="," 
d="M510 359l-151 150c-4 4.66699 -8 5 -12 1l-344 -342c-4 -2.66699 -4.66699 -5.66699 -2 -9c1.33301 -3.33301 4 -5 8 -5h145v-145c0 -4 1.66699 -6.66699 5 -8c0.666992 -0.666992 1.66699 -1 3 -1c2.66699 0 4.66699 1 6 3l342 344c4 4 4 8 0 12z" />
    <glyph glyph-name="hyphen" unicode="-" 
d="M357 512l-187.999 0.000976562c-23.333 0 -43.333 -8.33301 -60 -25s-25 -36.667 -25 -60v-418c0 -4 1.66699 -6.66699 5 -8c1.33301 -0.666992 2.66602 -1 3.99902 -1c2 0 4 1 6 3l97 101l113 -102c2.66699 -2.66699 5.66699 -3 9 -1c3.33301 1.33301 5 4 5 8v409
c0 3.33301 0.333008 5.66602 1 6.99902v2c0.666992 1.33301 1 2.66602 1 3.99902l1 2c1.33301 2.66699 2 4.33398 2 5.00098h1c4 7.33301 11 12 21 14h2h5c6 0 9 -2.66699 9 -8c0 -6 -3 -9 -9 -9c-11.333 0 -17 -5.66699 -17 -17v-43h94c6 0 9 3 9 9v43
c0 22.667 -8.5 42.5 -25.5 59.5s-37.167 25.5 -60.5 25.5z" />
    <glyph glyph-name="period" unicode="." 
d="M503 495h-247v8c0 6 -3 9 -9 9h-170c-6 0 -9 -3 -9 -9v-8h-59c-6 0 -9 -3 -9 -9v-477c0 -6 3 -9 9 -9h494c6 0 9 3 9 9v477c0 6 -3 9 -9 9zM85 495h154v-253l-71 71c-1.33301 2 -3.33301 3 -6 3c-2 0 -4 -1 -6 -3l-71 -71v253zM350 85h-273c-6 0 -9 3 -9 9
c0 5.33301 3 8 9 8h273c5.33301 0 8 -2.66699 8 -8c0 -6 -2.66699 -9 -8 -9zM435 154h-358c-6 0 -9 2.66699 -9 8c0 6 3 9 9 9h358c6 0 9 -3 9 -9c0 -5.33301 -3 -8 -9 -8zM435 222h-128c-5.33301 0 -8 2.66699 -8 8c0 6 2.66699 9 8 9h128c6 0 9 -3 9 -9
c0 -5.33301 -3 -8 -9 -8zM435 290h-128c-5.33301 0 -8 3 -8 9c0 5.33301 2.66699 8 8 8h128c6 0 9 -2.66699 9 -8c0 -6 -3 -9 -9 -9zM435 358h-128c-5.33301 0 -8 3 -8 9c0 5.33301 2.66699 8 8 8h128c6 0 9 -2.66699 9 -8c0 -6 -3 -9 -9 -9z" />
    <glyph glyph-name="slash" unicode="/" 
d="M509 197l-315 313c-2.66699 1.33301 -4.66699 2 -6 2h-179c-6 0 -9 -3 -9 -9v-179c0 -1.33301 0.666992 -3.33301 2 -6l313 -315c0.666992 -2 2.66699 -3 6 -3c1.33301 0 3.33301 0.666992 6 2l183 183c1.33301 2.66699 2 4.66699 2 6c0 3.33301 -1 5.33301 -3 6z
M116 353c-12 0 -22.167 4.16699 -30.5 12.5s-12.5 18.5 -12.5 30.5s4.16699 22.167 12.5 30.5s18.5 12.5 30.5 12.5s22.167 -4.16699 30.5 -12.5s12.5 -18.5 12.5 -30.5s-4.16699 -22.167 -12.5 -30.5s-18.5 -12.5 -30.5 -12.5z" />
    <glyph glyph-name="zero" unicode="0" 
d="M374 34h-34c-18.667 0 -34.667 6.66699 -48 20s-20 29.333 -20 48v1v68h34c4.66699 0 8.66699 1.66699 12 5s5 7.33301 5 12s-1.66699 8.66699 -5 12s-7.33301 5 -12 5h-34v205c0 18.667 6.66699 34.667 20 48s29.333 20 48 20h34c4.66699 0 8.66699 1.66699 12 5
s5 7.33301 5 12s-1.66699 8.66699 -5 12s-7.33301 5 -12 5h-34c-36.667 0 -65 -15 -85 -45c-21.333 30 -50 45 -86 45h-34c-4.66699 0 -8.66699 -1.66699 -12 -5s-5 -7.33301 -5 -12s1.66699 -8.66699 5 -12s7.33301 -5 12 -5h34c19.333 0 35.666 -6.5 48.999 -19.5
s20 -29.167 20 -48.5v-205h-35c-4.66699 0 -8.66699 -1.66699 -12 -5s-5 -7.33301 -5 -12s1.66699 -8.66699 5 -12s7.33301 -5 12 -5h35v-68v-1c0 -19.333 -6.66699 -35.5 -20 -48.5s-29.666 -19.5 -48.999 -19.5h-34c-4.66699 0 -8.66699 -1.66699 -12 -5
s-5 -7.33301 -5 -12s1.66699 -8.66699 5 -12s7.33301 -5 12 -5h34c36 0 64.667 15 86 45c20 -30 48.333 -45 85 -45h34c4.66699 0 8.66699 1.66699 12 5s5 7.33301 5 12s-1.66699 8.66699 -5 12s-7.33301 5 -12 5z" />
    <glyph glyph-name="one" unicode="1" 
d="M507 29l-71 71c10.667 17.333 16 35.333 16 54c0 25.333 -9.16699 47.166 -27.5 65.499s-40.5 27.5 -66.5 27.5c-25.333 0 -47.166 -9.16699 -65.499 -27.5s-27.5 -40.166 -27.5 -65.499c0 -26 9.16699 -48.167 27.5 -66.5s40.166 -27.5 65.499 -27.5
c18.667 0 36.667 5.33301 54 16l71 -71c3.33301 -3.33301 7.33301 -5 12 -5s8.66699 1.66699 12 5c8 8 8 16 0 24zM404 137h-29v-29c0 -11.333 -5.66699 -17 -17 -17c-4.66699 0 -8.66699 1.66699 -12 5s-5 7.33301 -5 12v29h-23c-4.66699 0 -8.66699 1.66699 -12 5
s-5 7.33301 -5 12s1.66699 8.66699 5 12s7.33301 5 12 5h23v23c0 4.66699 1.66699 8.66699 5 12s7.33301 5 12 5s8.66699 -1.66699 12 -5s5 -7.33301 5 -12v-23h29c4.66699 0 8.66699 -1.66699 12 -5s5 -7.33301 5 -12c0 -11.333 -5.66699 -17 -17 -17zM375 427
c0 4.66699 -1.66699 8.66699 -5 12s-7.33301 5 -12 5s-8.66699 -1.66699 -12 -5s-5 -7.33301 -5 -12v-43c0 -4.66699 1.66699 -8.66699 5 -12s7.33301 -5 12 -5s8.66699 1.66699 12 5s5 7.33301 5 12v43zM358 350c-4.66699 0 -8.66699 -1.66699 -12 -5s-5 -7.33301 -5 -12
v-43c0 -4.66699 1.66699 -8.66699 5 -12s7.33301 -5 12 -5s8.66699 1.66699 12 5s5 7.33301 5 12v43c0 4.66699 -1.66699 8.66699 -5 12s-7.33301 5 -12 5zM17 375c4.66699 0 8.66699 1.83301 12 5.5s5 7.83398 5 12.501v34c0 4.66699 -1.66699 8.66699 -5 12
s-7.33301 5 -12 5s-8.66699 -1.66699 -12 -5s-5 -7.33301 -5 -12v-34c0 -4.66699 1.66699 -8.83398 5 -12.501s7.33301 -5.5 12 -5.5zM17 290c4.66699 0 8.66699 1.66699 12 5s5 7.33301 5 12v34c0 4.66699 -1.66699 8.66699 -5 12s-7.33301 5 -12 5
s-8.66699 -1.66699 -12 -5s-5 -7.33301 -5 -12v-34c0 -4.66699 1.66699 -8.66699 5 -12s7.33301 -5 12 -5zM17 205c4.66699 0 8.66699 1.66699 12 5s5 7.33301 5 12v34c0 4.66699 -1.66699 8.66699 -5 12s-7.33301 5 -12 5s-8.66699 -1.66699 -12 -5s-5 -7.33301 -5 -12v-34
c0 -4.66699 1.66699 -8.66699 5 -12s7.33301 -5 12 -5zM34 512h-17c-4.66699 0 -8.66699 -1.66699 -12 -5s-5 -7.33301 -5 -12v-17c0 -4.66699 1.66699 -8.66699 5 -12s7.33301 -5 12 -5s8.66699 1.66699 12 5s5 7.33301 5 12c4.66699 0 8.66699 1.66699 12 5
s5 7.33301 5 12s-1.66699 8.66699 -5 12s-7.33301 5 -12 5zM119 512h-34c-4.66699 0 -8.66699 -1.66699 -12 -5s-5 -7.33301 -5 -12s1.66699 -8.66699 5 -12s7.33301 -5 12 -5h34c4.66699 0 8.83398 1.66699 12.501 5s5.5 7.33301 5.5 12s-1.83301 8.66699 -5.5 12
s-7.83398 5 -12.501 5zM205 512h-34c-4.66699 0 -8.66699 -1.66699 -12 -5s-5 -7.33301 -5 -12s1.66699 -8.66699 5 -12s7.33301 -5 12 -5h34c4.66699 0 8.66699 1.66699 12 5s5 7.33301 5 12s-1.66699 8.66699 -5 12s-7.33301 5 -12 5zM34 171
c0 4.66699 -1.66699 8.66699 -5 12s-7.33301 5 -12 5s-8.66699 -1.66699 -12 -5s-5 -7.33301 -5 -12v-17c0 -4.66699 1.66699 -8.66699 5 -12s7.33301 -5 12 -5h17c11.333 0 17 5.66699 17 17c0 4.66699 -1.66699 8.66699 -5 12s-7.33301 5 -12 5zM119 171h-33.999
c-4.66699 0 -8.66699 -1.66699 -12 -5s-5 -7.33301 -5 -12s1.66699 -8.66699 5 -12s7.33301 -5 12 -5h34c12 0 18 5.66699 18 17c0 4.66699 -1.83301 8.66699 -5.5 12s-7.83398 5 -12.501 5zM205.001 171h-34c-4.66699 0 -8.66699 -1.66699 -12 -5s-5 -7.33301 -5 -12
c0 -11.333 5.66699 -17 17 -17h34c4.66699 0 8.66699 1.66699 12 5s5 7.33301 5 12s-1.66699 8.66699 -5 12s-7.33301 5 -12 5zM307.001 495c0 4.66699 -1.66699 8.66699 -5 12s-7.33301 5 -12 5h-34c-4.66699 0 -8.66699 -1.66699 -12 -5s-5 -7.33301 -5 -12
s1.66699 -8.66699 5 -12s7.33301 -5 12 -5h34c4.66699 0 8.66699 1.66699 12 5s5 7.33301 5 12zM341.001 478c0 -4.66699 1.66699 -8.66699 5 -12s7.33301 -5 12 -5c11.333 0 17 5.66699 17 17v17c0 4.66699 -1.66699 8.66699 -5 12s-7.33301 5 -12 5h-17
c-4.66699 0 -8.66699 -1.66699 -12 -5s-5 -7.33301 -5 -12s1.66699 -8.66699 5 -12s7.33301 -5 12 -5z" />
    <glyph glyph-name="two" unicode="2" 
d="M507 29l-190 190c27.333 32.667 41 70.667 41 114c0 49.333 -17.5 91.5 -52.5 126.5s-77.167 52.5 -126.5 52.5s-91.5 -17.5 -126.5 -52.5s-52.5 -77.167 -52.5 -126.5s17.5 -91.5 52.5 -126.5s77.167 -52.5 126.5 -52.5c43.333 0 81.333 13.667 114 41l190 -190
c3.33301 -3.33301 7.33301 -5 12 -5s8.66699 1.66699 12 5c8 8 8 16 0 24zM256 316h-60v-60c0 -4.66699 -1.66699 -8.66699 -5 -12s-7.33301 -5 -12 -5s-8.66699 1.66699 -12 5s-5 7.33301 -5 12v60h-60c-4.66699 0 -8.66699 1.66699 -12 5s-5 7.33301 -5 12
s1.66699 8.66699 5 12s7.33301 5 12 5h60v60c0 4.66699 1.66699 8.66699 5 12s7.33301 5 12 5s8.66699 -1.66699 12 -5s5 -7.33301 5 -12v-60h60c4.66699 0 8.66699 -1.66699 12 -5s5 -7.33301 5 -12s-1.66699 -8.66699 -5 -12s-7.33301 -5 -12 -5z" />
    <glyph glyph-name="three" unicode="3" 
d="M507 29l-190 190c27.333 32.667 41 70.667 41 114c0 49.333 -17.5 91.5 -52.5 126.5s-77.167 52.5 -126.5 52.5s-91.5 -17.5 -126.5 -52.5s-52.5 -77.167 -52.5 -126.5s17.5 -91.5 52.5 -126.5s77.167 -52.5 126.5 -52.5c43.333 0 81.333 13.667 114 41l190 -190
c3.33301 -3.33301 7.33301 -5 12 -5s8.66699 1.66699 12 5c8 8 8 16 0 24zM256 316h-154c-4.66699 0 -8.66699 1.66699 -12 5s-5 7.33301 -5 12s1.66699 8.66699 5 12s7.33301 5 12 5h154c4.66699 0 8.66699 -1.66699 12 -5s5 -7.33301 5 -12s-1.66699 -8.66699 -5 -12
s-7.33301 -5 -12 -5z" />
    <glyph glyph-name="four" unicode="4" 
d="M459 117l-139 139l71 71c2 2 2.66699 4.66699 2 8c0 2 -1.66699 4 -5 6l-307 111c-4 0.666992 -7 0 -9 -2c-4 -2.66699 -4.66699 -5.66699 -2 -9l102 -307c1.33301 -2.66699 3.33301 -4.66699 6 -6c4 0 6.66699 0.666992 8 2l79 72l139 -140
c2.66699 -1.33301 4.66699 -2 6 -2c2.66699 0 4.66699 0.666992 6 2l43 43c4 4 4 8 0 12z" />
    <glyph glyph-name="five" unicode="5" 
d="M512 200c-0.666992 0 -1.00098 0.333984 -1.00098 1.00098v2l-1 1v1l-1 1l-1 1c0 0.666992 -0.166992 1 -0.5 1s-0.5 0.333008 -0.5 1h-1l-65 57c-8.66699 7.33301 -16.667 7 -24 -1c-7.33301 -9.33301 -6.66602 -17.666 2.00098 -24.999l31 -27h-117v121l36 -36
c3.33301 -3.33301 7.33301 -5 12 -5s8.66699 1.66699 12 5c8.66699 8.66699 8.66699 16.667 0 24l-65 66c-3.33301 3.33301 -7.33301 5 -12 5s-8.66699 -1.66699 -12 -5l-65 -66c-8.66699 -7.33301 -8.66699 -15.333 0 -24c7.33301 -7.33301 15.333 -7.33301 24 0l36 36
v-121h-117l31 27c8 8 8.66699 16.333 2 25c-7.33301 7.33301 -15.666 7.66602 -24.999 0.999023l-65 -57l-2 -2v-1l-2 -2v-1l-1 -2v-1v-2l-1 -2l1 -1v-2v-1v-1c0.666992 -0.666992 1 -1.33398 1 -2.00098v-1l2 -2v-1c0.666992 0 1 -0.166992 1 -0.5s0.333008 -0.5 1 -0.5v-1
l65 -57c5.33301 -2.66699 9.33301 -4 12 -4c4.66699 0 9 2 13 6c7.33301 8.66699 6.66602 16.667 -2.00098 24l-31 27h117v-121l-36 36c-8.66699 8.66699 -16.667 8.66699 -24 0c-8.66699 -7.33301 -8.66699 -15.333 0 -24l65 -65c0 -1.33301 0.666992 -2 2 -2
c0.666992 0 1 -0.333008 1 -1c0.666992 0 1.33398 -0.333008 2.00098 -1h1l2 -1h4h3c0.666992 0 1 0.166992 1 0.5s0.333008 0.5 1 0.5h1l2 1l1 1c0.666992 0 1.66699 0.666992 3 2l65 65c8.66699 8.66699 8.66699 16.667 0 24c-8.66699 8.66699 -16.667 8.66699 -24 0
l-36 -36v121h117l-31 -27c-9.33301 -6.66699 -10 -14.667 -2 -24c3.33301 -4 7.66602 -6 12.999 -6c3.33301 0 7 1.33301 11 4l65 57c0 0.666992 0.333008 1 1 1l1 1l1 1l1 2c0 0.666992 0.333008 1 1 1v3c0.666992 0 1 0.333008 1 1v3v4zM127.999 288.001l16 80.001l80 16
c4 1.33301 6 3.66602 6 6.99902c0.666992 3.33301 -0.666016 6.33301 -3.99902 9l-214 111c-3.33301 2.66699 -6.33301 2 -9 -2c-4 -2.66699 -4.66699 -5.66699 -2 -9l111 -214c0.666992 -2.66699 3 -4 7 -4h2c3.33301 0 5.66602 2 6.99902 6z" />
    <glyph glyph-name="six" unicode="6" 
d="M235 387c0 4 -1.66504 7.00195 -4.99805 9.00195l-213 111c-4.66699 1.33301 -8 0.666016 -10 -2.00098c-2.66699 -2 -3.33398 -5.33301 -2.00098 -10l111 -213c2 -3.33301 4.66699 -5 8 -5h1c3.33301 0.666992 5.66602 3 6.99902 7l16 80l80 16
c4 1.33301 6.33301 3.66602 7 6.99902zM337.002 346.002c-47.333 0 -87.666 -16.667 -120.999 -50s-50 -73.666 -50 -120.999s16.667 -87.666 50 -120.999s73.666 -50 120.999 -50s87.666 16.667 120.999 50s50 73.666 50 120.999s-16.667 87.666 -50 120.999
s-73.666 50 -120.999 50zM422.002 166.002h-76v-76c0 -6 -3 -9 -9 -9c-5.33301 0 -8 3 -8 9v76h-77c-6 0 -9 3 -9 9c0 5.33301 3 8 9 8h77v77c0 6 2.66699 9 8 9c6 0 9 -3 9 -9v-77h76c6 0 9 -2.66699 9 -8c0 -6 -3 -9 -9 -9z" />
    <glyph glyph-name="seven" unicode="7" 
d="M507 307l-495 204c-3.33301 2.66699 -6.33301 2 -9 -2c-4 -2.66699 -4.66699 -5.66699 -2 -9l204 -495c1.33301 -3.33301 4 -5 8 -5s6.66699 2 8 6l63 222l222 63c4 1.33301 6 4 6 8s-1.66699 6.66699 -5 8z" />
    <glyph glyph-name="eight" unicode="8" 
d="M512 263c0 0.666992 -0.168945 0.998047 -0.501953 0.998047s-0.5 0.333008 -0.5 1v2l-1 1v1l-1 1l-2 2l-60 60c-7.33301 8.66699 -15.333 8.66699 -24 0s-8.66699 -16.667 0 -24l31 -31h-179v172l33 -32c2.66699 -3.33301 6.66699 -5 12 -5s9.33301 1.66699 12 5
c8.66699 7.33301 8.66699 15.333 0 24l-62 62l-2 2h-2l-1 1c-0.666992 0 -1 0.166992 -1 0.5s-0.333008 0.5 -1 0.5h-1l-2 1h-2v0h-1c-0.666992 -0.666992 -1.33398 -1 -2.00098 -1h-2l-1 -1c-0.666992 0 -1.33398 -0.333008 -2.00098 -1h-1
c-1.33301 -1.33301 -2.33301 -2 -3 -2l-62 -62c-7.33301 -8.66699 -7.33301 -16.667 0 -24c8 -8.66699 16.333 -8.66699 25 0l32 32v-172h-174l30 31c8.66699 7.33301 8.66699 15.333 0 24c-7.33301 8.66699 -15.333 8.66699 -24 0l-59 -60
c-1.33301 -1.33301 -2.33301 -2 -3 -2v-2l-1 -1l-1 -2v-2c-0.666992 -2 -0.666992 -4 0 -6v-2l1 -1c0 -1.33301 0.333008 -2 1 -2v-1l3 -3l59 -60c4.66699 -3.33301 8.66699 -5 12 -5c4.66699 0 8.66699 1.66699 12 5c8.66699 8.66699 8.66699 16.667 0 24l-30 31h174v-185
l-32 33c-8.66699 8.66699 -17 8.66699 -25 0c-7.33301 -8.66699 -7.33301 -16.667 0 -24l62 -62c1.33301 -1.33301 2.33301 -2 3 -2l1 -1c0.666992 0 1.33398 -0.333008 2.00098 -1h1c0.666992 -0.666992 1.33398 -1 2.00098 -1h3h4c0.666992 0.666992 1.33398 1 2.00098 1
h1c0.666992 0.666992 1.33398 1 2.00098 1c0 0.666992 0.333008 1 1 1l2 2l62 62c8.66699 7.33301 8.66699 15.333 0 24c-8 8 -16 8 -24 0l-33 -33v185h179l-31 -31c-8.66699 -7.33301 -8.66699 -15.333 0 -24c3.33301 -3.33301 7.33301 -5 12 -5s8.66699 1.66699 12 5
l60 60c0.666992 0 1 0.333008 1 1s0.333008 1.33398 1 2.00098l1 1c0 0.666992 0.333008 1.33398 1 2.00098v1c0 0.666992 0.166992 1 0.5 1s0.5 0.333008 0.5 1v6z" />
    <glyph glyph-name="nine" unicode="9" 
d="M507 29l-98 98.001l55 24c3.33301 1.33301 5 4 5 8c0 3.33301 -1.66699 6 -5 8l-183 75c-4 1.33301 -7.33301 0.666016 -10 -2.00098s-3 -5.66699 -1 -9l75 -183c1.33301 -3.33301 4 -5 8 -5c3.33301 0 6 1.66699 8 5l23 55l99 -98c3.33301 -3.33301 7.33301 -5 12 -5
s8.66699 1.66699 12 5c8.66699 8.66699 8.66699 16.667 0 24zM375 418.001c0 11.333 -5.66699 17.001 -17 17.001c-4.66699 0 -8.66699 -1.66699 -12 -5s-5 -7.33301 -5 -12v-25c0 -4.66699 1.66699 -8.83398 5 -12.501s7.33301 -5.5 12 -5.5c11.333 0 17 6 17 18v25z
M358 358.002c-4.66699 0 -8.66699 -1.66699 -12 -5s-5 -7.33301 -5 -12v-25c0 -4.66699 1.66699 -8.66699 5 -12s7.33301 -5 12 -5c11.333 0 17 5.66699 17 17v25c0 11.333 -5.66699 17 -17 17zM17 375.002c4.66699 0 8.66699 1.83301 12 5.5s5 7.83398 5 12.501v25
c0 4.66699 -1.66699 8.66699 -5 12s-7.33301 5 -12 5s-8.66699 -1.66699 -12 -5s-5 -7.33301 -5 -12v-25c0 -4.66699 1.66699 -8.83398 5 -12.501s7.33301 -5.5 12 -5.5zM17 299.002c4.66699 0 8.66699 1.66699 12 5s5 7.33301 5 12v25c0 4.66699 -1.66699 8.66699 -5 12
s-7.33301 5 -12 5s-8.66699 -1.66699 -12 -5s-5 -7.33301 -5 -12v-25c0 -4.66699 1.66699 -8.66699 5 -12s7.33301 -5 12 -5zM17 213.002c4.66699 0 8.66699 1.66699 12 5s5 7.33301 5 12v26c0 4.66699 -1.66699 8.66699 -5 12s-7.33301 5 -12 5s-8.66699 -1.66699 -12 -5
s-5 -7.33301 -5 -12v-26c0 -4.66699 1.66699 -8.66699 5 -12s7.33301 -5 12 -5zM43 512.002h-26c-4.66699 0 -8.66699 -1.66699 -12 -5s-5 -7.33301 -5 -12v-26c0 -4.66699 1.66699 -8.66699 5 -12s7.33301 -5 12 -5s8.66699 1.66699 12 5s5 7.33301 5 12v9h9
c4.66699 0 8.66699 1.66699 12 5s5 7.33301 5 12s-1.66699 8.66699 -5 12s-7.33301 5 -12 5zM94 478.002h25c4.66699 0 8.83398 1.66699 12.501 5s5.5 7.33301 5.5 12s-1.83301 8.66699 -5.5 12s-7.83398 5 -12.501 5h-25c-4.66699 0 -8.66699 -1.66699 -12 -5
s-5 -7.33301 -5 -12s1.66699 -8.66699 5 -12s7.33301 -5 12 -5zM196 478.002c4.66699 0 8.66699 1.66699 12 5s5 7.33301 5 12s-1.66699 8.66699 -5 12s-7.33301 5 -12 5h-25c-4.66699 0 -8.66699 -1.66699 -12 -5s-5 -7.33301 -5 -12s1.66699 -8.66699 5 -12
s7.33301 -5 12 -5h25zM43 171.002h-9v8c0 4.66699 -1.66699 8.66699 -5 12s-7.33301 5 -12 5s-8.66699 -1.66699 -12 -5s-5 -7.33301 -5 -12v-25c0 -4.66699 1.66699 -8.66699 5 -12s7.33301 -5 12 -5h26c4.66699 0 8.66699 1.66699 12 5s5 7.33301 5 12
s-1.66699 8.66699 -5 12s-7.33301 5 -12 5zM128 171.002h-34c-4.66699 0 -8.66699 -1.66699 -12 -5s-5 -7.33301 -5 -12c0 -11.333 5.66699 -17 17 -17h34c4.66699 0 8.66699 1.66699 12 5s5 7.33301 5 12s-1.66699 8.66699 -5 12s-7.33301 5 -12 5zM213 171.002h-34
c-4.66699 0 -8.66699 -1.66699 -12 -5s-5 -7.33301 -5 -12s1.66699 -8.66699 5 -12s7.33301 -5 12 -5h34c11.333 0 17 5.66699 17 17c0 4.66699 -1.66699 8.66699 -5 12s-7.33301 5 -12 5zM290 495.002c0 4.66699 -1.66699 8.66699 -5 12s-7.33301 5 -12 5h-26
c-4.66699 0 -8.66699 -1.66699 -12 -5s-5 -7.33301 -5 -12s1.66699 -8.66699 5 -12s7.33301 -5 12 -5h26c4.66699 0 8.66699 1.66699 12 5s5 7.33301 5 12zM333 478.002h8v-9c0 -4.66699 1.66699 -8.66699 5 -12s7.33301 -5 12 -5s8.66699 1.66699 12 5s5 7.33301 5 12v26
c0 4.66699 -1.66699 8.66699 -5 12s-7.33301 5 -12 5h-25c-4.66699 0 -8.66699 -1.66699 -12 -5s-5 -7.33301 -5 -12s1.66699 -8.66699 5 -12s7.33301 -5 12 -5z" />
    <glyph glyph-name="colon" unicode=":" 
d="M509 197l-315 313c-2.66699 1.33301 -4.66699 2 -6 2h-179c-6 0 -9 -3 -9 -9v-179c0 -1.33301 0.666992 -3.33301 2 -6l313 -315c0.666992 -2 2.66699 -3 6 -3h2c3.33301 1.33301 5.33301 3.33301 6 6l41 136l136 41c2.66699 0.666992 4.66699 2.66699 6 6
c0 4 -1 6.66699 -3 8zM116 353c-12 0 -22.167 4.16699 -30.5 12.5s-12.5 18.5 -12.5 30.5s4.16699 22.167 12.5 30.5s18.5 12.5 30.5 12.5s22.167 -4.16699 30.5 -12.5s12.5 -18.5 12.5 -30.5s-4.16699 -22.167 -12.5 -30.5s-18.5 -12.5 -30.5 -12.5z" />
    <glyph glyph-name="semicolon" unicode=";" 
d="M401 222c-30.667 0 -56.834 -10.833 -78.501 -32.5s-32.5 -47.834 -32.5 -78.501s10.833 -56.834 32.5 -78.501s47.834 -32.5 78.501 -32.5s56.834 10.833 78.501 32.5s32.5 47.834 32.5 78.501s-10.833 56.834 -32.5 78.501s-47.834 32.5 -78.501 32.5zM452 102h-42v-42
c0 -6 -3 -9 -9 -9c-5.33301 0 -8 3 -8 9v42h-43c-6 0 -9 3 -9 9c0 5.33301 3 8 9 8h43v43c0 6 2.66699 9 8 9c6 0 9 -3 9 -9v-43h42c6 0 9 -2.66699 9 -8c0 -6 -3 -9 -9 -9zM427 375v128c0 3.33301 -1 5.33301 -3 6c-1.33301 2 -3.33301 3 -6 3h-146c-2 0 -4 -1 -6 -3
l-263 -263c-5.33301 -4 -5.33301 -8 0 -12l134 -135c2.66699 -1.33301 4.66699 -2 6 -2s3.33301 0.666992 6 2l275 270c2 2 3 4 3 6zM331 396c-8.66699 0 -16.167 3 -22.5 9s-9.5 13.667 -9.5 23s3.16699 17 9.5 23s13.833 9 22.5 9c9.33301 0 17.166 -3.16699 23.499 -9.5
s9.5 -13.833 9.5 -22.5s-3.16699 -16.167 -9.5 -22.5s-14.166 -9.5 -23.499 -9.5z" />
    <glyph glyph-name="less" unicode="&#x3c;" 
d="M401 222c-30.667 0 -56.834 -10.833 -78.501 -32.5s-32.5 -47.834 -32.5 -78.501s10.833 -56.834 32.5 -78.501s47.834 -32.5 78.501 -32.5s56.834 10.833 78.501 32.5s32.5 47.834 32.5 78.501s-10.833 56.834 -32.5 78.501s-47.834 32.5 -78.501 32.5zM452 102h-102
c-6 0 -9 3 -9 9c0 5.33301 3 8 9 8h102c6 0 9 -2.66699 9 -8c0 -6 -3 -9 -9 -9zM415 374v129c0 2.66699 -0.666992 4.66699 -2 6c-2 2 -4 3 -6 3h-135c-2 0 -4 -1 -6 -3l-263 -263c-5.33301 -4 -5.33301 -8 0 -12l134 -135c2.66699 -1.33301 4.66699 -2 6 -2
c2.66699 0 4.66699 0.666992 6 2l264 269c1.33301 2.66699 2 4.66699 2 6zM331 396c-8.66699 0 -16.167 3 -22.5 9s-9.5 13.667 -9.5 23s3.16699 17 9.5 23s13.833 9 22.5 9c9.33301 0 17.166 -3.16699 23.499 -9.5s9.5 -13.833 9.5 -22.5s-3.16699 -16.167 -9.5 -22.5
s-14.166 -9.5 -23.499 -9.5z" />
    <glyph glyph-name="equal" unicode="=" 
d="M172 467c-1.33301 1.33301 -3.33301 2 -6 2h-153c-6 0 -9 -2.66699 -9 -8v-145c0 -2.66699 1 -4.66699 3 -6l301 -299c1.33301 -1.33301 3.33301 -2 6 -2s4.66699 0.666992 6 2l151 151c1.33301 1.33301 2 3.33301 2 6c0 1.33301 -0.666992 3.33301 -2 6zM110 340
c-9.33301 0 -17.166 3.16699 -23.499 9.5s-9.5 13.833 -9.5 22.5s3.16699 16.167 9.5 22.5s14.166 9.5 23.499 9.5c8.66699 0 16.167 -3.16699 22.5 -9.5s9.5 -13.833 9.5 -22.5s-3.16699 -16.167 -9.5 -22.5s-13.833 -9.5 -22.5 -9.5zM505 228l-281 281c-2 2 -4 3 -6 3
h-145c-6 0 -9 -3 -9 -9c0 -5.33301 3 -8 9 -8h141l273 -273l-11 -11c-3.33301 -4.66699 -3.33301 -8.66699 0 -12c2 -2 4 -3 6 -3c2.66699 0 4.66699 1 6 3l17 17c5.33301 4 5.33301 8 0 12z" />
    <glyph glyph-name="greater" unicode="&#x3e;" 
d="M170 463c-1.33301 1.33301 -3.33301 2.00195 -6 2.00195h-153c-6 0 -9 -3 -9 -9v-145c0 -2 1 -4 3 -6l301 -298c2 -2 4 -3 6 -3h2c3.33301 1.33301 5.33301 3.33301 6 6l42 104l104 41c2 1.33301 3.66699 3.66602 5 6.99902c0 3.33301 -0.666992 5.66602 -2 6.99902z
M108 335.002c-9.33301 0 -17.166 3.16895 -23.499 9.50195s-9.5 14.166 -9.5 23.499c0 8.66699 3.16699 16.167 9.5 22.5s14.166 9.5 23.499 9.5c8.66699 0 16.167 -3.16699 22.5 -9.5s9.5 -13.833 9.5 -22.5s-3.16699 -16.334 -9.5 -23.001s-13.833 -10 -22.5 -10z
M507 226.004l-281 279.001c-2 2 -4 3 -6 3h-154c-5.33301 0 -8 -3 -8 -9c0 -5.33301 2.66699 -8 8 -8h150l269 -268l-19 -6c-5.33301 -2.66699 -7 -6.33398 -5 -11.001c1.33301 -4 4 -6 8 -6c1.33301 0 2.33301 0.333008 3 1l32 10c2.66699 0.666992 4.66699 3 6 7
c0 3.33301 -1 6 -3 8z" />
    <glyph glyph-name="question" unicode="?" 
d="M487 427c6 0 9 2.66699 9 8v68c0 6 -3 9 -9 9h-68c-5.33301 0 -8 -3 -8 -9v-25h-325v25c0 6 -2.66699 9 -8 9h-69c-5.33301 0 -8 -3 -8 -9v-68c0 -5.33301 2.66699 -8 8 -8h26v-325h-26c-5.33301 0 -8 -2.66699 -8 -8v-68c0 -6 2.66699 -9 8 -9h69c5.33301 0 8 3 8 9v25
h325v-25c0 -6 2.66699 -9 8 -9h68c6 0 9 3 9 9v68c0 5.33301 -3 8 -9 8h-25v325h25zM445 102h-26c-5.33301 0 -8 -2.66699 -8 -8v-26h-325v26c0 5.33301 -2.66699 8 -8 8h-26v325h26c5.33301 0 8 2.66699 8 8v26h325v-26c0 -5.33301 2.66699 -8 8 -8h26v-325z" />
    <glyph glyph-name="at" unicode="@" 
d="M444 384v-239c0 -5.33301 2.66699 -8 8 -8c6 0 9 2.66699 9 8v239c0 6 -3 9 -9 9c-5.33301 0 -8 -3 -8 -9zM367 478h-239c-6 0 -9 -3 -9 -9c0 -5.33301 3 -8 9 -8h239c5.33301 0 8 2.66699 8 8c0 6 -2.66699 9 -8 9zM51 145v230c0 6 -2.66699 9 -8 9c-6 0 -9 -3 -9 -9
v-230c0 -5.33301 3 -8 9 -8c5.33301 0 8 2.66699 8 8zM367 68h-239c-6 0 -9 -2.66699 -9 -8c0 -6 3 -9 9 -9h239c5.33301 0 8 3 8 9c0 5.33301 -2.66699 8 -8 8zM452 427c12 0 22.167 4.16699 30.5 12.5s12.5 18.166 12.5 29.499c0 12 -4.16699 22.167 -12.5 30.5
s-18.5 12.5 -30.5 12.5c-11.333 0 -21.166 -4.16699 -29.499 -12.5s-12.5 -18.5 -12.5 -30.5c0 -11.333 4.16699 -21.166 12.5 -29.499s18.166 -12.5 29.499 -12.5zM43 512c-12 0 -22.167 -4.16699 -30.5 -12.5s-12.5 -18.5 -12.5 -30.5
c0 -11.333 4.16699 -21.166 12.5 -29.499s18.5 -12.5 30.5 -12.5c11.333 0 21.166 4.16699 29.499 12.5s12.5 18.166 12.5 29.499c0 12 -4.16699 22.167 -12.5 30.5s-18.166 12.5 -29.499 12.5zM452 102c-11.333 0 -21.166 -4.16699 -29.499 -12.5
s-12.5 -18.166 -12.5 -29.499c0 -12 4.16699 -22.167 12.5 -30.5s18.166 -12.5 29.499 -12.5c12 0 22.167 4.16699 30.5 12.5s12.5 18.5 12.5 30.5c0 11.333 -4.16699 21.166 -12.5 29.499s-18.5 12.5 -30.5 12.5zM43 102c-12 0 -22.167 -4.16699 -30.5 -12.5
s-12.5 -18.166 -12.5 -29.499c0 -12 4.16699 -22.167 12.5 -30.5s18.5 -12.5 30.5 -12.5c11.333 0 21.166 4.16699 29.499 12.5s12.5 18.5 12.5 30.5c0 11.333 -4.16699 21.166 -12.5 29.499s-18.166 12.5 -29.499 12.5z" />
    <glyph glyph-name="A" unicode="A" 
d="M304 188h8c-1.33301 17.333 -8.5 32.5 -21.5 45.5s-28.167 20.167 -45.5 21.5v-8c0 -5.33301 -3 -8 -9 -8c-5.33301 0 -8 2.66699 -8 8v8c-18 -1.33301 -33.333 -8.33301 -46 -21s-20 -28 -22 -46h8c5.33301 0 8 -3 8 -9c0 -5.33301 -2.66699 -8 -8 -8h-8
c2 -18 9.33301 -33.333 22 -46s28 -20 46 -22v8c0 5.33301 2.66699 8 8 8c6 0 9 -2.66699 9 -8v-8c18 2 33.333 9.33301 46 22s19.667 28 21 46h-8c-5.33301 0 -8 2.66699 -8 8c0 6 2.66699 9 8 9zM236 162c-4.66699 0 -8.66699 1.66699 -12 5s-5 7.33301 -5 12
s1.66699 8.66699 5 12s7.33301 5 12 5c11.333 0 17 -5.66699 17 -17c0 -4.66699 -1.66699 -8.66699 -5 -12s-7.33301 -5 -12 -5zM347 309l0.000976562 91.999c0 30 -10.333 54.5 -31 73.5s-47.334 28.5 -80.001 28.5c-30 0 -55.667 -9.66699 -77 -29
s-32.666 -43.666 -33.999 -72.999v-92c-39.333 -34.667 -59 -78 -59 -130c0 -47.333 16.667 -87.5 50 -120.5s73.333 -49.5 120 -49.5c47.333 0 87.666 16.667 120.999 50s50 73.333 50 120c0 52 -20 95.333 -60 130zM236.001 485.999c28 0 50.665 -7.83301 67.998 -23.5
s26 -36.167 26 -61.5v-79c-29.333 18.667 -60.666 28 -93.999 28s-64.666 -9.33301 -93.999 -28v79c1.33301 22.667 10.5 42.5 27.5 59.5s39.167 25.5 66.5 25.5zM346.999 170.999h-17c-2 -22.667 -11 -42 -27 -58s-35.333 -25 -58 -27v-18c0 -5.33301 -3 -8 -9 -8
c-5.33301 0 -8 2.66699 -8 8v18c-22.667 2 -42 11 -58 27s-25 35.333 -27 58h-18c-5.33301 0 -8 2.66699 -8 8c0 6 2.66699 9 8 9h18c2 22.667 11 42 27 58s35.333 25 58 27v17c0 6 2.66699 9 8 9c6 0 9 -3 9 -9v-17c22.667 -2 42 -11 58 -27s25 -35.333 27 -58h17
c6 0 9 -3 9 -9c0 -5.33301 -3 -8 -9 -8z" />
    <glyph glyph-name="B" unicode="B" 
d="M256 512c-70.667 0 -131 -25 -181 -75s-75 -110.333 -75 -181s25 -131 75 -181s110.333 -75 181 -75s131 25 181 75s75 110.333 75 181s-25 131 -75 181s-110.333 75 -181 75zM333 94h-145l34 162c-28.667 14 -43 36.667 -43 68c0 21.333 7.5 39.5 22.5 54.5
s33.167 22.5 54.5 22.5c20.667 0 38.667 -7.5 54 -22.5s23 -32.833 23 -53.5c0 -32 -14.333 -55 -43 -69z" />
    <glyph glyph-name="C" unicode="C" 
d="M452 495h-392c-9.33301 0 -17.333 -3.33301 -24 -10s-10 -14.667 -10 -24v-393c0 -9.33301 3.33301 -17.333 10 -24s14.667 -10 24 -10h392c9.33301 0 17.333 3.33301 24 10s10 14.667 10 24v393c0 9.33301 -3.33301 17.333 -10 24s-14.667 10 -24 10zM324 111h-145
l34 162c-28 13.333 -42 36 -42 68c0 20.667 7.5 38.667 22.5 54s32.833 23 53.5 23s38.667 -7.5 54 -22.5s23 -32.833 23 -53.5c0 -32.667 -14 -55.667 -42 -69z" />
    <glyph glyph-name="D" unicode="D" 
d="M384 283l-0.000976562 117.999c0 30.667 -11.667 56.834 -35 78.501s-51.666 32.5 -84.999 32.5c-32 0 -58.5 -10.5 -79.5 -31.5s-31.5 -47.5 -31.5 -79.5h17c0 27.333 9 49.833 27 67.5s40.333 26.5 67 26.5c28.667 0 52.834 -9 72.501 -27s29.5 -40.333 29.5 -67v-101
c-30.667 27.333 -67.334 41 -110.001 41c-47.333 0 -87.666 -16.5 -120.999 -49.5s-50 -73.167 -50 -120.5s16.667 -87.666 50 -120.999s73.666 -50 120.999 -50c46.667 0 86.667 16.667 120 50s50 73.666 50 120.999c0 42.667 -14 80 -42 112zM263.999 155.999
l-0.000976562 -62c0 -6 -2.66699 -9 -8 -9c-6 0 -9 3 -9 9v62c-6 3.33301 -9 8.33301 -9 15c0 4.66699 1.83301 8.66699 5.5 12s7.83398 5 12.501 5s8.66699 -1.66699 12 -5s5 -7.33301 5 -12c0 -6.66699 -3 -11.667 -9 -15z" />
    <glyph glyph-name="E" unicode="E" 
d="M370 307l0.00195312 68c0 34.667 -12.167 66.167 -36.5 94.5s-54.833 42.5 -91.5 42.5s-67.167 -14.167 -91.5 -42.5s-36.5 -59.833 -36.5 -94.5h17c0 30.667 10.667 58.334 32 83.001s47.666 37 78.999 37s57.666 -12.333 78.999 -37s32 -52.334 32 -83.001v-68h-290
v-307h358v307h-51zM250.002 173v-58c0 -6 -2.66699 -9 -8 -9c-6 0 -9 3 -9 9v58c-5.33301 3.33301 -8 8.33301 -8 15c0 4.66699 1.66699 8.66699 5 12s7.33301 5 12 5s8.66699 -1.66699 12 -5s5 -7.33301 5 -12c0 -6.66699 -3 -11.667 -9 -15z" />
    <glyph glyph-name="F" unicode="F" 
d="M507 29l-185.001 184.999c28 34.667 42 73.334 42 116.001c0 50 -17.833 92.833 -53.5 128.5s-78.5 53.5 -128.5 53.5s-92.833 -17.833 -128.5 -53.5s-53.5 -78.5 -53.5 -128.5s17.833 -92.833 53.5 -128.5s78.5 -53.5 128.5 -53.5c42.667 0 81.334 14 116.001 42
l185 -185c3.33301 -3.33301 7.33301 -5 12 -5s8.66699 1.66699 12 5c8 8 8 16 0 24zM181.999 181.999c-40.667 0 -75.5 14.5 -104.5 43.5s-43.5 63.833 -43.5 104.5c0 41.333 14.333 76.333 43 105s63.667 43 105 43c40.667 0 75.5 -14.5 104.5 -43.5
s43.5 -63.833 43.5 -104.5s-14.5 -75.5 -43.5 -104.5s-63.833 -43.5 -104.5 -43.5z" />
    <glyph glyph-name="G" unicode="G" 
d="M446 506l-15.999 -17c-11.333 11.333 -24.333 17 -39 17c-16 0 -29 -5.66699 -39 -17l-120 -119c-6 -6 -6 -12 0 -18c2.66699 -2.66699 5.66699 -4 9 -4c4 0 7.33301 1.33301 10 4l119 119c5.33301 6 12.166 9 20.499 9s15.5 -3 21.5 -9l-85 -85l-3 -2l60 -60l3 3
l119 119zM165.001 105l-60 60l207 207l60 -60zM48.001 131c-13.333 -13.333 -27.333 -51 -42 -113l59 59c4 4 8 4 12 0s4 -8 0 -12l-59 -59c62 14.667 99.667 28.667 113 42c12.667 12.667 19 26.5 19 41.5s-6.33301 28.833 -19 41.5s-26.5 19 -41.5 19
s-28.833 -6.33301 -41.5 -19z" />
    <glyph glyph-name="H" unicode="H" 
d="M81 113c-4.66699 3.33301 -8.66699 3.33301 -12 0c-4.66699 -4.66699 -4.66699 -8.66699 0 -12l11 -11l-45 -45c-4.66699 -4.66699 -4.66699 -9 0 -13c1.33301 -1.33301 3.33301 -2 6 -2c1.33301 0 3.33301 0.666992 6 2l45 46l11 -11c0.666992 -2 2.66699 -3 6 -3
c2 0 4 1 6 3c3.33301 3.33301 3.33301 7.33301 0 12zM420 478l-12 -12c-12 10.667 -25 16 -39 16s-27 -5.33301 -39 -16l-119 -120c-6 -6 -6 -12 0 -18c2.66699 -2.66699 5.66699 -4 9 -4c2 0 5 1.33301 9 4l119 120c14 12.667 28 12.667 42 0l-89 -90l-3 -2l60 -60l3 3
l119 119zM139 77l-60 59l207 208l60 -60z" />
    <glyph glyph-name="I" unicode="I" 
d="M90 149l12 -13l-51 -51l11 -11l-38 -38c-4 -4 -4 -8 0 -12c2 -2 4 -3 6 -3s4 1 6 3l38 38l11 -11l52 51l12 -12l208 207l-60 59zM431 491l-16.998 -17c-10 11.333 -23 17 -39 17c-15.333 0 -28 -5.66699 -38 -17l-120 -119c-6 -6 -6 -12 0 -18
c2.66699 -2.66699 5.66699 -4 9 -4c4 0 7 1.33301 9 4l120 119c5.33301 6 12.166 9 20.499 9s15.166 -3 20.499 -9l-84 -85l-3 -2l60 -60l2 2l120 120z" />
    <glyph glyph-name="J" unicode="J" 
d="M288 334l-201 -201l48 -48l201 202l-24 23zM48 46l72 30l-42 42zM416 462l-15.001 -14.999l-1 2c-4 4 -8 7 -12 9c-8.66699 5.33301 -17.667 8 -27 8c-16 0 -29 -5.66699 -39 -17l-120 -119c-6 -6 -6 -12 0 -18c2.66699 -2.66699 5.66699 -4 9 -4c4 0 7 1.33301 9 4
l120 119c8 8 17.333 10.667 28 8c6.66699 -2.66699 11.334 -5.33398 14.001 -8.00098c0 -0.666992 0.666992 -1 2 -1l-84 -84l48 -47l116 116z" />
    <glyph glyph-name="K" unicode="K" 
d="M484 484c-8 8.66699 -17.833 13 -29.5 13s-21.5 -4.33301 -29.5 -13l-20 -19l60 -60l19 20c8.66699 8 13 17.833 13 29.5s-4.33301 21.5 -13 29.5zM15 15l111 56l-55 55zM141 81l-60 60l312 312l60 -60z" />
    <glyph glyph-name="L" unicode="L" 
d="M23 23l108 27l-81 81zM483 432l-51.001 51c-5.33301 4 -11 6 -17 6c-11.333 0 -21.666 -5 -30.999 -15l-3 -2l91 -91l2 3c18.667 18.667 21.667 34.667 9 48zM146.999 57l-90 90l287 287l90 -90zM445.999 356l-90 90l13 14l91 -91z" />
    <glyph glyph-name="M" unicode="M" 
d="M482 428l-54 54c-5.33301 5.33301 -12.333 8 -21 8s-15.667 -2.66699 -21 -8l-30 -29l97 -97l29 30c6 6 9 13 9 21s-3 15 -9 21zM143 130v-51l19 -13l245 244l-43 42zM130 142l222 222l-42 43l-244 -245l13 -20h51zM322 419l97 -97l22 22l-97 97zM125 74v51h-51
c-2 0 -4.33301 1.33301 -7 4l-10 15l-15 -51l51 -51l51 15l-15 10c-2.66699 2.66699 -4 5 -4 7zM21 21l53 16l-37 37z" />
    <glyph glyph-name="N" unicode="N" 
d="M510 356l-154 153c-4 5.33301 -8 5.33301 -12 0l-43 -42c-3.33301 -4.66699 -3.33301 -8.66699 0 -12l20 -20l-94 -94h-90c-2.66699 0 -4.66699 -0.666992 -6 -2l-35 -34c-3.33301 -4.66699 -3.33301 -8.66699 0 -12l92 -92l-185 -186
c-4.66699 -4.66699 -4.66699 -9 0 -13c1.33301 -1.33301 3.33301 -2 6 -2c1.33301 0 3.33301 0.666992 6 2l186 186l92 -92c1.33301 -1.33301 3.33301 -2 6 -2c1.33301 0 3.33301 0.666992 6 2l34 34c1.33301 2.66699 2 5 2 7v90l94 94l20 -20
c3.33301 -3.33301 7.33301 -3.33301 12 0l43 43c4 4 4 8 0 12z" />
    <glyph glyph-name="O" unicode="O" 
d="M410 512c-28.667 0 -53 -10 -73 -30s-30 -44 -30 -72c0 -22 6.33301 -42 19 -60l-321 -321c-8 -8 -8 -16 0 -24c3.33301 -3.33301 7.33301 -5 12 -5s8.66699 1.66699 12 5l321 321c18 -12.667 38 -19 60 -19c28 0 52 10 72 30s30 44.333 30 73c0 28 -10 52 -30 72
s-44 30 -72 30z" />
    <glyph glyph-name="P" unicode="P" 
d="M374 341l-96.001 -0.000976562l103 158c2.66699 2.66699 2.66699 5.66699 0 9c-1.33301 2.66699 -3.66602 4 -6.99902 4h-180c-4 0 -6.66699 -2.33301 -8 -7l-60 -256c0 -3.33301 0.666992 -5.66602 2 -6.99902c2 -2 4.33301 -3 7 -3h74l-65 -228
c-2 -4 -0.666992 -7.33301 4 -10c0.666992 -0.666992 2 -1 4 -1c2.66699 -0 5 1.33301 7 4l222 324c1.33301 4 1.33301 7 0 9c-0.666992 2.66699 -3 4 -7 4z" />
    <glyph glyph-name="Q" unicode="Q" 
d="M434 303c-1.33301 2.66699 -3.66699 4 -7 4h-162l41 195c1.33301 4.66699 -0.333984 7.66699 -5.00098 9c-4.66699 2 -8 1 -10 -3l-216 -307c-2 -3.33301 -2 -6.33301 0 -9c0.666992 -2.66699 3 -4 7 -4h162l-41 -178c-1.33301 -4.66699 0.333984 -7.66699 5.00098 -9
c0.666992 -0.666992 2 -1 4 -1c2.66699 0 4.66699 1 6 3l216 291c2.66699 2.66699 2.66699 5.66699 0 9z" />
    <glyph glyph-name="R" unicode="R" 
d="M255 341c-20.667 0 -38.5 -7.5 -53.5 -22.5s-22.5 -32.833 -22.5 -53.5c0 -21.333 7.33301 -39.5 22 -54.5s32.667 -22.5 54 -22.5s39.5 7.5 54.5 22.5s22.5 33.167 22.5 54.5s-7.5 39.333 -22.5 54s-33.167 22 -54.5 22zM510 261
c-82.667 99.333 -167.664 149 -254.997 149c-86.667 0 -171.334 -49.667 -254.001 -149c-2.66699 -4 -2.33398 -7.66699 0.999023 -11c2.66699 -3.33301 7.5 -8.66602 14.5 -15.999s19.167 -18 36.5 -32s35.333 -26.833 54 -38.5s41.5 -22 68.5 -31s53.5 -13.5 79.5 -13.5
s52.5 4.5 79.5 13.5s50 19.333 69 31s37.167 24.5 54.5 38.5s29.5 24.667 36.5 32s11.833 12.666 14.5 15.999c3.33301 3.33301 3.66602 7 0.999023 11zM255.003 171c-25.333 0 -47.166 9.16699 -65.499 27.5s-27.5 40.5 -27.5 66.5c0 25.333 9.16699 47.166 27.5 65.499
s40.166 27.5 65.499 27.5c26 0 48.167 -9.16699 66.5 -27.5s27.5 -40.166 27.5 -65.499c0 -26 -9.16699 -48.167 -27.5 -66.5s-40.5 -27.5 -66.5 -27.5z" />
    <glyph glyph-name="S" unicode="S" 
d="M257 299c-21.333 0 -39.5 -7.5 -54.5 -22.5s-22.5 -33.167 -22.5 -54.5s7.5 -39.5 22.5 -54.5s33.167 -22.5 54.5 -22.5c20.667 0 38.5 7.5 53.5 22.5s22.5 33.167 22.5 54.5s-7.5 39.5 -22.5 54.5s-32.833 22.5 -53.5 22.5zM257 171c-14.667 0 -27 5 -37 15
s-15 22 -15 36c0 5.33301 3 8 9 8c5.33301 0 8 -2.66699 8 -8c0 -9.33301 3.5 -17.333 10.5 -24s15.167 -10 24.5 -10s17.333 3.33301 24 10s10 14.667 10 24s-3.33301 17.333 -10 24s-14.667 10 -24 10c-6 0 -9 3 -9 9c0 5.33301 3 8 9 8c14 0 26 -5 36 -15s15 -22 15 -36
s-5 -26 -15 -36s-22 -15 -36 -15zM511 227c-0.666992 1.33301 -3.67188 5 -9.00488 11s-14.166 14.833 -26.499 26.5s-25.166 22.5 -38.499 32.5c-61.333 46.667 -121.333 70 -180 70c-59.333 0 -119.666 -23.333 -180.999 -70l-18 -14.5c-6 -5 -11.333 -9.66699 -16 -14
l-13.5 -12.5c-4.33301 -4 -8 -7.66699 -11 -11l-8 -9c-2.33301 -2.66699 -4.16602 -4.66699 -5.49902 -6l-2 -3c-2 -3.33301 -2 -6.66602 0 -9.99902c82.667 -99.333 167.667 -149 255 -149c86.667 0 171.334 49.667 254.001 149c2 3.33301 2 6.66602 0 9.99902z
M256.995 128c-26 0 -48.167 9.16699 -66.5 27.5s-27.5 40.5 -27.5 66.5s9.16699 48.167 27.5 66.5s40.5 27.5 66.5 27.5c25.333 0 47.166 -9.16699 65.499 -27.5s27.5 -40.5 27.5 -66.5s-9.16699 -48.167 -27.5 -66.5s-40.166 -27.5 -65.499 -27.5z" />
    <glyph glyph-name="T" unicode="T" 
d="M501 132l-210.004 121.999l210 126c2 2 2.66699 4 2 6c-6 10.667 -15.667 18.334 -29 23.001c-12.667 4 -25 2.66699 -37 -4l-240 -138l-72 35c36 16 54 43.333 54 82c0 24.667 -8.66699 45.834 -26 63.501s-38.333 26.5 -63 26.5s-45.834 -8.83301 -63.501 -26.5
s-26.5 -38.834 -26.5 -63.501c0 -23.333 7.83301 -43.5 23.5 -60.5s34.834 -26.5 57.501 -28.5l83 -41l-79 -37c-23.333 -1.33301 -43.333 -10.5 -60 -27.5s-25 -37.5 -25 -61.5c0 -24.667 8.83301 -45.834 26.5 -63.501s38.834 -26.5 63.501 -26.5s45.667 8.83301 63 26.5
s26 38.834 26 63.501c0 18 -4.66699 34.167 -14 48.5s-21.666 25.166 -36.999 32.499l73 34l236 -136c6.66699 -4 14.334 -6 23.001 -6c2.66699 0 7.33398 0.666992 14.001 2c13.333 4.66699 23 12.334 29 23.001v3c0 0.666992 -0.666992 1.66699 -2 3zM25.9961 383.999
c0 17.333 6.16699 32.333 18.5 45s27.5 19 45.5 19c17.333 0 32.333 -6.33301 45 -19s19 -27.667 19 -45s-6.33301 -32.333 -19 -45s-27.667 -19 -45 -19c-18 0 -33.167 6.33301 -45.5 19s-18.5 27.667 -18.5 45zM153.996 127.999c0 -17.333 -6.33301 -32.333 -19 -45
s-27.667 -19 -45 -19c-18 0 -33.167 6.33301 -45.5 19s-18.5 27.667 -18.5 45s6.16699 32.333 18.5 45s27.5 19 45.5 19c17.333 0 32.333 -6.33301 45 -19s19 -27.667 19 -45z" />
    <glyph glyph-name="U" unicode="U" 
d="M423 194c-28.667 0 -51.667 -10.999 -69 -32.999c-6 25.333 -15 49 -27 71c12 22 21 46 27 72c17.333 -22.667 40.333 -34 69 -34c24.667 0 45.667 8.66699 63 26s26 38.333 26 63s-8.66699 45.667 -26 63s-38.333 26 -63 26s-45.667 -8.66699 -63 -26
s-26 -38.333 -26 -63c0 -37.333 -8.33301 -72.666 -25 -105.999c-22.667 30.667 -50.5 54.667 -83.5 72s-68.5 26 -106.5 26c-14 0 -34.5 -2.83301 -61.5 -8.5s-45.167 -11.834 -54.5 -18.501c-2 -2 -3 -5 -3 -9c1.33301 -4 3.33301 -6 6 -6l274 -77l-274 -77
c-2.66699 0 -4.66699 -2 -6 -6c0 -4 1 -7 3 -9c9.33301 -6.66699 27.333 -12.667 54 -18s47.334 -8 62.001 -8c79.333 0 142.666 32.667 189.999 98c16.667 -34.667 25 -70.334 25 -107.001c0 -24.667 8.66699 -45.667 26 -63s38.333 -26 63 -26s45.667 8.66699 63 26
s26 38.333 26 63s-8.66699 45.667 -26 63s-38.333 26 -63 26zM423 422.001c17.333 0 32.166 -6.16699 44.499 -18.5s18.5 -27.166 18.5 -44.499s-6.16699 -32.166 -18.5 -44.499s-27.166 -18.5 -44.499 -18.5s-32.166 6.16699 -44.499 18.5s-18.5 27.166 -18.5 44.499
s6.16699 32.166 18.5 44.499s27.166 18.5 44.499 18.5zM423 42.001c-17.333 0 -32.166 6.16699 -44.499 18.5s-18.5 27.166 -18.5 44.499s6.16699 32.333 18.5 45s27.166 19 44.499 19s32.166 -6.33301 44.499 -19s18.5 -27.667 18.5 -45s-6.16699 -32.166 -18.5 -44.499
s-27.166 -18.5 -44.499 -18.5z" />
    <glyph glyph-name="V" unicode="V" 
d="M375 354c0 -12.667 7.16895 -24.332 21.502 -34.999s29.833 -17.334 46.5 -20.001h9v25c0 52 -19.167 96.333 -57.5 133s-84.5 55 -138.5 55c-54.667 0 -101.167 -18.333 -139.5 -55s-57.5 -81 -57.5 -133v-25h7c15.333 2 28 8.16699 38 18.5s15 22.5 15 36.5v21h17v-21
c0 -19.333 -7.66699 -36.166 -23 -50.499s-33.333 -21.5 -54 -21.5v-137c0 -16 4.66699 -29.333 14 -40s21.666 -17 36.999 -19v-34c0 -14.667 5 -27 15 -37s22.333 -15 37 -15h17v95c0 5.33301 2.66699 8 8 8c6 0 9 -2.66699 9 -8v-95h51v94c0 5.33301 3 8 9 8
c5.33301 0 8 -2.66699 8 -8v-94h51v95c0 5.33301 3 8 9 8c5.33301 0 8 -2.66699 8 -8v-95h17c14.667 0 27 5 37 15s15 22.333 15 37v34c15.333 2 27.666 8.33301 36.999 19s14 24 14 40v137c-20.667 0 -41.5 7.16699 -62.5 21.5s-31.5 31.166 -31.5 50.499v21h17v-21z
M170.002 145.002c-18.667 0 -34.667 6.66504 -48 19.998s-20 29.333 -20 48s6.66699 34.834 20 48.501s29.333 20.5 48 20.5s34.667 -6.66699 48 -20s20 -29.666 20 -48.999c0 -18.667 -6.66699 -34.667 -20 -48s-29.333 -20 -48 -20zM281.002 128h-51v9
c0 5.33301 2.66699 10.833 8 16.5s11.333 8.5 18 8.5c6 0 11.667 -3 17 -9s8 -11.333 8 -16v-9zM409.002 213c0 -18.667 -6.66699 -34.665 -20 -47.998s-29.333 -20 -48 -20s-34.667 6.66699 -48 20s-20 29.333 -20 48c0 19.333 6.66699 35.666 20 48.999s29.333 20 48 20
s34.667 -6.83301 48 -20.5s20 -29.834 20 -48.501zM290.002 213.002c0 -14 5 -26 15 -36s22 -15 36 -15s26 5 36 15s15 22 15 36c0 14.667 -5 27 -15 37s-22 15 -36 15s-26 -5 -36 -15s-15 -22.333 -15 -37zM170.002 265.002c-14 0 -26 -5 -36 -15s-15 -22.333 -15 -37
c0 -14 5 -26 15 -36s22 -15 36 -15s26 5 36 15s15 22 15 36c0 14.667 -5 27 -15 37s-22 15 -36 15z" />
    <glyph glyph-name="W" unicode="W" 
d="M460 290c-62 1.33301 -92.9971 32.665 -92.9971 93.998c0 6 3 9 9 9c5.33301 0 8 -3 8 -9c0 -1.33301 0.166992 -3 0.5 -5s0.5 -3.33301 0.5 -4c2 -42 24.333 -64.667 67 -68h5c-9.33301 48 -32.5 87 -69.5 117s-80.833 45 -131.5 45s-94.334 -15 -131.001 -45
s-59.667 -69 -69 -117h4c42 2.66699 64.667 25.334 68 68.001v9c0 6 3 9 9 9s9 -3 9 -9c0 -61.333 -31 -92.666 -93 -93.999c-0.666992 -5.33301 -1 -13.666 -1 -24.999v-52c0 -32 9.66699 -59.167 29 -81.5s43.666 -34.833 72.999 -37.5v-94h68v102c0 6 3 9 9 9
c5.33301 0 8 -3 8 -9v-102h35v102c0 6 2.66699 9 8 9c6 0 9 -3 9 -9v-102h68v94c29.333 2.66699 53.666 15.167 72.999 37.5s29 49.5 29 81.5v52c0 11.333 -0.333008 19.666 -1 24.999zM163.003 144.999c-18.667 0 -34.832 6.66895 -48.499 20.002s-20.5 29.333 -20.5 48
c0 19.333 6.66699 35.666 20 48.999s29.666 20 48.999 20c18.667 0 34.667 -6.83301 48 -20.5s20 -29.834 20 -48.501s-6.66699 -34.667 -20 -48s-29.333 -20 -48 -20zM268.005 138.001l-22.001 -0.000976562c-3.33301 0 -5.66602 1.33301 -6.99902 4
c-2 2.66699 -2.33301 5.33398 -1 8.00098l11 22c1.33301 2.66699 3.83301 4 7.5 4s6.16699 -1.33301 7.5 -4l11 -20c0.666992 -1.33301 1 -3 1 -5c0 -6 -2.66699 -9 -8 -9zM350.004 145c-18.667 0 -34.667 6.66504 -48 19.998s-20 29.333 -20 48s6.66699 34.834 20 48.501
s29.333 20.5 48 20.5s34.834 -6.66699 48.501 -20s20.5 -29.666 20.5 -48.999c0 -18.667 -6.83301 -34.667 -20.5 -48s-29.834 -20 -48.501 -20zM350.004 264.998c-14 0 -26 -5 -36 -15s-15 -22.333 -15 -37c0 -14 5 -26 15 -36s22 -15 36 -15c14.667 0 27 5 37 15
s15 22 15 36c0 14.667 -5 27 -15 37s-22.333 15 -37 15zM163.004 264.998c-14.667 0 -27 -5 -37 -15s-15 -22.333 -15 -37c0 -14 5 -26 15 -36s22.333 -15 37 -15c14 0 26 5 36 15s15 22 15 36c0 14.667 -5 27 -15 37s-22 15 -36 15z" />
    <glyph glyph-name="X" unicode="X" 
d="M495 341l-92 0.000976562c6.66699 34.667 29 52 67 52c4.66699 0 8.66699 1.66699 12 5s5 7.33301 5 12s-1.66699 8.66699 -5 12s-7.33301 5 -12 5c-38 0 -66.667 -14.333 -86 -43c-18 28.667 -46.333 43 -85 43c-4.66699 0 -8.66699 -1.66699 -12 -5s-5 -7.33301 -5 -12
c0 -11.333 5.66699 -17 17 -17c17.333 0 31.833 -4.66699 43.5 -14s19.167 -22 22.5 -38h-348c-4.66699 0 -8.66699 -1.66699 -12 -5s-5 -7.33301 -5 -12v-187c0 -4.66699 1.66699 -8.83398 5 -12.501s7.33301 -5.5 12 -5.5h348
c-3.33301 -15.333 -10.833 -27.666 -22.5 -36.999s-26.167 -14 -43.5 -14c-11.333 0 -17 -5.66699 -17 -17c0 -4.66699 1.66699 -8.66699 5 -12s7.33301 -5 12 -5c38.667 0 67 14.333 85 43c19.333 -28.667 48 -43 86 -43c4.66699 0 8.66699 1.66699 12 5s5 7.33301 5 12
s-1.66699 8.66699 -5 12s-7.33301 5 -12 5c-18 0 -32.833 4.66699 -44.5 14s-19.167 21.666 -22.5 36.999h92c11.333 0 17 6 17 18v187c0 11.333 -5.66699 17 -17 17zM367 154.001h-333v153h333v-153zM478 154.001h-77v153h77v-153z" />
    <glyph glyph-name="Y" unicode="Y" 
d="M495 350h-478c-4.66699 0 -8.66699 -1.66699 -12 -5s-5 -7.33301 -5 -12v-205c0 -4.66699 1.66699 -8.66699 5 -12s7.33301 -5 12 -5h478c4.66699 0 8.66699 1.66699 12 5s5 7.33301 5 12v205c0 4.66699 -1.66699 8.66699 -5 12s-7.33301 5 -12 5zM478 145h-444v171h444
v-171zM85 162c4.66699 0 8.66699 1.66699 12 5s5 7.33301 5 12v105c0 4.66699 -1.66699 8.66699 -5 12s-7.33301 5 -12 5s-8.66699 -1.66699 -12 -5s-5 -7.33301 -5 -12v-105c0 -4.66699 1.66699 -8.66699 5 -12s7.33301 -5 12 -5z" />
    <glyph glyph-name="Z" unicode="Z" 
d="M374 34h-35c-18.667 0 -34.667 5.16699 -48 15.5s-20 25.166 -20 44.499v68h34c4.66699 0 8.66699 1.66699 12 5s5 7.33301 5 12c0 11.333 -5.66699 17 -17 17h-34v221v1c0 19.333 6.66699 34.166 20 44.499s29.333 15.5 48 15.5h35c4.66699 0 8.66699 1.66699 12 5
s5 7.33301 5 12s-1.66699 8.66699 -5 12s-7.33301 5 -12 5h-35c-37.333 0 -65.666 -13.333 -84.999 -40c-19.333 26.667 -47.666 40 -84.999 40h-34c-4.66699 0 -8.66699 -1.66699 -12 -5s-5 -7.33301 -5 -12s1.66699 -8.66699 5 -12s7.33301 -5 12 -5h34
c18.667 0 34.667 -5.16699 48 -15.5s20 -25.166 20 -44.499v-1v-221h-34c-11.333 0 -17 -5.66699 -17 -17c0 -4.66699 1.66699 -8.66699 5 -12s7.33301 -5 12 -5h34v-68c0 -19.333 -6.66699 -34.166 -20 -44.499s-29.333 -15.5 -48 -15.5h-34
c-4.66699 0 -8.66699 -1.66699 -12 -5s-5 -7.33301 -5 -12s1.66699 -8.66699 5 -12s7.33301 -5 12 -5h34c37.333 -0 65.666 13.333 84.999 40c19.333 -26.667 47.666 -40 84.999 -40h35c4.66699 0 8.66699 1.66699 12 5s5 7.33301 5 12s-1.66699 8.66699 -5 12
s-7.33301 5 -12 5zM49 350h-25c-4.66699 0 -8.66699 -1.66699 -12 -5s-5 -7.33301 -5 -12v-26c0 -4.66699 1.66699 -8.66699 5 -12s7.33301 -5 12 -5s8.66699 1.66699 12 5s5 7.33301 5 12v9h8c11.333 0 17 5.66699 17 17c0 4.66699 -1.66699 8.66699 -5 12
s-7.33301 5 -12 5zM101 316h25.001c11.333 0 17 5.66699 17 17c0 4.66699 -1.66699 8.66699 -5 12s-7.33301 5 -12 5h-25c-4.66699 0 -8.83398 -1.66699 -12.501 -5s-5.5 -7.33301 -5.5 -12c0 -11.333 6 -17 18 -17zM177.001 316h26c4.66699 0 8.66699 1.66699 12 5
s5 7.33301 5 12s-1.66699 8.66699 -5 12s-7.33301 5 -12 5h-26c-4.66699 0 -8.66699 -1.66699 -12 -5s-5 -7.33301 -5 -12s1.66699 -8.66699 5 -12s7.33301 -5 12 -5zM49.001 128h-8v9c0 4.66699 -1.66699 8.66699 -5 12s-7.33301 5 -12 5s-8.66699 -1.66699 -12 -5
s-5 -7.33301 -5 -12v-26c0 -4.66699 1.66699 -8.66699 5 -12s7.33301 -5 12 -5h25c4.66699 0 8.66699 1.66699 12 5s5 7.33301 5 12s-1.66699 8.66699 -5 12s-7.33301 5 -12 5zM143.001 111c0 4.66699 -1.66699 8.66699 -5 12s-7.33301 5 -12 5h-25
c-4.66699 0 -8.83398 -1.66699 -12.501 -5s-5.5 -7.33301 -5.5 -12s1.83301 -8.66699 5.5 -12s7.83398 -5 12.501 -5h25c4.66699 0 8.66699 1.66699 12 5s5 7.33301 5 12zM177.001 94h26c4.66699 0 8.66699 1.66699 12 5s5 7.33301 5 12s-1.66699 8.66699 -5 12
s-7.33301 5 -12 5h-26c-4.66699 0 -8.66699 -1.66699 -12 -5s-5 -7.33301 -5 -12s1.66699 -8.66699 5 -12s7.33301 -5 12 -5zM485.001 262c-12 0 -18.001 -5.66699 -18.001 -17v-49c0 -4.66699 1.83301 -8.66699 5.5 -12s7.83398 -5 12.501 -5s8.66699 1.66699 12 5
s5 7.33301 5 12v49c0 4.66699 -1.66699 8.66699 -5 12s-7.33301 5 -12 5zM24 179c4.66699 0 8.66699 1.66699 12 5s5 7.33301 5 12v49c0 4.66699 -1.66699 8.66699 -5 12s-7.33301 5 -12 5c-11.333 0 -17 -5.66699 -17 -17v-49c0 -4.66699 1.66699 -8.66699 5 -12
s7.33301 -5 12 -5zM485 350h-26.001c-4.66699 0 -8.66699 -1.66699 -12 -5s-5 -7.33301 -5 -12c0 -11.333 5.66699 -17 17 -17h8v-9c0 -4.66699 1.83301 -8.66699 5.5 -12s7.83398 -5 12.501 -5s8.66699 1.66699 12 5s5 7.33301 5 12v26c0 4.66699 -1.66699 8.66699 -5 12
s-7.33301 5 -12 5zM407.999 350h-26c-4.66699 0 -8.66699 -1.66699 -12 -5s-5 -7.33301 -5 -12s1.66699 -8.66699 5 -12s7.33301 -5 12 -5h26c4.66699 0 8.66699 1.66699 12 5s5 7.33301 5 12s-1.66699 8.66699 -5 12s-7.33301 5 -12 5zM330.999 350h-26
c-4.66699 0 -8.66699 -1.66699 -12 -5s-5 -7.33301 -5 -12s1.66699 -8.66699 5 -12s7.33301 -5 12 -5h26c4.66699 0 8.66699 1.66699 12 5s5 7.33301 5 12s-1.66699 8.66699 -5 12s-7.33301 5 -12 5zM484.999 154c-4.66699 0 -8.83301 -1.66699 -12.5 -5
s-5.5 -7.33301 -5.5 -12v-9h-8c-4.66699 0 -8.66699 -1.66699 -12 -5s-5 -7.33301 -5 -12s1.66699 -8.66699 5 -12s7.33301 -5 12 -5h26c4.66699 0 8.66699 1.66699 12 5s5 7.33301 5 12v26c0 4.66699 -1.66699 8.66699 -5 12s-7.33301 5 -12 5zM408 128h-26
c-4.66699 0 -8.66699 -1.66699 -12 -5s-5 -7.33301 -5 -12s1.66699 -8.66699 5 -12s7.33301 -5 12 -5h26c4.66699 0 8.66699 1.66699 12 5s5 7.33301 5 12s-1.66699 8.66699 -5 12s-7.33301 5 -12 5zM331 128h-26c-4.66699 0 -8.66699 -1.66699 -12 -5s-5 -7.33301 -5 -12
s1.66699 -8.66699 5 -12s7.33301 -5 12 -5h26c4.66699 0 8.66699 1.66699 12 5s5 7.33301 5 12s-1.66699 8.66699 -5 12s-7.33301 5 -12 5z" />
    <glyph glyph-name="bracketleft" unicode="[" 
d="M375 503c0 6 -2.66699 9 -8 9h-358c-6 0 -9 -3 -9 -9v-358c0 -5.33301 3 -8 9 -8h128v230c0 5.33301 2.66699 8 8 8h230v128zM154 358h341v-341h-341v341z" />
    <glyph glyph-name="backslash" unicode="\" 
d="M205 346h101.998c6 0 9 2.66699 9 8v43c0 17.333 -5.66699 31.666 -17 42.999s-25.666 17 -42.999 17s-31.666 -5.66699 -42.999 -17s-17 -25.666 -17 -42.999v-43c0 -5.33301 3 -8 9 -8zM349.998 329h-188c-5.33301 0 -8 -3 -8 -9s2.66699 -9 8 -9h34v-153
c0 -21.333 11.333 -37.333 34 -48v-46c0 -6 3 -9 9 -9h34c6 0 9 3 9 9v46c22.667 10.667 34 26.667 34 48v153h34c5.33301 0 8 3 8 9s-2.66699 9 -8 9z" />
    <glyph glyph-name="bracketright" unicode="]" 
d="M486 393h-128v-231c0 -5.33301 -2.66699 -8 -8 -8h-231v-128c0 -6 3 -9 9 -9h358c6 0 9 3 9 9v358c0 6 -3 9 -9 9zM0 512h341v-341h-341v341z" />
    <glyph glyph-name="asciicircum" unicode="^" 
d="M42 205h426c6 0 9 2.66699 9 8v222c0 6 -3 9 -9 9h-162v8c0 6 -2.66699 9 -8 9h-43v42c0 6 -2.66699 9 -8 9c-6 0 -9 -3 -9 -9v-42h-43c-5.33301 0 -8 -3 -8 -9v-8h-145c-6 0 -9 -3 -9 -9v-222c0 -5.33301 3 -8 9 -8zM204 444h85v-17h-85v17zM477 188h-443.998
c-16.667 0 -25 -8.66699 -25 -26c0 -16.667 8.33301 -25 25 -25h97l-63 -125c-2.66699 -5.33301 -1.66699 -9 3 -11c1.33301 -0.666992 2.66602 -1 3.99902 -1c3.33301 0 6 1.66699 8 5l67 132h89v-128c0 -6 3 -9 9 -9c5.33301 0 8 3 8 9v128h89l67 -132
c2 -3.33301 4.66699 -5 8 -5c1.33301 -0 2.66602 0.333008 3.99902 1c4.66699 2 5.66699 5.66699 3 11l-63 125h114c17.333 0 26 8.33301 26 25c0 17.333 -8.66699 26 -26 26z" />
    <glyph glyph-name="underscore" unicode="_" 
d="M444 508c-2.66699 0 -5 -1 -7 -3l-221 -284l52 -44h1l241 257c1.33301 1.33301 2 3.33301 2 6c0 23.333 -4.16699 40.5 -12.5 51.5s-26.833 16.5 -55.5 16.5zM245 152l-50 42.0039c-7.33301 2.66699 -16 4 -26 4c-30.667 0 -55 -11.667 -73 -35
c-4.66699 -6 -10.334 -18.667 -17.001 -38c-3.33301 -10.667 -6.16602 -18.834 -8.49902 -24.501s-6 -11.834 -11 -18.501s-11.667 -11.5 -20 -14.5s-18.5 -4.16699 -30.5 -3.5c-4 0 -6.66699 -1.66699 -8 -5c-2.66699 -3.33301 -2 -6.33301 2 -9
c29.333 -30.667 64.666 -46 105.999 -46c31.333 0 60.5 8.66699 87.5 26s44.5 38.666 52.5 63.999c6.66699 19.333 5.33398 38.666 -3.99902 57.999z" />
    <glyph glyph-name="grave" unicode="`" 
d="M427 307l-111 -0.000976562c-5.33301 0 -8.66602 1.66699 -9.99902 5c-1.33301 0.666992 -1.83301 3.16699 -1.5 7.5s1.16602 7.83301 2.49902 10.5c6 14.667 9 29.667 9 45l3 75c0 17.333 -6.16699 32 -18.5 44s-27.166 18 -44.499 18s-31.666 -5.66699 -42.999 -17
s-17 -25.666 -17 -42.999v-77c0 -15.333 3 -30.333 9 -45c1.33301 -2.66699 2.16602 -6.16699 2.49902 -10.5s-0.166992 -6.83301 -1.5 -7.5c-1.33301 -3.33301 -4.66602 -5 -9.99902 -5h-111c-10.667 0 -20.334 -5.5 -29.001 -16.5s-13 -22.5 -13 -34.5v-60
c0 -5.33301 2.66699 -8 8 -8h410c5.33301 0 8 2.66699 8 8v60c0 12 -4.33301 23.5 -13 34.5s-18.334 16.5 -29.001 16.5zM256 438.999c-6.66699 0 -10 3.66699 -10 11c0 6.66699 3.33301 10 10 10c7.33301 0 11 -3.33301 11 -10c0 -7.33301 -3.66699 -11 -11 -11z
M444 170.999h-376c-5.33301 0 -8 -3 -8 -9v-153c0 -6 2.66699 -9 8 -9h60c3.33301 0 6 1.66699 8 5l26 53v-49c0 -6 3 -9 9 -9h111v60c0 5.33301 2.66699 8 8 8c6 0 9 -2.66699 9 -8v-60h34v94c0 5.33301 2.66699 8 8 8c6 0 9 -2.66699 9 -8v-94h34v119c0 6 3 9 9 9
c5.33301 0 8 -3 8 -9v-119h43c5.33301 0 8 3 8 9v153c0 6 -2.66699 9 -8 9z" />
    <glyph glyph-name="a" unicode="a" 
d="M204 393l6 -120h95l6 120h-107zM216 154h83l5 102h-93zM216 137l7 -137h69l6 137h-82zM110 137l11 -128.999v-2l1 -1c0 -0.666992 0.333008 -1.33398 1 -2.00098l1 -1c0.666992 0 1 -0.333008 1 -1h1c0.666992 -0.666992 1.66699 -1 3 -1h77l-7 137h-89zM187 393.001h-99
l10 -120h95zM193 256.001h-93l8 -102h91zM181 512.001h-128c-6 0 -9 -3 -9 -9c0 -5.33301 3 -8 9 -8h26l7 -85h100zM322 273.001h95l10 120h-99zM309 0.000976562h76c2 0 3.33301 0.333008 4 1h1l1 1l1 1c0 0.666992 0.166992 1 0.5 1s0.5 0.333008 0.5 1s0.333008 1 1 1v2
l11 129h-90zM316 154.001h90l9 102h-94zM462 512.001h-128l-5 -102h100l7 85h26c6 0 9 2.66699 9 8c0 6 -3 9 -9 9zM312 410.001l5 102h-119l5 -102h109z" />
    <glyph glyph-name="b" unicode="b" 
d="M508 435h-145v60c0 5.33301 -3 8 -9 8h-188c-5.33301 0 -8 -2.66699 -8 -8v-60h-145c-6 0 -9 -2.66699 -9 -8c0 -6 3 -9 9 -9h68v-418h358v418h69c5.33301 0 8 3 8 9c0 5.33301 -2.66699 8 -8 8zM175 94c0 -6 -3 -9 -9 -9c-5.33301 0 -8 3 -8 9v239
c0 5.33301 2.66699 8 8 8c6 0 9 -2.66699 9 -8v-239zM175 486h171v-51h-171v51zM269 94c0 -6 -3 -9 -9 -9c-5.33301 0 -8 3 -8 9v239c0 5.33301 2.66699 8 8 8c6 0 9 -2.66699 9 -8v-239zM363 94c0 -6 -3 -9 -9 -9c-5.33301 0 -8 3 -8 9v239c0 5.33301 2.66699 8 8 8
c6 0 9 -2.66699 9 -8v-239z" />
    <glyph glyph-name="c" unicode="c" 
d="M495 186l-1.00098 0.999023v2l-68 152c0 0.666992 -0.333008 1 -1 1l-1 2l-33 33l-30 83c-0.666992 0 -1 0.333008 -1 1s-0.333008 1.33398 -1 2.00098c-8.66699 10 -22.667 15 -42 15c-18 0 -31.667 -5 -41 -15c-2 -0.666992 -3 -2.66699 -3 -6v-129
c22.667 -2 41.167 -7.66699 55.5 -17s21.5 -20.333 21.5 -33c0 -6 -3 -9 -9 -9c-5.33301 0 -8 3 -8 9c0 7.33301 -5.66699 14.333 -17 21s-25.666 10.667 -42.999 12v-189c1.33301 -32.667 13.5 -60.334 36.5 -83.001s50.833 -34 83.5 -34s60.667 11.667 84 35
s35 51.333 35 84c0 22.667 -5.66699 43.334 -17 62.001zM392.999 21.999c-28.667 0 -52.999 10 -72.999 30s-30 44 -30 72c0 24 10.667 47 32 69s45.666 33 72.999 33c29.333 0 57 -15 83 -45c11.333 -16.667 17 -35.667 17 -57c0 -28 -10 -52 -30 -72s-44 -30 -72 -30z
M195 477.999c-19.333 0 -33.334 -4.99902 -42.001 -14.999l-1 -1c0 -1.33301 -0.333008 -2 -1 -2l-30 -83l-33 -33c-1.33301 -1.33301 -2 -2.33301 -2 -3l-68 -153c0 -0.666992 -0.333008 -1.33398 -1 -2.00098c-11.333 -18.667 -17 -39.334 -17 -62.001
c0 -32.667 11.667 -60.667 35 -84s51.333 -35 84 -35s60.5 11.333 83.5 34s35.167 50.334 36.5 83.001v189c-17.333 -1.33301 -31.666 -5.33301 -42.999 -12s-17 -13.667 -17 -21c0 -6 -2.66699 -9 -8 -9c-6 0 -9 3 -9 9c0 12.667 7.16699 23.667 21.5 33s32.833 15 55.5 17
v129c0 3.33301 -1 5.33301 -3 6c-9.33301 10 -23 15 -41 15zM221.999 124c0 -28 -9.99902 -52 -29.999 -72s-44.333 -30 -73 -30c-28 0 -52 10 -72 30s-30 44 -30 72c0 21.333 5.66699 40.333 17 57c26 30 53.667 45 83 45c27.333 0 51.666 -11 72.999 -33s32 -45 32 -69z
M43 121c0 -5.33301 3 -8 9 -8c5.33301 0 8 2.66699 8 8c0 15.333 5.5 28.5 16.5 39.5s24.167 16.5 39.5 16.5c6 0 9 3 9 9c0 5.33301 -3 8 -9 8c-20 0 -37.167 -7.16699 -51.5 -21.5s-21.5 -31.5 -21.5 -51.5zM396 194c-20 0 -37.167 -7.16699 -51.5 -21.5
s-21.5 -31.5 -21.5 -51.5c0 -5.33301 2.66699 -8 8 -8c6 0 9 2.66699 9 8c0 15.333 5.5 28.5 16.5 39.5s24.167 16.5 39.5 16.5c5.33301 0 8 3 8 9c0 5.33301 -2.66699 8 -8 8z" />
    <glyph glyph-name="d" unicode="d" 
d="M485 402c-10 6 -21.002 7.33301 -33.002 4h-1c-8.66699 -2.66699 -17 -7.66699 -25 -15c-6.66699 -5.33301 -13.667 -14.666 -21 -27.999c-0.666992 -2.66699 -3 -4 -7 -4c-2 0 -3.33301 0.333008 -4 1c-5.33301 2.66699 -6.66602 6.33398 -3.99902 11.001
c6.66699 13.333 15 24.333 25 33s19.333 14.334 28 17.001l-8 8c-15.333 12 -37 18 -65 18l-1 -1h-1h-13c-2.66699 0 -4.66699 -0.333008 -6 -1c-12 -0.666992 -24.333 -4 -37 -10c-0.666992 -0.666992 -2 -1 -4 -1c-3.33301 0 -5.66602 1.66699 -6.99902 5
c-2.66699 5.33301 -1.33398 9 3.99902 11c6 3.33301 16.333 7 31 11c-22.667 28 -49.667 42 -81 42c-35.333 0 -65 -14.333 -89 -43c11.333 -2 22.333 -5.66699 33 -11c5.33301 -2 6.66602 -5.66699 3.99902 -11c-0.666992 -3.33301 -3 -5 -7 -5
c-2 0 -3.33301 0.333008 -4 1c-13.333 5.33301 -25.666 9 -36.999 11c-29.333 3.33301 -53.666 -1 -72.999 -13c-5.33301 -3.33301 -10 -7.33301 -14 -12c8.66699 -2.66699 17.667 -8 27 -16c10 -8.66699 18.333 -19.667 25 -33
c2.66699 -4.66699 1.33398 -8.33398 -3.99902 -11.001c-0.666992 -0.666992 -2 -1 -4 -1c-3.33301 0 -6 1.33301 -8 4c-5.33301 12 -12 21.333 -20 28c-8.66699 7.33301 -17.334 12.333 -26.001 15c-12.667 3.33301 -24 2 -34 -4c-16.667 -9.33301 -25 -26.666 -25 -51.999
c0 -20 6.66699 -33.667 20 -41c16 -7.33301 33.667 -6.33301 53 3c8 -14 22.333 -24.667 43 -32c33.333 -12 63 -11.667 89 1c0 -0.666992 0.333008 -1 1 -1s1.33398 -0.333008 2.00098 -1c6.66699 -6.66699 10.667 -13 12 -19s2 -16.667 2 -32v-8
c-14.667 2 -28.334 -1.66699 -41.001 -11s-19 -22 -19 -38c0 -14 4.66699 -24.667 14 -32c12 -10 27 -13.333 45 -10c-2 -15.333 -8.66699 -27.833 -20 -37.5s-22.166 -16 -32.499 -19s-25.833 -6.5 -46.5 -10.5c-14 -2.66699 -24 -4.83398 -30 -6.50098
s-13.667 -4.5 -23 -8.5s-16 -9 -20 -15s-6 -13.667 -6 -23c0 -6 2.66699 -9 8 -9h409c6 0 9 3 9 9c0 12 -4.66699 21.833 -14 29.5s-18 12.5 -26 14.5s-21.333 5 -40 9c-20.667 4 -36 7.5 -46 10.5s-20.833 9.33301 -32.5 19s-18.5 22.167 -20.5 37.5
c3.33301 -0.666992 7.66602 -1 12.999 -1c13.333 0 24.333 4 33 12s13 18.333 13 31c0 16 -6.16699 28.667 -18.5 38s-25.833 13 -40.5 11c0 3.33301 -0.333008 6 -1 8c0 15.333 0.666992 26 2 32s5.33301 12.333 12 19c0 0.666992 0.666992 1 2 1s2 0.333008 2 1
c18.667 -10.667 45 -12.334 79 -5.00098c22.667 5.33301 39.667 14.666 51 27.999c16 -10 31.333 -11.333 46 -4c19.333 9.33301 29 26 29 50c0 24.667 -8.66699 42 -26 52z" />
    <glyph glyph-name="e" unicode="e" 
d="M471 430c-25.333 26 -56.835 38.999 -94.502 38.999s-69.5 -13 -95.5 -39l-249 -249c-20 -20 -30 -43.667 -30 -71s9.66699 -50.666 29 -69.999c20 -20 43.333 -30 70 -30c27.333 0 51 10 71 30l241 241c11.333 11.333 17 25 17 41s-5.66699 30 -17 42
c-11.333 11.333 -25 17 -41 17s-29.667 -5.66699 -41 -17l-175 -175c-6.66699 -8 -6.66699 -16 0 -24c8.66699 -8.66699 16.667 -8.66699 24 0l175 174c4.66699 4.66699 10.334 7 17.001 7s12.334 -2.33301 17.001 -7s7 -10.334 7 -17.001s-2.33301 -12.334 -7 -17.001
l-241 -241c-13.333 -13.333 -29 -20 -47 -20s-33.333 6.66699 -46 20s-19 28.833 -19 46.5s6.66699 33.167 20 46.5l249 249c19.333 18.667 43 28 71 28s51.667 -9.33301 71 -28c19.333 -19.333 29 -41.666 29 -66.999s-9.66699 -47.666 -29 -66.999l-179 -179
c-8.66699 -8.66699 -8.66699 -16.667 0 -24c7.33301 -8.66699 15.333 -8.66699 24 0l179 179c26 26 39 56.333 39 91s-13 65 -39 91z" />
    <glyph glyph-name="f" unicode="f" 
d="M255 512c-38 0 -69.834 -13.498 -95.501 -40.498s-38.5 -60.833 -38.5 -101.5v-259c0 -32.667 9.66699 -59.334 29 -80.001s44 -31 74 -31c28.667 0 51.834 10.167 69.501 30.5s26.5 47.166 26.5 80.499v206c0 24.667 -5.83301 44.167 -17.5 58.5s-27.5 21.5 -47.5 21.5
c-20.667 0 -37.167 -7.33301 -49.5 -22s-18.5 -34 -18.5 -58v-165c0 -4.66699 1.66699 -8.66699 5 -12s7.33301 -5 12 -5s8.66699 1.66699 12 5s5 7.33301 5 12v165c0 30.667 11.333 46 34 46c20.667 0 31 -15.333 31 -46v-206c0 -20.667 -5 -38.667 -15 -54
s-25.667 -23 -47 -23c-20 0 -36.5 7.16699 -49.5 21.5s-19.5 32.833 -19.5 55.5v259c0 31.333 9.33301 57.166 28 77.499s42.667 30.5 72 30.5c28 0 51.167 -10.167 69.5 -30.5s27.5 -46.166 27.5 -77.499v-187c0 -4.66699 1.66699 -8.66699 5 -12s7.33301 -5 12 -5
s8.66699 1.66699 12 5s5 7.33301 5 12v187c0 40.667 -12.5 74.5 -37.5 101.5s-56.167 40.5 -93.5 40.5z" />
    <glyph glyph-name="g" unicode="g" 
d="M486 273h-17c-4.66699 52 -25.5 96.5 -62.5 133.5s-81.5 57.833 -133.5 62.5v26c0 4.66699 -1.66699 8.66699 -5 12s-7.33301 5 -12 5s-8.66699 -1.66699 -12 -5s-5 -7.33301 -5 -12v-26c-52 -4.66699 -96.5 -25.5 -133.5 -62.5s-57.833 -81.5 -62.5 -133.5h-26
c-4.66699 0 -8.66699 -1.66699 -12 -5s-5 -7.33301 -5 -12s1.66699 -8.66699 5 -12s7.33301 -5 12 -5h26c4.66699 -52 25.5 -96.5 62.5 -133.5s81.5 -57.833 133.5 -62.5v-26c0 -4.66699 1.66699 -8.66699 5 -12s7.33301 -5 12 -5s8.66699 1.66699 12 5s5 7.33301 5 12v26
c52 4.66699 96.5 25.5 133.5 62.5s57.833 81.5 62.5 133.5h17c4.66699 0 8.66699 1.66699 12 5s5 7.33301 5 12s-1.66699 8.66699 -5 12s-7.33301 5 -12 5zM239 78c-42.667 4 -79.167 21.167 -109.5 51.5s-47.5 66.833 -51.5 109.5h69c3.33301 -24 13.5 -44.5 30.5 -61.5
s37.5 -27.167 61.5 -30.5v-69zM239 181c-14.667 3.33301 -27.168 10.167 -37.501 20.5s-17.166 22.833 -20.499 37.5h58v-58zM238.999 273.001l-57.999 0.000976562c3.33301 14.667 10.166 27.167 20.499 37.5s22.833 17.166 37.5 20.499v-58zM239 365.002
c-24 -3.33301 -44.5 -13.5 -61.5 -30.5s-27.167 -37.5 -30.5 -61.5h-69c4 42.667 21.167 79.167 51.5 109.5s66.833 47.5 109.5 51.5v-69zM273 331.002c14.667 -3.33301 27.168 -10.167 37.501 -20.5s17.166 -22.833 20.499 -37.5h-58v58zM273.001 239.001
l57.999 -0.000976562c-3.33301 -14.667 -10.166 -27.167 -20.499 -37.5s-22.833 -17.166 -37.5 -20.499v58zM273 78v69c24 3.33301 44.5 13.5 61.5 30.5s27.167 37.5 30.5 61.5h69c-4 -42.667 -21.167 -79.167 -51.5 -109.5s-66.833 -47.5 -109.5 -51.5zM365 273
c-3.33301 24 -13.5 44.5 -30.5 61.5s-37.5 27.167 -61.5 30.5v69c42.667 -4 79.167 -21.167 109.5 -51.5s47.5 -66.833 51.5 -109.5h-69z" />
    <glyph glyph-name="h" unicode="h" 
d="M487 273h-35c-4 47.333 -22.833 87.833 -56.5 121.5s-74.167 52.5 -121.5 56.5v44c0 4.66699 -1.83301 8.66699 -5.5 12s-7.83398 5 -12.501 5s-8.66699 -1.66699 -12 -5s-5 -7.33301 -5 -12v-44c-47.333 -4 -87.833 -22.833 -121.5 -56.5s-52.5 -74.167 -56.5 -121.5
h-43c-4.66699 0 -8.83398 -1.66699 -12.501 -5s-5.5 -7.33301 -5.5 -12s1.83301 -8.66699 5.5 -12s7.83398 -5 12.501 -5h43c4 -47.333 22.833 -87.833 56.5 -121.5s74.167 -52.5 121.5 -56.5v-44c0 -4.66699 1.66699 -8.66699 5 -12s7.33301 -5 12 -5
s8.83398 1.66699 12.501 5s5.5 7.33301 5.5 12v44c47.333 4 87.833 22.833 121.5 56.5s52.5 74.167 56.5 121.5h35c4.66699 0 8.66699 1.66699 12 5s5 7.33301 5 12s-1.66699 8.66699 -5 12s-7.33301 5 -12 5zM367 239h51c-4 -38 -19.667 -70.5 -47 -97.5
s-59.666 -42.5 -96.999 -46.5v42c0 4.66699 -1.83301 8.66699 -5.5 12s-7.83398 5 -12.501 5s-8.66699 -1.66699 -12 -5s-5 -7.33301 -5 -12v-42c-37.333 4 -69.666 19.5 -96.999 46.5s-43 59.5 -47 97.5h42c4.66699 0 8.66699 1.66699 12 5s5 7.33301 5 12
s-1.66699 8.66699 -5 12s-7.33301 5 -12 5h-42c4 38 19.667 70.5 47 97.5s59.666 42.5 96.999 46.5v-33c0 -4.66699 1.66699 -8.66699 5 -12s7.33301 -5 12 -5s8.83398 1.66699 12.501 5s5.5 7.33301 5.5 12v33c37.333 -4 69.666 -19.5 96.999 -46.5s43 -59.5 47 -97.5h-51
c-4.66699 0 -8.66699 -1.66699 -12 -5s-5 -7.33301 -5 -12s1.66699 -8.66699 5 -12s7.33301 -5 12 -5z" />
    <glyph glyph-name="i" unicode="i" 
d="M256 307c4.66699 0 8.66699 1.66699 12 5s5 7.33301 5 12v171c0 4.66699 -1.66699 8.66699 -5 12s-7.33301 5 -12 5s-8.66699 -1.66699 -12 -5s-5 -7.33301 -5 -12v-171c0 -4.66699 1.66699 -8.66699 5 -12s7.33301 -5 12 -5zM187 273h-170
c-4.66699 0 -8.66699 -1.66699 -12 -5s-5 -7.33301 -5 -12s1.66699 -8.66699 5 -12s7.33301 -5 12 -5h170c4.66699 0 8.83398 1.66699 12.501 5s5.5 7.33301 5.5 12s-1.83301 8.66699 -5.5 12s-7.83398 5 -12.501 5zM256 205c-4.66699 0 -8.66699 -1.66699 -12 -5
s-5 -7.33301 -5 -12v-171c0 -4.66699 1.66699 -8.66699 5 -12s7.33301 -5 12 -5s8.66699 1.66699 12 5s5 7.33301 5 12v171c0 4.66699 -1.66699 8.66699 -5 12s-7.33301 5 -12 5zM495 273h-171c-4.66699 0 -8.66699 -1.66699 -12 -5s-5 -7.33301 -5 -12
s1.66699 -8.66699 5 -12s7.33301 -5 12 -5h171c4.66699 0 8.66699 1.66699 12 5s5 7.33301 5 12s-1.66699 8.66699 -5 12s-7.33301 5 -12 5zM256 282c-6.66699 0 -12.667 -2.66699 -18 -8s-8 -11.333 -8 -18s2.66699 -12.667 8 -18s11.333 -8 18 -8s12.5 2.5 17.5 7.5
s7.5 11.167 7.5 18.5s-2.5 13.5 -7.5 18.5s-10.833 7.5 -17.5 7.5zM256 247c-6 0 -9 3 -9 9s3 9 9 9c5.33301 0 8 -3 8 -9s-2.66699 -9 -8 -9z" />
    <glyph glyph-name="j" unicode="j" 
d="M225 94l-88 89l22 22l88 -89zM143 96c-2.66699 -1.33301 -4.66602 -2 -5.99902 -2c-2.66699 0 -4.66699 0.666992 -6 2c-4.66699 4.66699 -4.66699 8.66699 0 12l28 29l-35 34l-113 -114c-2.66699 -2 -3.33398 -5.33301 -2.00098 -10c2 -2.66699 4.66699 -4 8 -4h1
l179 25c3.33301 1.33301 5 2.33301 5 3l11 11l-42 42zM260.001 128l-89 89l22 22l89 -89zM475.001 433c-13.333 13.333 -29.667 20 -49 20c-12.667 0 -23 -4 -31 -12l-190 -190l89 -89l190 190c9.33301 10.667 12.833 24.167 10.5 40.5s-8.83301 29.833 -19.5 40.5z" />
    <glyph glyph-name="k" unicode="k" 
d="M84 69c48 -46 106.001 -69 174.001 -69c67.333 0 125.666 23 174.999 69l-175 175zM71.001 431c-46 -50.667 -69 -109 -69 -175s23 -124.333 69 -175l175 175zM445.001 431l-175 -174.998l175 -175c46 49.333 69 107.666 69 174.999s-23 125.666 -69 174.999z
M433.001 443.002c-49.333 46 -107.667 69 -175 69c-68 0 -126 -23 -174 -69l174 -175z" />
    <glyph glyph-name="l" unicode="l" 
d="M259 512c-70.667 0 -131 -25 -181 -75s-75 -110.333 -75 -181s25 -131 75 -181s110.333 -75 181 -75s131 25 181 75s75 110.333 75 181s-25 131 -75 181s-110.333 75 -181 75zM92 256c0 47.333 16.168 87.167 48.501 119.5s71.833 48.5 118.5 48.5
c39.333 0 71.666 -9 96.999 -27l-238 -238c-17.333 24.667 -26 57 -26 97zM259.001 88.001c-38 0 -70.334 8.99902 -97.001 26.999l239 238c17.333 -26 26 -58.333 26 -97c0 -47.333 -16.167 -87.166 -48.5 -119.499s-72.166 -48.5 -119.499 -48.5z" />
    <glyph glyph-name="m" unicode="m" 
d="M495 290h-142l-62 -62l-100 -46l36 108h-210c-4.66699 0 -8.66699 -1.66699 -12 -5s-5 -7.33301 -5 -12v-179c0 -4.66699 1.66699 -8.66699 5 -12s7.33301 -5 12 -5h478c4.66699 0 8.66699 1.66699 12 5s5 7.33301 5 12v179c0 4.66699 -1.66699 8.66699 -5 12
s-7.33301 5 -12 5zM495 103c0 -6 -3 -9 -9 -9h-460c-6 0 -9 3 -9 9v162c0 5.33301 3 8 9 8h122c6 0 9 -2.66699 9 -8c0 -6 -3 -9 -9 -9h-114v-145h444v145h-61c-5.33301 0 -8 3 -8 9c0 5.33301 2.66699 8 8 8h69c6 0 9 -2.66699 9 -8v-162zM396 435l39 -39l-17 -17l-40 39z
M366 406l39 -39l-119 -120l-39 39zM271 238l-33 32l-18 -56z" />
    <glyph glyph-name="n" unicode="n" 
d="M256 512c-70.667 0 -131 -25 -181 -75s-75 -110.333 -75 -181s25 -131 75 -181s110.333 -75 181 -75s131 25 181 75s75 110.333 75 181s-25 131 -75 181s-110.333 75 -181 75zM161 230l69 -69l-113 -44zM244 170l-74 74l127 127l74 -74zM383 310l-73 73l30 31l74 -74z
" />
    <glyph glyph-name="o" unicode="o" 
d="M292 249l-55 -24h-4c-1.33301 0 -3.33301 0.666992 -6 2c-2 3.33301 -2.66699 6.66602 -2 9.99902l24 55c0.666992 0 1 0.333008 1 1s0.333008 1.33398 1 2.00098l133 133h-383v-427h401v357l-107 -107l-1 -1c-1.33301 0 -2 -0.333008 -2 -1zM368 266c0 5.33301 3 8 9 8
c5.33301 0 8 -2.66699 8 -8v-239c0 -6 -2.66699 -9 -8 -9h-350c-6 0 -9 3 -9 9v375c0 6 3 9 9 9h273c5.33301 0 8 -3 8 -9c0 -5.33301 -2.66699 -8 -8 -8h-265v-359h333v231zM264 284l-14 -34l34 14l160 160l-20 20zM476 466c-4 7.33301 -9 11 -15 11
c-2.66699 0 -5 -1.33301 -7 -4l-18 -17l20 -20l17 18c4 2.66699 5 6.66699 3 12z" />
    <glyph glyph-name="p" unicode="p" 
d="M507 257c-15.333 30.667 -37.334 57 -66.001 79c-9.33301 6.66699 -17.333 5.33398 -24 -3.99902s-5.33398 -17.333 3.99902 -24c24 -18.667 40.667 -37 50 -55c-66 -80.667 -136.333 -121 -211 -121c-14.667 0 -28.334 1 -41.001 3
c-11.333 1.33301 -17.666 -3.33398 -18.999 -14.001c-1.33301 -11.333 3.33398 -18 14.001 -20c14 -2 29.333 -3 46 -3c26.667 0 53.334 5 80.001 15s49 21.167 67 33.5s35.167 26.5 51.5 42.5s27.5 27.833 33.5 35.5s10.333 13.5 13 17.5c3.33301 4.66699 4 9.66699 2 15z
M79.999 171c6 0 10.668 2.33398 14.001 7.00098c7.33301 10 6 18 -4 24c-15.333 11.333 -27.666 23.333 -36.999 36c-4 5.33301 -7.33301 10 -10 14c9.33301 11.333 19.666 22.666 30.999 33.999s26.666 24.833 45.999 40.5s41.333 28.5 66 38.5s49.334 15 74.001 15
c4 0 14 -1.33301 30 -4c10.667 -2.66699 17.667 1.66602 21 12.999c2.66699 10.667 -1.66602 17.334 -12.999 20.001c-16.667 3.33301 -29.334 5 -38.001 5c-26.667 0 -53.667 -5.33301 -81 -16s-50.166 -22.5 -68.499 -35.5s-36.333 -28.167 -54 -45.5
s-29.334 -29.666 -35.001 -36.999l-14.5 -19c-4.66699 -6.66699 -4.33398 -13.334 0.999023 -20.001c6.66699 -8 12.334 -15.667 17.001 -23c11.333 -16 26.666 -30.667 45.999 -44c3.33301 -2 6.33301 -3 9 -3zM262 185.001c19.333 0 36.167 7 50.5 21s21.5 31 21.5 51
c0 6 -1.33301 13 -4 21l-88 -90c6 -2 12.667 -3 20 -3zM190.001 257.001c0 -7.33301 1 -14.334 3 -21.001l88 90c-6 2 -12.333 3 -19 3c-20 0 -37 -7.16699 -51 -21.5s-21 -31.166 -21 -50.499zM486.001 486c-8 6.66699 -16 6.66699 -24 0l-410 -419
c-8 -7.33301 -7.66699 -15.333 1 -24c3.33301 -3.33301 7.33301 -5 12 -5c4 0 8 2 12 6l409 418c8.66699 7.33301 8.66699 15.333 0 24z" />
    <glyph glyph-name="q" unicode="q" 
d="M189 136l-0.000976562 18h9c5.33301 0 8 2.66699 8 8v34c0 6 -2.66699 9 -8 9h-102c-6 0 -9 -3 -9 -9v-34c0 -5.33301 3 -8 9 -8h8v-18c-31.333 -2 -56.166 -14.333 -74.499 -37s-27.5 -52.667 -27.5 -90c0 -6 2.66699 -9 8 -9h273c6 0 9 3 9 9
c0 37.333 -9.16699 67.333 -27.5 90s-43.5 35 -75.5 37zM479.999 375c28.667 66 33.666 107.666 14.999 124.999l-1 1l-1 1h-1c-3.33301 2.66699 -6.66602 2.33398 -9.99902 -0.999023l-62 -62v52c0 2.66699 -1.33301 4.66699 -4 6c-2.66699 2 -5 2 -7 0
c-26.667 -14.667 -52.667 -34.667 -78 -60c-30 -30 -51.667 -59.667 -65 -89s-15 -52 -5 -68l-35 -35c-4 -4 -4 -8 0 -12c2 -2 4 -3 6 -3s4 1 6 3l35 35c14.667 -12 39 -13.167 73 -3.5s64.333 29.5 91 59.5h-108l18 17h107c5.33301 0 8 3 8 9c0 5.33301 -2.66699 8 -8 8
h-90l17 17h99z" />
    <glyph glyph-name="r" unicode="r" 
d="M440 512l-203.001 -202.999c-20 10 -45 15 -75 15c-44.667 0 -82.834 -15.833 -114.501 -47.5s-47.5 -69.834 -47.5 -114.501s15.833 -82.834 47.5 -114.501s69.834 -47.5 114.501 -47.5s82.834 15.833 114.501 47.5s47.5 69.834 47.5 114.501c0 22.667 -5 45 -15 67
l61 61h40v39l3 4h39v39l4 3h39v40l17 21v76h-72zM110.999 77.001c-12 0 -22.167 4.16699 -30.5 12.5s-12.5 18.166 -12.5 29.499c0 12 4.16699 22.167 12.5 30.5s18.5 12.5 30.5 12.5c11.333 0 21.333 -4.16699 30 -12.5s13 -18.5 13 -30.5
c0 -11.333 -4.33301 -21.166 -13 -29.499s-18.667 -12.5 -30 -12.5z" />
    <glyph glyph-name="s" unicode="s" 
d="M461 329l37.001 37.999l-51 51l28 28c8 7.33301 12 16.333 12 27s-4 20 -12 28c-7.33301 7.33301 -16.333 11 -27 11s-19.667 -3.66699 -27 -11l-234 -234c-18.667 9.33301 -38.334 14 -59.001 14c-35.333 0 -65.5 -12.5 -90.5 -37.5s-37.5 -55.167 -37.5 -90.5
s12.5 -65.5 37.5 -90.5s55.167 -37.5 90.5 -37.5s65.5 12.5 90.5 37.5s37.5 55.167 37.5 90.5c0 20.667 -4.66699 40.334 -14 59.001l108 108l43 -42l37 37l-42 43l22 22zM128.001 101.999c-14 0 -26 5 -36 15s-15 22 -15 36s5 26 15 36s22 15 36 15s26 -5 36 -15
s15 -22 15 -36s-5 -26 -15 -36s-22 -15 -36 -15z" />
    <glyph glyph-name="t" unicode="t" 
d="M444 350l-113.002 0.000976562c-16 0 -29.667 -5.83301 -41 -17.5s-17 -25.834 -17 -42.501c0 -4.66699 1.66699 -8.66699 5 -12s7.33301 -5 12 -5s8.66699 1.66699 12 5s5 7.33301 5 12c0 7.33301 2.33301 13.5 7 18.5s10.334 7.5 17.001 7.5h113
c9.33301 0 17.333 -3.33301 24 -10s10 -14.667 10 -24v-52c0 -9.33301 -3.33301 -17.333 -10 -24s-14.667 -10 -24 -10h-113c-11.333 0 -18.166 0.5 -20.499 1.5s-3.5 3.5 -3.5 7.5c0 4.66699 -1.66699 8.66699 -5 12s-7.33301 5 -12 5s-8.66699 -1.66699 -12 -5
s-5 -7.33301 -5 -12c0 -28.667 19.333 -43 58 -43h113c18.667 0 34.667 6.66699 48 20s20 29.333 20 48v52c0 18.667 -6.66699 34.667 -20 48s-29.333 20 -48 20zM221.998 222.001c-4.66699 0 -8.66895 -1.66797 -12.002 -5.00098s-5 -7.33301 -5 -12
c0 -4 -1.16699 -6.5 -3.5 -7.5s-9.16602 -1.5 -20.499 -1.5h-113c-9.33301 0 -17.333 3.33301 -24 10s-10 14.667 -10 24v52c0 9.33301 3.33301 17.333 10 24s14.667 10 24 10h113c6.66699 0 12.334 -2.5 17.001 -7.5s7 -11.167 7 -18.5c0 -4.66699 1.66699 -8.66699 5 -12
s7.33301 -5 12 -5s8.66699 1.66699 12 5s5 7.33301 5 12c0 16.667 -5.66699 30.834 -17 42.501s-25 17.5 -41 17.5h-113c-18.667 0 -34.667 -6.66699 -48 -20s-20 -29.333 -20 -48v-52c0 -18.667 6.66699 -34.667 20 -48s29.333 -20 48 -20h113c38.667 0 58 14.333 58 43
c0 4.66699 -1.66699 8.66699 -5 12s-7.33301 5 -12 5zM118.996 247c0 -4.66699 1.83301 -8.66699 5.5 -12s7.83398 -5 12.501 -5h238c4.66699 0 8.83398 1.66699 12.501 5s5.5 7.33301 5.5 12s-1.83301 8.83398 -5.5 12.501s-7.83398 5.5 -12.501 5.5h-238
c-4.66699 0 -8.83398 -1.83301 -12.501 -5.5s-5.5 -7.83398 -5.5 -12.501z" />
    <glyph glyph-name="u" unicode="u" 
d="M479 436l-56 56c-13.333 13.333 -29.333 20 -48 20s-34.667 -6.66699 -48 -20l-101 -100c-10.667 -11.333 -15.167 -24.833 -13.5 -40.5s9.16699 -30.167 22.5 -43.5c8 -8 16 -8 24 0s8 16 0 24c-14.667 14.667 -17.667 26.667 -9 36l101 100
c6.66699 6.66699 14.667 10 24 10s17.333 -3.33301 24 -10l56 -56c6.66699 -6.66699 10 -14.667 10 -24s-3.33301 -17.333 -10 -24l-101 -100c-2.66699 -3.33301 -7 -5 -13 -5c-7.33301 0.666992 -14.666 5 -21.999 13c-8.66699 8.66699 -16.667 8.66699 -24 0
c-8.66699 -7.33301 -8.66699 -15.333 0 -24c11.333 -12.667 25 -20 41 -22c2 -0.666992 4.66699 -1 8 -1c13.333 0 24.666 5 33.999 15l101 100c13.333 13.333 20 29.333 20 48c0 20 -6.66699 36 -20 48zM252 230c-8 -8 -7.99707 -16.335 0.00292969 -25.002
c4 -3.33301 7.5 -8 10.5 -14s2.16699 -13 -2.5 -21l-99 -100c-6 -6.66699 -14 -10 -24 -10s-18 3.33301 -24 10l-57 56c-6.66699 8 -10 16 -10 24c0 9.33301 3.33301 17.333 10 24l101 100c7.33301 4.66699 14.166 5.33398 20.499 2.00098s11.166 -7 14.499 -11
c8.66699 -7.33301 16.667 -7.33301 24 0c8.66699 8.66699 8.66699 16.667 0 24c-13.333 14 -27.833 21.833 -43.5 23.5s-28.834 -3.16602 -39.501 -14.499l-101 -99c-13.333 -13.333 -20 -29.666 -20 -48.999c0 -18.667 6.66699 -34.667 20 -48l57 -57
c14 -12.667 30 -19 48 -19c18.667 0 34.667 6.66699 48 20l100 100c10.667 11.333 15.167 24.666 13.5 39.999s-9.16699 30 -22.5 44c-8 6.66699 -16 6.66699 -24 0zM158.003 170.998c3.33301 -3.33301 7.33301 -5 12 -5s8.66699 1.66699 12 5l171 171c8 8 8 16 0 24
c-8.66699 8.66699 -16.667 8.66699 -24 0l-171 -171c-8.66699 -7.33301 -8.66699 -15.333 0 -24z" />
    <glyph glyph-name="v" unicode="v" 
d="M257 144l-54 -53c-14 -14 -28.333 -21.333 -43 -22c-14 -0.666992 -25.667 3.66602 -35 12.999l-17 17c-9.33301 9.33301 -14 21 -14 35s4.66699 25.667 14 35l94 94c14.667 14.667 29 21.334 43 20.001c15.333 -1.33301 29.333 -10.333 42 -27
c7.33301 -8.66699 15.333 -9.66699 24 -3c9.33301 6.66699 10.333 14.667 3 24c-18.667 24.667 -41 38 -67 40c-24.667 1.33301 -47.667 -8.66699 -69 -30l-94 -94c-16 -16 -24 -35.667 -24 -59s8 -43 24 -59l17 -17c15.333 -15.333 34 -23 56 -23h5
c24 1.33301 45.667 12 65 32l54 53c8.66699 8.66699 8.66699 16.667 0 24c-8.66699 8.66699 -16.667 8.66699 -24 0zM449 398l-17 16.9971c-16 16 -35.333 25.333 -58 28s-42.667 -3.66602 -60 -18.999l-61 -62c-8.66699 -8.66699 -8.66699 -16.667 0 -24
c7.33301 -8.66699 15.333 -8.66699 24 0l61 61c9.33301 8.66699 20.833 11.834 34.5 9.50098s25.5 -8.16602 35.5 -17.499l17 -17c9.33301 -9.33301 14 -19.666 14 -30.999c0 -10.667 -4.66699 -20.667 -14 -30l-102 -103c-9.33301 -8.66699 -19.333 -12 -30 -10
c-14 1.33301 -23.667 6.66602 -29 15.999c-6.66699 9.33301 -14.667 11 -24 5s-11 -14 -5 -24c13.333 -18.667 31.333 -29 54 -31h8c20 0 36.667 6.66699 50 20l102 102c16 16 24 34.333 24 55c0 22 -8 40.333 -24 55z" />
    <glyph glyph-name="w" unicode="w" 
d="M124 406c4.66699 -3.33301 9 -5 13 -5c3.33301 0 7.33301 1.66699 12 5c7.33301 8.66699 7.33301 16.667 0 24l-43 43c-8.66699 8.66699 -16.667 8.66699 -24 0c-8.66699 -8.66699 -8.66699 -16.667 0 -24zM196 418c4.66699 0 8.66699 1.66699 12 5s5 7.33301 5 12v51
c0 11.333 -5.66699 17 -17 17c-4.66699 0 -8.66699 -1.66699 -12 -5s-5 -7.33301 -5 -12v-51c0 -4.66699 1.66699 -8.66699 5 -12s7.33301 -5 12 -5zM60 341h51c4.66699 0 8.66699 1.66699 12 5s5 7.33301 5 12s-1.66699 8.66699 -5 12s-7.33301 5 -12 5h-51
c-11.333 0 -17 -5.66699 -17 -17c0 -4.66699 1.66699 -8.66699 5 -12s7.33301 -5 12 -5zM227 123l-68.001 -68c-29.333 -29.333 -58.333 -29.333 -87 0l-17 17c-29.333 28.667 -29.333 57.667 0 87l68 68c8 8 8 16 0 24s-16 8 -24 0l-68 -68
c-20.667 -20.667 -31 -43.167 -31 -67.5s10.333 -46.833 31 -67.5l17 -17c20 -20.667 42.333 -31 67 -31s47.334 10.333 68.001 31l68 68c8 8 8 16 0 24s-16 8 -24 0zM417.999 375l-93.999 0.000976562c-4.66699 0 -8.66699 -1.66699 -12 -5s-5 -7.33301 -5 -12
s1.66699 -8.66699 5 -12s7.33301 -5 12 -5h94c15.333 0 29.166 -7 41.499 -21s18.5 -29.333 18.5 -46v-44c0 -15.333 -6 -29 -18 -41s-26 -18 -42 -18h-94c-4.66699 0 -8.66699 -1.66699 -12 -5s-5 -7.33301 -5 -12s1.66699 -8.66699 5 -12s7.33301 -5 12 -5h94
c25.333 0 47.333 9.16699 66 27.5s28 40.166 28 65.499v44c0 25.333 -9.16699 48.5 -27.5 69.5s-40.5 31.5 -66.5 31.5z" />
    <glyph glyph-name="x" unicode="x" 
d="M413 375l-82.001 -0.000976562c-4.66699 0 -8.66699 -1.66699 -12 -5s-5 -7.33301 -5 -12s1.66699 -8.66699 5 -12s7.33301 -5 12 -5h82c18 0 33.333 -6.66699 46 -20s19 -29.333 19 -48v-17c0 -18.667 -6.33301 -34.667 -19 -48s-27.667 -20 -45 -20h-81
c-4.66699 0 -8.66699 -1.66699 -12 -5s-5 -7.33301 -5 -12c0 -11.333 5.66699 -17 17 -17h81c26.667 0 49.667 10 69 30s29 44 29 72v17c0 28.667 -9.66699 52.834 -29 72.501s-42.666 29.5 -69.999 29.5zM195.999 170.999c0 4.66699 -1.66797 8.66797 -5.00098 12.001
s-7.33301 5 -12 5h-81c-17.333 0 -32.333 6.66699 -45 20s-19 29.333 -19 48v17c0 18.667 6.33301 34.667 19 48s28 20 46 20h82c4.66699 0 8.66699 1.66699 12 5s5 7.33301 5 12s-1.66699 8.66699 -5 12s-7.33301 5 -12 5h-82c-27.333 0 -50.666 -9.83301 -69.999 -29.5
s-29 -43.834 -29 -72.501v-17c0 -28 9.66699 -52 29 -72s42.333 -30 69 -30h81c11.333 0 17 5.66699 17 17zM255.998 495c-4.66699 0 -8.66699 -1.66699 -12 -5s-5 -7.33301 -5 -12v-68c0 -4.66699 1.66699 -8.66699 5 -12s7.33301 -5 12 -5s8.66699 1.66699 12 5
s5 7.33301 5 12v68c0 4.66699 -1.66699 8.66699 -5 12s-7.33301 5 -12 5zM323.998 401c4.66699 0 8.66699 1.66699 12 5l34 34c8.66699 8.66699 8.66699 16.667 0 24c-7.33301 8.66699 -15.333 8.66699 -24 0l-34 -34c-7.33301 -7.33301 -7.33301 -15.333 0 -24
c4.66699 -3.33301 8.66699 -5 12 -5zM173.998 465c-7.33301 7.33301 -15.333 7.33301 -24 0c-8.66699 -8.66699 -8.66699 -16.667 0 -24l34 -35c3.33301 -3.33301 7.33301 -5 12 -5s8.66699 1.66699 12 5c8 8 8 16 0 24zM255.998 137c-4.66699 0 -8.66699 -1.83301 -12 -5.5
s-5 -7.83398 -5 -12.501v-68c0 -4.66699 1.66699 -8.66699 5 -12s7.33301 -5 12 -5s8.66699 1.66699 12 5s5 7.33301 5 12v68c0 4.66699 -1.66699 8.83398 -5 12.501s-7.33301 5.5 -12 5.5zM327.998 114c-8.66699 8.66699 -16.667 8.66699 -24 0
c-8.66699 -7.33301 -8.66699 -15.333 0 -24l34 -34c3.33301 -3.33301 7.33301 -5 12 -5s8.66699 1.66699 12 5c8.66699 8.66699 8.66699 16.667 0 24zM183.998 114l-34 -34c-8.66699 -7.33301 -8.66699 -15.333 0 -24c3.33301 -3.33301 7.33301 -5 12 -5
s8.66699 1.66699 12 5l34 34c8.66699 8.66699 8.66699 16.667 0 24c-7.33301 8.66699 -15.333 8.66699 -24 0z" />
    <glyph glyph-name="y" unicode="y" 
d="M383 283l0.00195312 109.999c0 31.333 -13 59 -39 83s-55.667 36 -89 36s-63 -12 -89 -36s-39 -51.667 -39 -83v-110c-28.667 -33.333 -43 -70.666 -43 -111.999c0 -47.333 16.667 -87.666 50 -120.999s73.666 -50 120.999 -50s87.666 16.667 120.999 50
s50 73.666 50 120.999c0 42.667 -14.333 80 -43 112zM264.002 155.999v-62c0 -6 -3 -9 -9 -9c-5.33301 0 -8 3 -8 9v62c-6 2.66699 -9 7.66699 -9 15c0 4.66699 1.66699 8.66699 5 12s7.33301 5 12 5s8.66699 -1.66699 12 -5s5 -7.33301 5 -12
c0 -6.66699 -2.66699 -11.667 -8 -15zM366.002 299.999c-31.333 27.333 -68.335 41 -111.002 41s-79.667 -13.667 -111 -41v93c0 26 11.333 49.5 34 70.5s48.334 31.5 77.001 31.5s54.334 -10.5 77.001 -31.5s34 -44.5 34 -70.5v-93z" />
    <glyph glyph-name="z" unicode="z" 
d="M384 307v68c0 34.667 -12.167 66.167 -36.5 94.5s-54.833 42.5 -91.5 42.5s-67.167 -14.167 -91.5 -42.5s-36.5 -59.833 -36.5 -94.5v-68h-51v-307h358v307h-51zM265 173v-58c0 -6 -3 -9 -9 -9s-9 3 -9 9v58c-5.33301 3.33301 -8 8.33301 -8 15
c0 4.66699 1.66699 8.66699 5 12s7.33301 5 12 5s8.66699 -1.66699 12 -5s5 -7.33301 5 -12c0 -6.66699 -2.66699 -11.667 -8 -15zM367 307h-221.998v68c0 30.667 10.667 58.334 32 83.001s47.666 37 78.999 37s57.666 -12.333 78.999 -37s32 -52.334 32 -83.001v-68z" />
    <glyph glyph-name="braceleft" unicode="{" 
d="M419 244c2 3.33301 1.66602 6.33301 -1.00098 9l-188 197c-2.66699 1.33301 -4.66699 2 -6 2c-2.66699 0 -4.66699 -0.666992 -6 -2l-3 -3v22c0 12 -4.16699 22.167 -12.5 30.5s-18.166 12.5 -29.499 12.5h-17c-12 0 -22.167 -4.16699 -30.5 -12.5
s-12.5 -18.5 -12.5 -30.5v-124l-83 -83c-10 -10 -15 -22 -15 -36s5 -26 15 -36l103 -102c8.66699 -10 20.334 -15 35.001 -15s26.667 5 36 15l151 151h57c3.33301 0 5.66602 1.66699 6.99902 5zM197.999 430l-68 -68v107c0 7.33301 2.66699 13.5 8 18.5s11.333 7.5 18 7.5
h17c6.66699 0 12.5 -2.5 17.5 -7.5s7.5 -11.167 7.5 -18.5v-39zM444.999 183c-1.33301 3.33301 -3.83203 4.99902 -7.49902 4.99902s-6.16699 -1.66699 -7.5 -5c-6.66699 -10 -17 -29.667 -31 -59s-21 -50.666 -21 -63.999c0 -17.333 5.5 -31.666 16.5 -42.999
s25.167 -17 42.5 -17s31.666 5.66699 42.999 17s17 25.666 17 42.999c0 19.333 -17.333 60.333 -52 123z" />
    <glyph glyph-name="bar" unicode="|" 
d="M361 354l144.998 128c8.66699 7.33301 9.33398 15.333 2.00098 24c-8 8 -16 8.66699 -24 2l-145 -128c-2 -2 -3.33301 -3.66699 -4 -5h-216v43c0 6 -2.66699 9 -8 9h-68c-6 0 -9 -3 -9 -9v-43h-25c-6 0 -9 -2.66699 -9 -8v-68c0 -6 3 -9 9 -9h25v-230c0 -6 3 -9 9 -9h230
v-42c0 -6 3 -9 9 -9h68c5.33301 0 8 3 8 9v42h43c6 0 9 3 9 9v68c0 6 -3 9 -9 9h-43v215l1 1c0.666992 0.666992 1.33398 1 2.00098 1zM118.998 290h130l-130 -129v129zM272.998 137h-129l129 129v-129z" />
    <glyph glyph-name="braceright" unicode="}" 
d="M205 401h101.998c6 0 9 3 9 9v42c0 15.333 -5.66699 29.166 -17 41.499s-25.666 18.5 -42.999 18.5s-31.666 -6.16699 -42.999 -18.5s-17 -26.166 -17 -41.499v-42c0 -6 3 -9 9 -9zM349.998 384h-188c-5.33301 0 -8 -3 -8 -9c0 -5.33301 2.66699 -8 8 -8h34l1 -154
c-1.33301 -25.333 9.66699 -44 33 -56v-46c0 -6 3 -9 9 -9h34c6 0 9 3 9 9v46c22.667 14 34 32.667 34 56v154h34c5.33301 0 8 2.66699 8 8c0 6 -2.66699 9 -8 9zM281.998 213c0 -11.333 -8.66699 -17 -26 -17s-26 5.66699 -26 17v120c0 5.33301 3 8 9 8h34
c6 0 9 -2.66699 9 -8v-120zM251.998 78c-15.333 -24.667 -23.0039 -40.667 -23.0039 -48c0 -8.66699 2.83301 -15.834 8.5 -21.501s12.834 -8.5 21.501 -8.5s15.834 2.83301 21.501 8.5s8.5 12.834 8.5 21.501c0 7.33301 -7.66699 23.333 -23 48
c-1.33301 2.66699 -3.66602 4 -6.99902 4s-5.66602 -1.33301 -6.99902 -4z" />
    <glyph glyph-name="asciitilde" unicode="~" 
d="M375 341h-238c-6 0 -9 -2.66699 -9 -8c0 -6 3 -9 9 -9h34v-51h51c5.33301 0 8 -2.66699 8 -8c0 -6 -2.66699 -9 -8 -9h-51v-17h51c5.33301 0 8 -3 8 -9c0 -5.33301 -2.66699 -8 -8 -8h-51v-17h51c5.33301 0 8 -3 8 -9c0 -5.33301 -2.66699 -8 -8 -8h-51v-51
c0 -46.667 17 -77.334 51 -92.001v-36c0 -6 2.66699 -9 8 -9h52c5.33301 0 8 3 8 9v36c34 14.667 51 45.334 51 92.001v187h34c6 0 9 3 9 9c0 5.33301 -3 8 -9 8zM179 358h154c5.33301 0 8 3 8 9v51c0 26 -8.33301 48.167 -25 66.5s-36.667 27.5 -60 27.5
s-43.333 -9.16699 -60 -27.5s-25 -40.5 -25 -66.5v-51c0 -6 2.66699 -9 8 -9z" />
    <glyph glyph-name="uniE000" unicode="&#xe000;" 
d="M65 116c-2 -4 -1.33398 -7.66699 1.99902 -11l17 -17c1.33301 -2 3.33301 -3 6 -3c0.666992 0 2.33398 0.666992 5.00098 2l130 98l-70 70zM155.999 279l89 -89l2 -4l61 -6l-158 157zM479.999 356l-154 153c-4 5.33301 -8 5.33301 -12 0l-156 -156l166 -165l156 156
c4 4 4 8 0 12zM47.999 72c-12 -24 -18 -39.333 -18 -46c0 -7.33301 2.33301 -13.5 7 -18.5s10.667 -7.5 18 -7.5s13.5 2.5 18.5 7.5s7.5 11.167 7.5 18.5c0 6.66699 -6 22 -18 46c-1.33301 2.66699 -3.83301 4 -7.5 4s-6.16699 -1.33301 -7.5 -4z" />
    <glyph glyph-name="uniE001" unicode="&#xe001;" 
d="M495 230c4.66699 0 8.66699 1.66699 12 5s5 7.33301 5 12s-1.66699 8.83398 -5 12.501s-7.33301 5.5 -12 5.5h-128v68h128c4.66699 0 8.66699 1.66699 12 5s5 7.33301 5 12s-1.66699 8.66699 -5 12s-7.33301 5 -12 5h-128v128c0 4.66699 -1.66699 8.66699 -5 12
s-7.33301 5 -12 5s-8.66699 -1.66699 -12 -5s-5 -7.33301 -5 -12v-128h-68v128c0 4.66699 -1.83301 8.66699 -5.5 12s-7.83398 5 -12.501 5s-8.66699 -1.66699 -12 -5s-5 -7.33301 -5 -12v-128h-68v128c0 4.66699 -1.66699 8.66699 -5 12s-7.33301 5 -12 5
s-8.66699 -1.66699 -12 -5s-5 -7.33301 -5 -12v-128h-111c-4.66699 0 -8.66699 -1.66699 -12 -5s-5 -7.33301 -5 -12s1.66699 -8.66699 5 -12s7.33301 -5 12 -5h111v-68h-111c-4.66699 0 -8.66699 -1.83301 -12 -5.5s-5 -7.83398 -5 -12.501s1.66699 -8.66699 5 -12
s7.33301 -5 12 -5h111v-68h-111c-4.66699 0 -8.66699 -1.66699 -12 -5s-5 -7.33301 -5 -12s1.66699 -8.66699 5 -12s7.33301 -5 12 -5h111v-111c0 -4.66699 1.66699 -8.66699 5 -12s7.33301 -5 12 -5s8.66699 1.66699 12 5s5 7.33301 5 12v111h68v-111
c0 -4.66699 1.66699 -8.66699 5 -12s7.33301 -5 12 -5s8.83398 1.66699 12.501 5s5.5 7.33301 5.5 12v111h68v-111c0 -4.66699 1.66699 -8.66699 5 -12s7.33301 -5 12 -5s8.66699 1.66699 12 5s5 7.33301 5 12v111h128c4.66699 0 8.66699 1.66699 12 5s5 7.33301 5 12
s-1.66699 8.66699 -5 12s-7.33301 5 -12 5h-128v68h128zM230 162h-68v68h68v-68zM230 265h-68v68h68v-68zM333 162h-68v68h68v-68zM333 265h-68v68h68v-68z" />
    <glyph glyph-name="uniE002" unicode="&#xe002;" 
d="M52 137v170h-43c-6 0 -9 -2.66699 -9 -8v-231c0 -5.33301 3 -8 9 -8h349c6 0 9 2.66699 9 8v60h-307c-5.33301 0 -8 3 -8 9zM118 218v175h-41c-5.33301 0 -8 -3 -8 -9v-239h358c5.33301 0 8 3 8 9v56h-308c-6 0 -9 2.66699 -9 8zM135 478h377v-251h-377v251z" />
    <glyph glyph-name="uniE003" unicode="&#xe003;" 
d="M487 318l-53.998 54.999l40 89c1.33301 4 0.666016 7 -2.00098 9c-2.66699 2.66699 -6 3.33398 -10 2.00098l-88 -40l-56 55c-2 2.66699 -5.33301 3.33398 -10 2.00098c-4 -2.66699 -5.33301 -6 -4 -10l16 -78l-96 -40c-4.66699 -1.33301 -6.33398 -4.33301 -5.00098 -9
c0 -4.66699 2.33301 -7 7 -7l84 -13l-7 -6l-276 -277c-7.33301 -7.33301 -7.33301 -15.333 0 -24c4.66699 -3.33301 8.66699 -5 12 -5c4.66699 0 8.66699 1.66699 12 5l277 276l6 7l13 -84c0 -4.66699 2.33301 -7 7 -7h1c3.33301 0 6 1.66699 8 5l40 88l79 -8h1
c6 0 9 2.66699 9 8c0 3.33301 -1.33301 5.66602 -4 6.99902z" />
    <glyph glyph-name="uniE004" unicode="&#xe004;" 
d="M278 302l-272.999 -273c-7.33301 -8.66699 -7.33301 -16.667 0 -24c3.33301 -3.33301 7.33301 -5 12 -5c5.33301 0 9.66602 1.66699 12.999 5l273 273c7.33301 7.33301 7.33301 15.333 0 24c-8 7.33301 -16.333 7.33301 -25 0zM495.001 376h-69
c-4.66699 0 -8.66699 -1.66699 -12 -5s-5 -7.33301 -5 -12s1.66699 -8.66699 5 -12s7.33301 -5 12 -5h69c4.66699 0 8.66699 1.66699 12 5s5 7.33301 5 12s-1.66699 8.66699 -5 12s-7.33301 5 -12 5zM409.001 393c4.66699 0 8.66699 1.66699 12 5l51 51
c8.66699 8.66699 8.66699 16.667 0 24c-7.33301 8.66699 -15.333 8.66699 -24 0l-51 -51c-8 -8 -8 -16 0 -24c3.33301 -3.33301 7.33301 -5 12 -5zM358.001 512c-4.66699 0 -8.66699 -1.66699 -12 -5s-5 -7.33301 -5 -12v-68c0 -4.66699 1.66699 -8.66699 5 -12
s7.33301 -5 12 -5s8.66699 1.66699 12 5s5 7.33301 5 12v68c0 4.66699 -1.66699 8.66699 -5 12s-7.33301 5 -12 5zM268.001 473c-8.66699 8.66699 -16.667 8.66699 -24 0c-8.66699 -7.33301 -8.66699 -15.333 0 -24l51 -51c3.33301 -3.33301 7.33301 -5 12 -5
s8.66699 1.66699 12 5c8 8 8 16 0 24zM221.001 342h69c4.66699 0 8.66699 1.66699 12 5s5 7.33301 5 12s-1.66699 8.66699 -5 12s-7.33301 5 -12 5h-69c-4.66699 0 -8.66699 -1.66699 -12 -5s-5 -7.33301 -5 -12s1.66699 -8.66699 5 -12s7.33301 -5 12 -5zM358.001 299
c-4.66699 0 -8.66699 -1.66699 -12 -5s-5 -7.33301 -5 -12v-68c0 -4.66699 1.66699 -8.66699 5 -12s7.33301 -5 12 -5s8.66699 1.66699 12 5s5 7.33301 5 12v68c0 4.66699 -1.66699 8.66699 -5 12s-7.33301 5 -12 5zM421.001 320c-7.33301 7.33301 -15.333 7.33301 -24 0
c-8.66699 -8.66699 -8.66699 -16.667 0 -24l51 -52c4.66699 -3.33301 8.66699 -5 12 -5c4.66699 0 8.66699 1.66699 12 5c8.66699 8.66699 8.66699 16.667 0 24z" />
    <glyph glyph-name="uniE005" unicode="&#xe005;" 
d="M270 147c-16 -17.333 -36.667 -26 -62 -26c-24 0 -44.667 8.66699 -62 26c-17.333 16.667 -26 37.334 -26 62.001s8.66699 45.334 26 62.001l109 110l-72 71l-117 -117c-38.667 -38.667 -59 -85.334 -61 -140.001s15.333 -100.334 52 -137.001c36 -36 80.667 -54 134 -54
s98 18 134 54l126 126l-71 72zM307 433c5.33301 4 5.33301 8 0 12l-59 60c-1.33301 2 -3.33301 3 -6 3c-2 0 -4 -1 -6 -3l-41 -41l72 -71zM504 249l-59 60c-4.66699 3.33301 -8.66699 3.33301 -12 0l-41 -41l72 -72l40 41c4.66699 4.66699 4.66699 8.66699 0 12z" />
    <glyph glyph-name="uniE006" unicode="&#xe006;" 
d="M134 83l-43 41.999c-3.33301 4.66699 -7.33301 4.66699 -12 0l-76 -76c-3.33301 -3.33301 -4 -6.66602 -2 -9.99902c1.33301 -3.33301 4 -5 8 -5h85c2 0 4 1 6 3l34 34c3.33301 3.33301 3.33301 7.33301 0 12zM92 201.999c0.666992 -6 -5.33301 -16 -18 -30
c-3.33301 -3.33301 -3.33301 -7.33301 0 -12l95 -94c0.666992 -2 2.66699 -3 6 -3c2 0 4 1 6 3c12 12 21.333 18 28 18c7.33301 0 18 -7.33301 32 -22c2.66699 -1.33301 4.66699 -2 6 -2c2.66699 0 4.66699 0.666992 6 2l36 34c1.33301 2.66699 2 4.66699 2 6
c0 2.66699 -0.666992 4.66699 -2 6l-171 171c-4 4 -8 4 -12 0l-35 -34c-2 -2 -3 -4 -3 -6s1 -4 3 -6c14 -14.667 21 -25 21 -31zM300 115.999c0.666992 -1.33301 2.66699 -2 6 -2c2.66699 0 4.66699 1 6 3l198 252c4 4 3.66699 7.66699 -1 11l-129 129
c-3.33301 4.66699 -7 5 -11 1l-240 -211c-2 -2 -3 -4 -3 -6c0 -3.33301 1 -5.33301 3 -6zM503 16.999h-366c-6 0 -9 -2.66699 -9 -8c0 -6 3 -9 9 -9h366c6 0 9 3 9 9c0 5.33301 -3 8 -9 8z" />
    <glyph glyph-name="uniE007" unicode="&#xe007;" 
d="M433 407c-53.333 53.333 -116.669 80.002 -190.002 80.002c-67.333 0 -124.666 -23.667 -171.999 -71c-49.333 -49.333 -73 -111.333 -71 -186c2 -72.667 28.333 -134.334 79 -185.001c11.333 -10 23.333 -15 36 -15s24.667 5 36 15c10 10.667 15 22.834 15 36.501
s-5 25.5 -15 35.5c-12.667 12.667 -15.334 23 -8.00098 31c2 2 3.66699 3 5 3c3.33301 0 9 -4 17 -12l94 -94c24.667 -24.667 55 -37 91 -37s66.333 12.333 91 37c48.667 49.333 72.334 109.166 71.001 179.499s-27.666 131.166 -78.999 182.499zM237.997 336.002
c-6.66699 -6.66699 -14.667 -10 -24 -10s-17.666 3.33301 -24.999 10c-6.66699 6.66699 -10 14.667 -10 24s3.33301 17.333 10 24c7.33301 6.66699 15.666 10 24.999 10s17.333 -3.33301 24 -10s10 -14.667 10 -24s-3.33301 -17.333 -10 -24zM322.997 361.002
c7.33301 7.33301 15.666 11 24.999 11s17.333 -3.66699 24 -11c6.66699 -6.66699 10 -14.667 10 -24s-3.33301 -17.333 -10 -24s-14.667 -10 -24 -10s-17.666 3.33301 -24.999 10c-6.66699 6.66699 -10 14.667 -10 24s3.33301 17.333 10 24zM377.997 94.002
c-8.66699 -8.66699 -18.834 -13 -30.501 -13s-21.834 4.33301 -30.501 13c-8 8.66699 -12 18.834 -12 30.501s4 21.5 12 29.5c8.66699 8.66699 18.834 13 30.501 13s21.834 -4.33301 30.501 -13c8 -8 12 -17.833 12 -29.5s-4 -21.834 -12 -30.501zM424.997 213.002
c-4.66699 -4.66699 -10.667 -7 -18 -7s-13.333 2.33301 -18 7s-7 10.667 -7 18s2.33301 13.333 7 18s10.667 7 18 7s13.333 -2.33301 18 -7s7 -10.667 7 -18s-2.33301 -13.333 -7 -18z" />
    <glyph glyph-name="uniE008" unicode="&#xe008;" 
d="M425 282l-77.999 127.999h-184l-76 -128c-1.33301 -3.33301 -1.33301 -6 0 -8l126 -269c2 -3.33301 4.66699 -5 8 -5h26v247v1c-10 2 -18.167 6.83301 -24.5 14.5s-9.5 16.834 -9.5 27.501c0 12 4.16699 22.167 12.5 30.5s18.166 12.5 29.499 12.5
c12 0 22.167 -4.16699 30.5 -12.5s12.5 -18.5 12.5 -30.5c0 -10 -3.16699 -19 -9.5 -27s-14.5 -13 -24.5 -15v-1v-247h25c4 0 6.66699 1.66699 8 5l128 269c1.33301 2 1.33301 4.66699 0 8zM163.001 426.999h182.999l36 73c2 2 2 4.66699 0 8c-2.66699 2.66699 -5 4 -7 4
h-248c-3.33301 0 -5.66602 -1.33301 -6.99902 -4c-2 -2.66699 -2 -5.66699 0 -9z" />
    <glyph glyph-name="uniE009" unicode="&#xe009;" 
d="M299 377l-0.00390625 33.002h8c4.66699 0 7.33398 2 8.00098 6l26 85c0.666992 1.33301 0.333984 4 -0.999023 8c-2 2 -4.33301 3 -7 3h-154c-2.66699 0 -5 -1 -7 -3c-1.33301 -4 -1.66602 -6.66699 -0.999023 -8l26 -85c0.666992 -4 3.33398 -6 8.00098 -6h8v-33
c-24.667 -9.33301 -45 -25 -61 -47s-24 -46.667 -24 -74c0 -10.667 2.66699 -24.5 8 -41.5s12 -34.333 20 -52s16.833 -36 26.5 -55s18.5 -35.5 26.5 -49.5l21.5 -37c6.33301 -10.667 9.5 -16.334 9.5 -17.001c2.66699 -2.66699 5 -4 7 -4v205l1 1
c-17.333 4.66699 -26 15.667 -26 33c0 9.33301 3.33301 17.333 10 24s14.667 10 24 10s17.333 -3.33301 24 -10s10 -14.667 10 -24c0 -17.333 -8.66699 -28.333 -26 -33l1 -1v-205c2 0 4.33301 1.33301 7 4l10 17l21 39l26.5 51c9.66699 19.333 18.5 37.833 26.5 55.5
s14.667 34.667 20 51s8 29.166 8 38.499c0 27.333 -8 52 -24 74s-36.333 37.667 -61 47zM281.996 381.002c-8.66699 2 -17.333 3 -26 3c-8 0 -16.667 -1 -26 -3v29h52v-29z" />
    <glyph glyph-name="uniE00A" unicode="&#xe00a;" 
d="M507 502l-0.00292969 1l-2 2v0l-2 2h-1c-0.666992 0.666992 -1.66699 1 -3 1h-2l-11 -2l-29.5 -8.5l-42.5 -12c-15.333 -4.33301 -32.666 -10 -51.999 -17s-37.333 -14.167 -54 -21.5c-3.33301 -1.33301 -5 -4 -5 -8c0 -18 -8.66699 -38.667 -26 -62v45
c0 3.33301 -1.33301 6 -4 8c-2 1.33301 -4.66699 1.33301 -8 0c-34 -16.667 -60.333 -34.334 -79 -53.001c-47.333 -47.333 -75.333 -96.666 -84 -147.999c-7.33301 -40 -1.33301 -72.333 18 -97l-113 -113c-5.33301 -4 -5.33301 -8 0 -12c0.666992 -2 2.66699 -3 6 -3
c2 0 4 1 6 3l113 113c14.667 -12 33.667 -18 57 -18c44 0 93 23.333 147 70l-56 57c-3.33301 3.33301 -3.33301 7.33301 0 12c4 4 8 4 12 0l57 -57c1.33301 0.666992 2.5 1.66699 3.5 3s2.33301 2.83301 4 4.5l3.5 3.5c0.666992 0.666992 1.83398 1.66699 3.50098 3
s2.83398 2.33301 3.50098 3l-53 53c-3.33301 4.66699 -3.33301 8.66699 0 12c4 5.33301 8 5.33301 12 0l52 -52c56 66 99 159.333 129 280l1 3v2c0 1.33301 -0.333008 2.33301 -1 3z" />
    <glyph glyph-name="uniE00B" unicode="&#xe00b;" 
d="M256 350c-4.66699 0 -8.66699 -1.66699 -12 -5s-5 -7.33301 -5 -12v-316c0 -4.66699 1.66699 -8.66699 5 -12s7.33301 -5 12 -5s8.66699 1.66699 12 5s5 7.33301 5 12v316c0 4.66699 -1.66699 8.66699 -5 12s-7.33301 5 -12 5zM23 339
c-2.66699 2.66699 -5.66699 3.33301 -9 2c-3.33301 -2 -5 -4.66699 -5 -8v-307c0 -4 1.66699 -6.66699 5 -8c0.666992 -0.666992 1.66699 -1 3 -1c2 0 4 1 6 3l154 153c3.33301 4.66699 3.33301 8.66699 0 12zM498 340.999c-3.33301 1.33301 -6.33301 0.666992 -9 -2
l-154 -154c-3.33301 -3.33301 -3.33301 -7.33301 0 -12l154 -153c2 -2 4 -3 6 -3c1.33301 0 2.33301 0.333008 3 1c3.33301 1.33301 5 4 5 8v307c0 3.33301 -1.66699 6 -5 8zM368 351l0.99707 -0.998047h2l1 -1h5h3h1l1 1h2c0 0.666992 0.333008 1 1 1l1 1h1l1 1
c0 0.666992 0.333008 1 1 1l1 1c0 0.666992 0.166992 1 0.5 1s0.5 0.333008 0.5 1l42 69c5.33301 10 3.33301 18 -6 24c-10 6 -18 4 -24 -6l-18 -30c-10 28.667 -27.667 52.167 -53 70.5s-53.666 27.5 -84.999 27.5c-40.667 0 -75 -14 -103 -42s-42 -62.333 -42 -103
c0 -4.66699 1.66699 -8.66699 5 -12s7.33301 -5 12 -5s8.83398 1.66699 12.501 5s5.5 7.33301 5.5 12c0 31.333 10.667 57.666 32 78.999s47.333 32 78 32c24.667 0 46.834 -7.33301 66.501 -22s33.167 -33.334 40.5 -56.001l-38 24c-9.33301 6 -17 4.33301 -23 -5
c-6 -10 -4.33301 -18 5 -24l69 -44h1z" />
    <glyph glyph-name="uniE00C" unicode="&#xe00c;" 
d="M444 447h-17v56c0 6 -3 9 -9 9h-307c-6 0 -9 -3 -9 -9v-59h-8c-6.66699 0 -12.667 -2.66699 -18 -8s-8 -11.333 -8 -18v-85c0 -7.33301 2.66699 -13.5 8 -18.5s11.333 -7.5 18 -7.5h171c5.33301 0 8 -2.66699 8 -8v-66c-10 -1.33301 -18.167 -5.5 -24.5 -12.5
s-9.5 -15.167 -9.5 -24.5v-170c0 -8.66699 3.5 -15.167 10.5 -19.5s14.833 -6.5 23.5 -6.5h21c20 0 30 8.66699 30 26v170c0 20 -11.333 32 -34 36v67c0 7.33301 -2.33301 13.333 -7 18s-10.667 7 -18 7h-171c-6 0 -9 3 -9 9v85c0 6 3 9 9 9h8v-43c0 -6 3 -9 9 -9h307
c6 0 9 3 9 9v46h17c5.33301 0 8 3 8 9c0 5.33301 -2.66699 8 -8 8z" />
    <glyph glyph-name="uniE00D" unicode="&#xe00d;" 
d="M510 390l-120 119c-4 5.33301 -8 5.33301 -12 0l-71 -70l49 -49c4 -4 4 -8 0 -12c-2 -2 -4 -3 -6 -3c-2.66699 0 -4.66699 1 -6 3l-49 49l-30 -31l57 -57c3.33301 -4.66699 3.33301 -8.66699 0 -12c-2 -2 -4 -3 -6 -3c-2.66699 0 -4.66699 1 -6 3l-58 57l-34 -35l44 -44
c3.33301 -4.66699 3.33301 -8.66699 0 -12c-2 -2 -4 -3 -6 -3s-4 1 -6 3l-44 44l-31 -31l61 -61c5.33301 -4 5.33301 -8 0 -12c-1.33301 -2 -3.33301 -3 -6 -3c-2 0 -4 1 -6 3l-61 61l-35 -34l49 -49c3.33301 -4.66699 3.33301 -8.66699 0 -12c-2 -2 -4 -3 -6 -3
c-3.33301 0 -5.33301 1 -6 3l-49 48l-31 -30l58 -57c3.33301 -4.66699 3.33301 -8.66699 0 -12c-2 -2 -4 -3 -6 -3c-3.33301 0 -5.33301 1 -6 3l-58 57l-70 -71c-5.33301 -4 -5.33301 -8 0 -12l119 -120c2.66699 -1.33301 4.66699 -2 6 -2s3.33301 0.666992 6 2l376 376
c4 4 4 8 0 12z" />
    <glyph glyph-name="uniE00E" unicode="&#xe00e;" 
d="M508 15l-78 79l-32 -32c-1.33301 -1.33301 -3.33301 -2 -6 -2c-1.33301 0 -3.33301 0.666992 -6 2c-3.33301 4.66699 -3.33301 8.66699 0 12l32 32l-43 43l-36 -36c-2.66699 -1.33301 -4.66699 -2 -6 -2c-2.66699 0 -4.66699 0.666992 -6 2
c-4.66699 4.66699 -4.66699 8.66699 0 12l36 36l-40 40l-35 -36c-2 -2 -4 -3 -6 -3c-2.66699 0 -5 1 -7 3c-3.33301 3.33301 -3.33301 7.33301 0 12l36 36l-43 43l-32 -32c-1.33301 -1.33301 -3.33301 -2 -6 -2c-1.33301 0 -3.33301 0.666992 -6 2
c-3.33301 4.66699 -3.33301 8.66699 0 12l32 32l-43 43l-36 -35c-2 -2 -4 -3 -6 -3c-3.33301 0 -5.33301 1 -6 3c-4.66699 3.33301 -4.66699 7.33301 0 12l35 36l-39 39l-36 -36c-0.666992 -2 -2.66699 -3 -6 -3c-2 0 -4 1 -6 3c-3.33301 3.33301 -3.33301 7.33301 0 12
l36 36l-43 43l-32 -32c-1.33301 -1.33301 -3.33301 -2 -6 -2c-1.33301 0 -3.33301 0.666992 -6 2c-3.33301 4 -3.33301 8.33301 0 13l32 31l-80 79c-2.66699 4 -5.66699 4.66699 -9 2c-3.33301 -1.33301 -5 -4 -5 -8v-494c0 -6 2.66699 -9 8 -9h495h1c5.33301 0 8 3 8 9
c0 3.33301 -1.33301 5.33301 -4 6zM77 77v222l222 -222h-222z" />
    <glyph glyph-name="uniE00F" unicode="&#xe00f;" 
d="M200 345c-8.66699 8.66699 -16.667 8.66699 -24 0c-8.66699 -8.66699 -8.66699 -16.667 0 -24l145 -145c2.66699 -3.33301 6.66699 -5 12 -5s9.33301 1.66699 12 5c8.66699 7.33301 8.66699 15.333 0 24zM193 217l-159.001 -158.999v44c0 4.66699 -1.66699 8.66699 -5 12
s-7.33301 5 -12 5s-8.66699 -1.66699 -12 -5s-5 -7.33301 -5 -12v-85v-3v-1l1 -1v-1l1 -2l1 -1c0.666992 0 1 -0.333008 1 -1s0.333008 -1.33398 1 -2.00098c1.33301 -1.33301 2.33301 -2 3 -2l1 -1c0.666992 0 1.33398 -0.333008 2.00098 -1h1l1 -1h1h3h85
c4.66699 0 8.66699 1.66699 12 5s5 7.33301 5 12s-1.66699 8.66699 -5 12s-7.33301 5 -12 5h-44l159 159c8.66699 7.33301 8.66699 15.333 0 24s-16.667 8.66699 -24 0zM511.999 498.001l0.000976562 1l-1 1v1l-1 2l-1 1c0 0.666992 -0.666992 1.66699 -2 3s-2.33301 2 -3 2
l-1 1c-0.666992 0 -1.33398 0.333008 -2.00098 1h-1l-1 1h-1h-3h-85c-4.66699 0 -8.66699 -1.66699 -12 -5s-5 -7.33301 -5 -12s1.66699 -8.66699 5 -12s7.33301 -5 12 -5h44l-142 -142c-7.33301 -7.33301 -7.33301 -15.333 0 -24c4.66699 -3.33301 8.66699 -5 12 -5
c4.66699 0 8.66699 1.66699 12 5l142 142v-44c0 -4.66699 1.66699 -8.66699 5 -12s7.33301 -5 12 -5s8.66699 1.66699 12 5s5 7.33301 5 12v85v3z" />
    <glyph glyph-name="uniE010" unicode="&#xe010;" 
d="M336 345c-7.33301 8.66699 -15.333 8.66699 -24 0l-145 -145c-8.66699 -8.66699 -8.66699 -16.667 0 -24c2.66699 -3.33301 6.66699 -5 12 -5s9.33301 1.66699 12 5l145 145c8.66699 7.33301 8.66699 15.333 0 24zM495 119c-4.66699 0 -8.66699 -1.66797 -12 -5.00098
s-5 -7.33301 -5 -12v-44l-150 150c-8.66699 8.66699 -16.667 8.66699 -24 0c-8.66699 -7.33301 -8.66699 -15.333 0 -24l150 -150h-44c-4.66699 0 -8.66699 -1.66699 -12 -5s-5 -7.33301 -5 -12s1.66699 -8.66699 5 -12s7.33301 -5 12 -5h85h3h1l1 1h1l2 1l1 1
c0.666992 0 1.66699 0.666992 3 2s2 2.33301 2 3c0.666992 0 1 0.333008 1 1s0.333008 1.33398 1 2.00098v1l1 1v1v3v85c0 4.66699 -1.66699 8.66699 -5 12s-7.33301 5 -12 5zM188 306.999c3.33301 0 7.33301 1.66797 12 5.00098c7.33301 8.66699 7.33301 16.667 0 24
l-142 142h44c4.66699 0 8.66699 1.66699 12 5s5 7.33301 5 12s-1.66699 8.66699 -5 12s-7.33301 5 -12 5h-85h-3h-1l-1 -1h-1l-2 -1l-1 -1c-0.666992 0 -1.66699 -0.666992 -3 -2l-1 -1c0 -1.33301 -0.333008 -2 -1 -2s-1 -0.333008 -1 -1s-0.333008 -1.33398 -1 -2.00098
v-1l-1 -1v-1v-3v-85c0 -4.66699 1.66699 -8.66699 5 -12s7.33301 -5 12 -5s8.66699 1.66699 12 5s5 7.33301 5 12v44l142 -142c3.33301 -3.33301 7.33301 -5 12 -5z" />
    <glyph glyph-name="uniE011" unicode="&#xe011;" 
d="M265 367c-4.66699 0 -8.83301 -1.66699 -12.5 -5s-5.5 -7.33301 -5.5 -12v-196c0 -11.333 6 -17 18 -17c4.66699 0 8.66699 1.66699 12 5s5 7.33301 5 12v196c0 4.66699 -1.66699 8.66699 -5 12s-7.33301 5 -12 5zM188.001 273l-126 -0.000976562l35 30
c8 7.33301 8.33301 15.333 1 24s-15.333 9.33398 -24 2.00098l-68 -60l-1 -1l-1 -1l-1 -1l-1 -1v-1c0 -0.666992 -0.333008 -1 -1 -1v-3h-1v-4v-4h1v-3l1 -1v-1l1 -1l1 -1l1 -1l1 -1l68 -60c4 -2.66699 7.66699 -4 11 -4c6 0 10.333 2 13 6c7.33301 8.66699 7 16.667 -1 24
l-35 30h126c4.66699 0 8.66699 1.66699 12 5s5 7.33301 5 12s-1.66699 8.66699 -5 12s-7.33301 5 -12 5zM512.001 259.999l-1 0.000976562v3l-1 1v1l-1 1l-1 1l-1 1l-1 1l-68 60c-8.66699 7.33301 -16.667 6.66602 -24 -2.00098s-7 -16.667 1 -24l35 -30h-109
c-4.66699 0 -8.66699 -1.66699 -12 -5s-5 -7.33301 -5 -12s1.66699 -8.66699 5 -12s7.33301 -5 12 -5h109l-35 -30c-8 -7.33301 -8.33301 -15.333 -1 -24c2.66699 -4 7 -6 13 -6c3.33301 0 7 1.33301 11 4l68 60l1 1l1 1l1 1l1 1v1c0 0.666992 0.333008 1 1 1v3h1v4v4z" />
    <glyph glyph-name="uniE012" unicode="&#xe012;" 
d="M495 512h-410c-4.66699 0 -8.66699 -1.66699 -12 -5s-5 -7.33301 -5 -12v-410c0 -4.66699 1.66699 -8.66699 5 -12s7.33301 -5 12 -5h410c4.66699 0 8.66699 1.66699 12 5s5 7.33301 5 12v410c0 4.66699 -1.66699 8.66699 -5 12s-7.33301 5 -12 5zM478 102h-241
c-3.33301 6 -8.33301 9 -15 9s-11.667 -3 -15 -9h-105v105c6 3.33301 9 8.33301 9 15s-3 11.667 -9 15v241h376v-376zM272 255c4 0 8.33398 1.66602 13.001 4.99902l143 144v-75c0 -11.333 6 -17 18 -17c4.66699 0 8.66699 1.66699 12 5s5 7.33301 5 12v116
c0 0.666992 -0.333008 1.66699 -1 3v1v1v1l-1 1c0 0.666992 -0.333008 1.33398 -1 2.00098v1c-1.33301 1.33301 -2 2.33301 -2 3c-0.666992 0 -1.66699 0.666992 -3 2h-1c-0.666992 0.666992 -1.33398 1 -2.00098 1l-1 1h-1h-1h-1l-2 1h-1h-116c-11.333 0 -17 -6 -17 -18
c0 -4.66699 1.66699 -8.66699 5 -12s7.33301 -5 12 -5h75l-144 -143c-7.33301 -8.66699 -7.33301 -17 0 -25c4.66699 -3.33301 8.66699 -5 12 -5zM17.001 127.999c4.66699 0 8.66699 1.66699 12 5s5 7.33301 5 12v9c0 4.66699 -1.66699 8.66699 -5 12s-7.33301 5 -12 5
s-8.66699 -1.66699 -12 -5s-5 -7.33301 -5 -12v-9c0 -4.66699 1.66699 -8.66699 5 -12s7.33301 -5 12 -5zM145.001 204.999h9c4.66699 0 8.66699 1.66699 12 5s5 7.33301 5 12s-1.66699 8.66699 -5 12s-7.33301 5 -12 5h-9c-4.66699 0 -8.66699 -1.66699 -12 -5
s-5 -7.33301 -5 -12s1.66699 -8.66699 5 -12s7.33301 -5 12 -5zM17.001 67.999c4.66699 0 8.66699 1.66699 12 5s5 7.33301 5 12v9c0 4.66699 -1.66699 8.66699 -5 12s-7.33301 5 -12 5s-8.66699 -1.66699 -12 -5s-5 -7.33301 -5 -12v-9c0 -4.66699 1.66699 -8.66699 5 -12
s7.33301 -5 12 -5zM205.001 204.999c0 -11.333 5.66699 -17 17 -17c4.66699 0 8.66699 1.66699 12 5s5 7.33301 5 12v17c0 4.66699 -1.66699 8.66699 -5 12s-7.33301 5 -12 5h-17c-4.66699 0 -8.66699 -1.66699 -12 -5s-5 -7.33301 -5 -12c0 -11.333 5.66699 -17 17 -17z
M154.001 33.999h-9c-4.66699 0 -8.66699 -1.66699 -12 -5s-5 -7.33301 -5 -12s1.66699 -8.66699 5 -12s7.33301 -5 12 -5h9c4.66699 0 8.66699 1.66699 12 5s5 7.33301 5 12s-1.66699 8.66699 -5 12s-7.33301 5 -12 5zM94.001 33.999h-9
c-4.66699 0 -8.66699 -1.66699 -12 -5s-5 -7.33301 -5 -12s1.66699 -8.66699 5 -12s7.33301 -5 12 -5h9c4.66699 0 8.66699 1.66699 12 5s5 7.33301 5 12s-1.66699 8.66699 -5 12s-7.33301 5 -12 5zM34.001 238.999h-17c-4.66699 0 -8.66699 -1.66699 -12 -5
s-5 -7.33301 -5 -12v-17c0 -4.66699 1.66699 -8.66699 5 -12s7.33301 -5 12 -5s8.66699 1.66699 12 5s5 7.33301 5 12c11.333 0 17 5.66699 17 17c0 4.66699 -1.66699 8.66699 -5 12s-7.33301 5 -12 5zM222.001 50.999c-11.333 0 -17 -5.66699 -17 -17
c-4.66699 0 -8.66699 -1.66699 -12 -5s-5 -7.33301 -5 -12s1.66699 -8.66699 5 -12s7.33301 -5 12 -5h17c4.66699 0 8.66699 1.66699 12 5s5 7.33301 5 12v17c0 4.66699 -1.66699 8.66699 -5 12s-7.33301 5 -12 5zM34.001 33.999c0 4.66699 -1.66699 8.66699 -5 12
s-7.33301 5 -12 5s-8.66699 -1.66699 -12 -5s-5 -7.33301 -5 -12v-17c0 -4.66699 1.66699 -8.66699 5 -12s7.33301 -5 12 -5h17c4.66699 0 8.66699 1.66699 12 5s5 7.33301 5 12s-1.66699 8.66699 -5 12s-7.33301 5 -12 5zM222.001 170.999
c-4.66699 0 -8.66699 -1.66699 -12 -5s-5 -7.33301 -5 -12v-9c0 -4.66699 1.66699 -8.66699 5 -12s7.33301 -5 12 -5s8.66699 1.66699 12 5s5 7.33301 5 12v9c0 4.66699 -1.66699 8.66699 -5 12s-7.33301 5 -12 5z" />
    <glyph glyph-name="uniE013" unicode="&#xe013;" 
d="M495 512h-410c-4.66699 0 -8.66699 -1.66699 -12 -5s-5 -7.33301 -5 -12v-273c0 -4.66699 1.66699 -8.66699 5 -12s7.33301 -5 12 -5h9c4.66699 0 8.66699 1.66699 12 5s5 7.33301 5 12c0 6.66699 -3 11.667 -9 15v241h376v-376h-241c-3.33301 6 -8.33301 9 -15 9
c-4.66699 0 -8.66699 -1.66699 -12 -5s-5 -7.33301 -5 -12v-9c0 -4.66699 1.66699 -8.66699 5 -12s7.33301 -5 12 -5h273c4.66699 0 8.66699 1.66699 12 5s5 7.33301 5 12v410c0 4.66699 -1.66699 8.66699 -5 12s-7.33301 5 -12 5zM264 388
c-4.66699 0 -8.66895 -1.66602 -12.002 -4.99902s-5 -7.33301 -5 -12v-107c0 -1.33301 0.333008 -2.33301 1 -3v-2v-1c0.666992 -0.666992 1 -1.33398 1 -2.00098l1 -1c0 -0.666992 0.333008 -1 1 -1l1 -2l1 -1c0.666992 -0.666992 1.33398 -1 2.00098 -1s1 -0.333008 1 -1
c0.666992 0 1.33398 -0.333008 2.00098 -1h1h2c0.666992 -0.666992 1.66699 -1 3 -1h107c4.66699 0 8.66699 1.66699 12 5s5 7.33301 5 12c0 11.333 -5.66699 17 -17 17h-66l140 140c7.33301 7.33301 7.33301 15.333 0 24c-8.66699 7.33301 -16.667 7.33301 -24 0l-140 -140
v66c0 11.333 -5.66699 17 -17 17zM16.998 128.001c4.66699 0 8.66699 1.66699 12 5s5 7.33301 5 12v9c0 4.66699 -1.66699 8.66699 -5 12s-7.33301 5 -12 5s-8.66699 -1.66699 -12 -5s-5 -7.33301 -5 -12v-9c0 -4.66699 1.66699 -8.66699 5 -12s7.33301 -5 12 -5z
M153.998 239.001h-9c-4.66699 0 -8.66699 -1.66699 -12 -5s-5 -7.33301 -5 -12s1.66699 -8.66699 5 -12s7.33301 -5 12 -5h9c4.66699 0 8.66699 1.66699 12 5s5 7.33301 5 12s-1.66699 8.66699 -5 12s-7.33301 5 -12 5zM16.998 68.001c4.66699 0 8.66699 1.66699 12 5
s5 7.33301 5 12v9c0 4.66699 -1.66699 8.66699 -5 12s-7.33301 5 -12 5s-8.66699 -1.66699 -12 -5s-5 -7.33301 -5 -12v-9c0 -4.66699 1.66699 -8.66699 5 -12s7.33301 -5 12 -5zM238.998 222.001c0 4.66699 -1.66699 8.66699 -5 12s-7.33301 5 -12 5h-17
c-4.66699 0 -8.66699 -1.66699 -12 -5s-5 -7.33301 -5 -12c0 -11.333 5.66699 -17 17 -17c0 -11.333 5.66699 -17 17 -17c4.66699 0 8.66699 1.66699 12 5s5 7.33301 5 12v17zM153.998 34.001h-9c-4.66699 0 -8.66699 -1.66699 -12 -5s-5 -7.33301 -5 -12
s1.66699 -8.66699 5 -12s7.33301 -5 12 -5h9c4.66699 0 8.66699 1.66699 12 5s5 7.33301 5 12s-1.66699 8.66699 -5 12s-7.33301 5 -12 5zM93.998 34.001h-9c-4.66699 0 -8.66699 -1.66699 -12 -5s-5 -7.33301 -5 -12s1.66699 -8.66699 5 -12s7.33301 -5 12 -5h9
c4.66699 0 8.66699 1.66699 12 5s5 7.33301 5 12s-1.66699 8.66699 -5 12s-7.33301 5 -12 5zM33.998 239.001h-17c-4.66699 0 -8.66699 -1.66699 -12 -5s-5 -7.33301 -5 -12v-17c0 -4.66699 1.66699 -8.66699 5 -12s7.33301 -5 12 -5s8.66699 1.66699 12 5s5 7.33301 5 12
c11.333 0 17 5.66699 17 17c0 4.66699 -1.66699 8.66699 -5 12s-7.33301 5 -12 5zM221.998 51.001c-11.333 0 -17 -5.66699 -17 -17c-4.66699 0 -8.66699 -1.66699 -12 -5s-5 -7.33301 -5 -12s1.66699 -8.66699 5 -12s7.33301 -5 12 -5h17c4.66699 0 8.66699 1.66699 12 5
s5 7.33301 5 12v17c0 4.66699 -1.66699 8.66699 -5 12s-7.33301 5 -12 5zM33.998 34.001c0 4.66699 -1.66699 8.66699 -5 12s-7.33301 5 -12 5s-8.66699 -1.66699 -12 -5s-5 -7.33301 -5 -12v-17c0 -4.66699 1.66699 -8.66699 5 -12s7.33301 -5 12 -5h17
c4.66699 0 8.66699 1.66699 12 5s5 7.33301 5 12s-1.66699 8.66699 -5 12s-7.33301 5 -12 5zM221.998 171.001c-4.66699 0 -8.66699 -1.66699 -12 -5s-5 -7.33301 -5 -12v-9c0 -4.66699 1.66699 -8.66699 5 -12s7.33301 -5 12 -5s8.66699 1.66699 12 5s5 7.33301 5 12v9
c0 4.66699 -1.66699 8.66699 -5 12s-7.33301 5 -12 5z" />
    <glyph glyph-name="uniE014" unicode="&#xe014;" 
d="M222 239h-205c-4.66699 0 -8.66699 -1.66699 -12 -5s-5 -7.33301 -5 -12v-205c0 -4.66699 1.66699 -8.66699 5 -12s7.33301 -5 12 -5h205c4.66699 0 8.66699 1.66699 12 5s5 7.33301 5 12v205c0 4.66699 -1.66699 8.66699 -5 12s-7.33301 5 -12 5zM461 347l0.00195312 97
c0 1.33301 -0.333008 2.33301 -1 3v2c0 0.666992 -0.333008 1 -1 1v2l-1 1c0 0.666992 -0.333008 1 -1 1l-1 2l-1 1c-0.666992 0.666992 -1.33398 1 -2.00098 1s-1 0.333008 -1 1c-0.666992 0 -1.33398 0.333008 -2.00098 1h-1h-2c-0.666992 0.666992 -1.66699 1 -3 1h-97
c-4.66699 0 -8.66699 -1.66699 -12 -5s-5 -7.33301 -5 -12c0 -11.333 5.66699 -17 17 -17h56l-134 -134c-8.66699 -8.66699 -8.66699 -16.667 0 -24c2.66699 -3.33301 6.66699 -5 12 -5c4.66699 0 8.66699 1.66699 12 5l134 134v-56c0 -11.333 5.66699 -17 17 -17
c4.66699 0 8.66699 1.66699 12 5s5 7.33301 5 12zM102.002 444c11.333 0 17 5.66699 17 17v17h18c4.66699 0 8.66699 1.66699 12 5s5 7.33301 5 12s-1.66699 8.66699 -5 12s-7.33301 5 -12 5h-35c-4.66699 0 -8.66699 -1.66699 -12 -5s-5 -7.33301 -5 -12v-34
c0 -4.66699 1.66699 -8.66699 5 -12s7.33301 -5 12 -5zM495.002 512h-34c-4.66699 0 -8.66699 -1.66699 -12 -5s-5 -7.33301 -5 -12s1.66699 -8.66699 5 -12s7.33301 -5 12 -5h17v-17c0 -4.66699 1.66699 -8.66699 5 -12s7.33301 -5 12 -5s8.66699 1.66699 12 5
s5 7.33301 5 12v34c0 4.66699 -1.66699 8.66699 -5 12s-7.33301 5 -12 5zM495.002 418c-4.66699 0 -8.66699 -1.66699 -12 -5s-5 -7.33301 -5 -12v-26c0 -4.66699 1.66699 -8.66699 5 -12s7.33301 -5 12 -5s8.66699 1.66699 12 5s5 7.33301 5 12v26
c0 4.66699 -1.66699 8.66699 -5 12s-7.33301 5 -12 5zM495.002 333c-4.66699 0 -8.66699 -1.66699 -12 -5s-5 -7.33301 -5 -12v-26c0 -4.66699 1.66699 -8.66699 5 -12s7.33301 -5 12 -5s8.66699 1.66699 12 5s5 7.33301 5 12v26c0 4.66699 -1.66699 8.66699 -5 12
s-7.33301 5 -12 5zM102.002 358c4.66699 0 8.66699 1.66699 12 5s5 7.33301 5 12v26c0 4.66699 -1.66699 8.66699 -5 12s-7.33301 5 -12 5s-8.66699 -1.66699 -12 -5s-5 -7.33301 -5 -12v-26c0 -4.66699 1.66699 -8.66699 5 -12s7.33301 -5 12 -5zM102.002 273
c4.66699 0 8.66699 1.66699 12 5s5 7.33301 5 12v26c0 4.66699 -1.66699 8.66699 -5 12s-7.33301 5 -12 5s-8.66699 -1.66699 -12 -5s-5 -7.33301 -5 -12v-26c0 -4.66699 1.66699 -8.66699 5 -12s7.33301 -5 12 -5zM495.002 247c-4.66699 0 -8.66699 -1.66699 -12 -5
s-5 -7.33301 -5 -12v-25c0 -4.66699 1.66699 -8.66699 5 -12s7.33301 -5 12 -5s8.66699 1.66699 12 5s5 7.33301 5 12v25c0 4.66699 -1.66699 8.66699 -5 12s-7.33301 5 -12 5zM222.002 512h-26c-4.66699 0 -8.66699 -1.66699 -12 -5s-5 -7.33301 -5 -12
s1.66699 -8.66699 5 -12s7.33301 -5 12 -5h26c4.66699 0 8.66699 1.66699 12 5s5 7.33301 5 12s-1.66699 8.66699 -5 12s-7.33301 5 -12 5zM282.002 478h25c4.66699 0 8.66699 1.66699 12 5s5 7.33301 5 12s-1.66699 8.66699 -5 12s-7.33301 5 -12 5h-25
c-4.66699 0 -8.66699 -1.66699 -12 -5s-5 -7.33301 -5 -12s1.66699 -8.66699 5 -12s7.33301 -5 12 -5zM368.002 478h33c4.66699 0 8.66699 1.66699 12 5s5 7.33301 5 12s-1.66699 8.66699 -5 12s-7.33301 5 -12 5h-33c-4.66699 0 -8.83398 -1.66699 -12.501 -5
s-5.5 -7.33301 -5.5 -12s1.83301 -8.66699 5.5 -12s7.83398 -5 12.501 -5zM307.002 128h-25c-4.66699 0 -8.66699 -1.66699 -12 -5s-5 -7.33301 -5 -12s1.66699 -8.66699 5 -12s7.33301 -5 12 -5h25c4.66699 0 8.66699 1.66699 12 5s5 7.33301 5 12s-1.66699 8.66699 -5 12
s-7.33301 5 -12 5zM401.002 128h-33c-4.66699 0 -8.83398 -1.66699 -12.501 -5s-5.5 -7.33301 -5.5 -12s1.83301 -8.66699 5.5 -12s7.83398 -5 12.501 -5h33c4.66699 0 8.66699 1.66699 12 5s5 7.33301 5 12s-1.66699 8.66699 -5 12s-7.33301 5 -12 5zM495.002 162
c-4.66699 0 -8.66699 -1.66699 -12 -5s-5 -7.33301 -5 -12v-17h-17c-4.66699 0 -8.66699 -1.66699 -12 -5s-5 -7.33301 -5 -12s1.66699 -8.66699 5 -12s7.33301 -5 12 -5h34c4.66699 0 8.66699 1.66699 12 5s5 7.33301 5 12v34c0 4.66699 -1.66699 8.66699 -5 12
s-7.33301 5 -12 5z" />
    <glyph glyph-name="uniE015" unicode="&#xe015;" 
d="M350 265h-205c-4.66699 0 -8.66699 -1.83301 -12 -5.5s-5 -7.83398 -5 -12.501s1.66699 -8.66699 5 -12s7.33301 -5 12 -5h205c4.66699 0 8.66699 1.66699 12 5s5 7.33301 5 12s-1.66699 8.83398 -5 12.501s-7.33301 5.5 -12 5.5zM294 97l-29.0029 -34.999v117
c0 11.333 -6 17 -18 17c-4.66699 0 -8.66699 -1.66699 -12 -5s-5 -7.33301 -5 -12v-117l-29 35c-7.33301 7.33301 -15.666 7.66602 -24.999 0.999023c-8 -7.33301 -8.33301 -15.333 -1 -24l60 -68v-1c0.666992 -0.666992 1.33398 -1 2.00098 -1
c0 -0.666992 0.333008 -1 1 -1c0.666992 -0.666992 1.33398 -1 2.00098 -1l1 -1h2l1 -1h3h4l1 1h2l1 1l2 1l1 1h1l1 1v1l60 68c8 9.33301 7.33301 17.333 -2 24c-8 7.33301 -16 7 -24 -1zM200.997 415.001l29 35.001v-117c0 -4.66699 1.66699 -8.66699 5 -12
s7.33301 -5 12 -5c12 0 18 5.66699 18 17v117l29 -35c4.66699 -3.33301 9 -5 13 -5c4.66699 0 8.33398 1.33301 11.001 4c9.33301 6.66699 10 14.667 2 24l-60 68l-2 2v1c-2.66699 2 -6.33398 3 -11.001 3c-3.33301 0 -6.66602 -1 -9.99902 -3v-1l-2 -2l-60 -68
c-7.33301 -8.66699 -7 -16.667 1 -24c9.33301 -6.66699 17.666 -6.33398 24.999 0.999023z" />
    <glyph glyph-name="uniE016" unicode="&#xe016;" 
d="M116 412l229.001 -0.000976562l-20 -21c-8.66699 -7.33301 -8.66699 -15.333 0 -24c3.33301 -3.33301 7.33301 -5 12 -5s8.66699 1.66699 12 5l49 50c1.33301 0 2 0.666992 2 2l1 1l1 1v1v1l1 2v4v3c0 0.666992 -0.333008 1.33398 -1 2.00098v1l-1 2
c0 0.666992 -0.333008 1 -1 1c0 0.666992 -0.666992 1.66699 -2 3l-49 49c-8 8 -16 8 -24 0c-8.66699 -8.66699 -8.66699 -16.667 0 -24l20 -20h-229c-4.66699 0 -8.83398 -1.66699 -12.501 -5s-5.5 -7.33301 -5.5 -12c0 -11.333 6 -17 18 -17zM17.001 271.999
c4.66699 0 8.66699 1.66699 12 5s5 7.33301 5 12v18h8c4.66699 0 8.66699 1.66699 12 5s5 7.33301 5 12s-1.66699 8.66699 -5 12s-7.33301 5 -12 5h-25c-4.66699 0 -8.66699 -1.66699 -12 -5s-5 -7.33301 -5 -12v-35c0 -4.66699 1.66699 -8.66699 5 -12s7.33301 -5 12 -5z
M508.001 331.999c-2.66699 6 -7.66602 9 -14.999 9h-271h-5h-5h-34c-4.66699 0 -8.66699 -1.66699 -12 -5s-5 -7.33301 -5 -12s1.66699 -8.66699 5 -12s7.33301 -5 12 -5h10l-163 -216c-2.66699 1.33301 -5.33398 2 -8.00098 2c-4.66699 0 -8.66699 -1.66699 -12 -5
s-5 -7.33301 -5 -12v-25v-2v-1l1 -2l1 -2v-1c0 -0.666992 0.333008 -1 1 -1l1 -2l1 -1l1 -1c1.33301 0 2 -0.333008 2 -1l1 -1h1l2 -1h1c0.666992 -0.666992 2 -1 4 -1h269c4.66699 0 9.33398 2.33301 14.001 7l207 273c3.33301 6 3.66602 12 0.999023 18zM292.002 86.999
c-2.66699 4 -6.66699 6 -12 6c-4.66699 0 -8.66699 -1.66699 -12 -5s-5 -7.33301 -5 -12v-8h-212l180 239h32v-18c0 -4.66699 1.66699 -8.66699 5 -12s7.33301 -5 12 -5s8.66699 1.66699 12 5s5 7.33301 5 12v18h162zM280.002 255.999c-4.66699 0 -8.66699 -1.66699 -12 -5
s-5 -7.33301 -5 -12v-26c0 -4.66699 1.66699 -8.66699 5 -12s7.33301 -5 12 -5s8.66699 1.66699 12 5s5 7.33301 5 12v26c0 4.66699 -1.66699 8.66699 -5 12s-7.33301 5 -12 5zM280.002 170.999c-4.66699 0 -8.66699 -1.66699 -12 -5s-5 -7.33301 -5 -12v-26
c0 -4.66699 1.66699 -8.66699 5 -12s7.33301 -5 12 -5s8.66699 1.66699 12 5s5 7.33301 5 12v26c0 4.66699 -1.66699 8.66699 -5 12s-7.33301 5 -12 5zM17.002 195.999c4.66699 0 8.66699 1.66699 12 5s5 7.33301 5 12v26c0 4.66699 -1.66699 8.66699 -5 12
s-7.33301 5 -12 5s-8.66699 -1.66699 -12 -5s-5 -7.33301 -5 -12v-26c0 -4.66699 1.66699 -8.66699 5 -12s7.33301 -5 12 -5zM17.002 110.999c4.66699 0 8.66699 1.66699 12 5s5 7.33301 5 12v26c0 4.66699 -1.66699 8.66699 -5 12s-7.33301 5 -12 5
s-8.66699 -1.66699 -12 -5s-5 -7.33301 -5 -12v-26c0 -4.66699 1.66699 -8.66699 5 -12s7.33301 -5 12 -5zM93.002 306.999h24.999c4.66699 0 8.83398 1.66699 12.501 5s5.5 7.33301 5.5 12c0 11.333 -6 17 -18 17h-25c-11.333 0 -17 -5.66699 -17 -17
c0 -4.66699 1.66699 -8.66699 5 -12s7.33301 -5 12 -5z" />
    <glyph glyph-name="uniE017" unicode="&#xe017;" 
d="M213 273h-170c-6 0 -9 -2.66699 -9 -8v-256c0 -6 3 -9 9 -9h170c6 0 9 3 9 9v256c0 5.33301 -3 8 -9 8zM71 282l114.999 -0.000976562c5.33301 0 8 2.66699 8 8c0 2.66699 -0.333008 4.33398 -1 5.00098l-15 33c-1.33301 3.33301 -3.66602 5 -6.99902 5h-82
c-4 0 -6.66699 -1.66699 -8 -5l-17 -34c-2 -3.33301 -2 -6 0 -8c0.666992 -2.66699 3 -4 7 -4zM110.999 374.999h8v-25c0 -5.33301 3 -8 9 -8s9 2.66699 9 8v25h8c6 0 9 3 9 9v34c0 6 -3 9 -9 9h-34c-6 0 -9 -3 -9 -9v-34c0 -6 3 -9 9 -9zM314.999 409.999h-65
c-5.33301 0 -8 -3 -8 -9c0 -5.33301 2.66699 -8 8 -8h65c5.33301 0 8 2.66699 8 8c0 6 -2.66699 9 -8 9zM309.999 340.999l-68.001 25.001c-5.33301 2.66699 -9 1 -11 -5c-2 -4.66699 -0.333008 -8.33398 5 -11.001l68 -25c0.666992 -0.666992 1.66699 -1 3 -1
c4.66699 0 7.33398 2 8.00098 6c2.66699 5.33301 1 9 -5 11zM238.998 427l3 -0.000976562l68 26c6 1.33301 7.66699 5 5 11c-1.33301 4.66699 -5 6.33398 -11 5.00098l-68 -26c-6 -1.33301 -7.66699 -5 -5 -11c1.33301 -3.33301 4 -5 8 -5zM451.998 395.999
c0 30 -13.6689 49.9951 -41.002 59.9951c1.33301 12.667 -2 24.334 -10 35.001c-10.667 14 -25 21 -43 21c-6 0 -9 -3 -9 -9c0 -5.33301 3 -8 9 -8c11.333 0 21 -5 29 -15c6.66699 -7.33301 8.33398 -16.666 5.00098 -27.999c0 -3.33301 0.333008 -5.66602 1 -6.99902
c1.33301 -1.33301 3.33301 -2.66602 6 -3.99902c24 -4.66699 36 -19.667 36 -45c0 -26 -12 -41.333 -36 -46c-2.66699 0 -4.66699 -1.33301 -6 -4c-1.33301 -2 -1.33301 -4.66699 0 -8c4.66699 -8.66699 4.33398 -17 -0.999023 -25c-6.66699 -10.667 -18 -16 -34 -16
c-6 0 -9 -3 -9 -9c0 -5.33301 3 -8 9 -8c22.667 0 38.667 8 48 24c6 8.66699 8 19.334 6 32.001c26.667 8.66699 40 28.667 40 60z" />
    <glyph glyph-name="uniE018" unicode="&#xe018;" 
d="M461 173l-109.003 -0.00292969c-16.667 11.333 -28.667 24.333 -36 39s-9.66602 30.667 -6.99902 48s6 31.833 10 43.5s10.333 27.167 19 46.5c13.333 29.333 20 50 20 62c0 30.667 -10.167 54.667 -30.5 72s-44.166 26 -71.499 26s-51.166 -8.66699 -71.499 -26
s-30.5 -41.333 -30.5 -72c0 -12 6.66699 -32.667 20 -62c7.33301 -15.333 12.666 -27.333 15.999 -36s6.83301 -20.667 10.5 -36s4.83398 -28.166 3.50098 -38.499s-5.5 -21.666 -12.5 -33.999s-17.5 -23.166 -31.5 -32.499h-109c-14 0 -26 -5.33301 -36 -16
s-15 -23.334 -15 -38.001v-74c0 -6 3 -9 9 -9h8v-25c0 -6 3 -9 9 -9h460c6 0 9 3 9 9v25h8c6 0 9 3 9 9v74c0 14.667 -5 27.334 -15 38.001s-22 16 -36 16zM477.997 18.9971h-444v17h444v-17z" />
    <glyph glyph-name="uniE019" unicode="&#xe019;" 
d="M375 256h-17.001v9c0 5.33301 -2.66699 8 -8 8h-273c-6 0 -9 -2.66699 -9 -8v-214c0 -14.667 5 -26.834 15 -36.501s22 -14.5 36 -14.5h188c14.667 0 26.834 4.83301 36.501 14.5s14.5 21.834 14.5 36.501v68h17c20 0 36.5 6.5 49.5 19.5s19.5 29.5 19.5 49.5
c0 19.333 -6.5 35.5 -19.5 48.5s-29.5 19.5 -49.5 19.5zM374.999 137l-17 -0.00195312v102h17c15.333 0 27.833 -4.66699 37.5 -14s14.5 -21.666 14.5 -36.999s-4.83301 -27.666 -14.5 -36.999s-22.167 -14 -37.5 -14zM54.999 425.998
c-2.66699 1.33301 -5.66699 1.00098 -9 -0.999023c-2.66699 -2.66699 -3.66699 -5.33398 -3 -8.00098l8 -65l58 43zM93.999 289.999h68.001c6 0 9 2.66699 9 8c0 -5.33301 2.66699 -8 8 -8h103h1c0.666992 0.666992 1.33398 1 2.00098 1s1.66699 -0.333008 3 -1h1h45
c3.33301 0 5.66602 1.66699 6.99902 5l37 79c22 3.33301 35.333 19.333 40 48c2 19.333 -2 37.5 -12 54.5s-26.333 28.167 -49 33.5c-4 1.33301 -7 0.333008 -9 -3s-2 -6.66602 0 -9.99902c8.66699 -12.667 6 -27.667 -8 -45c-7.33301 -10.667 -11 -16.334 -11 -17.001
c-4.66699 -12 -5 -23.333 -1 -34c2 -4.66699 5 -9 9 -13l-47 -72v8h-43c-5.33301 0 -8 3 -8 9c0 5.33301 2.66699 8 8 8h43v34h-60c-5.33301 0 -8 3 -8 9s2.66699 9 8 9h60v17h-43c-5.33301 0 -8 2.66699 -8 8c0 6 2.66699 9 8 9h43v17h-60c-5.33301 0 -8 2.66699 -8 8
c0 6 2.66699 9 8 9h60v42c0 6 -2.66699 9 -8 9h-103c-5.33301 0 -8 -3 -8 -9v-203c-0.666992 0 -1 0.666992 -1 2s-0.333008 2 -1 2l-48 79l-62 -47l28 -42c1.33301 -2.66699 3.66602 -4 6.99902 -4zM345 427.999c0.666992 3.33301 3.66895 7.66699 9.00195 13
c13.333 18 19 33.333 17 46c22.667 -13.333 32.667 -34.333 30 -63c-2.66699 -22 -12.334 -33 -29.001 -33c-4 0 -8.33301 1 -13 3c-8 3.33301 -13 8 -15 14c-2.66699 5.33301 -2.33398 12 0.999023 20z" />
    <glyph glyph-name="uniE01A" unicode="&#xe01a;" 
d="M333 512l-256.001 -0.00195312h-1h-3c-20 0 -37.167 -7.5 -51.5 -22.5s-21.5 -33.167 -21.5 -54.5v-273c0 -5.33301 3 -8 9 -8h59v-145c0 -6 3 -9 9 -9h256c5.33301 0 8 3 8 9v350c18.667 2.66699 34.834 11.334 48.501 26.001s20.5 31.334 20.5 50.001
c0 20 -7.83301 37.833 -23.5 53.5s-33.5 23.5 -53.5 23.5zM67.999 417.998v-247h-51v264c0 16 5.66699 30 17 42s24.333 18 39 18h3c22.667 -7.33301 38 -18.333 46 -33c4 -8 6 -17 6 -27c0 -4 -0.333008 -6.66699 -1 -8h-50c-6 0 -9 -3 -9 -9zM92.999 377.998
c-1.33301 0 -2.33301 -0.333008 -3 -1h-2l-1 -1h-2v34h38c-7.33301 -16 -17.333 -26.667 -30 -32zM176.999 240.998l-43 -42c-2 -2 -4 -3 -6 -3s-4 1 -6 3l-9 8c-3.33301 4.66699 -3.33301 8.66699 0 12c4.66699 4.66699 9 4.66699 13 0l2 -2l37 36
c3.33301 4.66699 7.33301 4.66699 12 0c3.33301 -3.33301 3.33301 -7.33301 0 -12zM176.999 326.998l-43 -43c-1.33301 -1.33301 -3.33301 -2 -6 -2s-4.66699 0.666992 -6 2l-9 9c-3.33301 3.33301 -3.33301 7.33301 0 12c4.66699 3.33301 9 3.33301 13 0l2 -3l37 37
c3.33301 3.33301 7.33301 3.33301 12 0c3.33301 -4.66699 3.33301 -8.66699 0 -12zM289.999 101.998h-85c-6 0 -9 3 -9 9c0 5.33301 3 8 9 8h85c6 0 9 -2.66699 9 -8c0 -6 -3 -9 -9 -9zM289.999 187.998h-85c-6 0 -9 2.66699 -9 8c0 6 3 9 9 9h85c6 0 9 -3 9 -9
c0 -5.33301 -3 -8 -9 -8zM289.999 272.998h-85c-6 0 -9 3 -9 9c0 5.33301 3 8 9 8h85c6 0 9 -2.66699 9 -8c0 -6 -3 -9 -9 -9zM468.999 392.998c-8 0 -16 -2.66699 -24 -8s-13.333 -11.333 -16 -18c-24 -4 -36 -18.333 -36 -43v-154c0 -6 2.66699 -9 8 -9c6 0 9 3 9 9v154
c0 14 5.66699 22.333 17 25v-144h85v153c0 8 -4.66699 15.833 -14 23.5s-19 11.5 -29 11.5zM426.999 42.998c0 -11.333 4.16797 -21.334 12.501 -30.001s18.166 -13 29.499 -13s21.333 4.83301 30 14.5s13 21.834 13 36.501h-85v-8zM427 187.997h85v-120h-85v120z" />
    <glyph glyph-name="uniE01B" unicode="&#xe01b;" 
d="M99 102h119v-17h-119v17zM99 51c0 -14 6.5 -26 19.5 -36s27.167 -15 42.5 -15c14 0 27 5 39 15s18 22 18 36v17h-119v-17zM167 324h51v-205h-51v205zM99 324h51v-205h-51v205zM166 439c-1.33301 3.33301 -3.83301 5 -7.5 5s-6.16699 -1.66699 -7.5 -5l-49 -98h113z
M397 512h-136c-6 0 -9 -3 -9 -9v-59h60c5.33301 0 8 -3 8 -9c0 -5.33301 -2.66699 -8 -8 -8h-60v-69h60c5.33301 0 8 -2.66699 8 -8c0 -6 -2.66699 -9 -8 -9h-60v-68h60c5.33301 0 8 -2.66699 8 -8c0 -6 -2.66699 -9 -8 -9h-60v-68h60c5.33301 0 8 -3 8 -9
c0 -5.33301 -2.66699 -8 -8 -8h-60v-69h60c5.33301 0 8 -2.66699 8 -8c0 -6 -2.66699 -9 -8 -9h-60v-76c0 -6 3 -9 9 -9h136c6 0 9 3 9 9v494c0 6 -3 9 -9 9z" />
    <glyph glyph-name="uniE01C" unicode="&#xe01c;" 
d="M503 393l-68.001 0.000976562c-5.33301 0 -8 -3 -8 -9v-26h-52c-55.333 0 -101.333 -12.667 -138 -38c-0.666992 1.33301 -1.5 3.16602 -2.5 5.49902s-1.83301 4.16602 -2.5 5.49902l88 88c9.33301 -6 19.333 -9 30 -9c14 0 26 5 36 15s15 22 15 36s-5 26 -15 36
s-22 15 -36 15s-26 -5 -36 -15s-15 -22 -15 -36c0 -11.333 3 -21.333 9 -30l-88 -88c-8 4.66699 -16 7 -24 7c-11.333 0 -21.166 -4.16699 -29.499 -12.5s-12.5 -18.5 -12.5 -30.5c0 -10 2.33301 -17.667 7 -23l-85 -85c-8 4 -16.333 6 -25 6c-14 0 -26 -5 -36 -15
s-15 -22 -15 -36c0 -14.667 5 -27 15 -37s22 -15 36 -15s26 5 36 15s15 22.333 15 37c0 12.667 -4.33301 24 -13 34l84 84c4 -2.66699 8 -4.66699 12 -6c-20.667 -36 -31 -79 -31 -129v-52h-26c-6 0 -9 -2.66699 -9 -8v-68c0 -6 3 -9 9 -9h68c6 0 9 3 9 9v68
c0 5.33301 -3 8 -9 8h-25v52c0 50.667 11.333 93.667 34 129c8.66699 1.33301 16.167 5.33301 22.5 12s9.83301 14.334 10.5 23.001c36 26.667 81.667 40 137 40h52v-25c0 -6 2.66699 -9 8 -9h68c6 0 9 3 9 9v68c0 6 -3 9 -9 9z" />
    <glyph glyph-name="uniE01D" unicode="&#xe01d;" 
d="M195 222l21 94.001c2.66699 14 11 21 25 21c14.667 0 23.667 -6.33301 27 -19l27 -96h25l52 280c0 3.33301 -0.666992 5.66602 -2 6.99902c-2 2 -4.33301 3 -7 3h-77v-148c0 -6 -3 -9 -9 -9c-5.33301 0 -8 3 -8 9v148h-53v-148c0 -6 -2.66699 -9 -8 -9c-6 0 -9 3 -9 9
v148h-72c-2.66699 0 -5 -1 -7 -3c-1.33301 -2.66699 -2 -5 -2 -7l53 -280h24zM317 129.001l73.0029 61.001c3.33301 2 4.33301 5 3 9c-0.666992 4 -3.33398 6 -8.00098 6h-96c-4.66699 0 -7.33398 2 -8.00098 6l-29 102c-2.66699 4.66699 -6.33398 7 -11.001 7
s-7.66699 -2.66699 -9 -8l-21 -100c-1.33301 -4.66699 -4.33301 -7 -9 -7h-97c-4.66699 0 -7.33398 -2 -8.00098 -6c-1.33301 -4 -0.333008 -7 3 -9l42 -34l33 -27l5 -4l-38 -91v-3c-1.33301 -3.33301 0 -6.33301 4 -9s8 -2.33398 12 0.999023l43 35l41 34l5 -4l22 -17
l70 -52c2.66699 -1.33301 4.33398 -2 5.00098 -2c2 0 3.66699 0.666992 5 2c4 2.66699 5 6 3 10l-40 96z" />
    <glyph glyph-name="uniE01E" unicode="&#xe01e;" 
d="M306 156c-14.667 -18 -33.667 -27 -57 -27s-42.333 9 -57 27c-11.333 -2.66699 -23.333 -3 -36 -1v-146c0 -4 2 -6.66699 6 -8c3.33301 -2 6.33301 -1.66699 9 1l79 80l80 -80c1.33301 -1.33301 3.33301 -2 6 -2c1.33301 -0 2.33301 0.333008 3 1
c3.33301 1.33301 5 4 5 8v147c-12 -3.33301 -24.667 -3.33301 -38 0zM429 295v2.00391l-1 2v3v2c0 0.666992 -0.333008 1.5 -1 2.5s-1 1.83301 -1 2.5s-0.166992 1 -0.5 1s-0.5 0.333008 -0.5 1c0 1.33301 -0.666992 2.66602 -2 3.99902c0 0.666992 -0.333008 1.66699 -1 3
c-1.33301 1.33301 -2.33301 2.66602 -3 3.99902c-0.666992 0.666992 -1 1.33398 -1 2.00098l-5 5c0.666992 0.666992 1.5 1.66699 2.5 3s1.83301 2.33301 2.5 3s1 1.33398 1 2.00098c1.33301 1.33301 2.33301 2.66602 3 3.99902c0 0.666992 0.166992 1 0.5 1
s0.5 0.333008 0.5 1c1.33301 1.33301 2 3 2 5c0.666992 0.666992 1 1.33398 1 2.00098l1 2l1 2v3v2c0.666992 1.33301 1 2.33301 1 3v2v5v2v5v3c-1.33301 2.66699 -2 5 -2 7c-1.33301 2.66699 -2.33301 5 -3 7c-0.666992 0 -1 0.666992 -1 2
c-0.666992 0.666992 -1.66699 2 -3 4c0 1.33301 -0.666992 2 -2 2c0 1.33301 -0.666992 2.66602 -2 3.99902c-1.33301 0 -2 0.666992 -2 2l-3 3c-0.666992 0 -1 0.333008 -1 1l-2 1c-1.33301 1.33301 -2.33301 2 -3 2s-1 0.333008 -1 1l-2 1l-4 2
c-0.666992 0.666992 -1.33398 1 -2.00098 1c-2.66699 1.33301 -4.33398 2 -5.00098 2l-2 1c-0.666992 0 -2 0.166992 -4 0.5s-3.33301 0.5 -4 0.5c0.666992 2 1 4.66699 1 8v2v5l-1 2c0 2.66699 -0.333008 4.33398 -1 5.00098v2c0 0.666992 -0.166992 1.5 -0.5 2.5
s-0.833008 1.83301 -1.5 2.5c0 1.33301 -0.333008 2 -1 2c0 0.666992 -0.666992 2.33398 -2 5.00098c0 0.666992 -0.166992 1 -0.5 1s-0.5 0.333008 -0.5 1c-0.666992 0.666992 -1.66699 2 -3 4c-0.666992 0.666992 -1 1.33398 -1 2.00098l-4 4l-1 1h-1
c-1.33301 2 -3 3.66699 -5 5c-0.666992 0.666992 -3 2 -7 4l-1 1c-0.666992 0 -1.66699 0.333008 -3 1s-2.33301 1 -3 1h-1c-8 4 -18 4.66699 -30 2c-0.666992 0 -1.66699 -0.166992 -3 -0.5s-2.66602 -0.5 -3.99902 -0.5l-1 -1c-1.33301 0 -3.66602 -1 -6.99902 -3
c-0.666992 2 -1.66699 4.33301 -3 7c-1.33301 0 -2 0.666992 -2 2l-3 3l-2 2l-2 2c-0.666992 0.666992 -1 1.33398 -1 2.00098l-2 1c-0.666992 0 -1.5 0.333008 -2.5 1s-1.83301 1.33398 -2.5 2.00098l-1 1c-0.666992 0 -1.5 0.333008 -2.5 1s-1.83301 1.33398 -2.5 2.00098
c-0.666992 0 -1.33398 0.333008 -2.00098 1c-0.666992 0 -1.5 0.166992 -2.5 0.5s-1.83301 0.5 -2.5 0.5c-0.666992 0.666992 -1.33398 1 -2.00098 1s-1.66699 0.166992 -3 0.5s-2.33301 0.5 -3 0.5h-2c-1.33301 0.666992 -3.66602 1 -6.99902 1s-6 -0.333008 -8 -1h-2
c-0.666992 0 -1.5 -0.166992 -2.5 -0.5s-1.83301 -0.5 -2.5 -0.5c-1.33301 0 -2 -0.333008 -2 -1c-2 0 -3.66699 -0.666992 -5 -2h-2c-0.666992 -0.666992 -1.5 -1.33398 -2.5 -2.00098s-1.83301 -1 -2.5 -1h-1l-1 -1c-0.666992 -0.666992 -2 -1.66699 -4 -3h-1l-1 -1l-4 -4
c-0.666992 -0.666992 -1 -1.33398 -1 -2.00098l-3 -3l-2 -2l-2 -2c-0.666992 -2 -1.33398 -3.66699 -2.00098 -5c-2 2 -4.33301 3 -7 3c0 0.666992 -0.333008 1 -1 1s-1.66699 0.166992 -3 0.5s-2.33301 0.5 -3 0.5h-1c-11.333 2 -21.333 1.33301 -30 -2
c-0.666992 0 -1.66699 -0.333008 -3 -1s-2.33301 -1 -3 -1c-0.666992 -0.666992 -1.33398 -1 -2.00098 -1c-2.66699 -1.33301 -4.66699 -2.66602 -6 -3.99902c-1.33301 -0.666992 -3.33301 -2.33398 -6 -5.00098l-1 -1l-4 -4c0 -0.666992 -0.166992 -1 -0.5 -1
s-0.5 -0.333008 -0.5 -1c-0.666992 -0.666992 -1.66699 -2 -3 -4c-0.666992 -0.666992 -1 -1.33398 -1 -2.00098c-0.666992 -0.666992 -1.33398 -1.5 -2.00098 -2.5s-1 -1.83301 -1 -2.5v-2c-1.33301 -1.33301 -2 -2.66602 -2 -3.99902v-1
c-0.666992 -0.666992 -1 -1.33398 -1 -2.00098c0 -2 -0.333008 -3.33301 -1 -4v-3v-5v-2v-8c-0.666992 0 -1.83398 -0.166992 -3.50098 -0.5s-2.83398 -0.5 -3.50098 -0.5l-2 -1c-0.666992 0 -2.33398 -0.666992 -5.00098 -2c-1.33301 0 -2 -0.333008 -2 -1
c-0.666992 0 -1.5 -0.333008 -2.5 -1s-1.83301 -1 -2.5 -1l-2 -2l-4 -2l-2 -2l-3 -3l-2 -2c-0.666992 -0.666992 -1.66699 -2 -3 -4l-2 -2c0 -1.33301 -0.666992 -2.66602 -2 -3.99902l-1 -2c-0.666992 -2 -1.66699 -4.33301 -3 -7
c0 -0.666992 -0.166992 -1.83398 -0.5 -3.50098s-0.833008 -2.83398 -1.5 -3.50098v-2c0 -0.666992 -0.166992 -1.66699 -0.5 -3s-0.5 -2.33301 -0.5 -3v-2v-5l1 -2c0 -2.66699 0.333008 -4.33398 1 -5.00098v-3l1 -2l1 -2c0 -1.33301 0.333008 -2.33301 1 -3
c0 -1.33301 0.666992 -2.66602 2 -3.99902c0 -0.666992 0.333008 -1.33398 1 -2.00098c0.666992 -1.33301 1.66699 -2.66602 3 -3.99902c0 -1.33301 0.333008 -2 1 -2c0.666992 -1.33301 2.33398 -3.33301 5.00098 -6l-5 -5l-1 -2
c-0.666992 -1.33301 -1.66699 -2.66602 -3 -3.99902c-0.666992 -0.666992 -1 -1.66699 -1 -3c-1.33301 -1.33301 -2 -2.66602 -2 -3.99902l-1 -2c0 -0.666992 -0.333008 -1.5 -1 -2.5s-1 -1.83301 -1 -2.5v-2c-0.666992 -1.33301 -1 -3 -1 -5
c0 -1.33301 -0.333008 -2.33301 -1 -3v-5v-2c0 -0.666992 0.166992 -1.5 0.5 -2.5s0.5 -1.83301 0.5 -2.5v-2c0 -0.666992 0.166992 -1.83398 0.5 -3.50098s0.833008 -2.83398 1.5 -3.50098c0.666992 -2 1.66699 -4.33301 3 -7l1 -2c1.33301 -2.66699 2 -4.33398 2 -5.00098
c1.33301 0 2 -0.666992 2 -2l3 -3l2 -2c0.666992 -1.33301 1.66699 -2.66602 3 -3.99902l2 -1c1.33301 -0.666992 2.66602 -1.66699 3.99902 -3l2 -2c0.666992 0 2.33398 -0.666992 5.00098 -2c0.666992 -0.666992 1.33398 -1 2.00098 -1
c0.666992 -0.666992 1.33398 -1 2.00098 -1c1.33301 -0.666992 2.33301 -1 3 -1h2c2.66699 -1.33301 5 -2 7 -2v-7v-3v-5v-2c0.666992 -1.33301 1 -3 1 -5c0 -0.666992 0.166992 -1 0.5 -1s0.5 -0.333008 0.5 -1s0.666992 -2.33398 2 -5.00098v-2
c0.666992 -0.666992 1.66699 -2.33398 3 -5.00098c0 -0.666992 0.333008 -1 1 -1c0 -0.666992 0.333008 -1.5 1 -2.5s1.33398 -1.83301 2.00098 -2.5s1 -1.33398 1 -2.00098c1.33301 -1.33301 2.66602 -2.33301 3.99902 -3v-1l1 -1c0.666992 -0.666992 1.66699 -1.5 3 -2.5
s2.33301 -1.83301 3 -2.5s1.66699 -1.33398 3 -2.00098s2.33301 -1.33398 3 -2.00098h1c0.666992 -0.666992 1.83398 -1.33398 3.50098 -2.00098s2.83398 -1 3.50098 -1h1l2 -1c12.667 -3.33301 24.667 -3 36 1c0.666992 0.666992 1.66699 1 3 1c2 0 4.33301 -1.33301 7 -4
c11.333 -16.667 27 -25 47 -25c19.333 0 35 8.33301 47 25c2.66699 4 6 5 10 3c12.667 -4 25.334 -4 38.001 0v0h1l6 3h1c0.666992 0.666992 3 2 7 4l5 5l2 2c1.33301 1.33301 2.66602 2.33301 3.99902 3l1 2c0.666992 1.33301 1.66699 2.66602 3 3.99902v1l1 2
c1.33301 1.33301 2 2.66602 2 3.99902c0.666992 0.666992 1 1.33398 1 2.00098s0.333008 1.5 1 2.5s1 1.83301 1 2.5v2c0.666992 1.33301 1 3 1 5l1 2v5v3c0 3.33301 -0.333008 5.66602 -1 6.99902c1.33301 0 4 0.666992 8 2h2c0.666992 0.666992 1.5 1 2.5 1
s1.83301 0.333008 2.5 1l1 1h1l4 2l1 1c0.666992 0.666992 1.33398 1 2.00098 1l3 3l2 1c2 0.666992 3.33301 2 4 4l2 2c1.33301 1.33301 2 2.33301 2 3l2 2c0 0.666992 0.333008 1.5 1 2.5s1.33398 1.83301 2.00098 2.5s1 1.33398 1 2.00098c1.33301 2.66699 2.33301 5 3 7
v0c0.666992 0.666992 1.16699 1.83398 1.5 3.50098s0.5 2.83398 0.5 3.50098v2v5v2v6zM347 364.004l-49.001 -48.999l25 -75c0 -2 -0.666992 -3.33301 -2 -4c-0.666992 -0.666992 -1.33398 -1 -2.00098 -1h-3l-66 42l-66 -42c-1.33301 -1.33301 -3 -1 -5 1
c-2 1.33301 -2.33301 2.66602 -1 3.99902l25 75l-50 49c-1.33301 1.33301 -1.33301 3 0 5c0 1.33301 1 2 3 2h58l33 58c0.666992 0.666992 1.83398 1 3.50098 1s2.83398 -0.333008 3.50098 -1l33 -58h57c1.33301 0 2.66602 -0.666992 3.99902 -2
c0.666992 -2 0.333984 -3.66699 -0.999023 -5z" />
    <glyph glyph-name="uniE01F" unicode="&#xe01f;" 
d="M83 221l-81.9971 -140c-2 -2.66699 -1.66699 -5.66699 1 -9c2 -2.66699 4.66699 -4 8 -4l78 16l23 -70c1.33301 -3.33301 3.66602 -5 6.99902 -5h1c3.33301 0 5.66602 1 6.99902 3l76 109c-52.667 16 -92.334 49.333 -119.001 100zM511.003 90l-71.999 119
c-27.333 -45.333 -67 -75.333 -119 -90l65 -106c0.666992 -2.66699 3 -4 7 -4h1c3.33301 0 5.66602 1.66699 6.99902 5l24 71l79 -8c3.33301 0 6 1.33301 8 4c1.33301 2.66699 1.33301 5.66699 0 9zM452.004 316c0 51.333 -18.333 95.333 -55 132s-80.667 55 -132 55
c-52 0 -96.333 -18.333 -133 -55s-55 -80.667 -55 -132c0 -52 18.333 -96.333 55 -133s81 -55 133 -55c51.333 0 95.333 18.333 132 55s55 81 55 133zM303.004 297l22.002 -65l-58 36l-2 1c-1.33301 0 -2.33301 -0.333008 -3 -1l-58 -36l22 65
c0 2.66699 -0.333008 4.33398 -1 5.00098l-43 35h48c1.33301 0 2.66602 0.666992 3.99902 2l31 61l30 -61c1.33301 -1.33301 2.66602 -2 3.99902 -2h48l-43 -35c-0.666992 -0.666992 -1 -2.33398 -1 -5.00098z" />
    <glyph glyph-name="uniE020" unicode="&#xe020;" 
d="M206 352l-70 155.001c-2 3.33301 -4.66699 5 -8 5h-47l80 -179c12.667 7.33301 27.667 13.666 45 18.999zM147 323.001l-84 189.001h-46c-4 0 -6.33301 -1.33301 -7 -4c-2 -2 -2.33301 -4.66699 -1 -8l99 -214c12 15.333 25 27.666 39 36.999zM502 508.002
c-0.666992 2.66699 -3 3.99902 -7 3.99902h-46l-84 -189c14 -9.33301 27 -21.666 39 -36.999l99 214c1.33301 3.33301 1 6 -1 8zM431 512.001l-47 -0.000976562c-3.33301 0 -6 -1.66699 -8 -5l-70 -155c17.333 -5.33301 32.333 -11.666 45 -18.999zM256 341
c-47.333 0 -87.6699 -16.667 -121.003 -50s-50 -73.333 -50 -120c0 -47.333 16.833 -87.666 50.5 -120.999s73.834 -50 120.501 -50s86.834 16.667 120.501 50s50.5 73.666 50.5 120.999c0 46.667 -16.667 86.667 -50 120s-73.666 50 -120.999 50zM352.996 193l-49.0029 -41
l24 -74c0.666992 -1.33301 0.333984 -3 -0.999023 -5h-3h-2l-66 41l-66 -41c-1.33301 -0.666992 -3 -0.666992 -5 0c-1.33301 2 -1.66602 3.66699 -0.999023 5l24 74l-49 41c-0.666992 0.666992 -1 2.33398 -1 5.00098c2 2 3.33301 3 4 3h57l33 65
c2.66699 4 5.33398 4 8.00098 0l33 -65h57c0.666992 0 2 -1 4 -3c0 -2.66699 -0.333008 -4.33398 -1 -5.00098z" />
    <glyph glyph-name="uniE021" unicode="&#xe021;" 
d="M307 512h-34v-154c10.667 0 22 -1.66699 34 -5v159zM375 451v1.00098v51c0 6 -2.66699 9 -8 9h-43v-163c12.667 -4.66699 23 -9.33398 31 -14.001zM174 335.001c8 4.66699 18.333 9.33301 31 14v163h-43c-5.33301 0 -8 -3 -8 -9v-51v-1zM256 512h-34v-159
c12 3.33301 23.333 5 34 5v154zM265 341c-47.333 0 -87.666 -16.5 -120.999 -49.5s-50 -73.167 -50 -120.5s16.667 -87.666 50 -120.999s73.666 -50 120.999 -50c46.667 0 86.667 16.667 120 50s50 73.666 50 120.999s-16.5 87.5 -49.5 120.5s-73.167 49.5 -120.5 49.5z
M361 193l-49.0029 -40.999l25 -74c0 -2 -0.666992 -3.66699 -2 -5h-2h-2l-66 41l-66 -41c-2 -1.33301 -3.66699 -1.33301 -5 0s-2 3 -2 5l25 74l-49 41c-1.33301 1.33301 -1.66602 3 -0.999023 5c0 2 1.33301 3 4 3h57l33 65c0.666992 1.33301 1.83398 2 3.50098 2
s2.83398 -0.666992 3.50098 -2l33 -65h57c2.66699 0 4 -1 4 -3c1.33301 -2.66699 1 -4.33398 -1 -5.00098z" />
    <glyph glyph-name="uniE022" unicode="&#xe022;" 
d="M401 512h-85v-288l93 225c0 0.666992 0.333008 1.66699 1 3v51c0 6 -3 9 -9 9zM281 312l18.001 -44v244h-34v-184c7.33301 -2 12.666 -7.33301 15.999 -16zM189.001 224l7 15v273h-77c-5.33301 0 -8 -3 -8 -9v-51v-3zM247.001 329v183h-34v-236l18 38
c2.66699 6.66699 8 11.667 16 15zM401.001 205l-96 -0.000976562l-6 15l-33 86l-1 1c-0.666992 0.666992 -1 1.33398 -1 2.00098l-1 1l-1 1h-1c-1.33301 1.33301 -3 2 -5 2c-4 0 -7 -1.66699 -9 -5c0 -0.666992 -0.333008 -1 -1 -1l-33 -72l-14 -30h-3v0h-94
c-3.33301 0 -6 -2 -8 -6c-1.33301 -4 -0.333008 -7 3 -9l81 -74l-1 -4l-23 -102c-1.33301 -3.33301 0 -6.33301 4 -9c2.66699 -2 6 -1.66699 10 1l37 31l51 41l5 -5l75 -67c1.33301 -1.33301 3 -2 5 -2s3.66699 0.333008 5 1c2.66699 2 4 5 4 9l-4 17l-20 85l-1 4l82 74
c2.66699 2.66699 3.33398 5.66699 2.00098 9c-0.666992 4 -3.33398 6 -8.00098 6z" />
    <glyph glyph-name="uniE023" unicode="&#xe023;" 
d="M469 417c-11.333 0 -21.168 -4.16699 -29.501 -12.5s-12.5 -18.5 -12.5 -30.5c0 -15.333 6.66699 -27.333 20 -36l-72 -71l-102 102c22.667 8 34 24 34 48c0 14 -5 26 -15 36s-22 15 -36 15s-26 -5 -36 -15s-15 -22 -15 -36c0 -24 11.333 -40 34 -48l-102 -102l-72 71
c13.333 8.66699 20 20.667 20 36c0 12 -4.16699 22.167 -12.5 30.5s-18.166 12.5 -29.499 12.5c-12 0 -22.167 -4.16699 -30.5 -12.5s-12.5 -18.5 -12.5 -30.5c0 -11.333 4.16699 -21.333 12.5 -30s18.5 -13 30.5 -13l1 1l42 -173c0 -4.66699 2.66699 -7 8 -7h324
c5.33301 0 8 2.33301 8 7l42 173l1 -1c12 0 22.167 4.33301 30.5 13s12.5 18.667 12.5 30c0 12 -4.16699 22.167 -12.5 30.5s-18.5 12.5 -30.5 12.5zM426.998 135h-342c-12.667 0 -22.5 -4.16699 -29.5 -12.5s-10.5 -18.5 -10.5 -30.5c0 -11.333 3.5 -21.166 10.5 -29.499
s16.833 -12.5 29.5 -12.5h342c12.667 0 22.5 4.16699 29.5 12.5s10.5 18.166 10.5 29.499c0 12 -3.5 22.167 -10.5 30.5s-16.833 12.5 -29.5 12.5z" />
    <glyph glyph-name="uniE024" unicode="&#xe024;" 
d="M435 85l-375 0.000976562c-12 0 -22.333 -4.33301 -31 -13c-4.66699 -6 -7.66699 -13 -9 -21c-0.666992 -2 -1 -4.66699 -1 -8c0 -12 3.66699 -22.167 11 -30.5s17.333 -12.5 30 -12.5h375c12.667 0 22.667 4.16699 30 12.5s11 18.5 11 30.5
c0 11.333 -3.66699 21.166 -11 29.499s-17.333 12.5 -30 12.5zM247 512.001c-14.667 0 -27.5 -4.83301 -38.5 -14.5s-17.833 -21.834 -20.5 -36.501h119c-2.66699 14.667 -9.66699 26.834 -21 36.501s-24.333 14.5 -39 14.5zM239 393.001v-35c0 -4 2.33301 -6.66699 7 -8h2
h1c4.66699 1.33301 7 4 7 8v35c13.333 2 24.666 7.66699 33.999 17s15 20.666 17 33.999h-119c2 -13.333 7.83301 -24.666 17.5 -33.999s20.834 -15 33.501 -17zM63 104.001l3 -2h363l2 2c42.667 27.333 64 63.666 64 108.999c0 39.333 -12.167 72 -36.5 98
s-54.833 39 -91.5 39c-19.333 0 -38 -4.66699 -56 -14c22.667 -10.667 40.667 -26.667 54 -48s20 -45.666 20 -72.999c0 -15.333 -2.66699 -31 -8 -47c-1.33301 -3.33301 -4 -5 -8 -5h-3c-5.33301 2.66699 -7 6.33398 -5 11.001c4.66699 12 7 25.667 7 41
c0 34 -11.333 62.167 -34 84.5s-51.334 33.5 -86.001 33.5c-34 0 -62.667 -11.333 -86 -34s-35 -50.667 -35 -84c0 -14.667 2.33301 -28 7 -40c1.33301 -6 -0.666992 -9.66699 -6 -11c-5.33301 -2.66699 -8.66602 -1 -9.99902 5c-5.33301 13.333 -8 28.666 -8 45.999
c0 26 6.66699 49.667 20 71s31.333 37.666 54 48.999c-17.333 10 -36 15 -56 15c-36.667 0 -67.167 -13 -91.5 -39s-36.5 -58.667 -36.5 -98c0 -43.333 21 -79.666 63 -108.999z" />
    <glyph glyph-name="uniE025" unicode="&#xe025;" 
d="M469 401c-11.333 0 -21.1689 -4.16602 -29.502 -12.499s-12.5 -18.5 -12.5 -30.5c0 -21.333 10.667 -35 32 -41c-15.333 -63.333 -46 -95 -92 -95c-46.667 0 -80.334 45.667 -101.001 137c12 2.66699 21.833 8.66699 29.5 18s11.5 20.333 11.5 33c0 14 -5 26 -15 36
s-22 15 -36 15s-26 -5 -36 -15s-15 -22 -15 -36c0 -12.667 4 -23.667 12 -33s17.667 -15.333 29 -18c-1.33301 -10.667 -3.66602 -22.334 -6.99902 -35.001s-8.33301 -27.334 -15 -44.001s-16.167 -30.5 -28.5 -41.5s-26.166 -16.5 -41.499 -16.5
c-20 0 -37.833 6.66699 -53.5 20s-26.5 26 -32.5 38s-11 24.333 -15 37c9.33301 2.66699 17 7.83398 23 15.501s9 16.167 9 25.5c0 12 -4.16699 22.167 -12.5 30.5s-18.166 12.5 -29.499 12.5c-12 0 -22.167 -4.16699 -30.5 -12.5s-12.5 -18.5 -12.5 -30.5
c-0 -10.667 3.33301 -19.834 10 -27.501s15 -12.5 25 -14.5l42 -241c1.33301 -4.66699 4 -7 8 -7h342c4 0 6.66699 2.33301 8 7l42 241c10 2 18.333 6.83301 25 14.5s10 16.834 10 27.501c0 12 -4.16699 22.167 -12.5 30.5s-18.5 12.5 -30.5 12.5zM426.997 51.001h-342
c-5.33301 0 -8 -2.66699 -8 -8c0 -6 2.66699 -9 8 -9h342c5.33301 0 8 3 8 9c0 5.33301 -2.66699 8 -8 8z" />
    <glyph glyph-name="uniE026" unicode="&#xe026;" 
d="M191 511c-3.33301 2 -6.66113 1.3291 -9.99414 -2.00391c-2.66699 -4 -2.66699 -7.66699 0 -11c27.333 -35.333 41.666 -78.5 42.999 -129.5s-10.334 -92.5 -35.001 -124.5c-6 8.66699 -11.667 26.334 -17 53.001l-1 3c-1.33301 3.33301 -3 5.66602 -5 6.99902
c-2.66699 0.666992 -5.33398 0.333984 -8.00098 -0.999023c-30.667 -22 -51.667 -50.167 -63 -84.5s-11.333 -69.166 0 -104.499s31.666 -63.666 60.999 -84.999s63 -32 101 -32c42 0 76.667 11.5 104 34.5s45 55.833 53 98.5c8.66699 44 5.66699 91 -9 141
s-40.834 96.833 -78.501 140.5s-82.834 75.834 -135.501 96.501zM255.005 64.9961c-15.333 0 -28.665 4.66797 -39.998 14.001s-18.666 21.666 -21.999 36.999c0 3.33301 1 6 3 8c1.33301 1.33301 4 2 8 2c0.666992 -0.666992 2 -1 4 -1c7.33301 0 15.666 3.33301 24.999 10
s16.666 14.667 21.999 24c8.66699 14 10 27 4 39c-2 2.66699 -2 5.66699 0 9c1.33301 2.66699 3.66602 4 6.99902 4c11.333 0 21.333 -4.33301 30 -13c15.333 -16 22.333 -39.667 21 -71c-0.666992 -17.333 -7 -32 -19 -44s-26.333 -18 -43 -18z" />
    <glyph glyph-name="uniE027" unicode="&#xe027;" 
d="M43 512c-4.66699 0 -8.66699 -1.66699 -12 -5s-5 -7.33301 -5 -12v-478c0 -4.66699 1.66699 -8.66699 5 -12s7.33301 -5 12 -5s8.66699 1.66699 12 5s5 7.33301 5 12v478c0 4.66699 -1.66699 8.66699 -5 12s-7.33301 5 -12 5zM466 450
c-2.66699 2.66699 -5.00195 3.33008 -7.00195 1.99707l-7 -2c-5.33301 -1.33301 -12 -2.83301 -20 -4.5s-16.833 -3.16699 -26.5 -4.5s-20.167 -2.66602 -31.5 -3.99902s-21.666 -2 -30.999 -2c-19.333 0 -33.333 2.33301 -42 7c-10 4 -15 10 -15 18
c0 25.333 -19.333 38 -58 38s-87 -9.66699 -145 -29c-4 -0.666992 -6 -3.33398 -6 -8.00098v-256c0 -2.66699 1 -5 3 -7c2.66699 -1.33301 5.33398 -1.66602 8.00098 -0.999023l9 3c6 1.33301 14 3.33301 24 6s20.833 5.33398 32.5 8.00098s24.167 4.83398 37.5 6.50098
s25 2.5 35 2.5c28.667 0 43 -7 43 -21c0 -27.333 23.667 -41 71 -41c44 0 85 6.33301 123 19c4 1.33301 6 4 6 8v256c0 2.66699 -1 4.66699 -3 6z" />
    <glyph glyph-name="uniE028" unicode="&#xe028;" 
d="M483 169l-149 119l149 124c3.33301 2 4.33301 5 3 9s-4 6 -8 6h-231v59c0 6 -2.66699 9 -8 9h-154c-5.33301 0 -8 -3 -8 -9v-273c0 -5.33301 2.66699 -8 8 -8h76v-43c0 -5.33301 3 -8 9 -8h308c4 0 6.66699 1.66699 8 5c1.33301 4.66699 0.333008 8 -3 10zM217 199
c-20 -8.66699 -33 -15 -39 -19v25h53c-5.33301 -2.66699 -10 -4.66699 -14 -6zM43 512c-4.66699 0 -8.66699 -1.66699 -12 -5s-5 -7.33301 -5 -12v-478c0 -4.66699 1.66699 -8.66699 5 -12s7.33301 -5 12 -5s8.66699 1.66699 12 5s5 7.33301 5 12v478
c0 4.66699 -1.66699 8.66699 -5 12s-7.33301 5 -12 5z" />
    <glyph glyph-name="uniE029" unicode="&#xe029;" 
d="M491 238l-153.001 119.999l154 122c2.66699 2.66699 3.33398 5.66699 2.00098 9c-1.33301 4 -4 6 -8 6h-392c-6 0 -9 -3 -9 -9v-256c0 -5.33301 3 -8 9 -8h392c6 0 9 2.66699 9 8c0 2.66699 -1.33301 5.33398 -4 8.00098zM50.999 511.999
c-4.66699 0 -8.66699 -1.66699 -12 -5s-5 -7.33301 -5 -12v-478c0 -4.66699 1.66699 -8.66699 5 -12s7.33301 -5 12 -5s8.66699 1.66699 12 5s5 7.33301 5 12v478c0 4.66699 -1.66699 8.66699 -5 12s-7.33301 5 -12 5z" />
    <glyph glyph-name="uniE02A" unicode="&#xe02a;" 
d="M480 349l-316 145c-2 1.33301 -4.66699 1.33301 -8 0c-2.66699 -2.66699 -4 -5.33398 -4 -8.00098v-281c0 -3.33301 1.33301 -5.66602 4 -6.99902c1.33301 -1.33301 3 -2 5 -2c1.33301 0 2.33301 0.333008 3 1l316 136c3.33301 2 5 4.66699 5 8
c0 4 -1.66699 6.66699 -5 8zM101 512c-4.66699 0 -8.66699 -1.66699 -12 -5s-5 -7.33301 -5 -12v-478c0 -4.66699 1.66699 -8.66699 5 -12s7.33301 -5 12 -5s8.66699 1.66699 12 5s5 7.33301 5 12v478c0 4.66699 -1.66699 8.66699 -5 12s-7.33301 5 -12 5z" />
    <glyph glyph-name="uniE02B" unicode="&#xe02b;" 
d="M430 375l-317 133c-4 2.66699 -7 4 -9 4h-1h-1h-1c-10.667 -1.33301 -16 -7 -16 -17v-478c0 -4.66699 1.66699 -8.66699 5 -12s7.33301 -5 12 -5s8.66699 1.66699 12 5s5 7.33301 5 12v203l311 139c3.33301 2 5 4.66699 5 8s-1.66699 6 -5 8z" />
    <glyph glyph-name="uniE02C" unicode="&#xe02c;" 
d="M510 330l-180 179c-3.33301 4.66699 -7.33301 4.66699 -12 0l-130 -130l-37 37c-4 4 -8 4 -12 0l-111 -111c-3.33301 -4.66699 -3.33301 -8.66699 0 -12l179 -180c2.66699 -1.33301 4.66699 -2 6 -2c2.66699 0 4.66699 0.666992 6 2l54 54l37 -37
c3.33301 -3.33301 7.33301 -3.33301 12 0l188 188c3.33301 4.66699 3.33301 8.66699 0 12zM304 160l-19 19l32 32c-6.66699 -19.333 -11 -36.333 -13 -51zM29 260c-8 6.66699 -16 6.66699 -24 0c-8.66699 -8 -8.66699 -16.333 0 -25l230 -230
c4.66699 -3.33301 8.66699 -5 12 -5c4 0 8.33301 1.66699 13 5c6.66699 8 6.66699 16 0 24z" />
    <glyph glyph-name="uniE02D" unicode="&#xe02d;" 
d="M467 424c-2 2 -4 3 -6 3l-196 -1v60c0 6 -3 9 -9 9h-154c-5.33301 0 -8 -3 -8 -9v-273c0 -5.33301 2.66699 -8 8 -8h77v-43c0 -5.33301 3 -8 9 -8h273c5.33301 0 8 2.66699 8 8v256c0 2.66699 -0.666992 4.66699 -2 6zM196 183l0.000976562 22h44
c-16.667 -6 -31.334 -13.333 -44.001 -22zM60.001 512c-4.66699 0 -8.66699 -1.66699 -12 -5s-5 -7.33301 -5 -12v-478c0 -4.66699 1.66699 -8.66699 5 -12s7.33301 -5 12 -5s8.66699 1.66699 12 5s5 7.33301 5 12v478c0 4.66699 -1.66699 8.66699 -5 12s-7.33301 5 -12 5z
" />
    <glyph glyph-name="uniE02E" unicode="&#xe02e;" 
d="M479 495h-375c-5.33301 0 -8 -3 -8 -9v-256c0 -5.33301 2.66699 -8 8 -8h375c5.33301 0 8 2.66699 8 8v256c0 6 -2.66699 9 -8 9zM61 512c-4.66699 0 -8.66699 -1.66699 -12 -5s-5 -7.33301 -5 -12v-478c0 -4.66699 1.66699 -8.66699 5 -12s7.33301 -5 12 -5
s8.66699 1.66699 12 5s5 7.33301 5 12v478c0 4.66699 -1.66699 8.66699 -5 12s-7.33301 5 -12 5z" />
    <glyph glyph-name="uniE02F" unicode="&#xe02f;" 
d="M0 17h512v341h-512v-341zM284 259l64.001 43.002c2.66699 2 5.66699 2 9 0c3.33301 -2.66699 4.66602 -5.33398 3.99902 -8.00098l-21 -194c-1.33301 -5.33301 -4.33301 -8 -9 -8h-1c-6 1.33301 -8.33301 4.66602 -7 9.99902l19 175l-49 -33
c-4.66699 -2.66699 -8.66699 -1.66699 -12 3c-2.66699 4.66699 -1.66699 8.66699 3 12zM116.001 205.002h55v60c0 5.33301 2.66699 8 8 8c6 0 9 -2.66699 9 -8v-60h57c6 0 9 -3 9 -9c0 -5.33301 -3 -8 -9 -8h-57v-51c0 -6 -3 -9 -9 -9c-5.33301 0 -8 3 -8 9v51h-55
c-5.33301 0 -8 2.66699 -8 8c0 6 2.66699 9 8 9zM171.001 495.002h170v-120h-170v120zM154.001 495.002h-102c-14.667 0 -27 -5 -37 -15c-10 -9.33301 -15 -21.333 -15 -36v-69h154v120zM497.001 480.002c-10 10 -22.333 15 -37 15h-102v-120h154v69
c0 14.667 -5 26.667 -15 36z" />
    <glyph glyph-name="uniE030" unicode="&#xe030;" 
d="M9 393h-9v-384c0 -6 3 -9 9 -9h494c6 0 9 3 9 9v384h-503zM375 162h-76v-85h-86v85h-76v77h76v77h86v-77h76v-77zM460 512h-102v-102h154v50c0 14.667 -5 27 -15 37s-22.333 15 -37 15zM171 512h170v-102h-170v102zM154 410v102h-102c-14.667 0 -27 -5 -37 -15
s-15 -22.333 -15 -37v-50h154z" />
    <glyph glyph-name="uniE031" unicode="&#xe031;" 
d="M495 265c0 11.333 -4.33398 21.166 -13.001 29.499s-18.667 12.5 -30 12.5h-160c10 46 15 83 15 111c0 19.333 -4.16699 34 -12.5 44s-18.5 15 -30.5 15c-9.33301 0 -17.333 -3.16699 -24 -9.5s-10 -14.166 -10 -23.499c0 -40.667 -16.167 -79.334 -48.5 -116.001
s-70.166 -55 -113.499 -55h-59c-6 0 -9 -2.66699 -9 -8v-188c0 -6 3 -9 9 -9c69.333 0 124.333 -7 165 -21c28.667 -8.66699 55 -13 79 -13h140c7.33301 0 14.833 3.16699 22.5 9.5s11.5 14.5 11.5 24.5c0 10.667 -2.66699 19.667 -8 27c22 3.33301 33 17.333 33 42
c0 7.33301 -2 13.333 -6 18c9.33301 2.66699 17 7.83398 23 15.501s9 16.167 9 25.5s-4.66699 18.666 -14 27.999c8.66699 2.66699 16 7.83398 22 15.501s9 16.167 9 25.5z" />
    <glyph glyph-name="uniE032" unicode="&#xe032;" 
d="M512 282c0 11.333 -4.33203 21.166 -12.999 29.499s-18.667 12.5 -30 12.5h-158c18.667 51.333 24.667 88.666 18 111.999c-9.33301 33.333 -25.333 50 -48 50c-9.33301 0 -17.333 -3.5 -24 -10.5s-10 -15.5 -10 -25.5c0 -32.667 -11.833 -66 -35.5 -100
s-48.5 -57.333 -74.5 -70v-208c16 -2.66699 30.333 -5.66699 43 -9c30.667 -8 59 -12 85 -12h145c22.667 0 34 11.333 34 34c0 7.33301 -2 13.333 -6 18c20.667 4.66699 31 16 31 34c0 10.667 -2.33301 19.334 -7 26.001c9.33301 2.66699 17.166 7.83398 23.499 15.501
s9.5 16.5 9.5 26.5c0 10.667 -4.33301 19.667 -13 27c10 3.33301 17.5 10 22.5 20s7.5 20 7.5 30zM111.001 307h-102c-3.33301 0 -5.33301 -0.666992 -6 -2c-2 -2 -3 -4 -3 -6v-256c0 -6 3 -9 9 -9h102c5.33301 0 8 3 8 9v256c0 5.33301 -2.66699 8 -8 8zM73.001 73
c-7.33301 0 -11 3.66699 -11 11c0 6.66699 3.66699 10 11 10s11 -3.33301 11 -10c0 -7.33301 -3.66699 -11 -11 -11z" />
    <glyph glyph-name="uniE033" unicode="&#xe033;" 
d="M503 443c-69.333 0 -124.332 7 -164.999 21c-28.667 8.66699 -55 13 -79 13h-140c-7.33301 0 -14.833 -3.16699 -22.5 -9.5s-11.5 -14.5 -11.5 -24.5c0 -10.667 2.66699 -19.667 8 -27c-22 -3.33301 -33 -17.333 -33 -42c0 -6.66699 2 -12.667 6 -18
c-9.33301 -2.66699 -17 -7.83398 -23 -15.501s-9 -16.167 -9 -25.5s4.66699 -18.666 14 -27.999c-8.66699 -2.66699 -16 -7.83398 -22 -15.501s-9 -16.167 -9 -25.5c0 -11.333 4.33301 -21.166 13 -29.499s18.667 -12.5 30 -12.5h160c-10 -46 -15 -83 -15 -111
c0 -20 4.33301 -34.667 13 -44c8.66699 -10 18.667 -15 30 -15c9.33301 0 17.333 3.16699 24 9.5s10 14.166 10 23.499c0 40.667 16.167 79.334 48.5 116.001s70.166 55 113.499 55h59c6 0 9 2.66699 9 8v188c0 6 -3 9 -9 9z" />
    <glyph glyph-name="uniE034" unicode="&#xe034;" 
d="M247 461h-145.001c-22.667 0 -34 -11.333 -34 -34c0 -7.33301 2 -13.333 6 -18c-20.667 -4.66699 -31 -16 -31 -34c0 -10.667 2.33301 -19.334 7 -26.001c-9.33301 -2.66699 -17.166 -7.83398 -23.499 -15.501s-9.5 -16.5 -9.5 -26.5c0 -10.667 4.33301 -19.667 13 -27
c-10 -3.33301 -17.5 -10 -22.5 -20s-7.5 -20 -7.5 -30c-0 -11.333 4.33301 -21.166 13 -29.499s18.667 -12.5 30 -12.5h158c-18.667 -51.333 -24.667 -88.666 -18 -111.999c9.33301 -33.333 25.333 -50 48 -50c9.33301 0 17.333 3.5 24 10.5s10 15.5 10 25.5
c0 32.667 11.833 66 35.5 100s48.5 57.333 74.5 70v208c-16 2.66699 -30.333 5.66699 -43 9c-30.667 8 -59 12 -85 12zM502.999 478h-102c-5.33301 0 -8 -3 -8 -9v-256c0 -5.33301 2.66699 -8 8 -8h102c3.33301 0 5.33301 0.666992 6 2c2 2 3 4 3 6v256c0 6 -3 9 -9 9z
M438.999 418c-7.33301 0 -11 3.33301 -11 10c0 7.33301 3.66699 11 11 11s11 -3.66699 11 -11c0 -6.66699 -3.66699 -10 -11 -10z" />
    <glyph glyph-name="uniE035" unicode="&#xe035;" 
d="M368 512c-24 0 -46.667 -7.66699 -68 -23s-37.333 -38 -48 -68c-10 29.333 -25.5 51.666 -46.5 66.999s-43.5 23 -67.5 23c-37.333 0 -66.833 -15 -88.5 -45s-32.5 -65.333 -32.5 -106c0 -76.667 38.667 -155.667 116 -237c10.667 -11.333 21.667 -22.166 33 -32.499
s21.666 -19.333 30.999 -27l25 -20l18 -13.5l7 -5c1.33301 -0.666992 3 -1 5 -1c2.66699 0 4.33398 0.666992 5.00098 2c0.666992 0 6.16699 4.33301 16.5 13s25 22 44 40s36.833 36.667 53.5 56c76.667 86.667 115 166 115 238c0 37.333 -10.5 69.833 -31.5 97.5
s-49.833 41.5 -86.5 41.5z" />
    <glyph glyph-name="uniE036" unicode="&#xe036;" 
d="M256 512c-70.667 0 -131 -25 -181 -75s-75 -110.333 -75 -181s25 -131 75 -181s110.333 -75 181 -75s131 25 181 75s75 110.333 75 181s-25 131 -75 181s-110.333 75 -181 75zM259 123h-3h-3l-10 9l-23 18.5c-8.66699 7 -18.167 15.833 -28.5 26.5
s-19.833 21.334 -28.5 32.001s-15.834 22.167 -21.501 34.5s-8.5 23.5 -8.5 33.5c0 20.667 6.33301 37.334 19 50.001s27.334 19 44.001 19c28.667 0 48.667 -15.667 60 -47c11.333 31.333 31.333 47 60 47c16.667 0 31.334 -6.33301 44.001 -19s19 -29.334 19 -50.001
c0 -10 -2.83301 -21.167 -8.5 -33.5s-12.834 -23.833 -21.501 -34.5s-18.167 -21.334 -28.5 -32.001s-19.833 -19.5 -28.5 -26.5l-23 -18.5z" />
    <glyph glyph-name="uniE037" unicode="&#xe037;" 
d="M428 299l-1.00098 0.00195312h-12v-13c0 -48 -27.333 -98 -82 -150v-17c0 -12.667 3.83301 -22.834 11.5 -30.501s17.834 -11.5 30.501 -11.5c6.66699 0 12.667 1.33301 18 4v86c0 6 2.66699 9 8 9c6 0 9 -3 9 -9v-132c7.33301 -12 18.666 -18 33.999 -18
c12.667 0 22.834 4.66699 30.501 14s11.5 21.666 11.5 36.999v154c0 45.333 -19.333 71 -58 77zM105.999 299.002l-12 -0.000976562h-1c-20 -2.66699 -36.167 -11.667 -48.5 -27s-18.5 -33.666 -18.5 -54.999v-149c0 -15.333 3.83301 -27.666 11.5 -36.999
s17.834 -14 30.501 -14c16 0 28.333 7.33301 37 22v128c0 6 2.66699 9 8 9c6 0 9 -3 9 -9v-87c4 -2 9 -3 15 -3c11.333 0 21.166 4.16699 29.499 12.5s12.5 18.166 12.5 29.499v23c-49.333 48 -74 96 -74 144c0 1.33301 0.166992 3.5 0.5 6.5s0.5 5.16699 0.5 6.5z
M259.999 413.001c9.33301 0 19.168 0.333008 29.501 1s23.5 2.16699 39.5 4.5s29.167 6.33301 39.5 12s15.5 12.834 15.5 21.501c0 13.333 -12.333 23.833 -37 31.5s-53.667 11.5 -87 11.5c-32.667 0 -61.334 -3.83301 -86.001 -11.5s-37 -18.167 -37 -31.5
c0 -8.66699 5.16699 -15.834 15.5 -21.501s23.5 -9.66699 39.5 -12s29.167 -3.83301 39.5 -4.5s19.833 -1 28.5 -1zM260.001 478.001c22 0 41.5 -1.66699 58.5 -5s29.333 -6.83301 37 -10.5s11.5 -7.16699 11.5 -10.5c0 -2.66699 -3.5 -5.5 -10.5 -8.5s-19.167 -6 -36.5 -9
s-37.333 -4.5 -60 -4.5s-42.667 1.5 -60 4.5s-29.333 6 -36 9s-10 5.83301 -10 8.5s3.83301 6 11.5 10s20 7.66699 37 11s36.167 5 57.5 5zM325.001 369.001h-8.99707c-0.666992 -0.666992 -2.33398 -1 -5.00098 -1c-0.666992 -0.666992 -1.66699 -1 -3 -1
c-0.666992 -0.666992 -2 -1.16699 -4 -1.5s-3.33301 -0.5 -4 -0.5c-13.333 -5.33301 -24 -14 -32 -26c-0.666992 0 -1 -0.333008 -1 -1c-4 -6 -6.33301 -9.66699 -7 -11c-4.66699 10.667 -11.334 19.667 -20.001 27l-2 2c-0.666992 0 -1.5 0.666992 -2.5 2
s-1.83301 2 -2.5 2s-1.66699 0.666992 -3 2l-6 3l-1 1h-2c-2.66699 1.33301 -4.66699 2 -6 2h-1l-2 1c-0.666992 0.666992 -1.83398 1.16699 -3.50098 1.5s-2.83398 0.5 -3.50098 0.5h-2c-1.33301 0 -3 0.166992 -5 0.5s-3.33301 0.5 -4 0.5
c-18.667 0 -35.167 -7.66699 -49.5 -23s-21.5 -36.333 -21.5 -63c0 -46.667 26 -94 78 -142c13.333 -11.333 24 -20 32 -26c0.666992 0 1.33398 -0.333008 2.00098 -1l2 -2l19 -12c1.33301 -1.33301 2.66602 -2 3.99902 -2c2 0 3.66699 0.666992 5 2
c0.666992 0 3.33398 1.66699 8.00098 5c83.333 62.667 125 122 125 178c0 25.333 -7.33301 45.5 -22 60.5s-31.667 22.5 -51 22.5z" />
    <glyph glyph-name="uniE038" unicode="&#xe038;" 
d="M189 172c0 2.66699 1.33301 5.33594 4 8.00293l93 55l-124 48c-3.33301 1.33301 -5 3.66602 -5 6.99902s1.33301 6 4 8l82 51v81c-11.333 22.667 -26.5 40 -45.5 52s-38.833 18 -59.5 18c-37.333 0 -66.833 -15 -88.5 -45s-32.5 -65.333 -32.5 -106
c0 -76.667 38.333 -155.334 115 -236.001c32 -34 69 -66 111 -96v118l-50 30c-2.66699 1.33301 -4 3.66602 -4 6.99902zM368 501.002c-21.333 0 -41.667 -6.00098 -61 -18.001s-35 -29.667 -47 -53v-86c0 -2.66699 -1.33301 -5 -4 -7l-71 -45l123 -47
c4 -1.33301 6 -3.66602 6 -6.99902c0 -4 -1.33301 -7 -4 -9l-96 -57l42 -25c2.66699 -0.666992 4 -3 4 -7v-123c42.667 36 79.667 71.667 111 107c76.667 88 115 167.333 115 238c0 37.333 -10.5 69.833 -31.5 97.5s-49.833 41.5 -86.5 41.5z" />
    <glyph glyph-name="uniE039" unicode="&#xe039;" 
d="M393 265c20 0 38.6689 -4.66895 56.002 -14.002c19.333 40.667 29 78.334 29 113.001c0 37.333 -10.5 69.833 -31.5 97.5s-49.833 41.5 -86.5 41.5c-24 0 -46.833 -7.66699 -68.5 -23s-37.834 -37.666 -48.501 -66.999c-10 28.667 -25.5 50.667 -46.5 66
s-43.167 23 -66.5 23c-38 0 -67.667 -15 -89 -45s-32 -65 -32 -105c0 -76 38.333 -155 115 -237c17.333 -18 35.333 -35 54 -51s33 -27.667 43 -35s16 -11.333 18 -12c1.33301 -1.33301 2.66602 -2 3.99902 -2s3.33301 0.666992 6 2c12 10 26.667 23 44 39
c-18.667 22.667 -28 49.667 -28 81c0 35.333 12.5 65.5 37.5 90.5s55.167 37.5 90.5 37.5zM393.002 246.998c-30.667 0 -56.832 -10.6689 -78.499 -32.002s-32.5 -47.333 -32.5 -78c0 -31.333 10.667 -57.666 32 -78.999s47.666 -32 78.999 -32
c30.667 0 56.667 10.833 78 32.5s32 47.834 32 78.501s-10.667 56.667 -32 78s-47.333 32 -78 32zM452.004 127.996h-111c-5.33301 0 -8 3 -8 9c0 5.33301 2.66699 8 8 8h111c6 0 9 -2.66699 9 -8c0 -6 -3 -9 -9 -9z" />
    <glyph glyph-name="uniE03A" unicode="&#xe03a;" 
d="M392 266c18.667 0 37.667 -4.33105 57 -12.998c18.667 39.333 28 77 28 113c0 37.333 -10.5 69.833 -31.5 97.5s-49.833 41.5 -86.5 41.5c-24 0 -46.667 -7.66699 -68 -23s-37.333 -38 -48 -68c-10 29.333 -25.5 51.666 -46.5 66.999s-43.5 23 -67.5 23
c-37.333 0 -66.666 -15 -87.999 -45s-32 -65.333 -32 -106c0 -77.333 38.333 -156 115 -236c10.667 -11.333 21.667 -22.333 33 -33s21.666 -19.834 30.999 -27.501l25 -20l18 -13.5l7 -5c0.666992 0 1.5 -0.166992 2.5 -0.5s1.83301 -0.5 2.5 -0.5
c2 0 3.66699 0.666992 5 2c2.66699 0 17.667 12.667 45 38c-19.333 23.333 -29 50.333 -29 81c0 35.333 12.5 65.5 37.5 90.5s55.167 37.5 90.5 37.5zM392 249.002c-30.667 0 -56.834 -10.833 -78.501 -32.5s-32.5 -47.834 -32.5 -78.501s10.833 -56.834 32.5 -78.501
s47.834 -32.5 78.501 -32.5s56.834 10.833 78.501 32.5s32.5 47.834 32.5 78.501s-10.833 56.834 -32.5 78.501s-47.834 32.5 -78.501 32.5zM451 130.002h-50v-50c0 -6 -3 -9 -9 -9c-5.33301 0 -8 3 -8 9v50h-51c-5.33301 0 -8 2.66699 -8 8c0 6 2.66699 9 8 9h51v50
c0 6 2.66699 9 8 9c6 0 9 -3 9 -9v-50h50c5.33301 0 8 -3 8 -9c0 -5.33301 -2.66699 -8 -8 -8z" />
    <glyph glyph-name="uniE03B" unicode="&#xe03b;" 
d="M341 358h171v-102h-171v102zM0 358h171v-102h-171v102zM383 389c12 12.667 18 27.5 18 44.5s-6 31.833 -18 44.5c-13.333 12 -28 18 -44 18c-17.333 0 -32 -6 -44 -18s-25.333 -43.667 -40 -95c-14.667 51.333 -28 83 -40 95s-26.667 18 -44 18c-16 0 -30.667 -6 -44 -18
c-12 -12.667 -18 -27.5 -18 -44.5s6 -31.833 18 -44.5c10 -9.33301 32.333 -19.666 67 -30.999h-6v-102h136v102h-8c34.667 11.333 57 21.666 67 30.999zM139 402c-8.66699 8.66699 -13 19.1689 -13 31.502s4.33301 23.166 13 32.499c10 8.66699 20.667 13 32 13
c12.667 0 23.334 -4.33301 32.001 -13c10.667 -10.667 24 -45.334 40 -104.001c-58.667 16 -93.334 29.333 -104.001 40zM307 466.002c8.66699 8.66699 19.334 12.998 32.001 12.998c11.333 0 22 -4.33301 32 -13c8.66699 -9.33301 13 -20.166 13 -32.499
s-4.33301 -22.833 -13 -31.5c-10.667 -10.667 -45.334 -24 -104.001 -40c16 58.667 29.333 93.334 40 104.001zM17 239h154v-239h-154v239zM341 239h154v-239h-154v239zM188 239h136v-239h-136v239z" />
    <glyph glyph-name="uniE03C" unicode="&#xe03c;" 
d="M448 119l-187.997 111c-2.66699 2.66699 -5.33398 2.66699 -8.00098 0l-188 -111c-2.66699 -0.666992 -4 -3 -4 -7c0 -16.667 2.5 -31.167 7.5 -43.5s11.167 -21.666 18.5 -27.999s17 -11.333 29 -15s23.167 -6 33.5 -7s23.166 -1.5 38.499 -1.5h33
c24 1.33301 48 1.33301 72 0h33c15.333 0 28.166 0.5 38.499 1.5s21.5 3.33301 33.5 7s21.667 8.66699 29 15s13.5 15.666 18.5 27.999s7.5 26.833 7.5 43.5c0 4 -1.33301 6.33301 -4 7zM448.003 384l-188 102c-2.66699 2.66699 -5.33398 2.66699 -8.00098 0l-188 -102
c-2.66699 -2 -4 -4.66699 -4 -8v-68c0 -4 1.33301 -6.33301 4 -7c2.66699 -2.66699 5.33398 -2.66699 8.00098 0l184 100l184 -100c0.666992 -0.666992 2 -1 4 -1s3.33301 0.333008 4 1c2.66699 0.666992 4 3 4 7v68c0 3.33301 -1.33301 6 -4 8zM448.003 256l-188 102
c-2.66699 2.66699 -5.33398 2.66699 -8.00098 0l-188 -102c-2.66699 -2 -4 -4.66699 -4 -8v-68c0 -4 1.33301 -6.33301 4 -7c2.66699 -2.66699 5.33398 -2.66699 8.00098 0l184 100l184 -100c0.666992 -0.666992 2 -1 4 -1s3.33301 0.333008 4 1c2.66699 0.666992 4 3 4 7
v68c0 3.33301 -1.33301 6 -4 8z" />
    <glyph glyph-name="uniE03D" unicode="&#xe03d;" 
d="M456 383l-187 102c-3.33301 2 -6.33301 2 -9 0l-187 -102c-3.33301 -2 -5 -4.66699 -5 -8v-68c0 -3.33301 1.33301 -5.66602 4 -6.99902c2.66699 -2 5.66699 -2 9 0l184 100l183 -100c0.666992 -0.666992 2 -1 4 -1s3.66699 0.333008 5 1
c2.66699 1.33301 4 3.66602 4 6.99902v68c0 3.33301 -1.66699 6 -5 8zM456 246l-187 103c-3.33301 0.666992 -6.33301 0.666992 -9 0l-187 -103c-3.33301 -1.33301 -5 -3.66602 -5 -6.99902v-68c0 -2.66699 1.33301 -5.33398 4 -8.00098
c2.66699 -0.666992 5.66699 -0.666992 9 0l184 100l183 -100c0.666992 -0.666992 2 -1 4 -1c0.666992 0 1.5 0.166992 2.5 0.5s1.83301 0.5 2.5 0.5c2.66699 2.66699 4 5.33398 4 8.00098v68c0 3.33301 -1.66699 5.66602 -5 6.99902zM456 101l-187 103
c-3.33301 1.33301 -6.33301 1.33301 -9 0l-187 -103c-3.33301 -1.33301 -5 -3.66602 -5 -6.99902v-68c0 -2.66699 1.33301 -5.33398 4 -8.00098c2.66699 -1.33301 5.66699 -1.33301 9 0l184 100l183 -100c0.666992 -0.666992 2 -1 4 -1s3.66699 0.333008 5 1
c2.66699 2.66699 4 5.33398 4 8.00098v68c0 3.33301 -1.66699 5.66602 -5 6.99902z" />
    <glyph glyph-name="uniE03E" unicode="&#xe03e;" 
d="M380 512c-4 0 -6.33203 -1.33301 -6.99902 -4l-126 -175c-16.667 -2 -31 -9 -43 -21s-19 -26.333 -21 -43l-175 -126c-2.66699 -1.33301 -4 -3.33301 -4 -6c0 -22 16 -48.833 48 -80.5s58.667 -47.5 80 -47.5c4 0 6.33301 1 7 3l122 171l121 -129c2 -2 4 -3 6 -3
c1.33301 0 2.33301 0.333008 3 1c4 1.33301 6 4 6 8v51h51c3.33301 0 6 1.66699 8 5c1.33301 4 0.666016 7 -2.00098 9l-121 130l171 122c2.66699 2.66699 4 5 4 7c0 21.333 -16 48 -48 80s-58.667 48 -80 48zM343.001 335l-42 -42.001c7.33301 -9.33301 11 -20.333 11 -33
c0 -15.333 -5.66699 -28.666 -17 -39.999c-10.667 -10.667 -23.667 -16 -39 -16c-12.667 0 -23.667 3.66699 -33 11l-42 -42c-2.66699 -1.33301 -4.66699 -2 -6 -2s-3.33301 0.666992 -6 2c-3.33301 4.66699 -3.33301 8.66699 0 12l42 42
c-7.33301 9.33301 -11 20.333 -11 33c0 14.667 5.33301 28 16 40c12 10.667 25.333 16 40 16c11.333 0 22.333 -3.66699 33 -11l42 42c4 5.33301 8 5.33301 12 0c3.33301 -3.33301 3.33301 -7.33301 0 -12z" />
    <glyph glyph-name="uniE03F" unicode="&#xe03f;" 
d="M512 318c-2 4 -5 6 -9 6h-181l-58 182c-1.33301 4 -4 6 -8 6s-6.66699 -2 -8 -6l-58 -182h-181c-4 0 -7 -2 -9 -6c-1.33301 -4 -0.333008 -7 3 -9l146 -110l-63 -188c-1.33301 -4 -0.333008 -7 3 -9c1.33301 -1.33301 3 -2 5 -2c0.666992 0 2.33398 0.666992 5.00098 2
l157 115l157 -115c3.33301 -3.33301 6.66602 -3.33301 9.99902 0c3.33301 2 4.33301 5 3 9l-63 193l145 105c4 2.66699 5.33301 5.66699 4 9z" />
    <glyph glyph-name="uniE040" unicode="&#xe040;" 
d="M256 512c-70.667 0 -131 -25 -181 -75s-75 -110.333 -75 -181s25 -131 75 -181s110.333 -75 181 -75s131 25 181 75s75 110.333 75 181s-25 131 -75 181s-110.333 75 -181 75zM412 295l-86.999 -73l37 -118c0.666992 -2 0.333984 -3.66699 -0.999023 -5
c-0.666992 -0.666992 -1.66699 -1 -3 -1c-0.666992 0 -1.33398 0.333008 -2.00098 1l-100 75l-100 -75c-1.33301 -1.33301 -3 -1.33301 -5 0c-1.33301 1.33301 -1.66602 3 -0.999023 5l37 118l-87 73c-1.33301 1.33301 -2 3 -2 5c1.33301 2 2.66602 3 3.99902 3h108l42 100
c0.666992 1.33301 2 2 4 2s3.33301 -0.666992 4 -2l42 -100h108c1.33301 0 2.66602 -1 3.99902 -3c0 -2 -0.666992 -3.66699 -2 -5z" />
    <glyph glyph-name="uniE041" unicode="&#xe041;" 
d="M512 256c0 21.333 -8.99805 36.335 -26.998 45.002c12.667 16 15.334 33.667 8.00098 53c-8.66699 19.333 -23 30 -43 32c6 19.333 1.66699 36.333 -13 51c-10 10 -22 15 -36 15c-4.66699 0 -9.66699 -0.666992 -15 -2c-2 20 -12.667 34.333 -32 43
c-18.667 7.33301 -36.334 4.66602 -53.001 -8.00098c-8.66699 18 -23.667 27 -45 27s-36.333 -9 -45 -27c-16.667 12.667 -34.334 15.334 -53.001 8.00098c-19.333 -8.66699 -30 -23 -32 -43c-5.33301 1.33301 -10.333 2 -15 2c-14 0 -26 -5 -36 -15
c-14.667 -14.667 -19 -31.667 -13 -51c-20.667 -2 -34.667 -12.667 -42 -32c-8.66699 -18.667 -6.33398 -36.334 6.99902 -53.001c-18 -8.66699 -27 -23.667 -27 -45s9 -36.333 27 -45c-12.667 -16 -15.334 -33.667 -8.00098 -53c8.66699 -19.333 23 -30 43 -32
c-6 -19.333 -1.66699 -36.333 13 -51c10 -10 22 -15 36 -15c4.66699 0 9.66699 0.666992 15 2c2 -20 12.667 -34.333 32 -43c18.667 -7.33301 36.334 -4.66602 53.001 8.00098c8.66699 -18 23.667 -27 45 -27s36.333 9 45 27c16.667 -12.667 34.334 -15.334 53.001 -8.00098
c19.333 8.66699 30 23 32 43c5.33301 -1.33301 10.333 -2 15 -2c14 0 26 5 36 15c14.667 14.667 19 31.667 13 51c20 2 34.333 12.667 43 32c7.33301 19.333 4.66602 36.666 -8.00098 51.999c18 10 27 25.333 27 46zM387.002 295.002l-72.002 -62l30 -104
c0.666992 -1.33301 0.333984 -2.66602 -0.999023 -3.99902c-0.666992 -0.666992 -1.66699 -1 -3 -1h-2l-83 59l-83 -58c-1.33301 -2 -3 -2 -5 0c-1.33301 1.33301 -1.66602 2.66602 -0.999023 3.99902l30 104l-72 62c-1.33301 2 -1.66602 3.66699 -0.999023 5
c1.33301 2 2.66602 3 3.99902 3h91l33 83c0.666992 1.33301 2 2 4 2s3.33301 -0.666992 4 -2l33 -83h91c1.33301 0 2.66602 -1 3.99902 -3c0.666992 -1.33301 0.333984 -3 -0.999023 -5z" />
    <glyph glyph-name="uniE042" unicode="&#xe042;" 
d="M418 512h-324c-26.667 0 -49 -9 -67 -27s-27 -40.333 -27 -67v-324c0 -26.667 9 -49 27 -67s40.333 -27 67 -27h324c26.667 0 49 9 67 27s27 40.333 27 67v324c0 26.667 -9 49 -27 67s-40.333 27 -67 27zM412 295l-82.998 -75l34 -116c0 -2 -0.666992 -3.66699 -2 -5
c-0.666992 -0.666992 -1.66699 -1 -3 -1c-0.666992 0 -1.33398 0.333008 -2.00098 1l-100 75l-100 -75c-1.33301 -1.33301 -3 -1.33301 -5 0c-1.33301 1.33301 -1.66602 3 -0.999023 5l33 116l-83 75c-1.33301 1.33301 -2 3 -2 5c1.33301 2 2.66602 3 3.99902 3h108l42 108
c0.666992 1.33301 2 2 4 2s3.33301 -0.666992 4 -2l42 -108h108c1.33301 0 2.66602 -1 3.99902 -3c0 -2 -0.666992 -3.66699 -2 -5z" />
    <glyph glyph-name="uniE043" unicode="&#xe043;" 
d="M435 512h-358.001c-6 0 -9 -3 -9 -9v-494c0 -4 1.66699 -6.66699 5 -8c0.666992 -0.666992 2 -1 4 -1s3.66699 0.333008 5 1l170 116l179 -116c2.66699 -1.33301 5.33398 -1.33301 8.00098 0c3.33301 2 5 4.66699 5 8v494c0 6 -3 9 -9 9zM369.999 347l-58.001 -58.002
l16 -83c0.666992 -2 0.333984 -3.66699 -0.999023 -5h-3h-2l-70 50l-70 -50c-2 -1.33301 -3.66699 -1.33301 -5 0c-1.33301 0.666992 -2 2.33398 -2 5.00098l17 83l-58 58c-2 0.666992 -2.33301 2.33398 -1 5.00098c0 1.33301 1.33301 2 4 2h82l29 65
c1.33301 2 2.66602 3 3.99902 3c2.66699 0 4 -1 4 -3l28 -65h83c2 0 3.33301 -1 4 -3c0.666992 -0.666992 0.333984 -2 -0.999023 -4z" />
    <glyph glyph-name="uniE044" unicode="&#xe044;" 
d="M43 347c0 -72.667 18.668 -140 56.001 -202s88.333 -110 153 -144c1.33301 -0.666992 2.66602 -1 3.99902 -1c2 -0 3.33301 0.333008 4 1c64.667 34 115.667 82 153 144s56 129.333 56 202v80h-426v-80zM141.001 300c0.666992 2 2 3 4 3h82l25 73c2 2 3.33301 3 4 3
c2.66699 0 4 -1 4 -3l25 -73h73c2.66699 0 4 -1 4 -3c0.666992 -2 0.333984 -3.66699 -0.999023 -5l-57 -49l33 -82c0 -2.66699 -0.666992 -4.33398 -2 -5.00098c-1.33301 -1.33301 -3 -1.33301 -5 0l-74 49l-74 -49c-0.666992 -0.666992 -1.66699 -1 -3 -1
s-2 0.333008 -2 1c-1.33301 0.666992 -2 2.33398 -2 5.00098l33 82l-65 49c-2.66699 1.33301 -3.33398 3 -2.00098 5zM461.001 512h-409c-6 0 -9 -3 -9 -9v-59h426v59c0 6 -2.66699 9 -8 9z" />
    <glyph glyph-name="uniE045" unicode="&#xe045;" 
d="M473 400l-205 111c-2 1.33301 -4.66699 1.33301 -8 0l-204 -111c-3.33301 -1.33301 -5 -3.66602 -5 -6.99902v-350c0 -6 3 -9 9 -9h409c6 0 9 3 9 9v350c0 3.33301 -1.66699 5.66602 -5 6.99902zM404 313l-71.002 -80l30 -112c0 -2 -0.666992 -3.66699 -2 -5
c-2 -1.33301 -3.66699 -1.33301 -5 0l-91 66l-92 -66c-0.666992 -0.666992 -1.33398 -1 -2.00098 -1c-1.33301 0 -2.33301 0.333008 -3 1c-1.33301 1.33301 -1.66602 3 -0.999023 5l28 112l-70 80c-2 2 -2.33301 3.33301 -1 4c1.33301 2 2.66602 3 3.99902 3h91l42 100
c0.666992 1.33301 1.83398 2 3.50098 2s2.83398 -0.666992 3.50098 -2l42 -100h91c2 0 3.33301 -1 4 -3c0.666992 -0.666992 0.333984 -2 -0.999023 -4zM468.998 17h-409c-6 0 -9 -2.66699 -9 -8c0 -6 3 -9 9 -9h409c5.33301 0 8 3 8 9c0 5.33301 -2.66699 8 -8 8z" />
    <glyph glyph-name="uniE046" unicode="&#xe046;" 
d="M333 282c2.66699 0 4.33398 0.666016 5.00098 1.99902c3.33301 2 4.33301 5.33301 3 10l-32 71l55 47c4 2.66699 4.66699 5.66699 2 9c-1.33301 4 -4 6 -8 6h-70l-24 79c-1.33301 4 -4 6 -8 6s-6.66699 -2 -8 -6l-24 -79h-70c-4 0 -6.66699 -2 -8 -6
c-2.66699 -3.33301 -2 -6.33301 2 -9l55 -46l-32 -72c-1.33301 -4.66699 -0.333008 -8 3 -10c3.33301 -3.33301 6.66602 -3.66602 9.99902 -0.999023l72 48l72 -48c1.33301 -0.666992 3 -1 5 -1zM511 147.999c-1.33301 4 -4 5.99902 -8 5.99902h-70l-24 79
c-1.33301 4 -4 6 -8 6s-6.66699 -2 -8 -6l-24 -79h-70c-4 0 -6.66699 -2 -8 -6c-2.66699 -3.33301 -2 -6.33301 2 -9l55 -46l-32 -73c-1.33301 -4 -0.333008 -7 3 -9c3.33301 -3.33301 6.66602 -3.66602 9.99902 -0.999023l72 48l72 -48c1.33301 -0.666992 3 -1 5 -1
c2.66699 0 4.33398 0.666992 5.00098 2c3.33301 2 4.33301 5 3 9l-32 72l55 47c4 2.66699 4.66699 5.66699 2 9zM213 153.998l-70.001 -0.000976562l-24 79c-1.33301 4 -4 6 -8 6s-6.66699 -2 -8 -6l-24 -79h-70c-4 0 -6.66699 -2 -8 -6c-2.66699 -3.33301 -2 -6.33301 2 -9
l55 -46l-32 -73c-1.33301 -4 -0.333008 -7 3 -9c3.33301 -3.33301 6.66602 -3.66602 9.99902 -0.999023l72 48l72 -48c0.666992 -0.666992 2.33398 -1 5.00098 -1s4.33398 0.666992 5.00098 2c3.33301 2 4.33301 5 3 9l-32 72l55 47c4 2.66699 4.66699 5.66699 2 9
c-1.33301 4 -4 6 -8 6z" />
    <glyph glyph-name="uniE047" unicode="&#xe047;" 
d="M439 295l-124 19l-57 104l-57 -104l-124 -19l95 -85l-29 -124l115 57l113 -57l-27 124z" />
    <glyph glyph-name="uniE048" unicode="&#xe048;" 
d="M512 256c0 2.66699 -0.999023 5 -2.99902 7l-42 35l25 49c0.666992 1.33301 1 3.66602 1 6.99902c-1.33301 2.66699 -3.33301 4.33398 -6 5.00098l-53 16l5 55c0.666992 2.66699 0 5 -2 7s-4.33301 2.66699 -7 2l-55 -5l-16 53c-1.33301 3.33301 -3 5 -5 5
c-2.66699 1.33301 -5 1.33301 -7 0l-49 -25l-35 42c-4.66699 4.66699 -9.33398 4.66699 -14.001 0l-35 -42l-49 25c-2 1.33301 -4.33301 1.33301 -7 0c-2 0 -3.66699 -1.66699 -5 -5l-16 -53l-55 5c-2.66699 0.666992 -5 0 -7 -2s-2.66699 -4.33301 -2 -7l5 -55l-53 -16
c-2.66699 -0.666992 -4.66699 -2.33398 -6 -5.00098c0 -3.33301 0.333008 -5.66602 1 -6.99902l25 -49l-42 -35c-2 -2 -3 -4.33301 -3 -7s1 -5 3 -7l42 -35l-25 -49c-0.666992 -1.33301 -1 -3.66602 -1 -6.99902c1.33301 -2.66699 3.33301 -4.33398 6 -5.00098l53 -16
l-5 -55c-0.666992 -2.66699 0 -5 2 -7s4.33301 -2.66699 7 -2l55 5l16 -53c0.666992 -2.66699 2.33398 -4.66699 5.00098 -6c3.33301 0 5.66602 0.333008 6.99902 1l49 25l35 -42c2 -2 4.33301 -3 7 -3s5 1 7 3l35 42l49 -25c1.33301 -0.666992 3.66602 -1 6.99902 -1
c2.66699 1.33301 4.33398 3.33301 5.00098 6l16 53l55 -5c2.66699 -0.666992 5 0 7 2s2.66699 4.33301 2 7l-5 55l53 16c2.66699 0.666992 4.66699 2.33398 6 5.00098c0 3.33301 -0.333008 5.66602 -1 6.99902l-25 49l42 35c2 2 3 4.33301 3 7zM369.001 278l-64.9961 -49
l33 -82c0 -2.66699 -0.666992 -4.33398 -2 -5.00098c0 -0.666992 -0.666992 -1 -2 -1s-2.33301 0.333008 -3 1l-74 58l-74 -58c-2 -2 -3.66699 -2 -5 0c-1.33301 0.666992 -2 2.33398 -2 5.00098l33 82l-65 49c-2.66699 1.33301 -3.33398 3 -2.00098 5c0.666992 2 2 3 4 3
h74l33 79c1.33301 2 2.66602 3 3.99902 3s2.66602 -1 3.99902 -3l33 -79h74c2 0 3.33301 -1 4 -3c1.33301 -2 0.666016 -3.66699 -2.00098 -5z" />
    <glyph glyph-name="uniE049" unicode="&#xe049;" 
d="M512 463l-0.000976562 5.99902c0 6 -2.66699 9 -8 9h-46c0 2.66699 0.166992 6.83398 0.5 12.501s0.5 9.83398 0.5 12.501c0 6 -3 9 -9 9h-387c-6 0 -9 -3 -9 -9c0 -11.333 0.333008 -19.666 1 -24.999h-46c-6 0 -9 -3 -9 -9v-8c0 -75.333 13 -126.333 39 -153
c16.667 -16.667 37.667 -25.334 63 -26.001c15.333 -22.667 40 -44.334 74 -65.001c12.667 -7.33301 21.834 -13.166 27.501 -17.499s10.834 -10.833 15.501 -19.5s7 -19 7 -31c-0.666992 -35.333 -7.33398 -59 -20.001 -71s-33 -18 -61 -18c-5.33301 0 -8 -3 -8 -9v-42
c0 -6 2.66699 -9 8 -9h222c6 0 9 3 9 9v42c0 6 -3 9 -9 9c-54 0 -81 29.333 -81 88c0 12 2.5 22.5 7.5 31.5s10.167 15.667 15.5 20s14.333 10.5 27 18.5c34.667 21.333 59.334 42.666 74.001 63.999c25.333 1.33301 46 10 62 26c29.333 30 42.666 81.667 39.999 155z
M50.999 319.999c-22.667 23.333 -34.001 70 -34.001 140v1h38c3.33301 -67.333 15.333 -121 36 -161c-15.333 2 -28.666 8.66699 -39.999 20zM326.998 397.999l-39.999 -32.999l16 -48c1.33301 -2 0.666016 -3.66699 -2.00098 -5
c-0.666992 -0.666992 -1.33398 -1 -2.00098 -1s-1.66699 0.333008 -3 1l-40 32l-40 -32c-1.33301 -1.33301 -3 -1.33301 -5 0c-1.33301 1.33301 -1.66602 3 -0.999023 5l16 48l-41 33c-2 1.33301 -2.33301 2.66602 -1 3.99902c1.33301 2 2.66602 3 3.99902 3h48l16 36
c0 1.33301 1.33301 2 4 2c2 0 3 -0.666992 3 -2l17 -36h48c2.66699 0 4.33398 -1 5.00098 -3c0 -2 -0.666992 -3.33301 -2 -4zM459.999 320c-10 -10 -23 -16.667 -39 -20c21.333 41.333 33.333 95 36 161h38c2 -68 -9.66699 -115 -35 -141z" />
    <glyph glyph-name="uniE04A" unicode="&#xe04a;" 
d="M256 486c-70.667 0 -131 -20.5 -181 -61.5s-75 -90.5 -75 -148.5c0 -56 24.667 -105 74 -147l-56 -104c-2 -4 -1.66699 -7.33301 1 -10c2 -2 4 -3 6 -3s3.33301 0.333008 4 1l142 67c30.667 -9.33301 59 -14 85 -14c70.667 0 131 20.5 181 61.5s75 90.5 75 148.5
s-25 107.5 -75 148.5s-110.333 61.5 -181 61.5z" />
    <glyph glyph-name="uniE04B" unicode="&#xe04b;" 
d="M503 469h-494c-6 0 -9 -2.66699 -9 -8v-324c0 -6 3 -9 9 -9h145v-77c0 -3.33301 1.66699 -6 5 -8h3c2.66699 0 4.66699 0.666992 6 2l83 83h252c6 0 9 3 9 9v324c0 5.33301 -3 8 -9 8z" />
    <glyph glyph-name="uniE04C" unicode="&#xe04c;" 
d="M341 495h-170.004c-45.333 0 -85.166 -17.833 -119.499 -53.5s-51.5 -77.5 -51.5 -125.5c0 -46.667 16.5 -86.5 49.5 -119.5s72.833 -49.5 119.5 -49.5l10 -1v-78c0 -3.33301 1.66699 -6 5 -8h4c2.66699 0 4.33398 0.666992 5.00098 2l92 83h56
c46.667 0 86.834 17 120.501 51s50.5 74 50.5 120c0 48 -17.167 89.833 -51.5 125.5s-74.166 53.5 -119.499 53.5z" />
    <glyph glyph-name="uniE04D" unicode="&#xe04d;" 
d="M384 239c27.333 0 53 -8.66797 77 -26.001v273c0 6 -3 9 -9 9h-443c-6 0 -9 -3 -9 -9v-307c0 -5.33301 3 -8 9 -8h76v-69c0 -3.33301 1.66699 -5.66602 5 -6.99902c0.666992 -0.666992 2 -1 4 -1s3.66699 0.666992 5 2l100 75h72c10.667 20.667 26.167 37.167 46.5 49.5
s42.5 18.5 66.5 18.5zM384 221.999c-30.667 0 -56.834 -10.833 -78.501 -32.5s-32.5 -47.834 -32.5 -78.501s10.833 -56.834 32.5 -78.501s47.834 -32.5 78.501 -32.5s56.834 10.833 78.501 32.5s32.5 47.834 32.5 78.501s-10.833 56.834 -32.5 78.501
s-47.834 32.5 -78.501 32.5zM438 101.999h-45v-45c0 -5.33301 -3 -8 -9 -8s-9 2.66699 -9 8v45h-45c-5.33301 0 -8 3 -8 9c0 5.33301 2.66699 8 8 8h45v46c0 5.33301 3 8 9 8s9 -2.66699 9 -8v-46h45c5.33301 0 8 -2.66699 8 -8c0 -6 -2.66699 -9 -8 -9z" />
    <glyph glyph-name="uniE04E" unicode="&#xe04e;" 
d="M401 273c25.333 0 48.333 -6.66602 69 -19.999c9.33301 22 14 44.333 14 67c0 52.667 -22.833 97.834 -68.5 135.501s-100.5 56.5 -164.5 56.5c-64.667 0 -119.834 -18.833 -165.501 -56.5s-68.5 -82.834 -68.5 -135.501c0 -50.667 22.333 -95.334 67 -134.001l-51 -94
c-1.33301 -4.66699 -0.666016 -8 2.00098 -10c0.666992 -2 2.66699 -3 6 -3c1.33301 0 2.33301 0.333008 3 1l129 61c26 -8.66699 52 -13 78 -13c10 0 17.667 0.333008 23 1c0 1.33301 -0.166992 3.83301 -0.5 7.5s-0.5 6.5 -0.5 8.5c0 35.333 12.5 65.5 37.5 90.5
s55.167 37.5 90.5 37.5zM401 256.001c-30.667 0 -56.834 -10.833 -78.501 -32.5s-32.5 -47.834 -32.5 -78.501s10.833 -56.834 32.5 -78.501s47.834 -32.5 78.501 -32.5s56.834 10.833 78.501 32.5s32.5 47.834 32.5 78.501s-10.833 56.834 -32.5 78.501
s-47.834 32.5 -78.501 32.5zM460 137.001h-50v-51c0 -5.33301 -3 -8 -9 -8c-5.33301 0 -8 2.66699 -8 8v51h-51c-5.33301 0 -8 2.66699 -8 8c0 6 2.66699 9 8 9h51v50c0 5.33301 2.66699 8 8 8c6 0 9 -2.66699 9 -8v-50h50c5.33301 0 8 -3 8 -9
c0 -5.33301 -2.66699 -8 -8 -8z" />
    <glyph glyph-name="uniE04F" unicode="&#xe04f;" 
d="M410 241c6.66699 0 16.665 -1.33301 29.998 -4c24 28.667 36 61.334 36 98.001c0 42.667 -15.667 80 -47 112s-67.666 48 -108.999 48h-155c-41.333 0 -77.666 -16 -108.999 -48s-47 -69.333 -47 -112s15 -78.834 45 -108.501s66.333 -44.5 109 -44.5l9 -1v-68
c0 -4 1.66699 -6.66699 5 -8c0.666992 0 1.66699 -0.333008 3 -1c1.33301 0 3.33301 0.666992 6 2l83 75h42c9.33301 18 22.833 32.5 40.5 43.5s37.167 16.5 58.5 16.5zM409.998 224c-26 0 -48.167 -9.16699 -66.5 -27.5s-27.5 -40.5 -27.5 -66.5
s9.16699 -48.167 27.5 -66.5s40.5 -27.5 66.5 -27.5c25.333 0 47.166 9.16699 65.499 27.5s27.5 40.5 27.5 66.5s-9.16699 48.167 -27.5 66.5s-40.166 27.5 -65.499 27.5zM460.998 121h-43v-42c0 -6 -2.66699 -9 -8 -9c-6 0 -9 3 -9 9v42h-43c-5.33301 0 -8 3 -8 9
c0 5.33301 2.66699 8 8 8h43v43c0 6 3 9 9 9c5.33301 0 8 -3 8 -9v-43h43c5.33301 0 8 -2.66699 8 -8c0 -6 -2.66699 -9 -8 -9z" />
    <glyph glyph-name="uniE050" unicode="&#xe050;" 
d="M271 209c0 -3.33301 -1.33301 -5 -4 -5c-3.33301 0 -5 1.66699 -5 5c0 2.66699 1.66699 4 5 4c2.66699 0 4 -1.33301 4 -4zM503 469h-494c-6 0 -9 -2.66699 -9 -8v-324c0 -6 3 -9 9 -9h128v-77c0 -3.33301 1.66699 -6 5 -8h3c2.66699 0 4.66699 0.666992 6 2l91 83h261
c6 0 9 3 9 9v324c0 5.33301 -3 8 -9 8zM267 187c-6 0 -11.167 2.16699 -15.5 6.5s-6.5 9.5 -6.5 15.5s2.16699 11 6.5 15s9.5 6 15.5 6s11 -2 15 -6s6 -9 6 -15s-2 -11.167 -6 -15.5s-9 -6.5 -15 -6.5zM275 276v-13c0 -6 -2.66699 -9 -8 -9c-6 0 -9 3 -9 9v21c0 6 3 9 9 9
c15.333 0 28.5 5.5 39.5 16.5s16.5 24.167 16.5 39.5s-5.5 28.5 -16.5 39.5s-24.167 16.5 -39.5 16.5s-28.5 -5.5 -39.5 -16.5s-16.5 -24.167 -16.5 -39.5c0 -6 -3 -9 -9 -9c-5.33301 0 -8 3 -8 9c0 20 7 37.167 21 51.5s31.333 21.5 52 21.5
c20 0 37.167 -7.16699 51.5 -21.5s21.5 -31.5 21.5 -51.5c0 -18.667 -6.16699 -35 -18.5 -49s-27.833 -22 -46.5 -24z" />
    <glyph glyph-name="uniE051" unicode="&#xe051;" 
d="M256 512c-70.667 0 -131 -20.5 -181 -61.5s-75 -90.5 -75 -148.5c0 -56 24 -105 72 -147l-54 -109c-2.66699 -3.33301 -2 -6.33301 2 -9c1.33301 -2 3.33301 -3 6 -3c1.33301 0 2.33301 0.333008 3 1l141 68c28 -8 56.667 -12 86 -12c70.667 0 131 20.667 181 62
s75 91 75 149s-25 107.5 -75 148.5s-110.333 61.5 -181 61.5zM265 188c-12 0 -18.001 5.66699 -18.001 17c0 4.66699 1.83301 8.66699 5.5 12s7.83398 5 12.501 5s8.66699 -1.66699 12 -5s5 -7.33301 5 -12s-1.66699 -8.66699 -5 -12s-7.33301 -5 -12 -5zM272.999 273
v-26.002c0 -5.33301 -2.66699 -8 -8 -8c-6 0 -9 2.66699 -9 8v35c0 5.33301 3 8 9 8c16.667 0 30.5 4.83301 41.5 14.5s16.5 21.834 16.5 36.501c0 15.333 -5.5 28.5 -16.5 39.5s-24.167 16.5 -39.5 16.5s-28.5 -5.83301 -39.5 -17.5s-16.5 -25.167 -16.5 -40.5
c0 -5.33301 -3 -8 -9 -8c-5.33301 0 -8 2.66699 -8 8c0 20.667 7 38.334 21 53.001s31.333 22 52 22c20 0 37.167 -7.16699 51.5 -21.5s21.5 -31.5 21.5 -51.5c0 -17.333 -6.33301 -32.5 -19 -45.5s-28.667 -20.5 -48 -22.5z" />
    <glyph glyph-name="uniE052" unicode="&#xe052;" 
d="M350 285c1.33301 3.33301 4.16699 4.99902 8.5 4.99902s7.16602 -1.66699 8.49902 -5l51 -97h34c6 0 9 2.66699 9 8v307c0 6 -3 9 -9 9h-443c-6 0 -9 -3 -9 -9v-307c0 -5.33301 3 -8 9 -8h76v-69c0 -3.33301 1.66699 -5.66602 5 -6.99902c0.666992 -0.666992 2 -1 4 -1
c0.666992 0 2.33398 0.666992 5.00098 2l100 75h99zM485.001 21.999l-119 238c-1.33301 2.66699 -3.83301 4 -7.5 4s-6.16699 -1.33301 -7.5 -4l-120 -239c-1.33301 -3.33301 -1 -6 1 -8c0.666992 -2.66699 3 -4 7 -4h239c6 0 9 2.66699 9 8c0 2 -0.666992 3.66699 -2 5z
M350.001 163.999c0 6 2.66699 9 8 9c6 0 9 -3 9 -9v-70c0 -6 -3 -9 -9 -9c-5.33301 0 -8 3 -8 9v70zM358.001 33.999c-4.66699 0 -8.66699 1.66699 -12 5s-5 7.33301 -5 12s1.66699 8.66699 5 12s7.33301 5 12 5c11.333 0 17 -5.66699 17 -17
c0 -4.66699 -1.66699 -8.66699 -5 -12s-7.33301 -5 -12 -5z" />
    <glyph glyph-name="uniE053" unicode="&#xe053;" 
d="M503 461h-494c-6 0 -9 -3 -9 -9v-341c0 -6 3 -9 9 -9h145v-76c0 -4 1.66699 -6.66699 5 -8c0.666992 -0.666992 1.66699 -1 3 -1c2.66699 0 4.66699 1 6 3l81 82h254c6 0 9 3 9 9v341c0 6 -3 9 -9 9zM239 384c0 6 2.66699 9 8 9c6 0 9 -3 9 -9v-128c0 -6 -3 -9 -9 -9
c-5.33301 0 -8 3 -8 9v128zM247 196c-4.66699 0 -8.66602 1.66699 -11.999 5s-5 7.33301 -5 12s1.66699 8.66699 5 12s7.33301 5 12 5c12 0 18 -5.66699 18 -17c0 -4.66699 -1.83301 -8.66699 -5.5 -12s-7.83398 -5 -12.501 -5z" />
    <glyph glyph-name="uniE054" unicode="&#xe054;" 
d="M256 512c-70.667 0 -131 -20.5 -181 -61.5s-75 -90.5 -75 -148.5c0 -56 24 -105 72 -147l-54 -109c-2.66699 -3.33301 -2 -6.33301 2 -9c1.33301 -2 3.33301 -3 6 -3c1.33301 0 2.33301 0.333008 3 1l141 68c28 -8 56.667 -12 86 -12c70.667 0 131 20.667 181 62
s75 91 75 149s-25 107.5 -75 148.5s-110.333 61.5 -181 61.5zM239 401c0 6 2.66699 9 8 9c6 0 9 -3 9 -9v-129c0 -5.33301 -3 -8 -9 -8c-5.33301 0 -8 2.66699 -8 8v129zM260 219c-3.33301 -4 -7.33301 -6 -12 -6h-1c-10 0 -15.667 5.66699 -17 17
c0 4.66699 1.66699 8.66699 5 12c2.66699 3.33301 6.66699 5 12 5c10.667 0 16.667 -5.33301 18 -16c0 -4.66699 -1.66699 -8.66699 -5 -12z" />
    <glyph glyph-name="uniE055" unicode="&#xe055;" 
d="M276 121l82.0029 155.996c1.33301 3.33301 4.16602 5 8.49902 5s7.16602 -1.66699 8.49902 -5l47 -88c36 34.667 54 75.334 54 122.001c0 52.667 -22.833 97.834 -68.5 135.501s-100.834 56.5 -165.501 56.5s-119.667 -18.667 -165 -56s-68 -82.666 -68 -135.999
c0 -51.333 22.333 -95.666 67 -132.999l-51 -95c-2 -2.66699 -1.66699 -6 1 -10c1.33301 -1.33301 3.33301 -2 6 -2h4l129 61c30 -8.66699 55.667 -13 77 -13c8 0 19.333 0.666992 34 2zM493.003 13.9961l-118 236.999c-1.33301 3.33301 -4 5 -8 5s-6.66699 -1.66699 -8 -5
l-119 -239c-1.33301 -2 -1.33301 -4.66699 0 -8c2.66699 -2.66699 5 -4 7 -4h239h1c5.33301 0 8 3 8 9c0 0.666992 -0.666992 2.33398 -2 5.00098zM358.003 155.995c0 5.33301 3 8 9 8c5.33301 0 8 -2.66699 8 -8v-71c0 -5.33301 -2.66699 -8 -8 -8c-6 0 -9 2.66699 -9 8v71
zM367.003 25.9951c-4.66699 0 -8.66699 1.66699 -12 5s-5 7.33301 -5 12s1.66699 8.66699 5 12s7.33301 5 12 5s8.66699 -1.66699 12 -5s5 -7.33301 5 -12s-1.66699 -8.66699 -5 -12s-7.33301 -5 -12 -5z" />
    <glyph glyph-name="uniE056" unicode="&#xe056;" 
d="M288 201l65.999 124c1.33301 3.33301 4.16602 5 8.49902 5s7.16602 -1.66699 8.49902 -5l46 -87c36.667 32 55 71 55 117c0 42.667 -15.667 80 -47 112s-67.666 48 -108.999 48h-156c-41.333 0 -77.666 -16 -108.999 -48s-47 -69.333 -47 -112
c0 -42 15.167 -78 45.5 -108s66.833 -45 109.5 -45l8 -1v-68c0 -3.33301 1.66699 -6 5 -8l2 -1h2c2.66699 0 4.33398 1 5.00098 3l84 74h23zM488.999 62l-119 236.999c-1.33301 3.33301 -3.83301 5 -7.5 5s-6.16699 -1.66699 -7.5 -5l-119 -239c-2 -2 -2 -4.66699 0 -8
c2.66699 -2.66699 5 -4 7 -4h239c6 0 9 3 9 9c0 0.666992 -0.666992 2.33398 -2 5.00098zM353.999 203.999c0 5.33301 3 8 9 8c5.33301 0 8 -2.66699 8 -8v-71c0 -5.33301 -2.66699 -8 -8 -8c-6 0 -9 2.66699 -9 8v71zM362.999 73.999c-11.333 0 -17 5.66699 -17 17
c0 4.66699 1.66699 8.66699 5 12s7.33301 5 12 5s8.66699 -1.66699 12 -5s5 -7.33301 5 -12s-1.66699 -8.66699 -5 -12s-7.33301 -5 -12 -5z" />
    <glyph glyph-name="uniE057" unicode="&#xe057;" 
d="M386 256c28.667 0 54.333 -8.66797 77 -26.001v273c0 6 -3 9 -9 9h-443c-6 0 -9 -3 -9 -9v-307c0 -5.33301 3 -8 9 -8h76v-69c0 -3.33301 1.66699 -5.66602 5 -6.99902c0.666992 -0.666992 2 -1 4 -1s3.66699 0.666992 5 2l100 75h72
c10.667 20.667 26.167 37.167 46.5 49.5s42.5 18.5 66.5 18.5zM447.999 177.999l-110.999 -112.001c13.333 -11.333 29.666 -17 48.999 -17c22 0 40.667 7.66699 56 23s23 34 23 56c0 18.667 -5.66699 35.334 -17 50.001zM386 206.998
c-22 0 -40.666 -7.66602 -55.999 -22.999s-23 -34 -23 -56c0 -18.667 5.66699 -35.334 17 -50.001l112 112c-14.667 11.333 -31.334 17 -50.001 17zM386.001 238.999c-30.667 0 -56.834 -10.833 -78.501 -32.5s-32.5 -47.834 -32.5 -78.501s10.833 -56.834 32.5 -78.501
s47.834 -32.5 78.501 -32.5s56.834 10.833 78.501 32.5s32.5 47.834 32.5 78.501s-10.833 56.834 -32.5 78.501s-47.834 32.5 -78.501 32.5zM386.001 31.999c-26.667 0 -49.334 9.33301 -68.001 28s-28 41.334 -28 68.001s9.33301 49.334 28 68.001s41.334 28 68.001 28
s49.334 -9.33301 68.001 -28s28 -41.334 28 -68.001s-9.33301 -49.334 -28 -68.001s-41.334 -28 -68.001 -28z" />
    <glyph glyph-name="uniE058" unicode="&#xe058;" 
d="M393 239c21.333 0 42.001 -5.33398 62.001 -16.001c14 26 21 52.667 21 80c0 52.667 -22.833 97.834 -68.5 135.501s-100.834 56.5 -165.501 56.5s-119.667 -18.667 -165 -56s-68 -82.666 -68 -135.999c0 -50.667 22.333 -95.334 67 -134.001l-51 -94
c-2 -4 -1.66699 -7.33301 1 -10c2 -2 4 -3 6 -3s3.33301 0.333008 4 1l129 60c28 -8 53.667 -12 77 -12h23c0 35.333 12.5 65.5 37.5 90.5s55.167 37.5 90.5 37.5zM454.001 160.999l-111.001 -112c14.667 -11.333 31.334 -17 50.001 -17c21.333 0 39.833 7.66699 55.5 23
s23.5 34 23.5 56c0 18 -6 34.667 -18 50zM393 189.999c-22 0 -40.834 -7.66699 -56.501 -23s-23.5 -34 -23.5 -56c0 -18 6 -34.667 18 -50l111 112c-13.333 11.333 -29.666 17 -48.999 17zM392.999 221.999c-30.667 0 -56.834 -10.833 -78.501 -32.5
s-32.5 -47.834 -32.5 -78.501s10.833 -56.834 32.5 -78.501s47.834 -32.5 78.501 -32.5s56.667 10.833 78 32.5s32 47.834 32 78.501s-10.667 56.834 -32 78.501s-47.333 32.5 -78 32.5zM392.999 14.999c-26.667 0 -49.5 9.33301 -68.5 28s-28.5 41.334 -28.5 68.001
s9.5 49.334 28.5 68.001s41.833 28 68.5 28s49.334 -9.33301 68.001 -28s28 -41.334 28 -68.001s-9.33301 -49.334 -28 -68.001s-41.334 -28 -68.001 -28z" />
    <glyph glyph-name="uniE059" unicode="&#xe059;" 
d="M393 291c22 0 42.665 -5.33301 61.998 -16c14 24 21 49.333 21 76c0 42.667 -15.667 80 -47 112s-67.666 48 -108.999 48h-155c-41.333 0 -77.666 -16 -108.999 -48s-47 -69.333 -47 -112c0 -42 15 -78 45 -108s66.333 -45 109 -45l9 -1v-68c0 -3.33301 1.66699 -6 5 -8
c0.666992 0 1.66699 -0.333008 3 -1c2 0 4 1 6 3l83 74c7.33301 27.333 22.5 49.833 45.5 67.5s49.167 26.5 78.5 26.5zM453.998 213l-111.001 -112c14.667 -11.333 31.334 -17 50.001 -17c21.333 0 39.833 7.66699 55.5 23s23.5 34 23.5 56c0 18 -6 34.667 -18 50z
M392.997 242c-22 0 -40.834 -7.66699 -56.501 -23s-23.5 -34 -23.5 -56c0 -18 6 -34.667 18 -50l111 112c-13.333 11.333 -29.666 17 -48.999 17zM392.996 274c-30.667 0 -56.834 -10.833 -78.501 -32.5s-32.5 -47.834 -32.5 -78.501s10.833 -56.834 32.5 -78.501
s47.834 -32.5 78.501 -32.5s56.667 10.833 78 32.5s32 47.834 32 78.501s-10.667 56.834 -32 78.501s-47.333 32.5 -78 32.5zM392.996 67c-26.667 0 -49.5 9.33301 -68.5 28s-28.5 41.334 -28.5 68.001s9.5 49.334 28.5 68.001s41.833 28 68.5 28
s49.334 -9.33301 68.001 -28s28 -41.334 28 -68.001s-9.33301 -49.334 -28 -68.001s-41.334 -28 -68.001 -28z" />
    <glyph glyph-name="uniE05A" unicode="&#xe05a;" 
d="M482 469h-452.005c-9.33301 0 -16.666 -3 -21.999 -9s-8 -14.333 -8 -25v-277c0 -8.66699 2.83301 -15.834 8.5 -21.501s12.834 -8.5 21.501 -8.5h21v-68c0 -3.33301 1.66699 -6 5 -8c0.666992 -0.666992 2 -1 4 -1c0.666992 0 2.33398 0.666992 5.00098 2l97 75h320
c8.66699 0 15.834 2.83301 21.501 8.5s8.5 12.834 8.5 21.501v277c0 10.667 -2.66699 19 -8 25s-12.666 9 -21.999 9zM167.995 279c-7.33301 0 -13.666 2.83301 -18.999 8.5s-8 12.167 -8 19.5c0 8 2.66699 14.667 8 20s11.666 8 18.999 8c8 0 14.667 -2.66699 20 -8
s8 -12 8 -20c0 -7.33301 -2.66699 -13.833 -8 -19.5s-12 -8.5 -20 -8.5zM266.995 279c-8 0 -14.667 2.83301 -20 8.5s-8 12.167 -8 19.5c0 8 2.66699 14.667 8 20s12 8 20 8c7.33301 0 13.833 -2.66699 19.5 -8s8.5 -12 8.5 -20c0 -7.33301 -2.83301 -13.833 -8.5 -19.5
s-12.167 -8.5 -19.5 -8.5zM364.995 279c-8 0 -14.667 2.83301 -20 8.5s-8 12.167 -8 19.5c0 8 2.66699 14.667 8 20s12 8 20 8c7.33301 0 13.833 -2.66699 19.5 -8s8.5 -12 8.5 -20c0 -7.33301 -2.83301 -13.833 -8.5 -19.5s-12.167 -8.5 -19.5 -8.5z" />
    <glyph glyph-name="uniE05B" unicode="&#xe05b;" 
d="M256 301c-1.33301 0 -2 -0.666992 -2 -2s0.666992 -2 2 -2s2 0.666992 2 2s-0.666992 2 -2 2zM154 301c-1.33301 0 -2 -0.666992 -2 -2s0.666992 -2 2 -2s2 0.666992 2 2s-0.666992 2 -2 2zM358 301c-1.33301 0 -2 -0.666992 -2 -2s0.666992 -2 2 -2s2 0.666992 2 2
s-0.666992 2 -2 2zM503 469h-494c-6 0 -9 -2.66699 -9 -8v-342c0 -5.33301 3 -8 9 -8h145v-77c0 -3.33301 1.66699 -6 5 -8h3c3.33301 0 5.33301 0.666992 6 2l81 83h254c6 0 9 2.66699 9 8v342c0 5.33301 -3 8 -9 8zM154 275c-6.66699 0 -12.334 2.33301 -17.001 7
s-7 10.334 -7 17.001s2.33301 12.167 7 16.5s10.334 6.5 17.001 6.5s12.167 -2.16699 16.5 -6.5s6.5 -9.83301 6.5 -16.5s-2.16699 -12.334 -6.5 -17.001s-9.83301 -7 -16.5 -7zM256 275c-6.66699 0 -12.334 2.33301 -17.001 7s-7 10.334 -7 17.001s2.33301 12.167 7 16.5
s10.334 6.5 17.001 6.5s12.334 -2.16699 17.001 -6.5s7 -9.83301 7 -16.5s-2.33301 -12.334 -7 -17.001s-10.334 -7 -17.001 -7zM358 275c-6.66699 0 -12.167 2.33301 -16.5 7s-6.5 10.334 -6.5 17.001s2.16699 12.167 6.5 16.5s9.83301 6.5 16.5 6.5
s12.334 -2.16699 17.001 -6.5s7 -9.83301 7 -16.5s-2.33301 -12.334 -7 -17.001s-10.334 -7 -17.001 -7z" />
    <glyph glyph-name="uniE05C" unicode="&#xe05c;" 
d="M384 256c27.333 0 52.999 -8.66797 76.999 -26.001v273c0 6 -3 9 -9 9h-443c-6 0 -9 -3 -9 -9v-307c0 -5.33301 3 -8 9 -8h76v-69c0 -3.33301 1.66699 -5.66602 5 -6.99902c0.666992 -0.666992 2 -1 4 -1c0.666992 0 2.33398 0.666992 5.00098 2l100 75h72
c10.667 20.667 26.167 37.167 46.5 49.5s42.5 18.5 66.5 18.5zM383.999 238.999c-30.667 0 -56.834 -10.833 -78.501 -32.5s-32.5 -47.834 -32.5 -78.501s10.833 -56.834 32.5 -78.501s47.834 -32.5 78.501 -32.5s56.834 10.833 78.501 32.5s32.5 47.834 32.5 78.501
s-10.833 56.834 -32.5 78.501s-47.834 32.5 -78.501 32.5zM458.999 156.999l-84 -97l-57 53c-4 4 -4 8 0 12c4 4.66699 8 5 12 1l44 -42l72 84c4 4 8 4.33301 12 1c4 -4.66699 4.33301 -8.66699 1 -12z" />
    <glyph glyph-name="uniE05D" unicode="&#xe05d;" 
d="M393 265c26 0 49.668 -7.00098 71.001 -21.001c8 18 12 37.667 12 59c0 52.667 -22.833 97.834 -68.5 135.501s-100.834 56.5 -165.501 56.5s-119.667 -18.667 -165 -56s-68 -82.666 -68 -135.999c0 -50.667 22.333 -95.334 67 -134.001l-51 -94
c-2 -4 -1.66699 -7.33301 1 -10c2 -2 4 -3 6 -3s3.33301 0.333008 4 1l129 60c28 -8 53.667 -12 77 -12h15c-0.666992 4 -1 9.66699 -1 17c0 37.333 13.333 69.5 40 96.5s59 40.5 97 40.5zM393.001 246.999c-33.333 0 -61.666 -11.667 -84.999 -35s-35 -51.333 -35 -84
s11.667 -60.667 35 -84s51.666 -35 84.999 -35c32.667 0 60.667 11.667 84 35s35 51.333 35 84s-11.667 60.667 -35 84s-51.333 35 -84 35zM472.001 167.999l-97 -107l-62 61c-4 4 -4 8 0 12c4.66699 3.33301 8.66699 3.33301 12 0l49 -48l85 93
c4.66699 4.66699 8.66699 5 12 1c4.66699 -4 5 -8 1 -12z" />
    <glyph glyph-name="uniE05E" unicode="&#xe05e;" 
d="M401 257c6.66699 0 16.6641 -1.33398 29.9971 -4.00098c24.667 28.667 37 61.334 37 98.001c0 42.667 -15.667 80 -47 112s-67.666 48 -108.999 48h-156c-41.333 0 -77.666 -16 -108.999 -48s-47 -69.333 -47 -112c0 -42 15.167 -78 45.5 -108s66.833 -45 109.5 -45l8 -1
v-68c0 -3.33301 1.66699 -6 5 -8l2 -1h2c2.66699 0 4.33398 1 5.00098 3l83 74h42c22 40 55 60 99 60zM400.997 239.999c-26 0 -48.167 -9.16699 -66.5 -27.5s-27.5 -40.5 -27.5 -66.5s9.16699 -48.167 27.5 -66.5s40.5 -27.5 66.5 -27.5s48.167 9.16699 66.5 27.5
s27.5 40.5 27.5 66.5s-9.16699 48.167 -27.5 66.5s-40.5 27.5 -66.5 27.5zM466.997 165.999l-74 -75l-49 49c-5.33301 4 -5.33301 8 0 12c4 4 8 4 12 0l37 -37l62 63c3.33301 3.33301 7.33301 3.33301 12 0c3.33301 -4.66699 3.33301 -8.66699 0 -12z" />
    <glyph glyph-name="uniE05F" unicode="&#xe05f;" 
d="M503 469h-494c-6 0 -9 -2.66699 -9 -8v-324c0 -6 3 -9 9 -9h128v-77c0 -3.33301 1.33301 -6 4 -8h4c2.66699 0 4.66699 0.666992 6 2l97 83h255c6 0 9 3 9 9v324c0 5.33301 -3 8 -9 8zM116 384h194c5.33301 0 8 -3 8 -9c0 -5.33301 -2.66699 -8 -8 -8h-194
c-5.33301 0 -8 2.66699 -8 8c0 6 2.66699 9 8 9zM396 230h-280c-5.33301 0 -8 3 -8 9c0 5.33301 2.66699 8 8 8h280c5.33301 0 8 -2.66699 8 -8c0 -6 -2.66699 -9 -8 -9zM396 297h-280c-5.33301 0 -8 3 -8 9c0 5.33301 2.66699 8 8 8h280c5.33301 0 8 -2.66699 8 -8
c0 -6 -2.66699 -9 -8 -9z" />
    <glyph glyph-name="uniE060" unicode="&#xe060;" 
d="M256 512c-70.667 0 -130.999 -21 -180.999 -63s-75 -92.333 -75 -151c0 -55.333 25 -104.333 75 -147l-55 -104c-2.66699 -4.66699 -2.33398 -8 0.999023 -10c2 -2 4 -3 6 -3s3.33301 0.333008 4 1l140 67c32 -9.33301 60.333 -14 85 -14c70.667 0 131 20.5 181 61.5
s75 90.5 75 148.5c0 58.667 -25 109 -75 151s-110.333 63 -181 63zM159.001 367h140c6 0 9 -3 9 -9c0 -5.33301 -3 -8 -9 -8h-140c-5.33301 0 -8 2.66699 -8 8c0 6 2.66699 9 8 9zM364.001 213h-205c-5.33301 0 -8 3 -8 9c0 5.33301 2.66699 8 8 8h205
c5.33301 0 8 -2.66699 8 -8c0 -6 -2.66699 -9 -8 -9zM364.001 282h-205c-5.33301 0 -8 2.66699 -8 8c0 6 2.66699 9 8 9h205c5.33301 0 8 -3 8 -9c0 -5.33301 -2.66699 -8 -8 -8z" />
    <glyph glyph-name="uniE061" unicode="&#xe061;" 
d="M503 256h-326.998l-77 -58c-2.66699 -1.33301 -4.33398 -2 -5.00098 -2h-2l-2 1c-3.33301 2 -5 4.66699 -5 8v51h-76c-6 0 -9 -3 -9 -9v-153c0 -6 3 -9 9 -9h295l91 -83c2.66699 -1.33301 4.66699 -2 6 -2s2.66602 0.333008 3.99902 1c3.33301 1.33301 5 4 5 8v76h93
c6 0 9 3 9 9v153c0 6 -3 9 -9 9zM503.002 495h-494c-6 0 -9 -3 -9 -9v-170c0 -6 3 -9 9 -9h93v-85l46 34l18 14l48 35l2 2h287c6 0 9 3 9 9v170c0 6 -3 9 -9 9z" />
    <glyph glyph-name="uniE062" unicode="&#xe062;" 
d="M427 469c0 6 -3 9 -9 9h-409c-6 0 -9 -3 -9 -9v-255c0 -6 3 -9 9 -9h59v-77c0 -3.33301 2 -6 6 -8h3c1.33301 0 3.33301 0.666992 6 2l83 83h39v94c0 6 2.66699 9 8 9h214v161zM503 291h-281v-180c0 -5.33301 2.66699 -8 8 -8h133l83 -91c2 -2 4 -3 6 -3h3
c4 2 6 4.66699 6 8v86h42c6 0 9 2.66699 9 8v171c0 6 -3 9 -9 9z" />
    <glyph glyph-name="uniE063" unicode="&#xe063;" 
d="M94 137c-12 0 -22.167 -4.33301 -30.5 -13s-12.5 -18.667 -12.5 -30c0 -12 4.16699 -22.167 12.5 -30.5s18.5 -12.5 30.5 -12.5s22.167 4.16699 30.5 12.5s12.5 18.5 12.5 30.5c0 11.333 -4.16699 21.333 -12.5 30s-18.5 13 -30.5 13zM34 17
c0 -4.66699 -1.66699 -8.66699 -5 -12s-7.33301 -5 -12 -5s-8.66699 1.66699 -12 5s-5 7.33301 -5 12s1.66699 8.66699 5 12s7.33301 5 12 5s8.66699 -1.66699 12 -5s5 -7.33301 5 -12zM343 512c-29.333 0 -57.166 -7.33105 -83.499 -21.998s-47.5 -35 -63.5 -61
c-20.667 13.333 -43 20 -67 20c-35.333 0 -65.666 -13 -90.999 -39s-38 -57 -38 -93c0 -36.667 12.667 -67.834 38 -93.501s55.666 -38.5 90.999 -38.5c26 -35.333 60.667 -53 104 -53c29.333 0 55.666 9 78.999 27c10 -2 20.333 -3 31 -3c47.333 0 87.333 17.167 120 51.5
s49 76.166 49 125.499c0 50 -16.333 92.333 -49 127s-72.667 52 -120 52zM146 286.002c-7.33301 0 -13.833 2.66699 -19.5 8s-8.5 12 -8.5 20c0 7.33301 2.83301 13.666 8.5 18.999s12.167 8 19.5 8s13.833 -2.66699 19.5 -8s8.5 -11.666 8.5 -18.999
c0 -8 -2.83301 -14.667 -8.5 -20s-12.167 -8 -19.5 -8zM252 286.002c-7.33301 0 -13.833 2.66699 -19.5 8s-8.5 12 -8.5 20c0 7.33301 2.83301 13.666 8.5 18.999s12.167 8 19.5 8s13.666 -2.66699 18.999 -8s8 -11.666 8 -18.999c0 -8 -2.66699 -14.667 -8 -20
s-11.666 -8 -18.999 -8zM358 286.002c-8 0 -14.667 2.66699 -20 8s-8 12 -8 20c0 7.33301 2.66699 13.666 8 18.999s12 8 20 8c7.33301 0 13.666 -2.66699 18.999 -8s8 -11.666 8 -18.999c0 -8 -2.66699 -14.667 -8 -20s-11.666 -8 -18.999 -8z" />
    <glyph glyph-name="uniE064" unicode="&#xe064;" 
d="M512 187c0 17.333 -5.66602 31.667 -16.999 43s-25.666 17 -42.999 17h-53c-24.667 -28 -55.334 -42 -92.001 -42h-66c-1.33301 -8 -2 -14 -2 -18l-1 -39c0 -16.667 5.66699 -31.167 17 -43.5s25.333 -18.833 42 -19.5h1h48l66 -65c1.33301 -2 3.33301 -3 6 -3
c1.33301 0 2.33301 0.333008 3 1c3.33301 1.33301 5 4 5 8v59h24h2c17.333 1.33301 31.666 8 42.999 20s17 26.333 17 43v39zM409.001 316.001v68.001c0 24.667 -10.167 46.5 -30.5 65.5s-44.166 28.5 -71.499 28.5h-213c-26.667 0 -49 -9 -67 -27s-27 -40.333 -27 -67v-77
c0 -24.667 8.83301 -45 26.5 -61s40.167 -24 67.5 -24h25v-85c0 -4.66699 2 -7.33398 6 -8.00098c0.666992 -0.666992 1.66699 -1 3 -1c2 0 4 1 6 3l82 91h91c27.333 0 51.166 9.5 71.499 28.5s30.5 40.833 30.5 65.5z" />
    <glyph glyph-name="uniE065" unicode="&#xe065;" 
d="M353 325c9.33301 0 19.002 -1 29.002 -3c0.666992 5.33301 1 16.333 1 33c0 43.333 -18.833 80.333 -56.5 111s-82.834 46 -135.501 46s-97.667 -15.5 -135 -46.5s-56 -68.167 -56 -111.5c0 -44 16.333 -80.333 49 -109l-39 -70
c-2.66699 -3.33301 -2.33398 -6.66602 0.999023 -9.99902c0.666992 -2 2.66699 -3 6 -3c1.33301 0 2.33301 0.333008 3 1l108 41c16 -4.66699 27 -7.33398 33 -8.00098c2 0 5 -0.166992 9 -0.5s7 -0.5 9 -0.5c7.33301 36.667 27.5 67.5 60.5 92.5s70.833 37.5 113.5 37.5z
M353.002 308c-43.333 0 -80.668 -13.6699 -112.001 -41.0029s-47 -59.666 -47 -96.999c0 -9.33301 1 -18.666 3 -27.999c7.33301 -32 25.333 -58.667 54 -80s61 -32 97 -32h1h15c0.666992 0.666992 2.33398 1 5.00098 1c1.33301 0.666992 3.16602 1 5.49902 1
s3.83301 0.333008 4.5 1c0.666992 0 1.66699 0.166992 3 0.5s2.33301 0.5 3 0.5s2 0.333008 4 1s3.66699 1 5 1c2.66699 1.33301 4.66699 2 6 2c2.66699 1.33301 6 2.66602 10 3.99902l3 -1l79 -32h3c2.66699 0 4.66699 0.666992 6 2c2.66699 2.66699 3.33398 6 2.00098 10
l-32 61c2.66699 2 5 4.33301 7 7c2 0.666992 3.33301 2 4 4l5 5c0.666992 0.666992 1.66699 2 3 4c1.33301 2.66699 2.66602 4.66699 3.99902 6c0.666992 0.666992 1.66699 2.33398 3 5.00098c1.33301 1.33301 2 3 2 5c1.33301 2.66699 2.33301 4.33398 3 5.00098
c1.33301 2.66699 2 4.33398 2 5.00098c1.33301 2.66699 2.33301 5 3 7c0 2 0.333008 3.66699 1 5c0 0.666992 0.333008 1.66699 1 3s1 2.33301 1 3c0 2.66699 0.333008 4.66699 1 6v6c0.666992 2.66699 1 6.66699 1 12c0 37.333 -15.667 69.666 -47 96.999
s-68.666 41 -111.999 41z" />
    <glyph glyph-name="uniE066" unicode="&#xe066;" 
d="M155 306c0 -4 -2.33301 -6 -7 -6c-4 0 -6 2 -6 6c0 4.66699 2 7 6 7c4.66699 0 7 -2.33301 7 -7zM370 306c0 -4 -2 -6 -6 -6c-4.66699 0 -7 2 -7 6c0 4.66699 2.33301 7 7 7c4 0 6 -2.33301 6 -7zM262 306c0 -4 -2 -6 -6 -6s-6 2 -6 6c0 4.66699 2 7 6 7s6 -2.33301 6 -7
zM256 512c-70.667 0 -131.001 -20.999 -181.001 -62.999s-75 -92.333 -75 -151c0 -56.667 24 -105.334 72 -146.001l-53 -106c-1.33301 -4 -0.666016 -7 2.00098 -9c2 -2 4 -3 6 -3s3.33301 0.333008 4 1l139 65c28 -8 56.667 -12 86 -12c70.667 0 131 20.5 181 61.5
s75 90.5 75 148.5c0 58.667 -25 109 -75 151s-110.333 63 -181 63zM147.999 278.001c-7.33301 0 -13.666 2.83301 -18.999 8.5s-8 12.167 -8 19.5c0 8 2.66699 14.667 8 20s11.666 8 18.999 8c8 0 14.667 -2.66699 20 -8s8 -12 8 -20c0 -7.33301 -2.66699 -13.833 -8 -19.5
s-12 -8.5 -20 -8.5zM255.999 278.001c-7.33301 0 -13.833 2.83301 -19.5 8.5s-8.5 12.167 -8.5 19.5c0 8 2.83301 14.667 8.5 20s12.167 8 19.5 8s13.833 -2.66699 19.5 -8s8.5 -12 8.5 -20c0 -7.33301 -2.83301 -13.833 -8.5 -19.5s-12.167 -8.5 -19.5 -8.5z
M363.999 278.001c-8 0 -14.667 2.83301 -20 8.5s-8 12.167 -8 19.5c0 8 2.66699 14.667 8 20s12 8 20 8c7.33301 0 13.666 -2.66699 18.999 -8s8 -12 8 -20c0 -7.33301 -2.66699 -13.833 -8 -19.5s-11.666 -8.5 -18.999 -8.5z" />
    <glyph glyph-name="uniE067" unicode="&#xe067;" 
d="M384 239c27.333 0 53 -8.66797 77 -26.001v273c0 6 -3 9 -9 9h-443c-6 0 -9 -3 -9 -9v-307c0 -5.33301 3 -8 9 -8h76v-69c0 -3.33301 1.66699 -5.66602 5 -6.99902c0.666992 -0.666992 2 -1 4 -1s3.66699 0.666992 5 2l100 75h72c10.667 20.667 26.167 37.167 46.5 49.5
s42.5 18.5 66.5 18.5zM384 221.999c-30.667 0 -56.834 -10.833 -78.501 -32.5s-32.5 -47.834 -32.5 -78.501s10.833 -56.834 32.5 -78.501s47.834 -32.5 78.501 -32.5s56.834 10.833 78.501 32.5s32.5 47.834 32.5 78.501s-10.833 56.834 -32.5 78.501
s-47.834 32.5 -78.501 32.5zM441 65.999c4.66699 -4.66699 4.66699 -8.66699 0 -12c-0.666992 -2 -2.66699 -3 -6 -3c-2 0 -4 1 -6 3l-45 45l-45 -45c-2 -2 -4 -3 -6 -3c-3.33301 0 -5.33301 1 -6 3c-4.66699 3.33301 -4.66699 7.33301 0 12l45 45l-45 45
c-5.33301 4 -5.33301 8 0 12c3.33301 3.33301 7.33301 3.33301 12 0l45 -45l45 45c4.66699 3.33301 8.66699 3.33301 12 0c5.33301 -4 5.33301 -8 0 -12l-45 -45z" />
    <glyph glyph-name="uniE068" unicode="&#xe068;" 
d="M391 256c25.333 0 48.668 -7.00098 70.001 -21.001c10 23.333 15 46 15 68c0 52.667 -22.833 97.834 -68.5 135.501s-100.834 56.5 -165.501 56.5s-119.667 -18.667 -165 -56s-68 -82.666 -68 -135.999c0 -50.667 22.333 -95.334 67 -134.001l-51 -94
c-2 -4 -1.66699 -7.33301 1 -10c2 -2 4 -3 6 -3s3.33301 0.333008 4 1l129 60c28 -8 53.667 -12 77 -12c10 0 17.667 0.333008 23 1c-1.33301 6.66699 -2 12 -2 16c0 35.333 12.5 65.5 37.5 90.5s55.167 37.5 90.5 37.5zM391.002 238.999
c-30.667 0 -56.667 -10.833 -78 -32.5s-32 -47.834 -32 -78.501s10.667 -56.834 32 -78.501s47.333 -32.5 78 -32.5s56.834 10.833 78.501 32.5s32.5 47.834 32.5 78.501s-10.833 56.834 -32.5 78.501s-47.834 32.5 -78.501 32.5zM449.002 82.999
c3.33301 -4.66699 3.33301 -8.66699 0 -12c-2 -2 -4 -3 -6 -3c-3.33301 0 -5.33301 1 -6 3l-46 45l-45 -45c-1.33301 -2 -3.33301 -3 -6 -3c-2 0 -4 1 -6 3c-3.33301 3.33301 -3.33301 7.33301 0 12l45 45l-45 45c-3.33301 4.66699 -3.33301 8.66699 0 12
c4.66699 4.66699 8.66699 4.66699 12 0l45 -45l46 45c3.33301 4.66699 7.33301 4.66699 12 0c3.33301 -3.33301 3.33301 -7.33301 0 -12l-45 -45z" />
    <glyph glyph-name="uniE069" unicode="&#xe069;" 
d="M401 257c6.66699 0 16.6641 -1.33398 29.9971 -4.00098c24.667 28.667 37 61.334 37 98.001c0 42.667 -15.667 80 -47 112s-67.666 48 -108.999 48h-156c-41.333 0 -77.666 -16 -108.999 -48s-47 -69.333 -47 -112c0 -42 15.167 -78 45.5 -108s66.833 -45 109.5 -45l8 -1
v-68c0 -3.33301 1.66699 -6 5 -8l2 -1h2c2.66699 0 4.33398 1 5.00098 3l83 74h42c22 40 55 60 99 60zM400.997 239.999c-26 0 -48.167 -9.16699 -66.5 -27.5s-27.5 -40.5 -27.5 -66.5s9.16699 -48.167 27.5 -66.5s40.5 -27.5 66.5 -27.5s48.167 9.16699 66.5 27.5
s27.5 40.5 27.5 66.5s-9.16699 48.167 -27.5 66.5s-40.5 27.5 -66.5 27.5zM449.997 108.999c3.33301 -3.33301 3.33301 -7.33301 0 -12c-2.66699 -1.33301 -4.66699 -2 -6 -2c-2.66699 0 -4.66699 0.666992 -6 2l-37 37l-37 -37c-1.33301 -1.33301 -3.33301 -2 -6 -2
c-1.33301 0 -3.33301 0.666992 -6 2c-3.33301 4.66699 -3.33301 8.66699 0 12l37 37l-37 37c-3.33301 3.33301 -3.33301 7.33301 0 12c4.66699 3.33301 8.66699 3.33301 12 0l37 -37l37 37c3.33301 3.33301 7.33301 3.33301 12 0c3.33301 -4.66699 3.33301 -8.66699 0 -12
l-37 -37z" />
    </font>
</defs>
</svg>
